<svg width="51" height="15" viewBox="0 0 51 15" fill="none" xmlns="http://www.w3.org/2000/svg">
<g clip-path="url(#clip0_48_494)">
<path fill-rule="evenodd" clip-rule="evenodd" d="M31.1987 7.1505C34.2569 7.03306 37.3019 6.84513 40.3539 6.65097L40.5805 6.6357C41.431 6.56164 42.2811 6.50081 43.1317 6.42663L44.1089 6.34545C44.0014 6.30355 43.897 6.26518 43.7898 6.21663C43.0844 5.90597 42.4035 5.57327 41.7074 5.20999C40.9491 4.82815 40.215 4.4004 39.509 3.92887C39.1585 3.69561 38.8015 3.46198 38.4548 3.21903C38.1263 2.98297 37.8159 2.72213 37.5269 2.43895C37.1767 2.09406 36.8466 1.72958 36.5381 1.34702C36.4333 1.2027 36.4032 1.01739 36.4568 0.847267C36.5103 0.677266 36.6412 0.542666 36.8097 0.484401C36.9782 0.426061 37.1644 0.451049 37.3115 0.551648C37.6628 0.834687 37.9962 1.14683 38.3686 1.40452C38.7411 1.66214 39.1272 1.91376 39.5275 2.14623C39.8345 2.31756 40.1385 2.4854 40.46 2.63085C40.7817 2.77632 41.1975 2.96299 41.5572 3.14356C42.2618 3.46734 42.9817 3.75225 43.6944 4.04986C44.4069 4.34759 45.0809 4.62338 45.7826 4.87404C46.4843 5.12474 47.2071 5.34985 47.9075 5.62708C48.4776 5.85127 49.062 6.05634 49.6483 6.22152C49.873 6.30345 50.0525 6.47646 50.143 6.69765C50.2395 6.92026 50.239 7.17291 50.1416 7.39502C50.1354 7.45008 50.1227 7.50404 50.1038 7.55598C50.0539 7.71287 49.9618 7.85308 49.838 7.9613C49.7813 8.02208 49.7196 8.07794 49.6537 8.1282L49.3619 8.31634C49.0255 8.53882 48.6763 8.74727 48.3239 8.95243C47.9717 9.15751 47.6355 9.37341 47.2808 9.56167L46.2994 10.0643C45.9721 10.2342 45.6486 10.394 45.3091 10.5433L44.234 10.9917C43.5079 11.301 42.7751 11.6102 42.0258 11.8521C41.2764 12.0939 40.5475 12.3932 39.7964 12.6051C39.2818 12.7357 38.7334 12.878 38.1897 12.9904C38.052 13.024 37.9064 12.9987 37.7884 12.9201C37.6703 12.8414 37.5906 12.717 37.5687 12.577C37.5467 12.4369 37.5845 12.2939 37.6728 12.183C37.761 12.072 37.8918 12.003 38.0332 11.993L38.729 11.825C39.8092 11.4453 40.8583 10.9819 41.8667 10.4392C42.9559 9.90856 44.0305 9.3341 45.0731 8.73818L45.8093 8.29296C44.5747 8.4742 43.3334 8.59203 42.0891 8.69983C41.3292 8.75512 40.5946 8.83175 39.8454 8.8709L37.1412 9.01595C36.4383 9.05747 35.7371 9.06596 35.0348 9.09428L32.6761 9.17328C31.9613 9.18772 31.2639 9.18633 30.5561 9.19443L27.7743 9.23258C27.2757 9.24115 26.7781 9.2297 26.2832 9.22839C26.2832 9.22839 19.5497 9.0711 16.5747 8.98675C13.5997 8.90236 10.6201 8.76869 7.6029 8.59592C5.96017 8.50123 4.53484 8.32709 2.8953 8.21265C1.48864 8.11312 -0.400034 7.27087 0.36636 7.00493C1.59944 7.0527 2.86509 7.18517 4.04038 6.92459C4.63715 6.94749 5.23376 6.97043 5.83085 6.98685C7.20835 7.00525 8.62254 7.08543 10.0167 7.10133C11.5501 7.12422 13.0865 7.15052 14.6207 7.15347C14.6207 7.15347 18.9014 7.40288 22.113 7.38489C22.6245 7.38373 23.1301 7.36889 23.6388 7.35758L26.8534 7.30099C28.2933 7.26905 29.7444 7.20809 31.1987 7.1505Z" fill="#F2BD9E"/>
</g>
<defs>
<clipPath id="clip0_48_494">
<rect width="50.4087" height="14.3195" fill="white"/>
</clipPath>
</defs>
</svg>
