<svg width="252" height="278" viewBox="0 0 252 278" fill="none" xmlns="http://www.w3.org/2000/svg">
<path fill-rule="evenodd" clip-rule="evenodd" d="M157.478 106.18C146.13 100.501 134.701 101.019 128.038 101.949C134.108 109.657 138.894 118.294 142.211 127.528C148.006 144.055 149.079 161.87 145.311 178.974C146.548 169.016 146.294 158.929 144.558 149.046C143.294 142.019 141.305 135.142 138.625 128.525C134.87 119.236 129.828 110.521 123.647 102.636C114.185 101.688 104.637 103.191 95.924 107.001C74.144 116.663 66.924 137.401 65.8 140.811C58.88 161.792 66.654 179.796 69.99 186.273C79.656 205.041 99.831 219.789 123.828 220.253C136.9 220.418 149.693 216.473 160.401 208.975C171.11 201.477 179.193 190.805 183.509 178.465C192.924 150.762 181.017 117.961 157.478 106.18Z" fill="#352677"/>
<path fill-rule="evenodd" clip-rule="evenodd" d="M125.772 238.552C145.098 238.521 163.833 231.889 178.875 219.754C193.916 207.619 204.359 190.709 208.475 171.826C212.592 152.944 210.133 133.222 201.507 115.928C192.881 98.6334 178.606 84.8051 161.046 76.7339L161.02 60.2639C161.019 59.6057 160.888 58.954 160.635 58.3463C160.382 57.7386 160.012 57.1867 159.545 56.7223C159.079 56.2579 158.525 55.8901 157.916 55.6398C157.308 55.3896 156.655 55.2618 155.997 55.2639L94.997 55.3539C93.6672 55.3574 92.3931 55.8883 91.4543 56.8303C90.5156 57.7722 89.9889 59.0481 89.99 60.3779L90.01 76.8449C72.4759 84.9696 58.2435 98.8408 49.6708 116.16C41.0981 133.48 38.6996 153.208 42.8726 172.077C47.0455 190.947 57.5396 207.824 72.6161 219.913C87.6927 232.003 106.447 238.579 125.772 238.552Z" stroke="#FF7622" stroke-width="7" stroke-miterlimit="10"/>
<path fill-rule="evenodd" clip-rule="evenodd" d="M97.83 41.2219H152.767C153.558 41.2243 154.315 41.5394 154.874 42.0985C155.433 42.6576 155.749 43.4152 155.751 44.2059V45.2959C155.749 46.0866 155.433 46.8442 154.874 47.4033C154.315 47.9624 153.558 48.2775 152.767 48.2799H97.83C97.0393 48.2778 96.2815 47.9628 95.7223 47.4036C95.1632 46.8444 94.8481 46.0867 94.846 45.2959V44.2059C94.8481 43.4152 95.1632 42.6574 95.7223 42.0983C96.2815 41.5391 97.0393 41.224 97.83 41.2219Z" fill="#352677"/>
<path fill-rule="evenodd" clip-rule="evenodd" d="M97.83 30.9319H152.767C153.558 30.9343 154.315 31.2494 154.874 31.8085C155.433 32.3676 155.749 33.1252 155.751 33.9159V35.0059C155.749 35.7966 155.433 36.5542 154.874 37.1133C154.315 37.6724 153.558 37.9875 152.767 37.9899H97.83C97.0393 37.9875 96.2817 37.6724 95.7226 37.1133C95.1635 36.5542 94.8484 35.7966 94.846 35.0059V33.9159C94.8484 33.1252 95.1635 32.3676 95.7226 31.8085C96.2817 31.2494 97.0393 30.9343 97.83 30.9319Z" fill="#352677"/>
<path fill-rule="evenodd" clip-rule="evenodd" d="M98.342 20.6429H153.278C154.069 20.6453 154.826 20.9605 155.385 21.5196C155.945 22.0787 156.26 22.8363 156.262 23.6269V24.7169C156.26 25.5076 155.945 26.2652 155.385 26.8243C154.826 27.3834 154.069 27.6986 153.278 27.7009H98.342C97.5514 27.6986 96.7937 27.3834 96.2346 26.8243C95.6755 26.2652 95.3604 25.5076 95.358 24.7169V23.6269C95.3604 22.8363 95.6755 22.0787 96.2346 21.5196C96.7937 20.9605 97.5514 20.6453 98.342 20.6429Z" fill="#352677"/>
<path fill-rule="evenodd" clip-rule="evenodd" d="M101.5 17.06C101.5 7.638 112.283 0 125.586 0C138.889 0 149.672 7.638 149.672 17.06H101.5Z" fill="#352677"/>
<path fill-rule="evenodd" clip-rule="evenodd" d="M17.281 99.25L28.598 104.888C30.798 105.988 33.861 105.554 35.063 103.144C35.072 103.125 35.082 103.105 35.091 103.081C36.191 100.881 35.758 97.816 33.351 96.618C29.5737 94.738 25.8007 92.8586 22.032 90.98C21.2888 90.5453 20.4405 90.3231 19.5797 90.3377C18.7188 90.3523 17.8785 90.603 17.1504 91.0626C16.4224 91.5222 15.8345 92.1729 15.4511 92.9438C15.0676 93.7147 14.9033 94.5761 14.976 95.434C14.9734 96.2202 15.1871 96.992 15.5936 97.6651C16.0001 98.3381 16.5839 98.8864 17.281 99.25Z" fill="#FF7622"/>
<path fill-rule="evenodd" clip-rule="evenodd" d="M216.49 103.076C217.712 105.488 220.79 105.853 222.974 104.751C226.743 102.862 230.509 100.973 234.274 99.0819C234.966 98.7181 235.544 98.1697 235.944 97.4976C236.343 96.8254 236.549 96.0558 236.538 95.2739C236.608 94.3199 236.393 93.3665 235.92 92.5349C234.77 90.2199 231.537 89.6209 229.437 90.8599C225.668 92.7513 221.901 94.6399 218.137 96.5259C215.727 97.7409 215.36 100.836 216.462 103.013C216.473 103.033 216.482 103.054 216.49 103.076Z" fill="#FF7622"/>
<path fill-rule="evenodd" clip-rule="evenodd" d="M32.99 249.215C33.022 249.243 33.058 249.269 33.09 249.297C34.931 250.776 38.064 251.416 39.79 249.253C42.4113 245.955 45.0343 242.655 47.659 239.353C49.265 237.336 49.6 234.611 47.612 232.653C47.5025 232.546 47.3863 232.445 47.264 232.353C45.49 230.94 42.43 230.802 40.896 232.688C38.25 235.965 35.601 239.242 32.949 242.519C31.454 244.363 30.832 247.488 32.99 249.215Z" fill="#FF7622"/>
<path fill-rule="evenodd" clip-rule="evenodd" d="M212.396 229.621C215.019 232.92 217.643 236.217 220.27 239.51C222.002 241.695 225.156 240.924 226.97 239.468C227.003 239.442 227.031 239.415 227.07 239.39C229.235 237.651 228.496 234.502 227.022 232.69C224.367 229.42 221.71 226.148 219.05 222.875C218.605 222.366 218.039 221.976 217.404 221.744C216.768 221.511 216.085 221.441 215.416 221.542C214.268 221.64 213.187 222.128 212.355 222.925C211.635 223.629 211.179 224.559 211.062 225.559C211.004 226.291 211.092 227.027 211.321 227.724C211.55 228.421 211.916 229.066 212.396 229.621Z" fill="#FF7622"/>
<path fill-rule="evenodd" clip-rule="evenodd" d="M130.648 278.001C130.674 278.001 130.698 278.001 130.719 277.995C131.97 277.99 133.169 277.495 134.06 276.616C134.95 275.738 135.462 274.546 135.484 273.295C135.479 269.079 135.473 264.863 135.465 260.648C135.459 259.395 134.962 258.195 134.081 257.305C133.2 256.414 132.005 255.904 130.753 255.885C130.727 255.885 130.706 255.885 130.685 255.885C129.52 255.85 128.389 256.273 127.532 257.063C127.007 257.484 126.588 258.023 126.309 258.635C126.03 259.248 125.899 259.917 125.926 260.59C125.926 264.807 125.933 269.02 125.946 273.231C125.949 274.483 126.444 275.684 127.323 276.576C128.202 277.468 129.396 277.98 130.648 278.001Z" fill="#FF7622"/>
<path fill-rule="evenodd" clip-rule="evenodd" d="M0 167.297C0.00331076 167.32 0.00531384 167.344 0.006 167.368C0.0115423 168.619 0.506471 169.818 1.38487 170.708C2.26326 171.599 3.45535 172.11 4.706 172.133C8.92067 172.129 13.1363 172.123 17.353 172.114C18.6055 172.108 19.8056 171.611 20.696 170.73C21.5863 169.849 22.0961 168.654 22.116 167.402C22.1147 167.379 22.1147 167.357 22.116 167.334C22.1504 166.169 21.7276 165.038 20.938 164.181C20.5168 163.656 19.9783 163.237 19.3657 162.958C18.7531 162.679 18.0836 162.548 17.411 162.575C13.1943 162.575 8.98067 162.582 4.77 162.595C3.51763 162.598 2.31649 163.092 1.42459 163.972C0.532694 164.851 0.0212048 166.045 0 167.297Z" fill="#FF7622"/>
<path fill-rule="evenodd" clip-rule="evenodd" d="M228.915 162.456C228.916 162.48 228.916 162.503 228.915 162.527C228.921 163.778 229.415 164.977 230.294 165.867C231.172 166.758 232.364 167.269 233.615 167.292C237.83 167.287 242.046 167.281 246.262 167.273C247.515 167.267 248.715 166.77 249.605 165.889C250.496 165.008 251.005 163.813 251.025 162.561C251.024 162.538 251.024 162.516 251.025 162.493C251.059 161.328 250.637 160.197 249.847 159.34C249.426 158.815 248.887 158.396 248.275 158.117C247.662 157.838 246.993 157.707 246.32 157.734C242.103 157.734 237.889 157.741 233.678 157.754C232.427 157.759 231.227 158.254 230.337 159.133C229.446 160.012 228.936 161.205 228.915 162.456Z" fill="#FF7622"/>
<path fill-rule="evenodd" clip-rule="evenodd" d="M126.134 77.352C127.848 75.252 130.27 73.895 132.541 72.422C134.269 71.3904 135.807 70.0714 137.091 68.522C137.519 67.9707 137.878 67.3689 138.159 66.73C140.571 70.6275 141.519 75.2561 140.831 79.788C139.931 85.169 136.439 91.025 132.218 92.473C131.85 92.599 131.235 92.773 130.055 93.139C128.707 93.555 128.036 93.768 127.617 93.91C125.819 94.4578 124.097 95.2306 122.493 96.21C120.945 97.195 120.2 98.027 119.982 97.844C119.741 97.644 120.576 96.583 121.243 94.744C121.681 93.3733 121.966 91.9584 122.093 90.525C122.528 87.617 122.754 86.165 122.951 85.155C123.357 82.3325 124.45 79.6529 126.134 77.352Z" fill="#779A3A"/>
</svg>
