<svg width="12" height="9" viewBox="0 0 12 9" fill="none" xmlns="http://www.w3.org/2000/svg">
<path d="M10.2931 0.292458L4.00206 6.58746L1.70806 4.29246C1.52042 4.10482 1.26592 3.9994 1.00056 3.9994C0.735192 3.9994 0.480697 4.10482 0.293056 4.29246C0.105415 4.4801 0 4.73459 0 4.99996C0 5.26532 0.105415 5.51982 0.293056 5.70746L3.29306 8.70746C3.48058 8.89493 3.73489 9.00025 4.00006 9.00025C4.26522 9.00025 4.51953 8.89493 4.70706 8.70746L11.7071 1.70746C11.8947 1.51995 12.0002 1.26558 12.0003 1.00031C12.0004 0.735042 11.8951 0.480599 11.7076 0.292958C11.52 0.105318 11.2657 -0.00015031 11.0004 -0.000244078C10.7351 -0.000337846 10.4807 0.10495 10.2931 0.292458Z" fill="#28a745"/>
</svg>
