<svg width="10" height="11" viewBox="0 0 10 11" fill="none" xmlns="http://www.w3.org/2000/svg">
<path d="M3.45515 10.0487C3.21726 10.0022 2.98091 9.97636 2.75582 9.90826C2.16884 9.73848 1.66612 9.33216 1.35311 8.77451C1.02568 8.22911 0.726291 7.66502 0.456268 7.08476C0.19834 6.53197 0.0462828 5.92962 0.00902777 5.31309C-0.0282273 4.69657 0.0500713 4.07829 0.239324 3.49458C0.429863 2.87472 0.745552 2.30728 1.16401 1.8325C1.58246 1.35773 2.09344 0.987243 2.6607 0.747317C3.18275 0.52415 3.72972 0.374574 4.28784 0.302355C4.62791 0.249892 4.96044 0.142991 5.30002 0.0853792C6.34163 -0.127527 7.42006 0.0607282 8.34435 0.616807C9.06393 1.07086 9.59373 1.80235 9.82499 2.66111C10.111 3.65314 10.0447 4.72322 9.63869 5.66616C9.57611 5.87966 9.52635 6.09721 9.48971 6.3175C9.19113 7.64918 8.52358 8.85337 7.57448 9.7724C7.04153 10.2783 6.39307 10.6245 5.69477 10.7761C5.36524 10.85 5.02517 10.8524 4.69478 10.7829C4.36439 10.7135 4.05043 10.5736 3.77158 10.3718C3.70852 10.3284 3.64546 10.2849 3.58067 10.2446C3.50262 10.1963 3.43629 10.1421 3.45515 10.0487ZM3.6586 10.0406L3.91523 10.2196C4.19411 10.4183 4.51022 10.5493 4.84142 10.6035C5.17262 10.6577 5.5109 10.6338 5.83254 10.5334C6.50384 10.3469 7.11844 9.97732 7.61635 9.46083C8.30085 8.7406 8.81877 7.85942 9.1289 6.8874C9.17734 6.74614 9.21736 6.60168 9.26129 6.4587C9.2475 6.46262 9.23458 6.46947 9.22331 6.47884C9.21205 6.48822 9.20266 6.49993 9.19572 6.51327C8.95849 6.88448 8.68565 7.22817 8.38165 7.53872C8.30438 7.62525 8.23189 7.71652 8.16455 7.81208C8.00274 8.02222 7.85655 8.24888 7.67754 8.44053C7.20699 8.91828 6.62139 9.24647 5.98634 9.38832C5.81247 9.43418 5.63613 9.47158 5.46544 9.52832C5.0905 9.653 4.72161 9.79957 4.344 9.9135C4.11781 9.96889 3.88902 10.0113 3.6586 10.0406ZM9.66993 4.92484C9.67998 4.89246 9.69218 4.86059 9.69981 4.82769C9.83736 4.26285 9.85016 3.67152 9.7372 3.10047C9.6 2.30344 9.20376 1.58397 8.61854 1.06928C7.75353 0.379785 6.66998 0.0812543 5.60122 0.237975L5.62417 0.265534L5.69967 0.285806C6.38584 0.421135 7.04416 0.685451 7.64411 1.0665C8.4746 1.58599 9.1018 2.4088 9.41033 3.38357C9.5601 3.88281 9.64739 4.40108 9.66993 4.92484ZM8.5952 7.00752C8.91554 6.62483 9.18427 6.19609 9.39359 5.73377C9.40901 5.69299 9.41821 5.64982 9.42084 5.60592C9.46693 5.21149 9.46924 4.81261 9.42771 4.41761C9.34975 3.4529 8.95129 2.54999 8.30454 1.87251C8.13416 1.69725 7.94491 1.54303 7.76433 1.37914C8.41767 2.11799 8.8467 3.05103 8.99502 4.0556C9.14335 5.06017 9.00387 6.08924 8.5952 7.00752ZM2.84813 0.883623C2.25968 1.11394 1.72972 1.48824 1.30057 1.97664C0.871427 2.46505 0.554977 3.05402 0.376496 3.69653C0.203249 4.27546 0.151563 4.88814 0.225126 5.49089C0.283461 6.09079 0.457324 6.67127 0.735758 7.19574C0.696856 6.98504 0.663585 6.78021 0.620717 6.57771C0.516307 6.12133 0.476779 5.65073 0.503465 5.18175C0.505555 5.14985 0.504276 5.1178 0.499651 5.08621C0.417908 4.58288 0.429367 4.06726 0.533376 3.56865C0.610588 3.13094 0.78805 2.72054 1.04988 2.37418C1.31171 2.02781 1.64973 1.7563 2.0337 1.58394C2.09067 1.56495 2.1447 1.53701 2.194 1.50103C2.41542 1.29818 2.63143 1.08926 2.84813 0.883623ZM1.55152 8.70948C1.84541 9.2065 2.30244 9.56797 2.83281 9.72286C3.36984 9.86754 3.9337 9.85173 4.46292 9.67716C4.61613 9.63389 4.76753 9.58325 4.91975 9.536L4.91339 9.4939C4.3333 9.65897 3.72621 9.68441 3.13582 9.56838C2.54775 9.43172 2.00227 9.136 1.55152 8.70948ZM3.4798 0.995058C4.38306 0.768004 5.3172 0.717177 6.23734 0.845021C5.80442 0.614339 5.32321 0.506954 4.84018 0.533236C4.35714 0.559518 3.8886 0.718578 3.4798 0.995058ZM4.50578 9.01257L4.52395 9.06027C5.29027 9.04605 6.02763 8.74464 6.60753 8.20856L4.50578 9.01257ZM8.1318 3.98022C8.12205 4.37393 8.14097 4.76786 8.18838 5.15843C8.1979 5.21395 8.19742 5.27089 8.18699 5.32622C8.13973 5.59339 8.08672 5.85939 8.03864 6.1264C8.02384 6.20863 8.01806 6.29273 8.00416 6.40925C8.19688 6.04147 8.30855 5.63148 8.33067 5.21053C8.35279 4.78958 8.28477 4.36879 8.1318 3.98022ZM0.656501 4.12764C0.892297 3.34208 1.26581 2.61176 1.75708 1.97572C1.42555 2.21349 1.15245 2.53319 0.960873 2.90776C0.7693 3.28233 0.664897 3.70076 0.656501 4.12764ZM2.86869 3.22265L4.5389 2.59851C4.46342 2.55144 4.37991 2.52095 4.29328 2.50883C4.20665 2.49671 4.11862 2.5032 4.03436 2.52791C3.60529 2.67132 3.20847 2.90783 2.86869 3.22265ZM1.10204 6.04658C1.11056 6.00972 1.11588 5.9721 1.11794 5.9342C1.14656 5.58031 1.14938 5.22457 1.12635 4.87021C1.10179 4.60517 1.09898 4.33834 1.11797 4.07278C0.986663 4.38237 0.917411 4.71795 0.914669 5.0579C0.911926 5.39786 0.975754 5.7346 1.10204 6.04658ZM2.56749 8.82613L1.50862 7.49426C1.54986 7.80044 1.67114 8.08793 1.85848 8.32358C2.04582 8.55924 2.2916 8.73341 2.56749 8.82613ZM3.34477 2.14749C3.52388 2.18229 3.70842 2.16538 3.87938 2.09849C4.1187 1.98249 4.3744 1.90506 4.63306 1.80729C4.5389 1.77355 4.45159 1.7386 4.36216 1.7116C4.3081 1.68637 4.24884 1.67656 4.19018 1.68313C3.88477 1.78287 3.59848 1.94006 3.34477 2.14749ZM5.83257 1.00539C6.52544 1.21289 7.16459 1.58761 7.70088 2.10073C7.48824 1.77776 7.20932 1.51115 6.88548 1.3213C6.56164 1.13145 6.20147 1.02335 5.83257 1.00539ZM6.28145 9.03323L6.30185 9.06998C6.80174 8.91998 7.25108 8.62015 7.59685 8.20587L6.28145 9.03323ZM0.830062 6.32838C0.848404 6.81521 0.999991 7.28556 1.26601 7.68105C1.20359 7.47908 1.15571 7.27229 1.12278 7.06251C1.05798 6.80429 0.959435 6.55714 0.830062 6.32838ZM1.41941 6.03288C1.37211 6.52677 1.50431 7.02118 1.7886 7.41362L1.41941 6.03288ZM6.32771 3.04282C6.03338 2.84055 5.70994 2.69148 5.37035 2.60158C5.29847 2.59581 5.22619 2.60077 5.15559 2.61632C5.51928 2.83235 5.9163 2.97681 6.32771 3.04282ZM5.36702 2.20685L5.37695 2.16151C5.2657 2.11695 5.15153 2.08123 5.03537 2.05464C4.93488 2.04309 4.83332 2.04836 4.73435 2.07025C4.52431 2.10882 4.31612 2.15892 4.10717 2.20429L4.11443 2.26906C4.52472 2.16531 4.94951 2.14422 5.36702 2.20685ZM7.66894 3.75719C7.56121 3.22273 7.26775 2.75197 6.8479 2.44015C7.18601 2.82907 7.46327 3.2738 7.66894 3.75719ZM6.32247 8.00483C6.60615 7.92985 6.87273 7.79428 7.10618 7.60628C7.33963 7.41827 7.53513 7.18171 7.68093 6.91082C7.37983 7.34678 6.96996 7.68313 6.49833 7.88131C6.43607 7.91623 6.37717 7.9576 6.32247 8.00483ZM4.61804 1.56506C4.8656 1.73054 5.16408 1.78521 5.449 1.71726C5.19203 1.58029 4.90297 1.52735 4.61804 1.56506ZM8.39694 3.88793C8.34691 3.35617 8.11917 2.86159 7.75555 2.49507C8.03647 2.92041 8.25288 3.39047 8.39694 3.88793ZM7.36559 5.35313C7.41892 5.16733 7.43409 4.97139 7.41005 4.77874C7.38602 4.58609 7.32335 4.40127 7.22633 4.23693C7.15522 4.45391 7.29723 4.6124 7.31385 4.79544L7.36559 5.35313ZM6.77464 2.74068C6.6614 2.54037 6.50866 2.36891 6.32709 2.23826C6.14551 2.10762 5.93947 2.02092 5.72335 1.98424C6.12382 2.14591 6.48364 2.40489 6.77464 2.74068ZM6.18693 3.8171C6.03929 3.43173 5.78556 3.21754 5.54209 3.23797L6.18693 3.8171ZM5.87611 7.64452C6.23137 7.50607 6.53813 7.25391 6.75466 6.92235C6.46342 7.1616 6.16977 7.40306 5.87611 7.64452ZM7.26175 2.44902C6.95441 2.09426 6.57147 1.8242 6.14555 1.66185L7.26175 2.44902ZM2.82418 2.7229L2.84286 2.75204L3.34689 2.38817C3.04751 2.30808 2.9299 2.5056 2.82418 2.7229ZM5.01057 1.12677L5.00394 1.18758L5.82328 1.35598L5.83279 1.30514L5.01057 1.12677ZM4.76717 7.43328C5.01824 7.40408 5.25595 7.29743 5.45136 7.1263L5.43529 7.0901L4.76717 7.43328ZM1.92934 3.48532L1.97939 3.51165L2.35221 2.65923L2.32194 2.64304L1.92934 3.48532ZM7.81825 7.44986L7.86151 7.48412L8.32879 6.80803L8.29246 6.77914L7.81825 7.44986ZM6.5712 3.53312L7.01959 4.05943C6.99128 3.74547 6.74458 3.6727 6.5712 3.53312ZM2.65053 9.17319L2.64529 9.20752L3.27197 9.40108L3.28047 9.36977C3.08142 9.26933 2.86884 9.203 2.65053 9.17319ZM4.67553 5.53795C4.47763 5.5497 4.3899 5.66279 4.45553 5.7863C4.60442 5.78468 4.58858 5.62632 4.67553 5.53795ZM1.84342 4.89579C1.77719 5.08961 1.77719 5.30225 1.84342 5.49607V4.89579ZM6.75054 4.44993L6.7859 4.42467L6.50169 3.9742L6.45362 4.00982L6.75054 4.44993ZM2.60706 3.70201C2.52936 3.73834 2.46529 3.80149 2.42509 3.88136C2.38489 3.96123 2.37088 4.05321 2.3853 4.1426L2.60706 3.70201ZM3.08418 7.34801L3.10628 7.30341C2.99622 7.17688 2.88577 7.05074 2.77493 6.925L2.7561 6.94278L3.08418 7.34801ZM3.95879 6.37071L3.75226 6.07038L3.72468 6.09331C3.7908 6.18389 3.77433 6.34124 3.95879 6.37071ZM4.23604 8.91036L4.22696 8.86328L3.86973 8.95198L3.87823 8.99408L4.23604 8.91036ZM2.75183 1.5887L2.73236 1.55715L2.37601 1.84716L2.39381 1.87222L2.75183 1.5887ZM3.81227 3.36631L3.82074 3.39869L4.22081 3.28859L4.21079 3.24888L3.81227 3.36631ZM7.39344 6.57418L7.42796 6.59909L7.64826 6.22751L7.62162 6.20918L7.39344 6.57418ZM3.17097 4.94411L3.12644 4.92947L3.04046 5.23771L3.08012 5.25086L3.17097 4.94411ZM2.43552 5.70777L2.46277 5.71402V5.34898L2.43552 5.3495V5.70777ZM7.10899 1.12732L7.08931 1.14924L7.41863 1.4202L7.4368 1.39429L7.10899 1.12732ZM1.89883 2.47363L1.876 2.45378L1.68273 2.80094L1.71104 2.81895L1.89883 2.47363Z" fill="#342574"/>
</svg>
