<svg width="19" height="19" viewBox="0 0 19 19" fill="none" xmlns="http://www.w3.org/2000/svg">
<path d="M8.96572 17.9314C4.02364 17.9314 0 13.9078 0 8.96572C0 4.02364 4.02364 0 8.96572 0C13.9078 0 17.9314 4.02364 17.9314 8.96572C17.9314 13.9078 13.9078 17.9314 8.96572 17.9314ZM8.96572 1.31206C4.7409 1.31206 1.31206 4.74965 1.31206 8.96572C1.31206 13.1818 4.7409 16.6194 8.96572 16.6194C13.1905 16.6194 16.6194 13.1818 16.6194 8.96572C16.6194 4.74965 13.1905 1.31206 8.96572 1.31206Z" fill="#292D32"/>
<path d="M18.1504 18.8061C17.9843 18.8061 17.8181 18.7448 17.6869 18.6136L15.9374 16.8642C15.6838 16.6106 15.6838 16.1907 15.9374 15.937C16.1911 15.6834 16.611 15.6834 16.8646 15.937L18.614 17.6865C18.8677 17.9401 18.8677 18.36 18.614 18.6136C18.4828 18.7448 18.3166 18.8061 18.1504 18.8061Z" fill="#292D32"/>
</svg>
