<svg width="40" height="32" viewBox="0 0 40 32" fill="none" xmlns="http://www.w3.org/2000/svg">
<path d="M38.602 0C39.424 0 40 0.626 40 1.326C40 1.822 39.71 2.356 39.006 2.73C35.43 4.626 31.29 11.182 31.29 15.226C37.322 15.042 39.942 20.39 39.942 23.742C39.942 27.756 36.466 32 31.326 32C24.846 32 21.666 26.906 21.666 21.386C21.666 9.426 35.334 0 38.602 0ZM16.936 0C17.756 0 18.334 0.626 18.334 1.326C18.334 1.822 18.044 2.356 17.34 2.73C13.764 4.626 9.624 11.182 9.624 15.226C15.656 15.042 18.276 20.39 18.276 23.742C18.276 27.756 14.798 32 9.66 32C3.178 32 0 26.906 0 21.386C0 9.426 13.666 0 16.936 0Z" fill="#635794"/>
</svg>
