<svg width="847" height="36" viewBox="0 0 847 36" fill="none" xmlns="http://www.w3.org/2000/svg">
<path d="M843.506 12.0905C843.971 11.8892 844.539 11.7656 845.007 11.7612C845.16 11.6416 845.104 11.4452 844.996 11.2494C845.248 10.8925 844.98 10.4225 844.098 10.4309C842.94 9.57561 841 8.64895 839.699 8.3857C837.568 8.36657 836.849 8.72784 836.495 9.20376C835.672 9.60539 834.852 10.1645 834.499 10.7979C834.291 10.6818 834.133 10.6045 833.872 10.5282L832.585 11.2099L832.011 11.0185C832.319 10.858 832.526 10.6986 832.676 10.5002L831.06 10.1612C831.06 10.1612 831.164 10.1602 831.217 10.1597L831.113 10.1607C831.113 10.1607 831.477 10.1572 831.53 10.2355C831.637 10.3526 831.641 10.5888 831.539 10.7867L829.189 9.98211L829.191 10.1396C829.191 10.1396 828.821 9.78869 828.559 9.67306C826.987 8.9398 824.413 9.98817 822.084 10.5222C821.721 10.5257 821.41 10.5287 821.151 10.5311L821.96 9.42079C821.96 9.42079 821.49 9.26776 821.229 9.1521C819.031 8.30667 817.167 8.52131 815.41 9.04994C815.151 9.0524 814.892 9.01551 814.524 8.82209C814.315 8.70596 814.417 8.62622 814.623 8.5455L814.519 8.54649C814.519 8.54649 814.519 8.54649 814.57 8.54599L812.453 9.07809C812.81 8.72028 812.016 7.97962 813.368 8.16364C813.368 8.16364 813.266 8.16462 813.213 8.16511C813.213 8.16511 813.266 8.16462 813.317 8.16412C809.357 7.37485 807.062 9.56255 805.535 8.43508L805.843 8.31399C805.843 8.31399 805.688 8.31548 805.637 8.31597L805.843 8.23525C805.532 8.27759 805.377 8.31844 805.118 8.36028L804.697 8.08863L804.548 8.48384C803.462 8.69107 803.156 8.93027 803.109 9.16699C801.896 8.27278 801.207 7.41302 798.566 7.79256C797.169 8.0815 795.77 8.29169 794.32 8.42364C793.845 8.11311 793.683 7.76024 794.978 7.62977C794.978 7.62977 794.927 7.63027 794.876 7.63076C794.876 7.63076 794.876 7.63076 794.927 7.63028C789.921 6.49651 795.983 8.56532 790.843 8.53547L791.207 8.53201C791.207 8.53201 791.051 8.57288 790.894 8.53499L791.051 8.5335C787.262 8.60893 783.362 8.33099 779.515 8.01319C779.513 7.97382 779.513 7.93444 779.511 7.8557C779.404 7.69921 778.987 7.58504 778.777 7.42952C778.777 7.42952 778.774 7.39016 778.774 7.35077C778.774 7.35077 778.774 7.31141 778.772 7.27203C777.998 7.51567 777.639 7.67662 777.746 7.79375C773.169 7.4435 768.595 7.17198 764.089 7.76615C764.238 7.41033 764.599 7.32813 765.269 7.08547C755.22 11.0009 749.81 2.27077 740.781 5.31011L741.364 5.93463C736.788 5.50563 741.999 6.55867 738.642 7.45696C738.032 5.41504 732.846 5.77941 730.234 4.97728C730.66 5.40643 731.54 5.35866 732.325 5.66622C731.815 6.10425 731.631 7.32676 730.325 6.9454C727.464 3.97978 721.185 4.15765 716.544 3.17794C715.948 4.52252 711.97 5.6236 709.884 7.76996C709.407 7.26256 708.555 6.24678 707.81 5.23001C706.112 6.07313 704.853 5.37628 703.695 4.56034C705.15 4.62525 706.449 4.69164 707.489 4.72115L707.382 4.56464C707.382 4.56464 707.799 4.67881 708.008 4.75558C708.997 4.82494 709.569 4.93762 709.312 5.01884C711.21 3.78001 709.187 3.99614 709.314 2.41978C707.808 2.4341 704.682 1.83377 704.289 3.01889C703.354 3.02778 702.786 3.19071 701.804 3.39694C701.227 3.16615 700.602 3.01459 699.93 3.13912L700.245 3.29365C700.145 3.53086 699.992 3.65046 699.837 3.77006C696.89 4.3888 692.691 1.98723 690.281 0.868157C692.709 2.8928 689.649 3.07942 689.624 4.49732C689.363 4.38167 692.371 4.35302 696.163 4.39572C695.908 4.55567 695.651 4.79438 695.609 5.30671C692.314 6.75573 690.026 3.86341 685.321 4.89266C685.635 5.04718 686.214 5.3961 686.017 5.90991C684.363 6.31945 682.782 5.1531 682.403 4.29037C681.961 5.67285 678.398 6.69122 676.62 6.03868C675.041 4.87235 675.29 4.35803 672.436 4.46393L673.702 5.47577C670.343 6.29532 670.975 4.00531 668.239 4.81893C669.321 4.41483 669.445 5.4769 668.618 5.68166C665.128 5.12416 665.066 4.57345 662.536 2.58916L662.981 4.16011C660.004 3.20395 654.412 1.28819 654.347 3.3759C655.272 0.177369 647.875 1.62602 645.281 1.69009C646.166 1.79981 646.334 2.46766 646.445 2.82102C641.004 0.667542 635.487 2.68899 629.984 2.70198L629.146 5.03334C626.237 4.94289 625.421 0.303873 622.257 0.412745L623.419 1.54367C617.858 1.2028 615.576 1.38202 611.068 1.81872L611.097 3.39361C609.525 2.66035 607.554 2.67912 605.878 1.94685C602.213 5.80152 591.25 -0.00109667 584.532 4.27644L584.06 1.36684C581.465 1.47028 578.184 0.910811 576.98 3.1275L577.552 3.12207C577.854 5.32446 574.956 3.14677 573.357 3.67392C572.157 3.44905 570.885 2.00413 571.965 1.52129C565.142 3.08263 554.938 1.68329 550.732 4.36173C543.863 3.482 538.626 1.20842 531.26 1.59353L531.371 1.94689C528.887 2.4037 523.867 3.27842 523.967 5.719C518.61 5.25803 515.171 1.9435 508.808 3.14605L510.227 4.03827C508.628 4.56542 506.009 3.40895 505.382 3.13928C504.812 3.18407 505.236 3.69197 505.346 4.00595C503.856 4.88647 502.896 3.5567 501.699 3.33183L502.233 4.15371C497.18 5.93449 489.123 2.74265 482.644 3.27686C483.841 3.50173 483.236 4.45259 482.777 4.85076C480.025 2.15976 472.719 2.97746 470.01 2.41256L471.69 3.45982C466.362 1.77782 467.127 6.41731 461.85 4.73483L464.83 3.09191C462.71 3.58463 460.832 3.12995 461.329 1.90446C458.854 2.87311 461.056 3.99415 457.274 4.3452C457.132 5.09475 459.983 4.79197 458.808 5.82702L453.657 7.96313C453.657 7.96313 453.451 8.04385 453.296 8.12409L453.657 7.96313C453.657 7.96313 453.245 8.16395 452.622 8.16987C452.254 7.85834 452.143 7.54436 452.861 7.10435C451.983 7.38836 451.73 7.74518 451.737 8.09953C451.531 8.1015 451.376 8.10299 451.167 8.06558C451.569 4.67513 446.855 7.98846 449.387 4.61712C441.961 4.53027 435.775 6.9125 429.413 5.43723C426.881 8.76919 416.804 5.83286 417.56 10.0786C413.979 10.1915 411.057 9.43167 408.793 7.75991C409.513 7.39864 410.405 7.90209 411.136 8.13139C410.181 7.07724 405.87 7.00012 404.054 7.05678C406.46 7.97899 410.265 8.73039 412.163 10.2875C411.591 10.2142 410.915 10.1025 410.289 9.99029C409.607 9.603 408.358 9.41799 407.108 9.27234C405.179 8.77878 403.403 8.24437 402.462 7.97764L401.673 10.1904C399.103 8.75783 399.309 11.473 397.159 10.2334C397.882 10.069 398.757 9.74559 399.691 9.65795C398.795 8.95766 397.451 9.2461 396.631 9.84459L397.086 9.21019C392.055 9.49432 391.91 7.29047 387.234 7.13806L387.458 8.00226C385.855 8.37194 383.429 6.38666 381.911 8.40947L384.973 8.38033C384.877 8.85379 384.624 9.2106 384.321 9.52854C383.33 9.30169 382.343 9.31108 381.531 10.3033L383.243 10.287C382.731 10.6463 382.166 10.9273 381.755 11.2069C381.024 10.9382 380.343 10.5903 379.456 10.4018C379.183 9.69556 379.531 8.90466 378.542 8.79592C378.046 9.94265 378.25 9.78319 378.884 10.3285C378.208 10.2561 377.378 10.3428 376.292 10.55L376.188 10.551L377.731 9.82751C376.8 9.99388 375.347 10.0471 373.74 10.1411C371.656 9.72781 369.724 9.19487 368.356 8.26276C368.206 8.50049 368.367 8.81399 368.367 8.81399C364.582 9.16502 361.212 6.63743 358.951 7.91907L359.682 8.10901C356.713 10.3031 351.807 6.29374 351.305 9.92141C350.689 10.2423 351.208 10.2374 351.831 10.2708C351.421 10.4716 351.064 10.8688 350.975 11.6179C350.871 11.6582 350.82 11.6981 350.769 11.738C348.172 11.6839 348.738 8.72507 345.33 9.66323C345.846 9.54017 345.696 9.77789 345.909 10.0909C343.053 10.0787 339.257 9.79976 336.084 9.51491C335.011 10.3915 333.563 10.6809 331.955 10.8143L332.292 9.43286C332.292 9.43286 332.292 9.43286 332.241 9.43334L332.627 7.89387C331.009 7.47609 331.088 8.893 331.878 9.4368C330.891 9.44618 330.805 10.274 331.332 10.8203C327.962 10.9705 324.055 10.3776 321.175 11.7439C320.809 11.6292 320.443 11.5539 320.026 11.4791C319.605 11.1287 318.718 10.9403 318.711 10.6253C318.711 10.6253 318.927 10.9383 318.723 11.1765C317.115 11.3099 316.887 10.1701 316.255 9.70358C314.978 10.779 311.769 8.68301 310.9 9.4001C310.887 8.65203 309.592 8.86124 308.139 8.91444C309.705 9.33272 309.869 9.76432 309.88 10.2762C309.359 10.2024 308.634 10.288 307.856 10.2954C308.847 10.5617 309.268 10.8727 309.428 11.1468C308.911 11.2305 308.392 11.2748 307.876 11.3585C305.627 10.5529 304.344 8.63552 300.927 9.14058L298.463 10.6211C297.902 8.46053 293.767 9.40561 293.856 8.61718C293.091 9.33328 292.009 9.73737 292.184 10.8383C290.359 10.3438 287.732 11.5107 286.929 10.2582L288.683 9.65086C283.146 10.6093 279.765 7.53048 275.483 9.06761L275.503 10.0913C275.503 10.0913 275.348 10.0928 275.193 10.173L275.222 11.6298C275.222 11.6298 275.171 11.6303 275.118 11.6308C275.222 11.6298 275.171 11.709 275.275 11.7474L275.291 12.4561C273.847 13.0211 272.435 12.4833 271.078 12.1811L268.563 10.9449C269.603 11.0925 270.805 11.4355 271.998 11.3848L271.421 11.1146L273.869 11.4458C272.14 10.5959 271.721 10.4423 271.92 10.0466L274.16 10.3404C273.111 9.83841 272.588 9.60711 272.324 9.41273C272.375 9.33348 272.426 9.29362 272.528 9.17452C272.37 9.13662 272.266 9.13761 272.162 9.09923C272.158 8.90236 272.362 8.62478 272.818 8.06913C269.164 7.08002 268.956 9.72044 265.452 8.53298C264.681 8.81599 264.847 9.36573 264.805 9.91743C264.703 10.0365 264.654 10.1945 264.605 10.3919C264.506 10.5503 264.406 10.7482 264.096 10.8693C261.011 9.75662 258.275 13.3268 256.011 11.655C255.291 12.0163 257.26 11.7219 257.118 12.5108C255.869 12.3258 254.88 12.2958 254.151 12.1059L254.566 12.0232C254.202 12.0267 253.889 11.9903 253.628 11.8746C253.417 11.7585 253.26 11.6418 253.151 11.4066L254.856 10.9966C253.353 11.129 253.069 9.79283 250.229 10.6074C249.495 10.2994 248.914 9.79297 248.646 9.32296C248.801 9.24273 248.903 9.163 249.162 9.16054C249.005 9.12265 248.748 9.16449 248.539 9.16646C248.271 8.65709 248.47 8.22202 249.404 8.17377C248.725 7.98333 247.337 8.78409 247.668 9.72607C247.668 9.76544 247.566 9.8058 247.566 9.88455C243.311 9.92504 245.424 6.43954 241.251 8.09381C241.564 8.16959 241.878 8.36349 241.725 8.56183C240.641 8.80845 239.759 8.8562 239.027 8.6269C240.482 8.69181 240.646 9.12341 240.55 9.5575C239.878 9.64266 239.306 9.64809 238.785 9.49554C241.852 9.70264 239.337 11.2624 240.484 11.5271C239.446 11.537 238.3 11.351 237.528 11.7127C235.326 10.5917 237.222 9.19538 236.116 8.37893C236.125 8.85141 235.504 8.93607 234.674 9.10147L234.978 8.70478C234.978 8.70478 234.719 8.70725 234.564 8.70874L235.222 7.8755C234.289 7.88439 233.406 7.89278 232.311 7.62755L234.138 8.1221C233.67 8.16592 233.207 8.36723 232.639 8.53015C232.433 8.53212 232.275 8.49423 232.118 8.45635L232.588 8.57002C230.732 9.21775 228.415 10.2637 225.75 9.34391C226.222 9.61506 226.956 10.0413 227.224 10.4719C226.652 10.4379 226.131 10.3248 225.557 10.1333C226.029 10.4045 226.763 10.8307 227.031 11.2613C226.878 11.3809 226.621 11.5015 226.26 11.6231C223.706 11.096 224.182 11.5641 224.091 12.2344C223.366 12.3988 222.803 12.7192 222.24 13.1184C220.048 12.5879 221.887 10.9952 216.97 11.8296C216.918 11.8301 216.918 11.8301 216.866 11.7912C217.019 11.6716 217.172 11.5126 217.326 11.4324C217.118 11.4344 216.963 11.4359 216.808 11.4767C216.907 11.2395 217.212 10.8822 217.519 10.6824C214.312 11.3036 212.277 10.7716 209.482 11.2314C209.482 11.192 209.377 11.1536 209.324 11.1147C209.994 10.8327 210.091 10.4774 208.63 10.0975C209.584 11.1516 205.639 11.1498 204.198 11.833L203.821 11.1671C203.308 11.487 203.313 11.7232 203.524 11.9181C202.654 12.5565 203.749 12.8217 204.636 13.0496C204.633 12.8527 204.89 12.7321 205.356 12.6883C205.46 12.6873 205.513 12.7656 205.669 12.7641C205.668 12.7247 205.616 12.6858 205.563 12.6469C206.085 12.7995 206.3 13.1519 206.411 13.5446C204.906 13.5589 203.403 13.7307 201.905 14.0994C201.798 13.9429 201.743 13.7859 201.688 13.6289C201.74 13.6284 201.739 13.589 201.791 13.5886L201.687 13.5895C201.685 13.4714 201.682 13.3139 201.68 13.1958C201.678 13.1171 201.78 13.0373 201.831 12.9581C201.831 12.9581 201.779 12.9586 201.727 12.9591C201.774 12.683 201.926 12.4847 202.026 12.3262C197.939 13.0739 198.128 9.37044 194.202 10.4317C193.32 10.44 190.36 13.146 187.457 13.4099C187.351 13.2928 187.297 13.1751 187.244 13.0969C187.962 12.6175 189.828 12.4816 189.295 11.7779C189.655 11.5775 189.806 11.3398 189.28 10.9904C184.577 14.8156 179.477 8.79967 173.24 11.143L173.403 11.5353C173.403 11.5353 173.195 11.5372 173.041 11.6175L173.638 12.9901C172.55 13.0792 171.46 13.1289 170.266 13.1009L171.501 12.5378C171.501 12.5378 171.136 12.4626 170.928 12.4252L171.7 12.0634C170.395 11.7214 167.596 11.9843 167.772 13.0065C167.669 13.0862 167.62 13.2048 167.622 13.323C164.691 12.1301 163.876 12.9254 160.977 13.3862C163.208 13.2862 162.428 13.2149 162.484 13.4506C162.019 13.5732 161.502 13.6962 160.829 13.7814C163.734 13.6356 161.499 13.5387 162.707 14.2361C160.019 14.8917 159.594 14.3444 157.406 13.9715C157.512 14.0886 157.463 14.2466 157.414 14.4046C157.362 14.4051 157.31 14.4056 157.206 14.4065C157.261 14.5242 157.211 14.6428 157.213 14.7609C156.96 15.1177 156.498 15.3978 155.982 15.5602C155.613 15.2487 155.502 14.8559 156.579 14.1762C155.857 14.4194 154.929 14.7826 153.949 15.107C151.758 14.5765 148.955 14.6426 146.506 14.1539L146.513 14.5477C146.513 14.5477 146.41 14.5486 146.358 14.5491L146.361 14.746C141.262 14.1644 135.805 16.6185 130.636 15.0925C130.635 15.0531 130.634 15.0138 130.685 14.9739C130.685 14.9739 130.788 14.8942 130.839 14.8543L130.735 14.8553C130.735 14.8553 130.887 14.6569 130.886 14.5782C131.639 13.2321 126.558 13.6349 125.092 12.9794C124.737 13.4159 124.596 14.2049 123.714 14.2133C123.682 12.5596 121.724 13.3658 120.931 12.6252C120.363 12.7881 120.213 13.0652 120.114 13.3418C119.963 13.5795 119.917 13.895 119.87 14.1317C119.667 14.3699 119.255 14.5707 118.112 14.5422C116.915 14.3961 116.796 13.5703 116.939 12.9388C116.28 13.7721 114.372 14.4203 112.714 14.6329C112.82 14.7107 112.924 14.7491 113.08 14.7476C112.924 14.7491 112.77 14.8293 112.614 14.8308C113.142 15.259 114.066 14.6989 114.431 14.8135C114.434 14.971 114.436 15.0497 114.438 15.1679C114.233 15.3273 114.029 15.4868 113.879 15.8032C113.777 15.9223 113.729 16.0804 113.68 16.2383C112.382 16.2507 113.132 14.7471 111.377 15.3151L111.589 15.51C111.589 15.51 111.433 15.5115 111.226 15.5135L112.701 16.6414C112.338 16.6843 111.974 16.6483 111.66 16.5332C111.659 16.4545 111.658 16.4151 111.553 16.3373C111.449 16.3384 111.345 16.3393 111.189 16.3407C111.137 16.3413 111.032 16.2635 110.98 16.264C111.032 16.2635 111.033 16.3028 111.086 16.3418C110.619 16.3856 110.153 16.4295 109.737 16.4334C110.031 15.4854 110.79 14.4544 110.673 13.7467C106.746 14.7685 103.649 13.0259 100.584 12.9369L100.588 13.1338C100.588 13.1338 100.588 13.1338 100.484 13.1348L100.976 14.4296C99.7779 14.2047 99.1489 13.8957 98.6207 13.4281L98.8804 13.4257L98.6179 13.2706L98.981 13.2672L97.8766 12.5295C97.9835 12.686 98.0897 12.8031 98.1445 12.9601L97.776 12.688C97.8842 12.9232 98.0429 13.0792 98.1505 13.2751L96.074 13.2949C96.074 13.2949 96.2833 13.3716 96.3877 13.41L95.9724 13.414C97.2281 13.9139 97.6531 14.4218 97.7773 15.4839C95.3292 15.074 92.1168 15.4196 91.4554 13.4176L91.566 13.7709C91.5645 13.6922 91.4079 13.6543 91.4066 13.5755L91.4104 13.7724C88.1527 14.4728 81.5147 14.8904 81.7351 15.5578C79.2856 15.0691 76.3861 15.4905 74.8205 15.0722C74.8189 14.9935 74.818 14.9541 74.8167 14.8754C74.818 14.9541 74.9227 14.9925 74.9761 15.0708C74.7557 14.4034 74.5699 12.83 73.9996 12.8748C74.0003 12.9142 74.0012 12.9535 74.0019 12.9929C73.8537 13.3881 73.7557 13.7041 73.7611 13.9797C71.6757 13.527 68.4103 16.5509 66.9088 14.0449C66.2407 14.4057 65.933 14.6055 65.8314 14.7246C65.3724 15.1621 66.823 14.9908 67.415 16.0878C65.2543 17.1322 63.1319 14.7503 62.0674 16.0994C61.9146 16.2582 61.7643 16.5354 61.6665 16.8513C60.674 16.5458 60.4634 16.3902 60.5643 16.2318C60.7696 16.1117 61.182 15.9502 61.3851 15.712C61.5898 15.5525 61.637 15.3158 61.3707 14.9639C61.3716 15.0033 61.3716 15.0033 61.3722 15.0427C61.2745 15.3586 61.1751 15.5959 60.9711 15.7948C59.5944 17.1074 55.7237 15.6083 53.3597 16.891C52.1439 15.7605 54.5936 16.2491 52.4938 15.0484C52.4938 15.0484 52.4947 15.0878 52.4954 15.1271C52.4985 15.2846 52.5007 15.4027 52.451 15.5213C52.1448 15.7999 51.5233 15.8846 51.1087 15.928L50.5573 14.2398L50.5588 14.3186L47.8834 18.3213C47.8834 18.3213 47.7278 18.3229 47.6238 18.3238C44.0043 16.3892 48.5568 15.519 43.2453 14.7032L43.4544 14.78C43.4544 14.78 43.2988 14.7815 43.246 14.7426L43.5606 14.8971C42.0859 16.5257 39.6919 13.5163 35.77 14.7743C35.8219 14.7738 35.8219 14.7738 35.8738 14.7733C35.8738 14.7733 35.77 14.7743 35.7181 14.7748C37.0106 14.4869 36.3035 15.5175 36.6767 16.0258L34.5348 15.3374C34.5348 15.3374 34.5354 15.3768 34.5882 15.4157L34.4842 15.4166C34.4842 15.4166 34.7467 15.5717 34.5949 15.77C32.6966 16.9695 32.9195 15.0377 30.7082 16.1613C32.2213 16.5407 31.7774 17.7658 31.1137 18.3628L27.9095 16.4243L27.9111 16.503L29.2013 18.8142C26.4515 18.9191 22.6071 16.0809 20.6096 17.5176C20.3018 17.7175 20.0475 17.9955 19.8474 18.3911L21.4123 18.7701C21.3656 19.0462 21.0647 19.6004 20.6035 19.9197C20.3469 20.0797 20.0377 20.2008 19.6224 20.2048C19.8722 19.6904 20.1732 19.1363 19.3847 18.6319C18.1968 18.9582 18.2043 19.3519 18.369 19.823C18.369 19.823 18.3171 19.8235 18.2652 19.8239C17.7943 19.6316 17.4151 18.8081 17.616 18.4519C17.7175 18.3328 17.8199 18.2529 18.0282 18.2903L17.9244 18.2914C17.9244 18.2914 17.9763 18.2908 18.0802 18.2899L16.4807 18.817C16.7515 19.4051 17.5384 19.8308 18.4796 20.1763C18.6421 20.5292 18.8573 20.9208 18.7083 21.2768L15.2363 18.9077C15.2363 18.9077 14.8255 19.1478 14.6209 19.3073C14.189 18.445 13.3434 17.6655 12.5023 17.1222C12.6129 17.4755 13.0372 17.9441 12.5775 18.3423C10.4778 17.1415 8.45322 17.1607 6.87026 18.5541C7.51575 19.7292 9.00466 18.8488 9.42971 19.3567C9.31913 19.0033 9.52002 18.6471 9.87888 18.4073C10.2378 18.1676 10.7539 18.0052 11.379 18.1174C12.1269 19.2129 12.6001 19.5234 13.0733 19.834C12.1803 19.2911 11.2376 18.867 9.95786 19.8243L12.8649 19.7966L11.7996 21.1062L8.29218 19.6037C7.31336 20.0069 6.64603 20.407 6.13519 20.8451L5.32193 19.0413C4.12345 18.8164 3.83228 19.8825 4.25735 20.3904L6.08404 20.8848C5.06158 21.7216 4.82005 22.669 4.89076 23.6528C2.87898 24.3415 0.874735 25.4237 1.50294 25.6934C2.38544 25.6851 3.84423 25.9468 3.96008 26.5758L1.9957 27.0277C1.86703 28.4466 1.06425 29.9111 2.95413 30.9958C2.67346 32.613 2.23633 34.1923 6.66611 35.056L10.0156 33.7246L11.2253 34.54L8.32202 34.7646C10.0494 35.4963 11.0214 34.7389 12.1522 34.1374C12.4727 34.607 12.9971 34.8776 13.7269 35.0282L16.9093 33.1076C17.39 33.812 15.5362 34.6171 17.8775 34.8705C19.3657 33.9507 16.187 33.3509 18.7698 32.6568C20.4972 33.3886 20.0954 34.1012 21.9485 33.2566C22.269 33.7262 21.9116 34.0446 21.1374 34.2883C22.7865 33.6425 25.6967 33.7722 26.4566 32.7805C28.2914 33.7082 32.2601 32.174 32.2412 33.907C32.7521 33.4689 35.1197 32.3831 36.7261 32.2103C34.0168 34.4414 42.6409 31.9965 42.1128 34.2462C43.9974 32.338 49.3564 32.9171 53.0736 31.8185C53.0736 31.8185 53.1271 31.8968 53.1796 31.9356C52.9743 32.0556 52.769 32.1759 52.5606 32.1384C52.8202 32.1359 53.0277 32.1339 53.2362 32.1713C53.1346 32.2904 52.9293 32.4106 52.3069 32.4559C55.1756 33.1374 54.4415 32.7506 54.2246 32.2801C55.2149 32.4676 55.8437 32.7766 56.782 32.9646C56.8676 32.0187 58.155 31.4551 59.5468 30.9299C59.6002 31.0082 59.7055 31.086 59.7596 31.2035C59.9124 31.0447 59.9102 30.9265 59.8561 30.8088C60.1142 30.7277 60.3195 30.6075 60.5776 30.5263C61.1026 30.8363 61.8263 30.672 62.7051 30.4668C63.5026 31.4436 60.6572 31.9826 61.4592 33.1958C61.2878 32.3704 63.3574 31.9963 64.4385 31.5135C64.5957 31.5908 64.8576 31.7064 65.276 31.86C65.5288 31.5031 65.8891 31.3422 66.3028 31.2594C66.8775 31.4508 67.0875 31.567 67.7766 32.3087C67.4698 32.5479 68.6682 32.7727 68.5682 32.9707C69.9103 32.564 70.2196 32.4429 68.6035 32.1039C68.189 32.1472 67.931 32.2284 67.8279 32.2688C67.9196 31.6379 68.1746 31.3992 68.5365 31.317C69.7877 31.5808 71.1456 32.001 72.1801 31.7943C72.1757 31.5581 72.3804 31.3986 72.5848 31.2391C72.6901 31.3169 72.7957 31.3947 72.901 31.4723C72.6963 31.6318 72.4382 31.713 72.1795 31.7548C72.1833 31.9517 72.2402 32.2269 72.454 32.5398C72.8174 32.5363 73.0174 32.1406 73.1651 31.7061C73.4298 31.9793 73.6389 32.056 75.2413 31.6864C76.8094 32.2228 74.0212 33.0369 74.0212 33.0369C77.0823 32.929 75.6047 31.6828 76.0036 30.8127C76.7823 30.8054 77.5608 30.798 78.3907 30.7507C78.9173 31.1394 78.4125 31.8924 79.3559 32.356C80.7005 32.0675 81.7807 31.5454 82.8619 31.0625C85.0987 31.2776 88.217 31.4447 90.143 31.7021L90.0436 31.9394C90.639 30.4767 94.0177 30.6808 96.4516 30.3425C96.3642 31.2096 95.9556 31.5681 94.6653 31.9741L96.9496 31.9523C97.4589 31.4355 98.1811 31.1924 99.6835 31.0206L99.1336 32.1284C102.195 32.0206 105.285 30.731 109.244 31.4022C109.29 31.0868 108.971 30.6567 108.651 30.2265C109.014 30.2231 109.429 30.219 109.896 30.2146L109.793 30.2156C111.618 30.6315 110.714 29.4981 112.169 29.5629C112.184 30.3503 113.269 30.1038 113.074 30.7357C112.712 30.8179 111.822 30.4325 111.257 30.7529C112.868 30.8558 114.849 31.2701 115.535 31.8544C115.371 31.4227 115.515 30.7913 116.708 30.7011C119.769 30.5933 117.815 31.5963 119.588 31.9733C120.304 31.4152 122.287 31.9476 122.316 30.7659C123.199 30.7575 123.417 31.3067 123.734 31.6188C125.282 31.0921 131.153 31.3119 129.313 30.1087L128.896 30.0339C128.896 30.0339 129.052 30.0324 129.155 29.9921C130.137 29.7463 131.122 29.6582 132.107 29.5701C132.783 29.6424 133.511 29.7142 134.137 29.8659C134.135 29.7477 134.289 29.6674 134.339 29.549C136.676 29.6055 139.018 29.8589 141.356 29.9547C141.358 30.0728 141.361 30.2303 141.364 30.3878C142.557 30.337 144.639 30.593 145.721 30.1494C148.672 29.7275 152.1 29.7737 154.109 28.967C155.044 28.9581 156.303 29.6156 155.896 30.0919C156.414 30.0083 156.776 29.9262 157.138 29.8833C158.342 30.3838 159.442 30.8852 160.28 31.271C159.859 30.96 159.646 30.6864 159.538 30.4511C162.555 30.7374 163.293 31.3211 166.542 30.1876C165.471 31.2217 168.901 31.3859 170.349 31.0572L168.156 30.4086C169.762 30.2358 171.217 30.3007 172.672 30.3655L171.918 31.6723C178.229 33.148 183.129 28.7303 188.006 31.2829C189.649 30.3222 184.569 30.7249 186.001 29.6087C188.911 29.7385 191.957 31.5604 192.891 31.512C195.912 31.9952 196.405 30.6124 198.316 30.0822C199.772 30.2259 201.638 30.0506 203.192 29.839C202.312 30.0047 201.434 30.2494 202.481 30.6726L202.835 30.1968C204.298 30.6554 208.241 30.4997 207.373 31.2956C209.544 30.8024 208.292 30.4992 206.627 30.3181C210.377 30.9126 212.389 30.224 216.238 30.5812C215.611 30.3508 215.029 29.805 215.652 29.7991C221.268 30.2577 218.074 28.8704 221.859 28.5586C224.051 29.2073 221.164 30.2586 224.943 29.5926C227.286 30.0428 225.484 30.8082 224.557 31.2109C227.965 30.2333 231.056 31.6609 233.031 31.7996L231.222 32.2106C232.309 31.9641 233.191 31.9556 234.125 31.9467L233.069 31.0511C234.162 31.1982 235.045 31.1898 235.054 31.5836C235.978 31.0628 234.717 30.3266 235.586 29.6095C236.725 29.5198 237.969 29.3899 239.368 29.2584V29.1797C240.198 29.1717 240.927 29.2436 241.198 29.7923C236.674 29.481 241.739 31.0079 237.956 31.3197C238.679 31.1552 239.561 31.1469 240.654 31.294C240.812 31.4106 240.504 31.5711 240.244 31.6128C244.575 32.6349 242.191 30.1768 246.654 30.0949C246.098 30.809 247.716 31.3843 248.442 31.2198C246.623 31.2372 247.537 30.0864 249.187 29.5194C252.053 30.0041 252.293 29.0567 253.801 29.0817L252.082 28.8618C252.488 28.3461 253.419 28.219 254.663 28.0891C255.08 28.1244 255.444 28.1604 255.861 28.1958C255.45 28.4359 254.41 28.4065 254.931 28.5591C255.344 28.3188 255.81 28.2357 256.224 28.2317C256.588 28.2282 257.005 28.303 257.368 28.2996C258.723 28.523 260.24 29.0993 261.796 29.0451L263.723 29.4204C263.887 29.8127 263.637 30.2877 264.47 30.4767C267.878 29.4992 268.277 31.3461 271.845 30.5247C270.736 29.5901 270.585 29.8279 273.111 28.8587L272.126 28.9861C272.59 28.7455 272.998 28.3872 273.299 27.833L272.727 27.8385C272.721 27.5234 272.719 27.3267 272.818 27.1681C273.39 27.1626 273.96 27.1573 274.534 27.3487L274.579 29.6717C278.856 30.6155 282.133 28.3002 287.698 28.7593L286.865 28.6097C288.421 28.5555 289.927 28.5018 291.379 28.4092C291.749 28.7601 292.375 28.9903 292.9 29.3004C292.785 28.7108 297.002 29.2614 297.439 27.6821L299.949 28.6427C302.186 28.8183 303.421 28.2159 304.656 27.6528C305.749 27.8787 306.794 28.1443 307.836 28.3708C307.63 28.4514 307.423 28.4927 307.166 28.574C307.685 28.5691 308.204 28.5641 308.672 28.5597C311.851 29.2383 315.08 29.7588 318.867 29.5654L318.756 29.212C320.878 28.8767 324.915 28.2082 325.92 26.4659C327.217 26.4143 328.463 26.3631 329.707 26.3118C333.312 27.4195 336.461 29.1617 341.272 28.3282L339.904 27.3962C341.505 26.9084 344.124 28.0648 344.751 28.3345C345.321 28.2897 344.898 27.7818 344.84 27.4674C346.328 26.6262 347.237 27.9565 348.487 28.181L348.004 27.3586C348.829 27.075 349.762 26.948 350.747 26.8992C351.432 27.444 352.727 27.2348 354.124 27.0246C358.392 27.496 363.294 28.7488 367.547 28.4721C366.35 28.2472 366.955 27.2963 367.465 26.8976C370.166 29.6286 377.474 28.929 380.185 29.5726L378.505 28.5253C383.833 30.2862 383.07 25.6466 388.347 27.4472L385.314 29.0119C387.436 28.5585 389.261 29.0531 388.766 30.2785C391.241 29.3492 389.037 28.1889 392.822 27.9166C392.964 27.167 390.112 27.391 391.341 26.3949L394.844 25.0227C394.844 25.0227 395.312 25.0183 395.571 25.0158C395.367 25.254 395.425 25.4897 395.635 25.6846C395.635 25.6846 395.584 25.6851 395.531 25.6855C395.584 25.7245 395.689 25.7628 395.795 25.8406C396.635 26.4232 398.254 26.8804 396.817 27.7211C398.004 27.3553 398.15 26.8421 397.882 26.3327C398.347 26.3282 398.762 26.2456 399.121 26.0452C398.602 26.0502 398.081 25.9369 397.56 25.8632C397.081 25.2377 396.343 24.6933 396.494 24.3768C396.185 24.5373 395.979 24.6575 395.826 24.7771L395.72 24.6993L396.494 24.3768C396.494 24.3768 396.7 24.2962 396.853 24.2159L396.494 24.3376C396.494 24.3376 397.059 24.0959 398.048 24.1652C398.361 24.2804 398.622 24.4354 399.039 24.4315C398.837 27.4656 403.298 24.5091 400.762 27.723C408.141 27.9678 414.38 25.7032 420.742 27.2177C421.757 25.948 423.828 25.6132 426.006 25.4744C427.048 25.622 427.986 25.8887 428.515 26.3562C434.826 25.1148 441.134 26.5512 448.553 26.2443C445.81 23.947 450.733 26.1449 450.167 23.7481C451.877 23.5744 452.5 23.5684 452.71 23.7238L452.347 23.6486C452.347 23.6486 452.608 23.7249 452.713 23.7633L453.18 23.8769C453.18 23.8769 452.972 23.8395 452.764 23.7628C453.03 24.0752 451.331 24.8397 451.396 25.4691C450.981 25.5911 450.515 25.6744 450.05 25.7182C450.631 26.1851 451.46 26.2168 452.185 26.013C452.34 26.0508 452.444 26.0892 452.602 26.1271C452.444 26.0498 452.391 26.0109 452.287 25.9331C452.855 25.7702 453.316 25.4902 453.62 25.0936C453.411 25.0167 453.101 25.0591 452.737 25.1019C453.458 24.78 454.285 24.4966 453.757 24.1078C454.016 24.1053 454.225 24.1032 454.431 24.1014L457.823 24.9748C457.823 24.9748 458.032 25.0516 458.136 25.09C458.979 25.6725 456.433 25.5786 456.6 26.1285C460.391 26.2498 458.227 27.0974 460.73 27.7037C460.196 26.8424 462.005 26.4314 464.138 26.7261L462.728 26.267L462.56 25.5204C463.644 25.2739 465.061 26.0873 466.36 26.075C467.407 26.4982 468.606 26.8411 470.983 26.2279L469.338 27.0311C471.768 26.5747 478.003 26.7518 481.092 25.3442C481.249 25.4608 481.508 25.4975 481.668 25.6143C481.819 25.3766 481.657 25.063 481.657 25.063C481.916 25.0605 482.125 25.0587 482.384 25.0562C482.752 25.3676 482.916 25.7599 481.985 25.9263C483.335 25.9529 484.684 25.9006 486.083 25.7298C488.014 26.3021 489.686 26.8375 491.023 26.1552L490.293 25.9259C493.264 23.85 497.958 27.7433 498.675 24.4287C499.712 24.4186 500.701 24.4881 501.535 24.6771L501.08 25.272C501.701 25.1873 502.213 24.8674 502.781 24.7046C503.251 24.8575 503.825 24.9309 504.65 24.6868C504.604 24.9234 504.196 25.2819 504.768 25.3157C505.231 25.1538 506.779 24.6271 508.229 24.4952C508.646 24.4913 509.063 24.5661 509.477 24.6015L508.244 25.2432C510.324 25.4597 512.087 25.3249 513.692 25.0339C513.743 25.0335 513.796 25.033 513.898 25.0319C513.898 25.0319 514.003 24.9915 514.054 24.9518C515.657 24.6608 517.207 24.2128 518.705 23.8048C520.417 23.7885 522.289 23.9283 524.054 23.9115C525.577 24.842 528.958 25.1643 530.883 25.3429L530.783 25.5802C531.719 25.5713 532.548 25.4846 533.43 25.4368C534.002 25.5888 534.262 25.5077 534.623 25.3861C535.193 25.3806 535.763 25.3359 536.282 25.2916C537.43 25.635 538.53 26.0577 538.938 25.6995C538.951 26.4475 540.246 26.2384 541.701 26.2244C540.08 25.7279 539.969 25.2958 539.958 24.7447C540.993 24.5772 542.029 24.4099 543.062 24.2031C544.743 25.1322 546.067 26.498 548.863 26.1169L551.328 24.6758C551.836 26.8762 556.024 25.9701 555.938 26.7978C556.703 26.1211 557.838 25.7165 557.661 24.6155C559.488 25.1494 562.166 24.0214 562.918 25.3138L561.111 25.8823C566.652 25.0419 569.982 28.2 574.264 26.7023L574.202 23.4343C575.126 22.953 576.062 23.0622 577.002 23.2502L576.43 23.2557C577.386 24.3886 579.463 24.4082 581.539 24.349C581.749 24.5046 582.064 24.6985 582.694 25.0469C581.61 25.2934 579.621 24.446 577.803 24.4632L581.63 26.3958L575.641 25.4684C578.211 26.7435 577.996 26.4304 576.982 27.7396C580.636 28.7681 580.9 26.1665 584.35 27.4332C585.587 26.9883 584.319 25.7796 585.707 25.1363C588.794 26.2883 591.53 22.7575 593.796 24.4687C594.516 24.1468 592.547 24.3624 592.689 23.6129C594.667 23.909 596.117 23.7771 596.707 24.7559L595.002 25.1266C596.505 25.0336 596.738 26.3703 599.581 25.5951C601.204 26.3277 602.168 27.9725 600.403 27.9894C601.135 28.1792 602.727 27.2977 602.137 26.319C606.603 26.2764 604.281 29.8033 608.561 28.2268C608.246 28.1116 607.933 27.9571 608.137 27.7582C609.221 27.5117 610.104 27.5032 610.836 27.7325C607.04 27.4536 611.98 25.0832 607.525 25.7164C608.013 23.979 610.946 25.3294 612.334 24.6861C614.538 25.8466 612.592 27.2039 613.698 28.0598C613.687 27.5085 614.569 27.5001 615.656 27.2536L614.643 28.5627C615.576 28.5538 616.459 28.5455 617.554 28.8501L615.727 28.316C617.696 28.0611 620.667 25.9457 624.17 27.2119C623.223 26.6696 621.388 25.6239 623.711 24.9323C627.516 25.7624 624.583 24.3726 626.745 23.3676C630.54 23.6465 627.412 25.724 632.951 24.8837C633.574 24.8779 632.966 25.6711 632.403 26.031C636.179 25.365 638.274 26.2902 641.942 25.3102C640.339 25.6404 639.101 26.1247 641.294 26.7339C640.339 25.6404 644.339 25.7204 645.727 25.0378L646.104 25.7037C647.232 24.9842 646.033 24.7199 645.092 24.4532C645.097 24.6894 644.789 24.8893 644.112 24.817C642.964 24.4734 642.893 23.4108 643.654 22.5372C644.432 22.4117 645.155 22.2474 645.877 22.0436C645.778 22.2809 645.631 22.7548 644.751 22.8418C645.529 22.8345 646.829 22.9403 648.181 23.0062C648.347 23.5952 648.099 24.1882 647.846 24.5451C651.935 23.8368 651.747 27.5403 655.671 26.5184C656.554 26.5099 659.567 23.843 662.418 23.5795C663.899 25.1012 658.857 24.716 660.543 25.9995C665.248 22.2137 670.347 28.2689 676.587 26.0044L675.773 24.1613C677.223 24.0294 678.622 23.8979 680.29 24.1183L678.179 25.1228C679.642 25.5422 683.061 25.1552 681.89 23.7487C685.192 25.2531 685.848 24.341 688.904 23.8788C685.686 24.0276 688.857 24.1549 686.502 23.1929C688.36 22.7025 689.243 22.6548 690.077 22.765C689.972 22.8054 689.924 22.8847 689.819 22.925C689.924 22.924 690.13 22.8432 690.232 22.7636C690.857 22.8758 691.485 23.0668 692.474 23.2541C692.097 22.5883 693.325 21.5922 694.207 21.5837C696.409 22.7442 700.194 22.4718 703.269 23.0727L703.258 22.5214C708.411 23.1813 713.97 20.6081 719.194 22.2123C719.298 22.2114 719.349 22.2502 719.453 22.2887L719.041 22.4108C717.258 24.1604 723.063 23.6326 724.686 24.326C725.041 23.8894 725.181 23.1006 726.063 23.0921C726.094 24.7458 728.052 23.9395 728.846 24.6802C730.6 24.1122 728.6 22.7135 731.664 22.7631C732.861 22.9093 732.981 23.7351 732.837 24.3665C733.498 23.5334 735.404 22.885 737.012 22.673C736.484 22.2447 735.56 22.8049 735.194 22.6902C734.97 21.826 736.065 22.1306 736.045 21.0282C737.495 20.8963 736.646 22.5582 738.4 21.9902L738.294 21.9126C738.71 21.9085 739.176 21.8647 739.54 21.8612C739.24 22.4548 738.939 23.0483 739.001 23.5204C742.925 22.4591 746.021 24.1624 749.085 24.212L748.486 22.6819C749.996 22.9038 750.677 23.2518 751.26 23.8763L753.544 23.8545C752.236 23.3156 751.759 22.8476 751.684 21.6275C754.134 22.0375 757.5 21.6116 758.163 23.6531L758.052 23.2997C759.963 22.8484 763.072 22.5038 765.298 22.1675C766.349 22.7482 767.504 23.4855 768.861 23.8663C769.732 23.228 769.245 22.13 769.701 21.5743C770.531 21.6058 771.311 21.5984 772.089 21.5909C772.475 22.808 771.107 24.5932 774.171 24.6428C774.171 24.6428 771.349 23.567 772.892 22.8041C774.511 23.3006 774.768 23.1801 774.967 22.7844C775.134 23.3734 775.353 23.9621 775.717 23.9192C775.914 23.4448 775.961 23.0899 775.954 22.8143C775.692 22.7381 775.431 22.6224 775.22 22.4275C775.269 22.3089 775.371 22.1898 775.524 22.0702C775.788 22.2646 775.947 22.4599 775.954 22.8143C776.996 23.0406 778.282 22.3984 779.573 21.9922C779.938 22.107 780.204 22.4195 780.324 23.2846C780.167 23.2075 779.958 23.1306 779.542 23.0952C777.994 23.6219 778.309 23.7764 779.617 24.3153C779.508 24.0406 780.695 23.6356 780.377 23.3629C781.034 22.2934 781.185 22.1345 781.803 21.8529C782.169 22.007 782.537 22.2004 782.859 22.7093C783.269 22.4692 783.526 22.3485 783.679 22.1895C784.781 22.8091 786.867 23.2618 786.732 24.4445C787.479 22.744 784.61 22.0625 785.364 20.6771C786.2 20.9448 786.98 21.1342 787.493 20.6962C787.754 20.8119 787.965 20.9673 788.227 21.083C788.178 21.2409 788.18 21.3986 788.342 21.6332C788.338 21.4757 788.493 21.3956 788.542 21.2375C789.956 21.9329 791.269 22.6686 791.346 24.0461C792.275 23.7223 792.941 23.2828 793.872 22.9984C793.674 23.6302 792.961 24.2277 795.794 23.177C795.171 23.1435 794.91 22.9883 794.854 22.7921C795.06 22.79 795.267 22.7094 795.526 22.7069C795.32 22.7875 795.058 22.6326 794.898 22.4372C794.898 22.3978 794.949 22.358 794.998 22.2787C798.712 23.7004 804.04 22.6653 806.014 25.3243C805.382 22.1406 814.06 25.3265 811.302 22.2417C812.863 22.4238 815.331 23.8574 815.861 24.4823C815.814 22.0412 819.798 24.0511 821.59 22.6952C822.448 24.1047 825.297 23.8019 826.976 24.6523C826.242 24.3048 825.818 23.8757 826.118 23.2428C828.009 24.3274 827.574 23.3471 829.266 22.2677C831.88 23.1486 828.732 24.1236 830.26 25.3299C832.537 24.8751 830.645 23.7904 831.093 22.8016L834.364 25.4484C835.036 25.2451 835.546 24.807 835.845 24.1347C837.002 24.9114 837.958 26.0048 839.65 24.8862L836.738 24.6775L837.909 23.485L841.266 25.2252C845.652 23.8445 845.142 21.6441 844.736 19.3639C846.574 17.8108 845.705 15.7318 845.512 13.7647L845.302 13.688C845.293 13.1761 845.024 12.6668 844.443 12.1997L843.506 12.0905ZM705.686 2.80869C705.899 3.00359 706.008 3.31757 706.065 3.59269L705.957 3.3968C705.23 3.28561 704.655 3.21229 704.187 3.17737C704.338 2.8609 704.695 2.54247 705.686 2.80869ZM203.223 12.4723L202.956 12.0417C202.956 12.0417 203.427 12.2341 203.688 12.3104C203.533 12.3512 203.327 12.4319 203.172 12.4728L203.223 12.4723ZM836.297 9.75695C836.297 9.75695 836.293 9.56008 836.395 9.48035C836.397 9.55909 836.346 9.63834 836.297 9.75695ZM828.989 10.3778L828.998 10.8896C828.382 11.2499 827.96 10.9389 827.747 10.6259L828.989 10.3778ZM813.448 9.58054C813.448 9.58054 813.448 9.58054 813.501 9.61942C812.366 10.024 811.282 10.3494 810.142 10.4783C811.018 10.155 812.051 9.83011 813.448 9.58054ZM268.43 12.2063C268.43 12.2063 268.43 12.2063 268.483 12.2058L268.43 12.2063ZM267.863 9.65205C267.863 9.65205 267.758 9.65305 267.761 9.69242L267.603 9.61516L267.914 9.61218L267.863 9.65205ZM207.358 11.4879C207.358 11.4879 207.306 11.4883 207.254 11.4888C207.254 11.4888 207.306 11.4883 207.358 11.4879ZM97.6148 17.8482C98.0842 17.9618 98.5544 18.1149 98.9216 18.3083C98.3001 18.393 97.7314 18.5165 97.1633 18.6795C97.2642 18.5211 97.3658 18.4019 97.3108 18.245C97.3604 18.1263 97.5132 17.9673 97.5629 17.8486L97.6148 17.8482ZM92.3747 18.0556C91.8037 18.061 91.18 18.0275 90.6082 17.9936C91.4862 17.7489 92.058 17.7829 92.3747 18.0556ZM85.8264 17.724C85.8264 17.724 86.1379 17.7211 86.2417 17.7201C86.192 17.8388 86.0905 17.9579 86.0415 18.1158C85.9896 18.1163 85.8858 18.1174 85.833 18.0784C85.8308 17.9604 85.8293 17.8815 85.8264 17.724ZM74.2471 14.9596C73.673 14.8075 73.3564 14.5349 73.2436 14.0634C73.6611 14.1775 73.9777 14.4502 74.2471 14.9596ZM72.3473 18.7975C72.3473 18.7975 72.1939 18.9171 72.0908 18.9574C72.0374 18.8792 71.9329 18.8408 71.8801 18.8019C72.0358 18.8004 72.1917 18.7989 72.3473 18.7975ZM35.843 18.5934C35.843 18.5934 35.843 18.5934 35.8948 18.5929C35.8948 18.5929 33.3295 17.4753 34.6634 16.6358C36.7487 17.0884 38.0602 17.7848 39.3196 18.4816C37.6079 18.5766 36.1039 18.6698 37.5853 20.1127C36.5984 20.0827 35.2381 19.5442 34.1893 19.003C34.7068 18.9192 35.2239 18.7962 35.7917 18.6333L35.843 18.5934ZM29.5601 18.5744C30.6563 18.879 31.6472 19.106 32.6862 19.1354C32.0751 19.7714 30.5148 19.6286 29.1162 19.7994C29.627 19.3614 29.8798 19.0046 29.561 18.6139L29.5601 18.5744ZM28.4428 19.8847C28.0299 20.0066 27.6687 20.1282 27.3625 20.4068C27.0421 19.9373 26.4672 19.7458 25.7894 19.5948C25.6284 19.3207 25.4155 19.0471 25.3071 18.8119C27.4235 18.1617 27.1903 19.542 28.4437 19.924L28.4428 19.8847ZM20.6878 18.8951C21.3656 19.0462 22.0457 19.3154 22.7251 19.5452C22.7808 19.7416 22.8876 19.8981 22.7364 20.1357C21.7411 19.6727 21.3777 19.6762 21.0707 19.9154C20.6494 19.6043 20.3838 19.2918 20.6351 18.8563L20.6878 18.8951ZM18.6873 20.1744C19.3132 20.3259 19.9392 20.4774 20.5644 20.5896C20.3612 20.8279 20.1069 21.1059 19.6969 21.3854C18.4969 21.0819 18.4886 20.6488 18.6873 20.1744ZM64.0587 30.6507C64.0587 30.6507 64.0556 30.4932 63.9503 30.4155C64.1075 30.4928 64.1594 30.4923 64.3159 30.5302C64.2128 30.5706 64.1616 30.6103 64.0587 30.6507ZM95.0146 28.5054C95.0146 28.5054 94.9605 28.3877 94.9077 28.3489C95.6285 28.0269 95.3101 27.6755 94.6804 27.3271C94.6791 27.2484 94.6766 27.1304 94.6753 27.0516C94.7791 27.0506 94.831 27.0501 94.8822 27.0102C95.5081 27.1618 96.1341 27.3134 96.7088 27.5048C96.7097 27.5442 96.6066 27.5844 96.556 27.6638L96.866 27.5821C96.866 27.5821 97.3363 27.735 97.5972 27.8114C96.9292 28.1722 96.0001 28.4566 95.0161 28.5842L95.0146 28.5054ZM109.52 29.5094C109.52 29.5094 109.617 29.154 109.509 28.9582C109.82 28.9158 110.131 28.8736 110.392 28.9498L109.519 29.4701L109.52 29.5094ZM143.372 29.5023C143.372 29.5023 143.839 29.4979 144.099 29.4954L144.102 29.6529C144.102 29.6529 143.792 29.7346 143.479 29.6588C143.479 29.6588 143.477 29.5407 143.424 29.5018L143.372 29.5023ZM158.544 30.0669C158.382 29.7534 158.325 29.4782 158.424 29.2409C159.047 29.2351 159.827 29.3063 160.921 29.4929C158.599 30.2239 161.711 30.0761 158.543 30.0274L158.544 30.0669ZM202.457 29.4521C203.079 29.3674 203.649 29.3226 204.064 29.3187C203.911 29.4777 203.758 29.5973 203.448 29.679C202.774 29.7247 202.512 29.6091 202.457 29.4521ZM204.115 29.2788C203.283 29.1686 203.115 28.5402 203.004 28.1867C203.423 28.3403 203.84 28.4544 204.31 28.5682C204.419 28.8427 204.319 29.08 204.115 29.2788ZM261.63 28.5347C261.63 28.5347 261.838 28.5328 261.94 28.4924C262.41 28.6454 262.57 28.8014 262.625 28.9978L261.63 28.5347ZM266.109 29.2797L266.315 29.199C266.315 29.199 266.523 29.1969 266.679 29.1955L266.109 29.2797ZM503.242 24.3064C503.242 24.3064 503.502 24.3039 503.659 24.3812C503.4 24.423 503.295 24.3847 503.242 24.3064ZM533.06 25.0859C533.06 25.0859 533.32 25.0834 533.475 25.082C533.32 25.0834 533.164 25.1242 533.06 25.0859ZM735.775 20.5187C736.032 20.3982 736.345 20.3952 736.657 20.471C736.611 20.7078 736.615 20.944 736.673 21.2192L735.775 20.5187ZM751.121 19.3096C750.81 19.3126 750.546 19.1575 750.287 19.0812C750.544 19.0395 750.803 18.9582 751.061 18.9163C751.114 18.9552 751.167 19.0335 751.22 19.0723C751.223 19.1511 751.171 19.2303 751.121 19.3096ZM782.054 21.3386C782.054 21.3386 781.894 21.222 781.79 21.1836C781.892 21.1038 781.996 21.1029 782.149 20.9833C782.049 21.1024 782.052 21.2206 782.054 21.3386Z" fill="#F2BD9E"/>
</svg>
