<?xml version="1.0" encoding="utf-8" ?>
<svg xmlns="http://www.w3.org/2000/svg" xmlns:xlink="http://www.w3.org/1999/xlink" width="522" height="176">
	<path fill="#7D7F85" d="M390.211 92.3298C391.441 92.0957 392.839 92.202 394.094 92.1931C394.296 92.4688 394.408 92.7071 394.429 93.0511C394.546 94.925 394.746 116.474 394.421 117.417C394.367 117.575 393.992 117.911 393.866 118.055C392.999 118.525 391.032 118.313 390.019 118.31C390.758 116.941 390.332 95.7574 390.211 92.3298Z"/>
	<path fill="#7D7F85" d="M318.904 92.3296C320.116 92.1085 321.384 92.1595 322.612 92.1564C322.74 92.3938 322.841 92.6417 322.891 92.9078C323.194 94.4954 323.229 116.183 322.911 117.407C322.865 117.582 322.577 117.911 322.467 118.078C321.309 118.4 319.646 118.26 318.422 118.311C319.255 116.915 318.805 95.8396 318.904 92.3296Z"/>
	<path fill="#7D7F85" d="M372.067 92.3297C373.235 92.116 374.567 92.2103 375.758 92.1934C375.788 92.2463 375.817 92.2995 375.842 92.3546C375.857 92.3857 375.87 92.4173 375.885 92.4483C375.977 92.6429 376.077 92.848 376.116 93.062C376.357 94.4002 376.258 111.077 376.072 113.168C376.03 113.641 375.848 114.056 375.605 114.459C378.163 114.242 380.769 114.344 383.339 114.215C383.419 114.333 383.495 114.45 383.559 114.577C383.943 115.338 383.71 116.278 383.447 117.037C383.567 117.404 383.563 117.466 383.47 117.842C381.695 118.604 374.173 118.189 371.687 118.212C371.707 118.168 371.727 118.124 371.748 118.08C372.664 116.197 372.239 95.8809 372.067 92.3297Z"/>
	<path fill="#7D7F85" d="M300.369 92.3295C301.575 92.1064 302.9 92.1845 304.127 92.1704C304.25 92.3312 304.37 92.5095 304.428 92.7053C304.823 94.0292 304.61 113.395 304.144 114.381C306.663 114.27 309.186 114.479 311.7 114.23C311.801 114.394 311.895 114.562 311.965 114.743C312.342 115.708 312.084 116.887 311.694 117.801C310.888 118.43 301.97 118.193 300.02 118.342C300.861 116.925 300.572 95.6704 300.369 92.3295Z"/>
	<path fill="#7D7F85" d="M517.461 92.2717C518.802 92.2025 520.226 92.0342 521.559 92.1919L521.686 93.193C520.067 97.3174 515.528 102.15 514.2 106.573C513.11 110.203 514.802 114.567 513.542 118.008C512.269 118.4 510.621 118.318 509.283 118.395C509.987 116.933 509.769 109.649 509.535 107.866C509.265 105.813 502.016 93.119 500.626 92.0501C502.125 92.1175 503.629 92.1628 505.121 92.3311Q505.456 92.5195 505.743 92.7754Q506.029 93.0313 506.254 93.3428C507.355 94.8583 511.405 100.971 511.151 102.601C512.507 101.509 516.985 93.9749 517.461 92.2717Z"/>
	<path fill="#7D7F85" d="M341.48 92.0751C344.153 91.8623 347.541 91.634 350.006 92.9025C350.721 93.2704 351.446 93.8895 351.662 94.6973C351.907 95.6171 351.739 97.4962 351.268 98.3346C351.247 98.3091 351.228 98.2821 351.205 98.258C349.811 96.7836 347.046 95.7884 345.07 95.6131Q344.64 95.5711 344.207 95.5718Q343.775 95.5724 343.344 95.6158Q342.914 95.6592 342.49 95.7449Q342.067 95.8306 341.653 95.9577Q341.24 96.0849 340.841 96.2522Q340.443 96.4195 340.062 96.6254Q339.682 96.8313 339.324 97.0737Q338.966 97.3161 338.634 97.5927C336.623 99.2851 335.56 101.79 335.348 104.374C335.131 107.024 335.801 109.729 337.55 111.774C339.238 113.749 341.54 114.584 344.079 114.764C345.243 114.846 347.121 114.78 348.034 113.98C349.151 113.714 350.531 112.644 351.341 111.839C351.406 111.959 351.463 112.086 351.513 112.214C351.903 113.225 351.611 115.798 351.195 116.784C350.654 117.247 349.598 117.557 348.912 117.764C345.383 118.827 341.101 118.669 337.836 116.889Q337.293 116.59 336.781 116.239Q336.27 115.888 335.795 115.489Q335.321 115.089 334.888 114.645Q334.454 114.202 334.067 113.717Q333.679 113.233 333.341 112.713Q333.003 112.194 332.718 111.643Q332.432 111.093 332.202 110.517Q331.972 109.941 331.799 109.346C330.744 105.689 331.143 101.492 333.009 98.1652C334.973 94.663 337.746 93.1223 341.48 92.0751Z"/>
	<path fill="#7D7F85" d="M248.127 92.3291C249.393 92.0852 250.864 92.1987 252.159 92.1819C253.2 93.9615 251.697 106.962 252.738 110.903C253.087 112.225 253.793 113.525 255.026 114.208C256.636 115.099 258.638 114.771 260.321 114.311C260.474 114.231 260.624 114.151 260.769 114.059C262.007 113.279 262.616 112.002 262.929 110.623C263.454 108.314 263.797 93.7729 262.784 92.1757L267.027 92.1883C267.103 92.3203 267.161 92.4339 267.214 92.5766C267.617 93.6465 267.399 94.6319 266.931 95.6342C267.124 95.9488 267.274 96.2772 267.325 96.646C267.665 99.1015 267.57 109.159 267.087 111.488C266.833 112.714 266.34 113.861 265.582 114.861C264.062 116.866 261.755 118.055 259.281 118.378C256.586 118.73 253.781 118.172 251.619 116.475C246.118 112.155 248.915 99.1598 248.127 92.3291Z"/>
	<path fill="#7D7F85" d="M226.658 92.329C228.638 92.0253 231.089 92.1785 233.094 92.3439C235.377 92.5323 238.02 93.1238 239.56 94.9702C241.018 96.7198 241.462 98.8913 241.259 101.129C240.557 108.882 232.482 106.372 230.362 108.119C230.382 108.161 230.401 108.204 230.421 108.246C230.491 108.393 230.559 108.538 230.614 108.692C231.167 110.229 231.221 116.748 230.541 118.126C229.179 118.327 227.674 118.274 226.291 118.339C227.228 116.805 226.878 95.0175 226.658 92.329ZM230.678 96.1498C230.796 98.2669 231.445 101.968 230.357 103.851C230.335 103.889 230.315 103.928 230.293 103.967C231.662 103.923 234.7 104.104 235.681 103.085C235.78 102.982 235.773 102.98 235.828 102.873C236.6 102.377 237.103 101.809 237.312 100.893C237.375 100.616 237.424 100.345 237.376 100.063C237.426 99.1254 237.223 98.245 236.572 97.5317C235.45 96.3018 233.54 96.108 231.978 96.0733C231.539 96.0636 231.112 96.0805 230.678 96.1498Z"/>
	<path fill="#7D7F85" d="M462.291 91.3107C462.548 91.2946 462.843 91.5668 463.062 91.7131C464.511 94.3577 474.804 116.849 474.683 118.099C473.253 118.297 471.783 118.195 470.344 118.152C470.35 118.098 470.362 118.015 470.357 117.956C470.25 116.637 468.445 112.743 467.51 111.821L462.039 111.865Q459.369 111.871 456.7 111.959C456.699 112.026 456.697 112.093 456.692 112.159C456.584 113.556 455.433 116.39 454.399 117.262C452.873 118.549 451.285 118.168 449.472 117.995C451.122 116.375 460.957 94.8128 462.291 91.3107ZM462.108 100.225C461.846 102.103 459.777 106.829 458.295 108L462.294 107.993C463.448 108.005 464.66 107.944 465.806 108.066C465.893 106.518 463.896 101.786 462.835 100.539C462.621 100.288 462.409 100.277 462.108 100.225Z"/>
	<path fill="#7D7F85" d="M427.495 92.3297C430.73 91.9938 435.11 91.9974 438.068 93.4121Q438.404 93.5685 438.722 93.7577Q439.04 93.9469 439.338 94.167Q439.635 94.3872 439.91 94.636Q440.184 94.8848 440.432 95.1598Q440.679 95.4348 440.898 95.7332Q441.117 96.0316 441.305 96.3504Q441.493 96.6693 441.648 97.0053Q441.803 97.3413 441.924 97.6912Q442.036 98.0128 442.116 98.3439Q442.197 98.675 442.244 99.0123Q442.291 99.3497 442.305 99.69Q442.319 100.03 442.299 100.37Q442.28 100.711 442.227 101.047Q442.174 101.384 442.088 101.713Q442.003 102.043 441.885 102.363Q441.767 102.682 441.619 102.989C440.509 105.252 438.48 106.527 436.168 107.319C436.375 107.44 436.556 107.586 436.736 107.744C437.873 108.744 444.062 116.719 444.15 118.131C442.157 118.223 440.49 118.43 438.73 117.291C438.712 117.185 438.687 117.082 438.655 116.979C438.187 115.495 432.47 107.589 431.174 106.914C431.338 107.35 431.525 107.813 431.629 108.266C432.015 109.948 432.294 116.805 431.505 118.109C430.099 118.317 428.63 118.286 427.209 118.325C428.182 116.586 427.729 95.307 427.495 92.3297ZM431.622 96.1503C431.815 98.1949 432.381 102.369 431.306 104.129C432.671 104.028 435.539 104.077 436.527 103.088C436.63 102.985 436.624 102.981 436.683 102.873C437.388 102.498 437.829 102.06 438.057 101.273C438.175 100.865 438.247 100.439 438.151 100.022C438.292 99.2555 438.157 98.475 437.708 97.8231C437.019 96.8241 435.6 96.383 434.449 96.2063C433.524 96.0643 432.55 96.0181 431.622 96.1503Z"/>
	<path fill="#7D7F85" d="M481.21 92.3298C484.375 91.9037 488.938 92.0092 491.844 93.3683C493.651 94.2132 495.046 95.6834 495.719 97.5662C496.346 99.3191 496.358 101.294 495.545 102.99C494.5 105.167 492.421 106.511 490.212 107.298Q490.295 107.368 490.377 107.44C491.66 108.587 497.993 116.707 498.07 118.136C496.054 118.232 494.396 118.489 492.635 117.291C492.626 117.193 492.614 117.083 492.584 116.989C492.047 115.308 486.419 107.697 484.807 106.806C485.048 107.237 485.286 107.687 485.414 108.167C485.849 109.803 486.076 116.778 485.312 118.12C483.944 118.341 482.506 118.307 481.121 118.344C481.847 116.791 481.662 94.9283 481.21 92.3298ZM485.437 96.1504C485.662 98.1163 486.152 102.544 485.161 104.2C486.702 104.055 489.343 104.073 490.459 102.908C491.3 102.522 491.983 101.636 492.312 100.773C492.542 100.172 492.398 99.4146 492.109 98.8584C491.523 97.7255 490.059 96.6941 488.837 96.3394C487.764 96.0278 486.537 95.9792 485.437 96.1504Z"/>
	<path fill="#7D7F85" d="M276.886 92.3294C279.583 91.9313 283.557 92.1793 286.069 93.1495C287.535 93.7157 288.755 94.6783 289.395 96.1503C290.639 99.012 289.491 101.622 288.421 104.303C289.366 105.142 290.366 105.986 291.151 106.981C292.091 108.172 292.817 109.875 292.611 111.411C292.441 112.674 291.797 114.233 290.759 114.999C290.753 115.343 290.496 115.635 290.268 115.876C287.545 118.748 280.345 118.161 276.584 118.231C276.792 117.871 276.937 117.502 276.972 117.085C277.288 113.257 277.015 109.213 277.019 105.354C277.023 101.113 277.419 96.5007 276.886 92.3294ZM280.912 106.593C280.961 108.515 281.526 112.802 280.623 114.452C282.499 114.347 285.157 114.495 286.719 113.346L286.832 113.162C287.694 112.775 288.246 111.998 288.602 111.137C288.806 110.644 288.682 109.998 288.471 109.527C287.873 108.195 286.417 107.347 285.087 106.885C283.874 106.463 282.204 106.602 280.912 106.593ZM280.815 96.15C280.911 97.8488 281.511 102.427 280.67 103.74C281.753 103.596 283.859 103.534 284.581 102.598C284.601 102.572 284.618 102.545 284.636 102.518C285.445 102.084 286.135 101.259 286.39 100.363C286.59 99.6617 286.451 98.9426 286.078 98.3249C285.507 97.3772 284.385 96.5137 283.312 96.2686C282.463 96.0746 281.681 96.0485 280.815 96.15Z"/>
	<path fill="#7D7F85" d="M403.938 92.3297C406.678 91.8342 411.087 92.2045 413.567 93.4523C415.125 94.2357 416.446 95.5074 416.97 97.2056C417.803 99.9076 416.611 101.94 415.381 104.26C416.642 105.279 417.939 106.341 418.746 107.775C419.51 109.133 419.964 110.837 419.519 112.367C419.249 113.292 418.819 114.518 417.934 114.999C417.853 115.383 417.725 115.536 417.459 115.814C414.635 118.768 407.514 118.158 403.64 118.211C404.539 116.455 404.198 95.4519 403.938 92.3297ZM408.271 106.593C407.775 109.099 408.786 112.037 407.95 114.437C407.936 114.476 407.923 114.516 407.91 114.555C409.338 114.43 412.449 114.479 413.516 113.504C414.379 113.26 415.011 112.447 415.434 111.685C415.764 111.091 415.779 110.358 415.571 109.72C415.16 108.461 413.993 107.644 412.847 107.105C411.521 106.482 409.714 106.63 408.271 106.593ZM408.147 96.1502C408.227 98.0679 408.704 102.131 407.765 103.754C408.912 103.582 411.002 103.487 411.739 102.518C412.548 102.136 413.214 101.261 413.496 100.41C413.71 99.7651 413.576 99.0227 413.256 98.4375C412.715 97.4471 411.689 96.5888 410.599 96.291C409.774 96.0654 408.995 96.0498 408.147 96.1502Z"/>
	<path fill="#0066B4" d="M365.671 29.4179C368.189 28.8772 373.124 29.3125 375.921 29.2875C376.118 29.5632 376.264 29.8437 376.346 30.1754C376.758 31.8392 376.513 71.6954 376.28 72.3517C376.214 72.5378 376.001 72.799 375.892 72.9729L375.784 73.1871C374.514 73.7326 367.55 73.4663 365.696 73.531C365.714 73.4919 365.732 73.453 365.749 73.4136C366.187 72.382 366.247 30.9043 365.671 29.4179Z"/>
	<path fill="#0066B4" d="M399.473 28.3993C401.867 28.1604 404.576 28.6097 406.878 29.2384C408.632 29.7174 412.802 31.055 413.746 32.7127C413.75 32.7406 413.756 32.7682 413.759 32.7962C413.764 32.8424 413.765 32.889 413.768 32.9354C413.781 33.091 413.788 33.2335 413.772 33.3902C413.639 34.6782 410.349 39.5919 409.322 40.4379C409.291 40.3599 409.283 40.325 409.222 40.254C407.716 38.5214 404.702 37.2988 402.449 37.2175C401.15 37.1707 399.447 37.3843 398.479 38.3147C397.653 39.1081 397.021 40.3687 397.017 41.5253C397.004 44.8264 405.456 46.7195 408.027 47.8369C409.937 48.667 411.832 49.6992 413.272 51.231C415.467 53.5637 416.006 56.5156 415.9 59.6326C415.769 63.4845 414.388 67.6579 411.51 70.3352C407.52 74.047 402.032 74.1243 396.916 73.9662C390.268 73.2867 389.017 70.6089 383.925 67.604C384.013 67.5481 384.097 67.4901 384.178 67.4237C385.132 66.6412 389.069 61.2609 389.187 60.225C393.098 61.5397 394.959 65.5586 399.76 65.0729C401.476 64.8992 403.149 64.2933 404.263 62.9182C404.952 62.0676 405.578 60.9027 405.425 59.7817C404.878 55.749 393.52 53.5037 390.235 50.9965C388.056 49.3343 386.792 47.0472 386.431 44.3421C385.948 40.7243 386.891 36.6685 389.122 33.7553C391.759 30.3129 395.307 28.9602 399.473 28.3993Z"/>
	<path fill="#0066B4" d="M241.326 29.4176C244.137 28.9752 247.485 29.3449 250.335 29.4566C250.499 29.5587 250.646 29.6725 250.753 29.8348C252.388 32.3129 255.466 41.3166 256.812 44.7353C260.34 53.7009 264.286 62.6584 267.445 71.7517C267.643 72.3213 267.778 72.7346 267.638 73.3355C264.056 73.4212 260.473 73.3267 256.891 73.427C256.896 73.3449 256.901 73.2627 256.9 73.1804C256.89 71.4315 254.64 65.9472 253.447 64.7861C252.255 64.9974 250.935 64.9259 249.721 64.9482Q243.501 65.0132 237.281 64.8979C237.32 65.0417 237.344 65.1416 237.344 65.2913C237.345 66.9775 235.634 71.3315 234.43 72.4945C232.609 74.2537 225.678 73.2638 223.167 73.204C224.626 71.8347 238.932 34.9358 241.326 29.4176ZM245.437 43.6791C245.514 45.0566 241.635 55.5886 240.637 56.7162Q240.438 56.9394 240.217 57.1416L245.898 57.0814C247.492 57.0945 249.197 56.9849 250.774 57.1956C251.173 55.6363 246.908 45.7166 246.145 43.9661C245.92 43.8465 245.697 43.6941 245.437 43.6791Z"/>
	<path fill="#0066B4" d="M477.878 29.418C479.944 28.8685 484.527 29.3071 486.706 29.5917C487.065 29.7583 487.405 29.9518 487.716 30.1993C489.678 31.7634 491.386 34.2346 492.996 36.1589L502.784 47.9007C505.072 50.6329 507.943 53.4296 509.926 56.3514C510.083 56.5819 510.139 56.8694 510.174 57.1412C510.722 55.8365 510.546 30.8044 509.961 29.344C513.472 29.1795 517.014 29.4217 520.538 29.2723C520.61 29.3837 520.679 29.4954 520.736 29.6151C521.077 30.3214 521.274 71.7647 520.919 72.6921C520.767 73.0893 520.41 73.1398 520.037 73.3105C517.164 73.4869 514.459 73.4213 511.604 73.0335C511.591 72.9909 511.58 72.9478 511.566 72.9056C511.519 72.7651 491.088 48.0771 489.04 45.9123C488.798 45.657 488.482 45.473 488.173 45.3112Q488.405 45.8814 488.527 46.4848C489.107 49.3665 488.685 53.7171 488.701 56.7222C488.727 61.8917 489.091 67.2879 488.716 72.4378C488.691 72.7845 488.562 73.0497 488.373 73.3335C485.096 73.7517 481.19 73.4027 477.852 73.4531C478.012 73.1715 478.121 72.9067 478.141 72.5783C478.601 65.0219 478.184 56.6244 478.182 48.9904C478.181 45.0821 478.682 32.5303 477.878 29.418Z"/>
	<path fill="#0066B4" d="M319.424 29.418C323.226 28.8382 338.138 29.3635 341.778 30.3615C347.2 31.8484 351.739 35.1828 354.529 40.1016C357.469 45.2875 357.901 52.3579 356.318 58.0646C355.551 60.831 353.416 65.619 350.753 67.1146C350.696 67.275 350.623 67.4383 350.503 67.5626C343.479 74.8457 328.482 73.3386 319.14 73.4289C319.362 73.0318 319.506 72.6265 319.541 72.1715C319.975 66.5102 319.586 60.5014 319.585 54.8084C319.584 46.3849 319.875 37.8236 319.424 29.418ZM329.775 38.3322C330.409 40.044 330.381 62.887 329.841 64.0594C329.772 64.2097 329.69 64.3487 329.603 64.4891C333.585 64.3182 339.473 64.5646 342.384 61.3506C342.531 61.1881 342.591 61.09 342.631 60.8743C344.297 59.9257 345.475 57.5353 345.967 55.7436C346.987 52.0296 346.741 47.7979 344.806 44.4203Q344.517 43.904 344.177 43.4191Q343.838 42.9343 343.452 42.4859Q343.065 42.0375 342.636 41.6299Q342.207 41.2224 341.739 40.8599Q341.271 40.4974 340.769 40.1835Q340.267 39.8696 339.736 39.6075Q339.205 39.3454 338.651 39.1378Q338.096 38.9301 337.524 38.779C335.5 38.2323 331.822 37.7532 329.775 38.3322Z"/>
	<path fill="#0066B4" d="M273.512 29.4179C277.643 28.8863 291.849 29.2898 295.744 30.3451C301.054 31.7835 305.749 35.0364 308.491 39.8821C311.488 45.1765 311.934 52.3871 310.281 58.1974C309.486 60.9916 307.357 65.7198 304.656 67.2233C304.607 67.3805 304.577 67.5001 304.467 67.6277C298.428 74.629 281.731 73.3521 273.216 73.4213C274.047 71.8772 273.553 34.1527 273.512 29.4179ZM283.82 38.332C284.415 40.2989 284.31 63.3598 283.777 64.2586C283.709 64.3739 283.708 64.3707 283.639 64.4654C287.449 64.3325 293.387 64.6474 296.166 61.5704C296.311 61.4093 296.426 61.2322 296.528 61.0416C298.484 59.8245 299.696 57.0795 300.199 54.9172C301.05 51.2585 300.633 47.2438 298.615 44.0266C296.843 41.2013 294.114 39.3413 290.87 38.6176C288.926 38.1842 285.775 37.8472 283.82 38.332Z"/>
	<path fill="#EF2364" d="M97.082 113.135C104.908 108.537 113.894 105.357 122.099 101.447L122.084 147.668C122.087 153.386 122.252 159.142 122.123 164.855C116.59 167.244 111.149 169.879 105.669 172.39C103.632 173.323 99.6971 174.647 98.0606 176L97.1412 176C97.1415 155.051 97.3233 134.083 97.082 113.135Z"/>
	<path fill="#FEB414" d="M185.803 71.9491C186.349 71.9562 186.504 71.911 186.949 72.2632C187.198 75.8208 187.02 79.4843 187.011 83.0538L187.005 101.704L187.024 123.19C187.033 126.675 187.24 130.243 187.063 133.716C187.044 134.1 186.925 134.478 186.797 134.838C186.121 135.874 165.507 144.918 162.508 146.303C162.221 145.968 162.121 145.684 162.087 145.25C161.505 137.757 161.977 129.32 161.981 121.746Q161.859 102.353 161.989 82.9604C166.496 80.9739 170.95 78.8519 175.452 76.8484C178.789 75.3634 182.777 73.9541 185.803 71.9491Z"/>
	<path fill="#814199" d="M185.486 0L186.538 0C186.627 0.122702 186.708 0.245719 186.775 0.38241C186.878 0.594222 187.545 61.4354 186.765 63.5963C185.962 64.6768 165.394 73.1612 161.985 75.224C162.265 68.6662 162.052 62.0064 162.056 55.4407L162.076 11.3736C163.995 10.2113 166.247 9.35114 168.287 8.41011C173.958 5.7947 179.837 3.42649 185.367 0.535895L185.486 0Z"/>
	<path fill="#64BD47" d="M121.426 29.7663L121.671 29.8616C121.767 29.9772 121.977 30.1696 122.032 30.2985C122.367 31.0816 122.277 89.0366 122.016 93.3758C119.855 94.6402 117.412 95.623 115.137 96.6737C109.313 99.3642 103.351 101.839 97.5966 104.668C97.4901 104.531 97.2899 104.337 97.2217 104.186C96.7962 103.241 97.3047 48.3564 97.0819 41.2377C99.9366 39.599 103.036 38.314 106.03 36.9504C111.184 34.6023 116.358 32.2973 121.426 29.7663Z"/>
	<path fill="#05BBBF" d="M153.857 86.8236L154.401 86.8316C154.535 86.986 154.63 87.1369 154.646 87.3475C155.078 92.9385 154.633 98.9164 154.628 104.542C154.614 119.557 154.256 134.703 154.727 149.704C151.654 151.52 148.333 152.88 145.089 154.353Q137.534 157.761 130.016 161.25C129.913 161.189 129.793 161.127 129.712 161.036C129.636 160.951 129.455 160.699 129.429 160.59C128.922 158.452 129.361 147.371 129.365 144.546C129.386 129.268 129.569 113.957 129.274 98.6827C131.615 96.1272 149.171 88.9324 153.857 86.8236Z"/>
	<path fill="#F36223" d="M153.876 15.0167C154.147 15.0134 154.382 15.1098 154.636 15.196C154.936 17.2537 154.706 19.5844 154.696 21.682L154.663 34.3279L154.716 78.3635C146.623 82.7788 137.832 86.0117 129.585 90.1566C129.096 89.1199 129.256 33.355 129.309 26.2706C137.455 22.4245 145.578 18.5266 153.876 15.0167Z"/>
	<path fill="#0066B4" d="M444.348 28.3994Q444.538 28.3855 444.729 28.3779C451.224 28.0938 458.051 30.2343 462.852 34.6811C467.273 38.776 469.531 44.6816 469.73 50.627C469.933 56.7018 467.726 62.8825 463.533 67.3238C459.033 72.0907 453.166 73.828 446.787 74.0187C441.03 74.2096 435.411 72.9585 430.77 69.4034C426.029 65.7717 423.15 60.6881 422.37 54.7723C421.553 48.5676 423.027 42.0544 426.898 37.0778C431.469 31.2009 437.283 29.2725 444.348 28.3994ZM444.047 38.0781C440.245 38.92 437.082 40.3877 434.913 43.7758C432.938 46.8606 432.285 51.0606 433.073 54.6226Q433.209 55.2442 433.405 55.8492Q433.602 56.4543 433.858 57.0369Q434.114 57.6195 434.426 58.1739Q434.739 58.7282 435.104 59.2489Q435.47 59.7696 435.886 60.2514Q436.302 60.7333 436.763 61.1716Q437.225 61.6099 437.727 62.0003Q438.23 62.3906 438.769 62.7293C441.255 64.2952 444.351 64.8623 447.255 64.4494C450.688 64.2091 453.589 62.947 455.87 60.3095C458.243 57.5637 459.31 53.8691 459.033 50.2738C458.763 46.7662 457.166 43.3634 454.473 41.0641C451.552 38.5697 447.91 37.7502 444.152 38.0677C444.117 38.0706 444.082 38.0746 444.047 38.0781Z"/>
	<path fill="#0066B4" d="M0 0L0.539987 0C8.27387 3.85084 16.2631 7.24315 24.1134 10.8534L68.1598 31.164C75.0905 34.3682 83.3222 37.6851 89.937 41.1903L89.9026 134.657L89.9096 162.479C89.9127 166.881 90.3068 171.652 89.8353 176L88.8054 176L0 176L0 134.914L0 0ZM0 134.914L0 176L88.8054 176C86.6595 174.449 83.6203 173.373 81.1881 172.266L67.3263 165.951L22.8771 145.499C15.2631 141.998 7.44431 138.75 0 134.914Z"/>
</svg>
