<?xml version="1.0" encoding="utf-8" ?>
<svg xmlns="http://www.w3.org/2000/svg" xmlns:xlink="http://www.w3.org/1999/xlink" width="619" height="65">
	<path fill="#0E6B36" d="M196.281 0.452987C201.849 1.48261 243.466 1.79199 247.629 0.340182C248.106 0.831672 248.455 1.33331 248.642 2.00105C249.428 4.79869 250.914 11.0624 249.529 13.5307C249.463 13.3628 249.37 13.1756 249.24 13.048C243.063 6.97467 234.786 8.47477 226.847 8.46242C227.049 8.75472 227.229 9.1394 227.308 9.48654C227.942 12.2989 227.451 19.8455 227.456 23.015C227.468 31.5152 227.97 40.3494 227.402 48.82C227.373 49.2606 227.204 49.6631 226.972 50.0352C228.387 52.1571 227.196 56.1785 228.13 58.7141C228.725 60.3267 231.135 61.7597 231.421 63.3069C231.45 63.4657 231.48 63.6209 231.489 63.7826Q230.679 63.8537 229.866 63.8806C227.309 63.9458 214.21 64.3443 212.97 63.1665C212.993 63.0705 213.023 62.9811 213.057 62.8884C213.569 61.4628 215.673 60.6504 216.39 58.5444C216.727 57.5508 216.881 56.4868 216.934 55.4412C217.172 50.8209 217.44 10.2284 216.591 8.5088C211.985 8.42297 206.771 7.9754 202.263 9.00868C200.13 9.49761 196.377 12.4525 195.349 12.3917C194.988 12.3703 194.867 12.1143 194.642 11.8571C193.835 8.55778 195.99 3.82981 196.281 0.452987Z"/>
	<path fill="#0E6B36" d="M94.2894 0L96.0935 0Q96.4153 0.160611 96.7236 0.345701C97.0066 0.517216 97.2769 0.700597 97.5092 0.938129C99.8414 3.32357 103.969 14.516 105.557 18.0183L118.249 45.7706C120.519 50.7653 122.265 55.7025 125.477 60.2081C126.076 61.0481 127.551 62.3598 127.776 63.3319C127.807 63.4637 127.835 63.5925 127.85 63.727C121.108 64.2889 114.067 63.9087 107.302 63.7629Q108.091 63.2984 108.827 62.7532C110 61.8924 111.311 60.8704 111.545 59.3424C111.561 59.3019 111.57 59.2628 111.585 59.2221C111.656 59.0165 111.725 58.8163 111.736 58.5961C111.833 56.699 107.551 46.8416 106.284 45.4264C97.9029 45.1341 89.4684 45.3385 81.0809 45.3604C81.7972 48.3707 76.1166 55.1781 76.8986 59.7936C77.1478 61.2642 79.3745 61.9007 79.721 63.2891C79.7572 63.4341 79.7947 63.5764 79.8124 63.7253L79.8155 63.7529C77.3181 64.1083 64.5602 64.38 62.9094 63.2959C62.9401 63.1975 62.9777 63.1054 63.0186 63.0108C63.5392 61.8065 65.4527 60.8476 66.3154 59.8137C67.1966 58.7575 67.8286 57.2557 68.415 56.0165L94.2894 0ZM93.5038 17.3803C93.1327 20.2187 85.9914 36.8539 84.1585 38.6277C87.4118 38.4356 90.6655 38.4674 93.923 38.4767C96.8589 38.4661 100.064 38.2093 102.968 38.5287C103.283 37.0842 95.5936 19.9206 94.2416 17.8171C94.0748 17.5577 93.7834 17.4982 93.5038 17.3803Z"/>
	<path fill="#0E6B36" d="M135.644 1.36006C140.352 0.492846 161.571 0.961949 166.569 1.8493C169.894 2.43967 173.287 3.43406 176.11 5.34186C179.65 7.73483 181.723 11.1528 182.524 15.3222C184.059 23.3097 180.96 30.8686 173.681 34.8284C172.903 35.2516 170.791 35.6238 170.4 36.2011C176.883 43.1103 182.077 50.8013 188.231 57.9194C189.846 59.7869 192.099 61.0746 193.771 62.925L193.745 63.3812C191.621 64.4725 184.641 64.0695 182.195 63.8594C180.988 63.7558 179.881 63.3754 178.929 62.6154C174.935 59.4289 167.286 46.9956 163.332 42.2927C161.42 40.0175 159.903 39.2337 156.991 38.982C153.88 38.7131 154.119 36.2839 152.461 34.3127C152.518 33.9186 152.39 33.3557 152.352 32.95L152.414 32.8264C152.969 31.7225 163.941 33.1606 168.649 28.4757C170.917 26.2178 172.096 23.143 172.106 19.9643C172.114 16.9315 171.031 13.9288 168.869 11.7631C164.039 6.92504 155.29 8.15514 149.027 8.15686C151.211 11.1905 148.194 50.0326 150.324 58.5772C150.758 60.3142 152.262 61.7272 153.062 63.3269C152.872 63.51 152.646 63.6592 152.391 63.7313C150.578 64.243 136.922 64.0764 135.637 63.3556L135.603 63.1014C135.575 62.8853 135.546 62.8738 135.7 62.7031C137.085 61.1659 138.385 59.7121 138.835 57.6217C139.983 52.2848 139.226 40.9021 139.24 34.907C139.256 27.4745 139.942 16.0008 138.969 9.02547C138.807 7.86737 138.662 6.38586 138.147 5.32753C137.445 3.88624 135.595 3.03163 135.644 1.36006Z"/>
	<path fill="#0E6B36" d="M266.206 0L269.163 0L318.173 0L320.6 0C320.724 0.046328 320.841 0.0989736 320.955 0.164975C322.091 0.819245 322.34 2.52359 322.613 3.73049C323.346 6.97203 323.447 10.397 323.916 13.689L327.829 41.7387C328.437 46.1803 328.729 50.8966 329.681 55.2603C330.077 57.0758 330.722 59.0937 331.701 60.6859C332.217 61.526 333.398 62.5263 333.637 63.4459C333.667 63.5636 333.697 63.6791 333.716 63.7993C330.465 63.9895 318.436 64.445 315.977 63.4147C315.993 63.3474 316.014 63.2824 316.036 63.2166C316.591 61.5418 318.731 60.4531 318.951 58.558C319.497 53.8567 317.568 43.9408 316.967 38.9182C316.362 33.8604 316.09 28.4837 315.118 23.4965C315.02 22.9927 314.773 22.5228 314.458 22.1207C314.501 22.6686 314.414 23.166 314.207 23.675C310.595 32.5538 305.654 41.272 301.339 49.8388C299.261 53.9637 297.498 58.7633 294.965 62.5833C294.522 63.0561 292.992 63.3685 292.346 63.3997C291.334 63.4486 290.762 62.9839 290.167 62.2247C287.304 58.5754 285.05 52.4486 283.032 48.2307C280.359 42.6446 277.48 37.119 274.905 31.4921C273.694 28.8455 272.38 23.9658 270.236 22.041C270.503 22.6781 270.548 23.1842 270.493 23.8645C269.781 32.6966 268.223 41.5313 267.134 50.3267C266.778 53.2016 267.059 56.6756 266.312 59.3761Q266.436 59.4563 266.554 59.5451C267.489 60.2384 269.76 62.639 269.928 63.7578C266.919 63.9943 256.35 64.4639 254.009 63.4237C254.032 63.3274 254.061 63.2354 254.091 63.1413C254.495 61.893 256.295 60.2311 257.102 59.1018C258.009 57.8336 258.237 55.3491 258.51 53.7994C261.253 38.2412 263.134 22.3705 265.222 6.70585C265.449 4.99803 266.448 1.45482 266.206 0ZM269.163 0C269.966 0.287282 270.765 0.577962 271.349 1.22519C273.502 3.61096 277.889 14.0332 279.508 17.4595C281.412 21.4871 294 46.2926 293.388 48.2401C295.894 45.9343 297.8 40.1857 299.336 36.9575C302.686 29.9137 306.216 22.9529 309.602 15.9249C311.838 11.2838 313.833 6.38393 316.467 1.9579C316.926 1.18646 317.456 0.543147 318.173 0L269.163 0Z"/>
	<path fill="#0E6B36" d="M0 1.10238L17.315 1.07604C29.5849 1.06755 43.6355 0.794691 53.0154 10.1245C58.5637 15.6431 60.9264 23.398 60.9459 31.0818C60.9675 39.5656 58.309 48.0846 52.2294 54.1824C44.5687 61.8659 34.2288 63.8989 23.7296 63.9059L0 63.8458L0 62.0173L0 2.86667L0 1.10238ZM13.0089 8.47379C13.3601 11.9993 13.2165 15.6229 13.2212 19.1637L13.2153 36.7021C13.209 42.3092 13.7008 51.6079 13.1041 56.8186C23.022 56.8688 35.8596 57.8995 43.5326 50.3914C48.0344 46.1057 49.7135 40.3999 49.8601 34.3017C50.0248 27.4471 48.6933 20.1088 43.7912 14.9796C39.1996 10.1751 32.3927 8.60784 25.9727 8.47089C21.6586 8.37887 17.313 8.63689 13.0089 8.47379ZM0 2.86667L0 62.0173C0.493306 61.6684 1.0237 61.3045 1.44838 60.8736C2.63132 59.6733 2.73653 57.0867 2.88591 55.4881C3.34417 50.584 3.10491 45.5154 3.10757 40.5846L3.08471 15.1627C3.06898 10.7494 3.32002 6.16383 0 2.86667Z"/>
	<path fill="#0E6B36" d="M492.441 0.453222C493.964 0.260342 499.408 0.966625 501.52 1.0273C508.102 1.21636 539.132 1.84369 543.776 0.381516C544.26 0.838146 544.595 1.29602 544.824 1.92407C545.566 3.95873 547.114 10.8775 546.217 12.8055C545.131 12.9735 542.848 10.9195 541.726 10.2924C536.501 7.37072 529.113 8.51408 523.308 8.4085C523.476 8.68644 523.646 8.97856 523.737 9.29252C524.261 11.1188 524.085 45.8512 523.885 49.6227C523.865 50.0059 523.72 50.3696 523.533 50.702C524.785 52.6897 523.752 56.5621 524.716 58.9984C525.302 60.4794 527.504 61.8392 527.729 63.2577C527.753 63.4072 527.773 63.5522 527.777 63.7037C523.963 64.1765 519.865 63.9227 516.017 63.8988C514.483 63.8893 510.44 64.1936 509.413 63.1537C509.895 61.6104 512.12 60.6981 512.758 58.8121C513.375 56.9919 513.379 54.5834 513.45 52.6732C513.613 48.2407 513.942 10.0807 513.184 8.56459C508.702 8.42991 500.58 7.73045 496.584 9.54267C494.592 10.4462 492.958 12.108 490.922 13.0104C490.227 11.9064 492.221 2.37483 492.441 0.453222Z"/>
	<path fill="#0E6B36" d="M420.687 1.2946C423.229 1.15295 437.658 0.455419 438.832 1.47924C438.472 3.72668 436.375 5.48448 436.006 7.73556C435.105 13.2422 435.768 19.4608 435.772 25.0485C435.778 31.1452 435.108 37.8464 436.064 43.8633C436.463 46.3788 437.319 48.9137 438.822 50.9911C441.213 54.2937 444.899 56.02 448.848 56.6501C453.623 57.412 458.993 56.8064 462.987 53.8987C466.445 51.3809 468.279 47.6656 468.931 43.5001C469.58 39.3458 469.906 9.95846 468.633 6.9579C468.11 5.72457 465.631 2.70865 465.515 1.97177C465.511 1.94486 465.722 1.57417 465.748 1.52473C469.226 0.494775 477.731 0.89772 481.587 1.17095C481.479 3.46921 478.146 5.22648 477.801 8.37304C476.446 20.7423 479.553 38.795 475.953 50.1044Q475.549 51.397 474.978 52.6251Q474.408 53.8533 473.681 54.9958Q472.954 56.1382 472.083 57.1751Q471.212 58.2119 470.212 59.1252C467.575 61.522 464.395 62.8934 461.04 63.9927C460.006 64.3317 458.816 64.5384 457.837 65L443.9 65L443.877 64.9607C443.829 64.8828 443.771 64.8118 443.714 64.7407C442.346 63.0332 433.276 62.7644 428.572 54.5728C423.778 46.2245 425.31 26.8468 425.329 16.6548C425.335 13.362 425.658 9.62653 424.679 6.45358C424.106 4.59705 422.315 2.35025 420.687 1.2946Z"/>
	<path fill="#0E6B36" d="M555.334 1.38362C561.221 0.749976 568.048 0.727611 573.969 1.18486C573.846 3.60948 571.003 5.44051 570.658 8.22243C570.177 12.1089 571.365 26.137 569.941 28.262C581.687 28.0564 593.449 28.2571 605.197 28.2055C606.068 26.3188 605.636 10.2293 605.257 7.62988C604.847 4.82769 603.091 2.99178 600.897 1.35858C606.587 0.806949 612.772 0.806758 618.47 1.16831C618.864 2.15039 618.904 2.28399 618.593 3.29254C618.812 3.77728 618.943 4.26241 618.968 4.795C619.233 10.5978 619.402 59.9136 618.78 61.5594Q618.709 61.7535 618.611 61.9358C618.877 62.871 618.897 63.1122 618.616 64.0442C615.619 62.9438 604.301 64.9648 601.985 63.2298C601.991 63.1477 602.005 63.072 602.021 62.9919C602.203 62.1285 603.704 61.3923 604.165 60.5004C604.907 59.0655 605.248 57.2578 605.416 55.6622C605.649 53.4422 605.846 37.0777 605.402 35.7194L605.387 35.6744C601.299 35.4026 597.133 35.5415 593.036 35.541L569.828 35.5917C571.429 38.2391 570.027 52.9319 570.702 57.3544C571.082 59.8429 573.49 61.1709 573.956 63.2092C573.99 63.3576 574.021 63.5032 574.039 63.6544C573.661 63.7359 573.272 63.8023 572.887 63.8316C570.865 63.9852 557.45 64.2444 556.429 63.3682C556.448 63.2725 556.473 63.1821 556.502 63.089C556.805 62.0942 558.195 61.1685 558.811 60.3067C559.713 59.0438 559.863 56.2189 559.964 54.6953C560.551 45.8496 560.084 36.6543 560.08 27.7727C560.078 21.8209 560.681 13.4864 559.765 7.87651C559.295 5.0009 557.625 3.03361 555.334 1.38362ZM618.611 61.9358Q618.709 61.7535 618.78 61.5594C619.402 59.9136 619.233 10.5978 618.968 4.795C618.943 4.26241 618.812 3.77728 618.593 3.29254C616.312 5.30159 616.212 7.91359 616.03 10.7697C615.452 19.8653 615.867 29.228 615.874 38.3551C615.878 44.3184 615.272 51.355 616.196 57.1477C616.471 58.8741 617.119 60.2505 618.265 61.5548Q618.435 61.7477 618.611 61.9358Z"/>
	<path fill="#0E6B36" d="M369.213 0L382.201 0C384.927 1.04975 387.846 1.59386 390.603 2.63226C397.832 5.35541 403.538 11.6092 406.638 18.5888C410.113 26.4101 410.178 36.7992 407.111 44.76C404.376 51.8595 398.528 58.6467 391.511 61.7563C389.421 62.6826 383.973 64.0896 382.567 65L368.617 65C368.249 64.5511 359.37 61.4638 357.815 60.6195C355.2 59.1995 352.944 57.327 350.903 55.1702C344.882 48.8077 342.687 40.4931 342.931 31.8941C343.299 18.9513 349.521 7.60212 361.862 2.74924C363.106 2.26002 368.418 0.789385 368.971 0.255151C369.044 0.18537 369.117 0.116382 369.181 0.0388449L369.213 0ZM373.983 7.10457C367.427 8.04516 362.558 9.71218 358.427 15.2229C354.192 20.8719 353.226 29.2293 354.203 36.0469C355.201 43.0158 358.647 49.431 364.327 53.6854C367.607 56.1422 373.279 58.5408 377.466 57.9667C377.498 57.9623 377.53 57.9568 377.562 57.9512C383.305 57.4804 388.659 55.5459 392.489 51.0392C396.787 45.9807 398.662 38.5836 398.126 32.0516C397.532 24.8034 394.553 17.0182 388.9 12.2327C385.006 8.93654 379.323 6.65178 374.158 7.08807Q374.07 7.09551 373.983 7.10457Z"/>
</svg>
