<?xml version="1.0" encoding="utf-8" ?>
<svg xmlns="http://www.w3.org/2000/svg" xmlns:xlink="http://www.w3.org/1999/xlink" width="530" height="76">
	<path fill="#093F86" d="M321.052 76L321.074 75.9403C321.75 74.0239 321.303 64.322 321.3 61.3914C321.294 56.1078 321.083 5.02224 321.263 4.56218C321.332 4.38546 321.549 4.15113 321.663 3.98847L322.14 3.88331C323.002 4.70981 322.891 6.32874 322.915 7.47962C323.184 20.3788 322.924 33.3467 322.931 46.2532C322.935 55.6584 323.333 65.247 322.871 74.6232C322.844 75.1528 322.793 75.5452 322.5 76L321.052 76Z"/>
	<path fill="#093F86" d="M11.0259 53.0666L37.3485 53.0543C41.6582 53.0413 46.5673 52.5435 50.8181 53.1221C50.868 53.1289 50.8477 53.1195 50.8887 53.1559C51.3398 53.557 51.4199 54.1554 51.4517 54.7304C51.4946 55.5062 51.4419 55.952 50.9207 56.5271C46.022 56.4316 12.653 56.9266 10.9982 56.2441C10.9016 56.2043 10.803 55.9402 10.7644 55.8422C10.4401 55.0199 10.6754 53.8408 11.0259 53.0666Z"/>
	<path fill="#093F86" d="M258.209 29.5982Q258.31 29.5676 258.413 29.5442C259.895 29.2056 262.842 29.6752 264.488 29.6612C265.359 29.6538 266.646 29.3438 267.46 29.4615C267.549 29.4745 267.793 29.6694 267.884 29.7259C267.462 30.7079 266.253 30.4834 265.917 31.6335C264.694 35.8218 266.733 53.1533 265.582 55.2128C266.726 55.3421 268.32 55.4011 269.324 55.9631L269.247 56.3286L268.428 56.5868C265.482 56.3838 262.619 56.6495 259.694 56.5626C258.997 56.5418 258.598 56.602 258.107 56.0817C258.496 55.4926 259.769 55.2929 260.455 55.0012C260.621 54.7477 260.746 54.4639 260.799 54.1644C261.288 51.4069 261.469 33.2744 260.575 31.1912C260.252 30.4386 258.909 30.6014 258.209 29.5982Z"/>
	<path fill="#093F86" d="M496.779 33.4762C497.319 33.4803 497.43 33.4239 497.85 33.7973C497.992 34.8626 498.118 36.0088 498.553 37.0018C499.412 38.9613 502.633 42.442 502.423 44.4934C504.133 43.2828 506.483 37.8263 507.483 35.7789C507.416 35.2535 507.257 34.7858 507.08 34.2886L507.468 33.8766C509.347 33.3868 511.946 33.8031 513.895 33.9136C513.861 33.9765 513.819 34.0281 513.777 34.0852C513.272 34.7682 511.994 34.9478 511.192 35.1666C510.289 37.1114 508.476 39.132 507.341 41.013C506.295 42.7469 505.195 44.569 504.401 46.4357C504.081 47.1889 503.986 47.9671 503.628 48.7273C504.553 50.1404 503.961 52.2366 504.132 53.8286C504.356 55.9252 505.99 54.7783 507.195 55.7367L507.126 56.2574C506.996 56.3245 506.719 56.5167 506.588 56.5349C506.062 56.6082 505.076 56.2785 504.469 56.2423C502.726 56.1385 501.007 56.2031 499.273 56.3594C498.622 56.4181 498.256 56.397 497.761 55.9752L497.808 55.5854C498.431 55.3632 499.008 55.1423 499.577 54.7965C500.346 53.3401 500.184 50.0782 499.887 48.4482C499.379 45.6657 494.739 36.9719 492.35 35.329C492.025 34.8314 489.573 34.1634 488.884 33.9162C491.514 33.6196 494.143 33.8455 496.779 33.4762Z"/>
	<path fill="#093F86" d="M462.335 33.4762C462.779 33.5801 462.783 33.5911 463.052 33.9604C463.122 35.1282 463.253 36.8671 462.5 37.8479C461.801 37.5066 461.77 36.3899 460.996 35.7953L460.939 35.7517C458.886 35.4384 456.61 35.5343 454.524 35.4279C454.656 35.6123 454.773 35.8155 454.855 36.0272C455.434 37.5244 455.374 42.1861 454.75 43.6111C457.261 43.4306 459.948 43.5245 462.367 42.7807C462.536 43.0672 462.568 43.3941 462.571 43.7204C462.582 44.8394 462.599 47.0407 461.827 47.8231C460.909 47.3087 461.54 46.7264 460.997 46.124C459.784 44.7805 456.416 45.1073 454.719 45.0356C456.035 47.3308 453.971 51.197 455.526 53.3651C455.921 53.9157 456.569 54.209 457.225 54.3113C458.349 54.4865 461.254 54.7294 462.141 54.0685C462.211 54.0162 462.248 53.5006 462.264 53.3814C462.314 53.3447 462.362 53.3071 462.41 53.267C463.163 52.6327 463.304 51.5267 463.369 50.6063C463.642 51.1765 463.856 51.7574 463.896 52.3934C463.978 53.6622 464.014 55.0087 463.123 56.0115C462.115 56.6921 450.393 56.435 448.47 56.173L448.267 55.89C448.807 55.3404 449.546 55.3784 450.214 54.9882L450.253 54.965Q450.345 54.7441 450.413 54.5149C450.875 52.9716 450.815 36.0134 450.153 34.8248C449.46 34.7062 448.769 34.6198 448.07 34.5425L448.221 34.1306C451.65 32.4376 458.694 35.1285 462.274 33.5043L462.335 33.4762Z"/>
	<path fill="#093F86" d="M142.064 29.5982C143.137 29.3842 151 29.4688 151.568 29.8354C151.099 30.794 150.295 31.4751 150.061 32.5545C149.71 34.1727 149.928 48.5621 150.086 51.0838C150.139 51.9229 150.166 53.3114 150.842 53.9079C152.079 54.4558 156.844 54.8112 158.005 54.0001C158.976 53.3217 159.505 51.1766 160.577 50.8247C160.625 51.025 160.658 51.2301 160.66 51.4365Q160.661 51.707 160.609 51.9725Q160.557 52.2379 160.454 52.4883Q160.352 52.7387 160.202 52.9644Q160.053 53.1902 159.863 53.3828C159.936 53.6357 159.978 53.9113 160.009 54.1721C160.114 55.0496 159.875 55.7757 159.333 56.4581Q159.235 56.4778 159.136 56.4906C155.257 56.9731 150.937 56.3553 147.011 56.382C145.986 56.3889 143.854 56.8509 142.979 56.565C142.871 56.5297 142.624 56.287 142.524 56.2085L142.618 55.8296Q143.588 55.397 144.549 54.9462C145.814 52.7458 145.256 34.3431 144.794 31.1115C144.117 30.3286 143.274 30.7577 142.383 30.3007C142.211 30.2124 142.129 29.7914 142.064 29.5982Z"/>
	<path fill="#093F86" d="M350.608 29.5986C352.627 29.3331 356.33 28.7406 358.122 29.8458C358.755 30.2361 359.11 30.8465 359.282 31.5582C359.599 32.8619 359.348 34.3367 358.649 35.4704C358.154 35.3324 357.324 32.6251 356.588 31.9635C355.725 31.1874 354.31 30.9688 353.188 31.0261C352.248 31.074 351.1 31.2927 350.458 32.0267C349.834 32.739 349.488 33.7222 349.557 34.6675C349.767 37.5575 353.753 39.9339 355.807 41.6777C357.822 43.3885 359.64 45.6205 359.85 48.3509C359.994 50.2205 359.395 52.665 358.152 54.103C356.531 55.9787 354.132 56.5537 351.758 56.7218C349.874 57.1812 346.834 56.4578 344.919 56.2122C345.984 54.3349 344.35 50.8373 345.387 49.1284C345.45 49.1794 345.508 49.234 345.566 49.2906C346.132 49.8432 346.507 51.2206 346.843 51.9665C347.328 53.0424 348.028 54.2747 349.197 54.7028C350.613 55.2217 352.294 55.2239 353.672 54.5909C354.759 54.0917 355.544 53.1862 355.947 52.068C357.379 48.0993 348.52 43.3039 346.618 39.2536C345.827 37.5688 345.462 35.6731 346.12 33.8855C346.926 31.6976 348.572 30.5307 350.608 29.5986Z"/>
	<path fill="#093F86" d="M382.156 53.3244C382.987 52.6759 383.292 51.7282 383.503 50.7412C384.096 47.9815 384.721 37.0678 383.359 34.9669C382.757 34.7316 382.18 34.6326 381.541 34.5473L381.559 34.0987C382.919 33.5643 384.849 33.7301 386.309 33.6822C387.193 33.6747 388.297 33.6244 388.949 34.2643C388.473 34.5765 387.52 35.0932 387.271 35.6005C386.372 37.4326 387.521 46.7125 386.578 50.2147C385.973 52.4612 384.705 54.3728 382.66 55.5467C380.083 57.0257 376.452 57.1905 373.629 56.4116C366.417 54.4219 367.553 45.9698 367.684 40.1514C367.715 38.8086 367.901 37.3063 367.429 36.0263C366.896 34.5813 365.787 35.0134 365.281 34.1233L365.638 33.7347C367.512 33.7366 372.633 33.1833 374.004 34.2563L373.885 34.5557L372.55 35.0071C372.175 35.4507 372.158 35.9094 372.147 36.4602C372.074 40.1545 371.203 50.5364 373.73 53.1493C374.821 54.2761 376.463 54.8974 378.019 54.9148C379.569 54.9323 381.044 54.4088 382.156 53.3244Z"/>
	<path fill="#093F86" d="M428.385 33.4761C432.312 32.9888 436.238 33.4816 440.118 34.0861C440.234 34.3063 440.335 34.5542 440.369 34.8015C440.62 36.6323 440.271 39.4704 439.187 40.9391Q439.231 40.664 439.256 40.3864C439.357 39.2853 438.974 38.1465 438.263 37.3025C436.962 35.7585 434.8 35.1928 432.869 35.0265C430.396 34.8136 427.667 35.2555 425.723 36.9007C423.975 38.3792 423.444 40.7549 423.27 42.9432C423.026 46.0134 423.737 49.1809 425.779 51.5565C427.516 53.5772 430.403 55.0341 433.068 55.2311C434.215 55.3159 435.037 55.0864 435.924 54.3235C436.082 54.0599 436.194 53.774 436.209 53.4649C436.274 52.0733 436.665 47.3697 435.783 46.4377C435.771 46.4253 435.759 46.4133 435.747 46.4012C435.354 45.701 434.169 46.026 433.5 45.6591C433.743 45.3118 433.785 45.2801 434.199 45.1804C435.363 44.8992 441.565 44.7706 442.392 45.274C441.922 45.6819 441.051 46.3593 440.743 46.9C439.792 48.5739 441.678 53.2435 440.257 55.4439C439.981 55.7165 439.455 55.8814 439.083 55.9907C434.525 57.3329 427.962 57.0288 423.801 54.7531C421.317 53.3949 419.631 51.2646 418.845 48.55C417.951 45.4623 418.324 41.9403 419.881 39.1239C421.787 35.6776 424.816 34.5126 428.385 33.4761Z"/>
	<path fill="#093F86" d="M186.781 29.6785C188.161 29.5924 189.589 29.4276 190.964 29.6074C190.819 30.9225 189.014 30.3314 188.726 32.419C187.9 38.4068 189.872 44.8216 187.755 50.7103C186.939 52.9793 185.39 54.8595 183.184 55.8904C180.169 57.2995 175.577 57.2289 172.455 56.0843C163.045 52.6346 169.15 37.1284 166.485 31.4215C166.111 30.6206 164.758 30.5906 164 30.3198L163.754 29.5977C164.2 29.4945 172.996 29.5094 173.646 29.6159L173.694 29.8539C173.196 30.2589 172.634 30.6881 172.256 31.21C171.922 31.6711 171.669 32.2211 171.598 32.7887C171.323 34.9934 171.504 46.2804 171.855 48.5103C172.17 50.5134 172.894 52.4677 174.59 53.6927C176.092 54.7775 178.047 55.1414 179.86 54.8501C181.376 54.6064 182.805 53.8896 183.711 52.6223C185.671 49.8801 185.768 35.6159 185.123 31.966C184.756 29.8898 183.534 31.1039 182.265 30.2241L182.311 29.7815C183.336 29.1691 185.624 29.597 186.781 29.6785Z"/>
	<path fill="#093F86" d="M285.696 29.081L286.726 28.9801C286.876 29.0455 287.009 29.1293 287.13 29.2404C287.319 29.4144 297.538 54.7923 297.543 54.9807C298.588 55.1778 299.816 55.3885 300.741 55.9268L300.704 56.2281C298.622 56.8077 294.946 56.6958 292.773 56.4898C292.547 56.4684 292.168 56.1772 292.174 55.9337C292.239 53.2764 290.692 49.0933 289 47.0541C287.745 47.2351 286.388 47.1202 285.121 47.1016C283.796 47.1646 282.435 47.0729 281.107 47.046C281.654 48.8811 278.933 52.5784 278.962 54.5998C279.507 55.3267 280.401 55.4757 281.17 55.9577C281.065 56.3037 281.015 56.3078 280.705 56.4943C279.365 56.4604 272.833 56.7457 272.135 56.4324L271.991 55.9862C272.617 55.3042 274.012 55.3766 274.875 54.9883C275.28 54.7292 275.625 54.3034 275.841 53.8789C277.265 51.0838 278.271 48.002 279.401 45.0772C280.756 41.5732 282.214 38.1153 283.545 34.5999C284.222 32.8134 285.259 30.9148 285.696 29.081ZM285.258 36.5776C284.335 39.355 283.776 43.1561 281.832 45.3795L285.38 45.2709C286.426 45.298 287.474 45.3143 288.519 45.3865C288.733 43.6284 286.488 38.6019 285.761 36.8803L285.258 36.5776Z"/>
	<path fill="#093F86" d="M469.169 33.9931C471.253 33.2986 479.755 33.6643 481.892 34.1386C483.31 34.4535 484.921 35.1021 485.721 36.3865C486.235 37.2136 486.436 38.235 486.223 39.1833C486.427 39.6614 486.299 40.2238 486.159 40.7033C485.539 42.8253 483.826 44.6181 481.92 45.656C484.253 47.2655 486.757 51.7928 489.106 53.9448C490.328 55.0635 492.354 55.1216 493.233 56.3816C489.69 56.9184 486.643 56.171 483.779 54.1083C483.772 54.0755 483.765 54.0412 483.754 54.0093C483.266 52.6432 479.583 47.7402 478.333 47.0841C477.456 46.8404 476.21 46.9272 475.283 46.8783C476.159 48.429 476.179 53.3529 475.75 55.0638C476.773 55.2144 477.616 55.3433 478.504 55.9049L478.321 56.1674C476.022 56.5693 473.023 56.4819 470.663 56.4001C470.081 56.3799 469.904 56.2985 469.519 55.8817Q469.559 55.8028 469.602 55.7255C469.996 55.023 470.593 54.7541 471.341 54.5401C471.446 54.3146 471.535 54.0735 471.583 53.8293C471.975 51.8531 472.025 36.1611 471.259 35.0805C470.96 34.6587 469.991 34.6241 469.486 34.5298L469.169 33.9931ZM475.636 35.5441C476.014 37.6506 476.349 43.5319 475.463 45.4644C476.915 45.5033 478.864 45.7802 480.164 45.0888C480.329 44.8834 480.591 44.6261 480.672 44.3788C481.445 43.8982 481.888 43.2289 482.095 42.3476C482.229 41.7769 482.33 41.1363 482.082 40.5849C482.402 39.7105 482.218 38.5582 481.836 37.72C481.367 36.6898 480.373 36.1551 479.357 35.7864C478.194 35.3639 476.857 35.5002 475.636 35.5441Z"/>
	<path fill="#093F86" d="M399.753 33.7347C402.031 33.7574 404.512 33.6361 406.744 34.125C408.176 34.4387 409.678 35.1126 410.485 36.4011C411.198 37.541 411.229 38.9345 410.926 40.2086C410.33 42.7204 408.484 44.601 406.346 45.9169C409.177 47.3842 411.282 51.6013 413.649 53.8432C414.951 55.0755 416.836 55.0822 417.907 56.3065L417.927 56.3303C417.738 56.4084 417.523 56.4806 417.318 56.5008C413.583 56.8697 410.573 56.2905 408.063 53.3065C407.27 52.3641 406.656 51.3325 405.693 50.5377C405.691 50.4946 405.689 50.4495 405.68 50.4074C405.412 49.198 404.241 47.8758 403.265 47.1749C402.412 46.8557 401.022 46.8889 400.09 46.7884C401.277 48.9349 400.327 52.5353 401.008 54.9844Q401.465 55.1293 401.916 55.2895C402.471 55.49 403.3 55.654 403.551 56.1868C403.286 56.2981 403.004 56.3848 402.718 56.4153C401.984 56.4938 394.893 56.3956 394.594 56.2933C394.497 56.2597 394.308 56.0591 394.219 55.986C395.06 55.4334 395.988 54.7657 396.297 53.7531C396.507 53.0659 396.37 35.3969 396.141 35.0116C395.965 34.7153 394.205 34.5966 393.772 34.5052L393.84 34.1321C395.348 33.4311 398.073 33.7356 399.753 33.7347ZM400.437 35.5441C400.803 37.5419 401.085 43.6098 400.124 45.3786C401.487 45.4091 403.731 45.7439 404.924 45.1382C405.095 44.9113 405.342 44.6527 405.374 44.364C406.373 43.6118 406.986 42.106 407.153 40.8873C407.324 39.6434 406.902 38.4152 406.145 37.4278C405.411 36.4682 404.29 35.6576 403.075 35.5047C402.208 35.3956 401.305 35.4821 400.437 35.5441Z"/>
	<path fill="#093F86" d="M89.6534 23.9093C91.7727 23.7485 99.9556 23.8497 101.69 24.4203C102.301 24.6213 102.687 24.9167 102.969 25.4935C103.564 26.7107 103.346 31.8744 102.874 33.2217C102.055 33.2884 100.555 28.6545 99.2839 27.6574C97.0948 25.9407 92.5768 25.663 89.8625 25.991C86.9839 26.3388 84.8372 27.5006 83.0523 29.7909C80.368 33.2352 79.8829 37.8974 80.4114 42.1197C80.8914 45.9541 83.0494 49.5398 86.099 51.8925C89.32 54.3775 92.8911 54.7975 96.8144 54.2955C102.478 53.2942 100.771 49.7413 102.898 48.449C103.259 48.7876 103.276 48.933 103.31 49.4325C103.406 50.8239 102.864 54.7162 101.952 55.7691C101.005 56.3239 99.8883 56.5434 98.8171 56.7202C93.1098 57.662 85.4024 57.0496 80.5802 53.5794Q79.9542 53.1294 79.3758 52.6197Q78.7974 52.11 78.2724 51.5457Q77.7473 50.9813 77.2808 50.3678Q76.8142 49.7543 76.4107 49.0977Q76.0073 48.4411 75.6708 47.7478Q75.3344 47.0545 75.0683 46.3314Q74.8022 45.6083 74.6091 44.8624Q74.4159 44.1165 74.2976 43.3552C73.5731 38.8659 74.3278 34.1517 77.0402 30.4305C80.4392 25.7673 84.2776 24.7482 89.6534 23.9093Z"/>
	<path fill="#093F86" d="M210.508 50.0578C213.009 47.7451 219.199 29.4939 221.422 28.557C222.38 29.9628 225.804 52.6798 225.669 55.1383C227.043 55.3046 228.195 55.4833 229.435 56.1322L229.419 56.3793C227.254 56.7552 223.825 56.6832 221.64 56.3965C220.121 56.1973 220.579 44.8264 219.124 42.7844C219.27 42.5108 219.346 42.2307 219.373 41.9225C219.49 40.634 219.285 39.2203 218.441 38.2061Q218.492 38.5091 218.469 38.8155C218.38 39.8948 210.95 56.0064 210.068 56.7665C207.859 56.0447 202.821 40.9382 200.8 38.7699C201.438 40.5088 199.296 52.6953 198.689 55.1354C199.726 55.2929 201.241 55.4641 202.019 56.2171L201.831 56.351C199.593 56.7577 195.84 56.7945 193.61 56.3711C193.603 55.7945 195.731 54.7898 196.14 54.0624C196.885 52.7397 197 48.7542 197.209 47.1157C197.746 42.9164 198.512 31.8194 200.422 28.8225C200.858 28.9353 201.085 29.0413 201.332 29.4386C203.376 32.727 204.872 36.6702 206.544 40.1733C207.832 42.8708 209.593 45.7693 210.52 48.5953C210.673 49.0626 210.612 49.5861 210.508 50.0578Z"/>
	<path fill="#093F86" d="M232.893 29.5984C234.597 29.2675 243.277 29.5021 245.153 29.855C246.822 30.169 248.559 30.8216 249.549 32.2836C250.314 33.4143 250.429 34.8191 250.168 36.1311C249.754 38.2193 248.313 39.8666 246.578 41.0256C248.758 41.8241 250.618 43.1035 251.908 45.0575C252.832 46.4579 253.467 48.4463 253.118 50.1265C252.827 51.528 252.079 53.0308 250.859 53.831C250.797 54.2007 250.693 54.3215 250.422 54.5824C247.451 57.4477 237.864 56.4884 233.893 56.4494C234.088 55.7548 235.289 55.0864 235.706 54.3507C235.998 53.8369 236.223 53.2353 236.288 52.6476C236.609 49.7641 236.502 33.3646 235.837 31.0155C235.18 30.4475 234.447 30.6175 233.619 30.4C233.175 30.2833 233.116 29.9812 232.893 29.5984ZM240.564 42.5233C241.364 45.4133 239.406 52.8467 242.288 54.4594C243.229 54.9861 244.719 54.8713 245.734 54.569C246.267 54.41 246.672 54.2489 246.947 53.7596C247.876 53.1573 248.311 52.3018 248.541 51.2398C248.946 49.3661 248.279 47.4325 247.256 45.8655C246.197 44.2434 244.64 42.9452 242.719 42.5411C242.017 42.3935 241.269 42.3992 240.564 42.5233ZM240.916 31.1494C240.601 33.5537 241.46 39.2706 240.324 41.0633C241.602 41.0726 243.052 41.2132 244.262 40.7525L244.488 40.4561C245.462 39.9276 245.996 39.0072 246.308 37.9651C246.727 36.566 246.488 35.0539 245.793 33.7829C245.254 32.7959 244.275 31.6253 243.157 31.2968C242.426 31.0817 241.67 31.0725 240.916 31.1494Z"/>
	<path fill="#093F86" d="M122.483 29.0815C126.428 29.1372 130.438 29.706 133.415 32.5542C136.069 35.0937 137.289 38.6356 137.363 42.25Q137.384 42.9756 137.333 43.6997Q137.282 44.4237 137.16 45.1394Q137.039 45.855 136.847 46.5552Q136.656 47.2554 136.397 47.9335Q136.137 48.6116 135.813 49.261Q135.488 49.9104 135.101 50.5248Q134.714 51.1392 134.269 51.7128Q133.824 52.2863 133.324 52.8134C130.464 55.7717 126.598 56.7979 122.601 56.8665C119.148 56.7091 115.935 56.1971 113.188 53.9015C110.395 51.5668 108.792 47.9057 108.482 44.3262C108.157 40.5867 109.305 36.5551 111.737 33.6695C114.622 30.2482 118.244 29.443 122.483 29.0815ZM121.213 30.8909C118.909 31.1721 117.328 31.7824 115.859 33.656C113.714 36.3925 113.239 40.7416 113.66 44.086C114.079 47.4214 115.441 51.0071 118.174 53.1273C119.657 54.2787 121.99 55.169 123.895 55.1291C126.305 54.8896 128.062 54.3555 129.64 52.4175C131.862 49.6892 132.417 45.4066 132.06 42.0157C131.7 38.596 130.202 34.9277 127.46 32.7313C125.668 31.2957 123.494 30.6925 121.213 30.8909Z"/>
	<path fill="#093F86" d="M30.6376 13.0178Q30.9409 13.0816 31.2124 13.2309C34.7191 15.1896 31.9141 16.1592 32.4789 18.2917C32.8324 19.6267 34.7184 19.7212 35.0537 21.3073C35.4703 23.2782 33.841 25.1972 34.2993 26.8254C36.8645 27.8914 47.5088 22.1927 53.7917 24.5961Q54.1004 24.7143 54.396 24.8624Q54.6915 25.0105 54.9709 25.187Q55.2504 25.3636 55.511 25.5668Q55.7717 25.77 56.011 25.9979Q56.2503 26.2258 56.4659 26.4762Q56.6815 26.7266 56.8713 26.997Q57.0611 27.2674 57.2232 27.5553Q57.3854 27.8431 57.5183 28.1455C60.0647 33.8812 54.931 39.2804 52.7859 44.1288C51.9774 45.9561 51.7528 48.0555 51.02 49.9398C50.1961 50.6617 33.5106 50.2744 31.1194 50.2789C24.4465 50.2083 17.7191 50.1174 11.0524 50.4276C10.725 48.7445 10.3991 47.0576 9.73884 45.4674C7.9361 41.1256 4.83804 37.3475 4.14821 32.5732C3.86332 30.6014 3.99492 28.4471 5.24002 26.8041C10.6197 19.7054 22.1817 27.5701 27.5588 26.8139C27.5933 26.7861 27.9724 26.4913 27.9748 26.4792C28.1094 25.7907 26.9541 23.3336 26.9876 22.1848C27.012 21.3512 27.4429 20.4267 27.7386 19.654L29.3962 18.7681C29.7788 17.9461 29.2463 17.2418 29.1056 16.3676C28.896 15.0649 29.9202 14.0156 30.6376 13.0178ZM10.783 26.4439C9.39023 26.8552 8.18094 27.4078 7.45521 28.7408C6.60117 30.3095 6.71326 32.176 7.21282 33.8366C8.29447 37.4322 12.4903 44.8705 15.8902 46.6851C16.6196 47.0744 17.4994 47.3522 18.3183 47.0908C18.8291 46.9277 19.1964 46.5872 19.4291 46.1117C19.6562 45.6478 19.6788 45.1774 19.4977 44.6825C18.9479 43.1794 17.0461 42.0857 16.0789 40.8134C16.5229 38.8392 17.396 37.2243 18.456 35.5179L20.3278 37.5099C21.0753 38.2479 22.8545 39.689 22.8623 40.7731C22.8737 42.3635 21.2627 45.0877 22.5844 46.3898C23.2129 47.009 24.0331 47.1329 24.8821 47.1201C25.6694 47.1082 26.4296 46.9124 26.9927 46.3261C28.2557 45.011 28.3088 42.3163 28.2484 40.6242C28.1178 36.967 26.1959 33.9221 25.643 30.4131C20.6147 28.2159 16.4445 26.1698 10.783 26.4439ZM47.7802 26.4738C43.8075 26.9611 40.1757 28.755 36.5281 30.3102C35.331 34.924 32.1404 41.0341 34.8505 45.6098C35.2446 46.2753 35.831 46.9529 36.6081 47.1494C37.3306 47.3321 38.0208 47.1256 38.6405 46.746C39.4837 46.2295 39.9019 45.2347 40.3392 44.387C39.6547 42.917 39.0041 41.8967 39.6106 40.2516C40.1456 38.8004 42.1056 36.5032 43.5282 35.8305C43.611 35.7913 43.6998 35.7633 43.788 35.7394C44.5873 37.2839 45.5129 38.8559 46.1778 40.4593C45.1024 41.6873 42.4134 43.8962 42.5651 45.6915C42.6049 46.1623 42.787 46.474 43.1538 46.7646C43.6591 47.1649 44.4777 47.1916 45.0925 47.1119C46.6631 46.9082 47.662 45.9931 48.588 44.7819C51.1143 41.4771 55.8371 34.846 55.2295 30.4667C55.0656 29.285 54.5072 28.2024 53.5411 27.4825C51.8536 26.2252 49.7654 26.3834 47.7802 26.4738Z"/>
</svg>
