<?xml version="1.0" encoding="UTF-8"?>
<svg width="152px" height="50px" viewBox="0 0 152 50" version="1.1" xmlns="http://www.w3.org/2000/svg" xmlns:xlink="http://www.w3.org/1999/xlink">
    <!-- Generator: Sketch 52.2 (67145) - http://www.bohemiancoding.com/sketch -->
    <title>logo RGB 56-0-100-27 Copy</title>
    <desc>Created with Sketch.</desc>
    <g id="FIRT" stroke="none" stroke-width="1" fill="none" fill-rule="evenodd">
        <g id="logo-RGB-56-0-100-27-Copy">
            <path d="M140.103164,23.7254545 L145.112358,23.7254545 L145.112358,5.39090909 L151.59754,5.39090909 L151.59754,0.951818182 L133.617982,0.951818182 L133.617982,5.39090909 L140.103164,5.39090909 L140.103164,23.7254545 Z M131.019463,2.75318182 C129.093373,1.04863636 126.620537,0.373181818 124.051964,0.373181818 C119.589063,0.373181818 115.382973,2.91409091 115.382973,7.77090909 C115.382973,15.3622727 126.042937,13.1104545 126.042937,17.2922727 C126.042937,18.9004545 124.212585,19.6727273 122.574615,19.6727273 C120.905337,19.6727273 119.235606,18.8681818 118.207904,17.5172727 L115.441051,21.4413636 C117.592191,23.4359091 119.364012,24.3040909 122.286496,24.3040909 C126.973994,24.3040909 131.051224,21.8918182 131.051224,16.8095455 C131.051224,8.80454545 120.584549,11.5559091 120.584549,7.35272727 C120.584549,5.64818182 122.542854,5.005 123.955319,5.005 C125.17631,5.005 126.781158,5.48727273 127.583809,6.51681818 L131.019463,2.75318182 Z M99.6471164,5.19772727 L102.922603,5.19772727 C104.752501,5.19772727 106.807451,5.55181818 106.807451,7.83545455 C106.807451,10.3122727 104.43126,10.3763636 102.601361,10.3763636 L99.6471164,10.3763636 L99.6471164,5.19772727 Z M94.6383761,23.7254545 L99.6471164,23.7254545 L99.6471164,14.6222727 L102.119499,14.6222727 L106.871427,23.7254545 L112.875654,23.7254545 L107.09557,14.1077273 C110.307081,13.5286364 112.008573,11.0522727 112.008573,7.86772727 C112.008573,2.56 108.09151,0.951818182 103.436227,0.951818182 L94.6383761,0.951818182 L94.6383761,23.7254545 Z M83.9121672,23.7254545 L88.9213612,23.7254545 L88.9213612,0.952272727 L83.9121672,0.952272727 L83.9121672,23.7254545 Z M63.4107701,23.7254545 L68.4195104,23.7254545 L68.4195104,14.8477273 L77.8911522,14.8477273 L77.8911522,10.2159091 L68.4195104,10.2159091 L68.4195104,5.58409091 L78.6620418,5.58409091 L78.6620418,0.951818182 L63.4107701,0.951818182 L63.4107701,23.7254545 Z" id="Fill-1" fill="#272626"></path>
            <polygon id="Fill-2" fill="#272626" points="63.3749254 38.2190909 64.745194 38.2190909 64.745194 28.6009091 63.3749254 28.6009091"></polygon>
            <polyline id="Fill-3" fill="#272626" points="68.0565254 28.6009091 69.8551164 28.6009091 75.4224 36.5072727 75.4505313 36.5072727 75.4505313 28.6009091 76.8212537 28.6009091 76.8212537 38.2190909 75.0789254 38.2190909 69.4558328 30.3127273 69.426794 30.3127273 69.426794 38.2190909 68.0565254 38.2190909 68.0565254 28.6009091"></polyline>
            <path d="M80.9892299,36.9963636 L82.7161313,36.9963636 C85.0278925,36.9963636 86.997994,35.7872727 86.997994,33.4095455 C86.997994,32.1877273 86.3273791,29.8231818 83.0441791,29.8231818 L80.9892299,29.8231818 L80.9892299,36.9963636 Z M79.6189612,28.6009091 L83.1444537,28.6009091 C87.411797,28.6009091 88.4540179,31.63 88.4540179,33.4095455 C88.4540179,35.8686364 86.5270209,38.2190909 82.9153194,38.2190909 L79.6189612,38.2190909 L79.6189612,28.6009091 Z" id="Fill-4" fill="#272626"></path>
            <path d="M92.0366806,28.6009091 L92.0366806,34.4968182 C92.0366806,35.6918182 92.6646448,37.2404545 94.5771224,37.2404545 C96.4900537,37.2404545 97.1180179,35.6918182 97.1180179,34.4968182 L97.1180179,28.6009091 L98.4882866,28.6009091 L98.4882866,34.7004545 C98.4882866,36.9281818 96.7895164,38.4631818 94.5771224,38.4631818 C92.3647284,38.4631818 90.6664119,36.9281818 90.6664119,34.7004545 L90.6664119,28.6009091 L92.0366806,28.6009091" id="Fill-5" fill="#272626"></path>
            <path d="M101.985648,36.2081818 C102.47114,36.9145455 103.312358,37.2404545 104.126352,37.2404545 C105.025648,37.2404545 106.138651,36.6977273 106.138651,35.6377273 C106.138651,33.4231818 101.157134,34.7959091 101.157134,31.0463636 C101.157134,29.9186364 102.156251,28.3563636 104.582806,28.3563636 C105.682197,28.3563636 106.738484,28.5736364 107.494854,29.4568182 L106.381397,30.4209091 C106.03883,29.9186364 105.368669,29.5786364 104.582806,29.5786364 C103.070066,29.5786364 102.613158,30.4481818 102.613158,31.0463636 C102.613158,33.4781818 107.595128,32.0240909 107.595128,35.4886364 C107.595128,37.3495455 106.024764,38.4631818 104.083701,38.4631818 C102.784215,38.4631818 101.54326,38.0427273 100.858125,37.1318182 L101.985648,36.2081818" id="Fill-6" fill="#272626"></path>
            <polyline id="Fill-7" fill="#272626" points="112.519475 29.8231818 109.26486 29.8231818 109.26486 28.6009091 117.144812 28.6009091 117.144812 29.8231818 113.890197 29.8231818 113.890197 38.2190909 112.519475 38.2190909 112.519475 29.8231818"></polyline>
            <path d="M120.755606,32.8395455 L122.554197,32.8395455 C123.639069,32.8395455 124.72394,32.5945455 124.72394,31.2904545 C124.72394,29.9868182 123.639069,29.7418182 122.554197,29.7418182 L120.755606,29.7418182 L120.755606,32.8395455 Z M119.385791,28.6009091 L122.939415,28.6009091 C125.522961,28.6009091 126.179964,30.0818182 126.179964,31.2904545 C126.179964,32.5127273 125.223045,33.6677273 123.695785,33.8309091 L126.565182,38.2190909 L124.852346,38.2190909 L122.282866,33.9804545 L120.755606,33.9804545 L120.755606,38.2190909 L119.385791,38.2190909 L119.385791,28.6009091 Z" id="Fill-8" fill="#272626"></path>
            <polygon id="Fill-9" fill="#272626" points="128.891916 38.2190909 130.262639 38.2190909 130.262639 28.6009091 128.891916 28.6009091"></polygon>
            <path d="M139.268752,34.7004545 L137.38486,30.2854545 L137.356275,30.2854545 L135.443343,34.7004545 L139.268752,34.7004545 Z M136.813612,28.6009091 L138.055475,28.6009091 L142.380442,38.2190909 L140.781493,38.2190909 L139.76831,35.8413636 L134.957851,35.8413636 L133.959188,38.2190909 L132.360693,38.2190909 L136.813612,28.6009091 Z" id="Fill-10" fill="#272626"></path>
            <polyline id="Fill-11" fill="#272626" points="144.336024 28.6009091 145.706746 28.6009091 145.706746 36.9963636 150.345696 36.9963636 150.345696 38.2190909 144.336024 38.2190909 144.336024 28.6009091"></polyline>
            <polygon id="Fill-12" fill="#272626" points="109.888287 47.8313636 111.406472 47.8313636 111.406472 46.3113636 109.888287 46.3113636"></polygon>
            <path d="M64.3522627,46.6718182 L64.4997254,46.6718182 C65.1299582,46.6718182 65.5737075,46.485 65.5737075,45.7677273 C65.5737075,45.0427273 65.1145313,44.9018182 64.5074388,44.9018182 L64.3522627,44.9018182 L64.3522627,46.6718182 Z M67.1762866,49.8436364 L65.7910448,49.8436364 L64.3676896,47.4745455 L64.3522627,47.4745455 L64.3522627,49.8436364 L63.2079522,49.8436364 L63.2079522,43.9677273 L64.7565373,43.9677273 C65.9158209,43.9677273 66.7171104,44.4818182 66.7171104,45.7368182 C66.7171104,46.485 66.3046687,47.2327273 65.518806,47.3654545 L67.1762866,49.8436364 Z" id="Fill-13" fill="#272626"></path>
            <polyline id="Fill-14" fill="#272626" points="72.3497313 44.9654545 72.3497313 46.2586364 74.171009 46.2586364 74.171009 47.2563636 72.3497313 47.2563636 72.3497313 48.8459091 74.2404299 48.8459091 74.2404299 49.8436364 71.2063284 49.8436364 71.2063284 43.9677273 74.2404299 43.9677273 74.2404299 44.9654545 72.3497313 44.9654545"></polyline>
            <path d="M80.8467582,45.5336364 L80.8304239,45.5336364 L80.1852179,47.6690909 L81.5777194,47.6690909 L80.8467582,45.5336364 Z M79.8576239,48.605 L79.3757612,49.8436364 L78.1697433,49.8436364 L80.4574567,43.8113636 L81.3440478,43.8113636 L83.5700537,49.8436364 L82.3477015,49.8436364 L81.8962388,48.605 L79.8576239,48.605 Z" id="Fill-15" fill="#272626"></path>
            <polyline id="Fill-16" fill="#272626" points="88.7199045 48.8459091 90.3388179 48.8459091 90.3388179 49.8436364 87.5765015 49.8436364 87.5765015 43.9677273 88.7199045 43.9677273 88.7199045 48.8459091"></polyline>
            <polyline id="Fill-17" fill="#272626" points="96.2672716 49.8436364 95.1234149 49.8436364 95.1234149 44.9654545 93.940991 44.9654545 93.940991 43.9677273 97.4496955 43.9677273 97.4496955 44.9654545 96.2672716 44.9654545 96.2672716 49.8436364"></polyline>
            <polyline id="Fill-18" fill="#272626" points="100.981994 43.9677273 102.312334 43.9677273 103.339128 46.0090909 104.459391 43.9677273 105.797899 43.9677273 103.945767 47.1477273 103.945767 49.8436364 102.802364 49.8436364 102.802364 47.1477273 100.981994 43.9677273"></polyline>
            <polyline id="Fill-19" fill="#272626" points="117.872143 49.8436364 116.728287 49.8436364 116.728287 44.9654545 115.545863 44.9654545 115.545863 43.9677273 119.055021 43.9677273 119.055021 44.9654545 117.872143 44.9654545 117.872143 49.8436364"></polyline>
            <path d="M124.430376,46.6718182 L124.578746,46.6718182 C125.208979,46.6718182 125.652728,46.485 125.652728,45.7677273 C125.652728,45.0427273 125.193552,44.9018182 124.58646,44.9018182 L124.430376,44.9018182 L124.430376,46.6718182 Z M127.255307,49.8436364 L125.870066,49.8436364 L124.44671,47.4745455 L124.430376,47.4745455 L124.430376,49.8436364 L123.286973,49.8436364 L123.286973,43.9677273 L124.835558,43.9677273 C125.994842,43.9677273 126.796131,44.4818182 126.796131,45.7368182 C126.796131,46.485 126.38369,47.2327273 125.597827,47.3654545 L127.255307,49.8436364 Z" id="Fill-20" fill="#272626"></path>
            <path d="M130.865648,43.9677273 L132.009051,43.9677273 L132.009051,47.2563636 C132.009051,47.9818182 132.071666,49.0022727 133.044466,49.0022727 C134.016358,49.0022727 134.078973,47.9818182 134.078973,47.2563636 L134.078973,43.9677273 L135.222376,43.9677273 L135.222376,47.4822727 C135.222376,48.9163636 134.615737,50 133.044466,50 C131.47274,50 130.865648,48.9163636 130.865648,47.4822727 L130.865648,43.9677273" id="Fill-21" fill="#272626"></path>
            <path d="M142.216645,45.2613636 C141.999307,44.9654545 141.718901,44.7777273 141.338221,44.7777273 C140.97206,44.7777273 140.622233,45.0581818 140.622233,45.4409091 C140.622233,46.43 142.948513,46.0168182 142.948513,47.9890909 C142.948513,49.1659091 142.216645,50 141.019248,50 C140.209791,50 139.618579,49.5322727 139.213851,48.8545455 L139.952525,48.1290909 C140.108609,48.5813636 140.520597,48.9872727 141.011081,48.9872727 C141.47797,48.9872727 141.765636,48.5895455 141.765636,48.1377273 C141.765636,47.5295455 141.205731,47.3577273 140.746101,47.1781818 C139.991546,46.8668182 139.439355,46.485 139.439355,45.5731818 C139.439355,44.5981818 140.162603,43.8113636 141.151284,43.8113636 C141.672621,43.8113636 142.395869,44.0690909 142.754316,44.4659091 L142.216645,45.2613636" id="Fill-22" fill="#272626"></path>
            <polyline id="Fill-23" fill="#272626" points="149.032143 49.8436364 147.88874 49.8436364 147.88874 44.9654545 146.706316 44.9654545 146.706316 43.9677273 150.215021 43.9677273 150.215021 44.9654545 149.032143 44.9654545 149.032143 49.8436364"></polyline>
            <polygon id="Fill-24" fill="#588D32" points="0 15.0686364 29.803797 15.0686364 29.803797 0.771818182 0 0.771818182"></polygon>
            <polygon id="Fill-25" fill="#A1BD84" points="31.8469493 14.9972727 52.7240358 14.9972727 52.7240358 0.844090909 31.8469493 0.844090909"></polygon>
            <polygon id="Fill-26" fill="#588D32" points="31.8573851 49.8377273 52.7022567 49.8377273 52.7022567 17.0768182 31.8573851 17.0768182"></polygon>
            <polyline id="Fill-27" fill="#588D32" points="29.7516179 17.1363636 0 17.1363636 0 49.8986364 19.3380299 49.8986364 19.3380299 35.3059091 29.9344716 35.3059091 29.9344716 17.1363636"></polyline>
        </g>
    </g>
</svg>