<svg width="987" height="747" viewBox="0 0 987 747" fill="none" xmlns="http://www.w3.org/2000/svg">
<path d="M0.0272425 134.9L14.8872 179.28C14.9472 179.47 15.1173 179.61 15.3173 179.64L47.0373 183.62C47.2173 183.64 47.3672 183.75 47.4472 183.91L120.017 331.14C120.147 331.41 120.477 331.51 120.747 331.37L149.947 315.24C150.207 315.1 150.297 314.77 150.147 314.52L68.6573 171.83C68.5673 171.67 68.5673 171.47 68.6573 171.31L84.8673 143.05C84.9773 142.86 84.9572 142.62 84.8172 142.45L54.3772 105.69C54.2172 105.5 53.9372 105.44 53.7172 105.56L39.9472 113.07C39.6972 113.21 39.5972 113.52 39.7372 113.78L54.9372 142.67C55.0272 142.84 55.0172 143.04 54.9172 143.19L46.4472 156.74C46.3472 156.9 46.1772 156.99 45.9972 156.99L29.8472 156.75C29.6572 156.75 29.4772 156.64 29.3872 156.47L13.8173 127.61C13.6773 127.35 13.3572 127.26 13.1072 127.4L0.277242 134.25C0.0472424 134.37 -0.0527575 134.64 0.0272425 134.88V134.9Z" fill="#E4EAF8"/>
<path d="M0.0272425 134.9L14.8872 179.28C14.9472 179.47 15.1173 179.61 15.3173 179.64L47.0373 183.62C47.2173 183.64 47.3672 183.75 47.4472 183.91L120.017 331.14C120.147 331.41 120.477 331.51 120.747 331.37L149.947 315.24C150.207 315.1 150.297 314.77 150.147 314.52L68.6573 171.83C68.5673 171.67 68.5673 171.47 68.6573 171.31L84.8673 143.05C84.9773 142.86 84.9572 142.62 84.8172 142.45L54.3772 105.69C54.2172 105.5 53.9372 105.44 53.7172 105.56L39.9472 113.07C39.6972 113.21 39.5972 113.52 39.7372 113.78L54.9372 142.67C55.0272 142.84 55.0172 143.04 54.9172 143.19L46.4472 156.74C46.3472 156.9 46.1772 156.99 45.9972 156.99L29.8472 156.75C29.6572 156.75 29.4772 156.64 29.3872 156.47L13.8173 127.61C13.6773 127.35 13.3572 127.26 13.1072 127.4L0.277242 134.25C0.0472424 134.37 -0.0527575 134.64 0.0272425 134.88V134.9Z" fill="#A4ABBA"/>
<path d="M569.167 498.74H557.277C555.537 491.97 552.857 485.59 549.387 479.72L557.807 471.3C561.147 467.96 561.147 462.55 557.807 459.21L544.177 445.58C540.837 442.24 535.427 442.24 532.087 445.58L523.667 454C517.797 450.53 511.417 447.84 504.647 446.11V434.22C504.647 429.5 500.827 425.67 496.097 425.67H476.837C472.117 425.67 468.287 429.5 468.287 434.22V446.11C461.517 447.85 455.137 450.53 449.267 454L440.847 445.58C437.507 442.24 432.097 442.24 428.757 445.58L415.127 459.21C411.787 462.55 411.787 467.96 415.127 471.3L423.547 479.72C420.077 485.59 417.397 491.97 415.657 498.74H403.767C399.047 498.74 395.217 502.56 395.217 507.29V526.55C395.217 531.27 399.047 535.1 403.767 535.1H415.657C417.397 541.87 420.077 548.25 423.547 554.12L415.127 562.54C411.787 565.88 411.787 571.29 415.127 574.63L428.757 588.26C432.097 591.6 437.507 591.6 440.847 588.26L449.267 579.84C455.137 583.31 461.517 586 468.287 587.73V599.62C468.287 604.34 472.117 608.17 476.837 608.17H496.097C500.827 608.17 504.647 604.34 504.647 599.62V587.73C511.417 585.99 517.797 583.31 523.667 579.84L532.087 588.26C535.427 591.6 540.837 591.6 544.177 588.26L557.807 574.63C561.147 571.29 561.147 565.88 557.807 562.54L549.387 554.12C552.857 548.25 555.547 541.87 557.277 535.1H569.167C573.887 535.1 577.717 531.27 577.717 526.55V507.29C577.717 502.56 573.887 498.74 569.167 498.74ZM486.467 563.57C460.707 563.57 439.817 542.68 439.817 516.92C439.817 491.16 460.707 470.27 486.467 470.27C512.227 470.27 533.117 491.16 533.117 516.92C533.117 542.68 512.227 563.57 486.467 563.57Z" fill="#E4EAF8"/>
<path d="M173.387 394.24L164.887 391.55C165.177 386.32 164.707 381.15 163.547 376.16L171.467 372.05C174.607 370.42 175.837 366.55 174.207 363.41L167.547 350.58C165.917 347.44 162.047 346.21 158.907 347.84L150.987 351.95C147.577 348.14 143.617 344.78 139.177 342L141.867 333.5C142.937 330.13 141.067 326.52 137.687 325.45L123.917 321.09C120.547 320.02 116.937 321.9 115.867 325.27L113.177 333.77C107.947 333.48 102.777 333.95 97.7872 335.11L93.6772 327.19C92.0472 324.05 88.1772 322.82 85.0372 324.45L72.2072 331.11C69.0672 332.74 67.8372 336.61 69.4672 339.75L73.5772 347.67C69.7672 351.08 66.4072 355.04 63.6272 359.48L55.1272 356.79C51.7572 355.72 48.1472 357.59 47.0772 360.97L42.7172 374.74C41.6472 378.11 43.5272 381.72 46.8972 382.79L55.3972 385.48C55.1072 390.71 55.5772 395.88 56.7372 400.87L48.8172 404.98C45.6772 406.61 44.4472 410.48 46.0772 413.62L52.7372 426.45C54.3672 429.59 58.2372 430.82 61.3772 429.19L69.2972 425.08C72.7072 428.89 76.6672 432.25 81.1072 435.03L78.4172 443.53C77.3472 446.9 79.2272 450.51 82.5972 451.58L96.3672 455.94C99.7472 457.01 103.347 455.13 104.417 451.76L107.107 443.26C112.337 443.55 117.507 443.08 122.497 441.92L126.607 449.84C128.237 452.98 132.107 454.21 135.247 452.58L148.077 445.92C151.217 444.29 152.447 440.42 150.817 437.28L146.707 429.36C150.517 425.95 153.877 421.99 156.657 417.55L165.157 420.24C168.527 421.31 172.137 419.43 173.207 416.06L177.567 402.29C178.637 398.91 176.757 395.31 173.387 394.24ZM99.5872 421.88C81.1672 416.05 70.9572 396.38 76.7872 377.97C82.6172 359.55 102.287 349.34 120.697 355.17C139.117 361 149.327 380.67 143.497 399.08C137.667 417.5 117.997 427.71 99.5872 421.88Z" fill="#F2F5FA"/>
<path d="M749.047 95.7501L779.377 516.92H129.017L98.6872 95.7501C98.4572 92.6101 100.837 90.0701 103.967 90.0701H742.957C746.087 90.0701 748.817 92.6201 749.037 95.7501H749.047Z" fill="white"/>
<path d="M762.687 217.13L754.637 105.36L753.947 95.7499C753.527 89.9199 748.447 85.1799 742.607 85.1799H103.617C97.7873 85.1799 93.3873 89.9199 93.8073 95.7499L94.4973 105.36L124.487 521.83H784.627L762.687 217.13ZM129.027 516.93L108.657 234.07L99.3873 105.36L98.6973 95.7499C98.6773 95.4299 98.6773 95.1199 98.7073 94.8199C98.7273 94.6499 98.7473 94.4799 98.7773 94.3199C98.8073 94.1499 98.8473 93.9899 98.8973 93.8299C98.9773 93.5199 99.0873 93.2299 99.2273 92.9599C99.3073 92.7999 99.3973 92.6499 99.4873 92.4999C99.5773 92.3699 99.6673 92.2299 99.7673 92.1099C99.8673 91.9799 99.9673 91.8599 100.077 91.7399C100.197 91.6099 100.317 91.4899 100.457 91.3699C100.577 91.2599 100.717 91.1499 100.857 91.0499C100.857 91.0499 100.867 91.0499 100.867 91.0399C101.007 90.9399 101.157 90.8499 101.317 90.7599C101.467 90.6699 101.627 90.5899 101.797 90.5199C102.127 90.3699 102.477 90.2599 102.837 90.1899C103.207 90.1099 103.587 90.0699 103.977 90.0699H742.957C744.517 90.0699 745.977 90.7099 747.087 91.7399C747.217 91.8699 747.347 91.9999 747.477 92.1399C747.727 92.4099 747.957 92.7199 748.147 93.0399C748.147 93.0399 748.157 93.0399 748.157 93.0499C748.657 93.8499 748.967 94.7699 749.037 95.7499L749.727 105.36L757.637 215.1L758.997 234.07L779.377 516.93H129.027Z" fill="#E4EAF8"/>
<path d="M754.637 105.36H94.4973L93.8073 95.7499C93.3873 89.9199 97.7873 85.1799 103.617 85.1799H742.607C748.447 85.1799 753.527 89.9199 753.947 95.7499L754.637 105.36Z" fill="#61BB8A"/>
<path d="M753.947 95.7499L754.637 105.35H94.4973L93.8073 95.7499C93.3873 89.9099 97.7873 85.1699 103.627 85.1699H742.607C748.447 85.1699 753.527 89.9099 753.947 95.7499Z" fill="#589473"/>
<path d="M759.007 234.07H108.657L99.3872 105.36H749.737L759.007 234.07Z" fill="#EBF5F0"/>
<path d="M759.007 234.07H108.657L99.3872 105.36H749.737L759.007 234.07Z" fill="#BCE8D0"/>
<path d="M513.727 480.17C475.597 480.2 434.537 480.63 396.317 480.9C393.957 480.87 392.087 478.7 392.167 476.38L392.087 475.32C391.957 473.21 391.587 468.96 391.447 466.85C391.127 464.64 393.047 462.39 395.307 462.49C406.637 462.45 417.967 462.39 429.297 462.48C451.867 462.5 483.097 463.03 505.777 463.17L510.027 463.19H512.147C512.977 463.16 513.887 463.32 514.567 463.82C515.657 464.53 516.197 465.84 516.177 467.11L516.247 468.17L516.537 472.41L516.827 476.65C517.097 478.39 515.567 480.27 513.727 480.17ZM513.727 478.89C514.837 478.89 515.707 477.92 515.517 476.75L515.197 472.51L514.877 468.27C514.877 467.9 514.757 467.05 514.757 466.68C514.727 466 514.347 465.38 513.787 465C513.337 464.66 512.707 464.62 512.167 464.64H510.047L505.797 464.66C483.077 464.81 451.927 465.32 429.317 465.35C417.987 465.44 406.657 465.37 395.327 465.34C394.997 465.34 394.717 465.47 394.537 465.68C394.397 465.85 394.307 466.06 394.297 466.29C394.297 466.38 394.297 466.42 394.297 466.63L394.587 470.87L394.877 475.11C394.877 475.47 394.977 476.35 394.987 476.7C394.987 477.45 395.667 478.11 396.407 478.14C434.637 478.43 475.617 478.84 513.747 478.88L513.727 478.89Z" fill="#CAD3E8"/>
<path d="M514.207 299.65L524.787 446.5C524.827 447.01 524.497 447.43 524.067 447.43H381.497C381.057 447.43 380.677 447.01 380.637 446.5L370.057 299.65C370.017 299.14 370.347 298.73 370.777 298.73H513.347C513.787 298.73 514.167 299.15 514.207 299.65Z" fill="#F7E8C5"/>
<path d="M514.207 299.65L524.787 446.5C524.827 447.01 524.497 447.43 524.067 447.43H381.497C381.057 447.43 380.677 447.01 380.637 446.5L370.057 299.65C370.017 299.14 370.347 298.73 370.777 298.73H513.347C513.787 298.73 514.167 299.15 514.207 299.65Z" fill="#F0D18E"/>
<path d="M519.857 378.16L524.777 446.5C524.817 447.01 524.487 447.43 524.057 447.43H488.147L436.107 403.18L482.347 349.22C483.047 348.64 484.007 348.63 484.807 349.17L519.867 378.15L519.857 378.16Z" fill="#EEB440"/>
<path d="M519.857 378.16L524.777 446.5C524.817 447.01 524.487 447.43 524.057 447.43H488.147L436.107 403.18L482.487 349.1C483.097 348.6 483.937 348.58 484.637 349.06L519.857 378.16Z" fill="#CC8937"/>
<path d="M488.147 447.43H381.487C381.047 447.43 380.667 447.01 380.627 446.5L376.297 386.42L400.477 364.08C401.227 363.39 402.307 363.38 403.167 364.05L488.147 447.44V447.43Z" fill="#EEB440"/>
<path d="M447.395 352.981C450.651 349.606 450.351 344.036 446.726 340.539C443.101 337.042 437.523 336.942 434.268 340.317C431.013 343.692 431.312 349.262 434.937 352.759C438.562 356.256 444.14 356.355 447.395 352.981Z" fill="white"/>
<path d="M289.457 480.17C251.327 480.2 210.267 480.63 172.047 480.9C169.687 480.87 167.817 478.7 167.897 476.38L167.817 475.32C167.687 473.21 167.317 468.96 167.177 466.85C166.857 464.64 168.777 462.39 171.037 462.49C182.367 462.45 193.697 462.39 205.027 462.48C227.597 462.5 258.827 463.03 281.507 463.17L285.757 463.19H287.877C288.707 463.16 289.617 463.32 290.297 463.82C291.387 464.53 291.927 465.84 291.907 467.11L291.977 468.17L292.267 472.41L292.557 476.65C292.827 478.39 291.297 480.27 289.457 480.17ZM289.457 478.89C290.567 478.89 291.437 477.92 291.247 476.75L290.927 472.51L290.607 468.27C290.607 467.9 290.487 467.05 290.487 466.68C290.457 466 290.077 465.38 289.517 465C289.067 464.66 288.437 464.62 287.897 464.64H285.777L281.527 464.66C258.807 464.81 227.657 465.32 205.047 465.35C193.717 465.44 182.387 465.37 171.057 465.34C170.727 465.34 170.447 465.47 170.267 465.68C170.127 465.85 170.037 466.06 170.027 466.29C170.027 466.38 170.027 466.42 170.027 466.63L170.317 470.87L170.607 475.11C170.607 475.47 170.707 476.35 170.717 476.7C170.717 477.45 171.397 478.11 172.137 478.14C210.367 478.43 251.347 478.84 289.477 478.88L289.457 478.89Z" fill="#CAD3E8"/>
<path d="M178.537 490.69C213.867 489.73 249.437 489.31 284.767 490.69C285.117 490.71 285.397 491.01 285.377 491.36C285.357 491.69 285.097 491.95 284.767 491.97C280.337 492.18 275.917 492.32 271.487 492.44C249.487 492.98 227.067 492.91 205.087 492.57C196.237 492.45 187.377 492.27 178.527 491.97C178.177 491.96 177.897 491.66 177.907 491.31C177.917 490.97 178.187 490.7 178.527 490.69H178.537Z" fill="#CAD3E8"/>
<path d="M200.307 502.27C221.747 501.3 243.237 500.88 264.667 502.27C265.417 502.32 265.457 503.5 264.667 503.55C253.947 504.34 243.227 504.45 232.487 504.39C221.757 504.34 211.027 504.13 200.307 503.55C199.537 503.51 199.497 502.31 200.307 502.27Z" fill="#CAD3E8"/>
<path d="M402.817 490.69C438.147 489.73 473.717 489.31 509.047 490.69C509.397 490.71 509.677 491.01 509.657 491.36C509.637 491.69 509.377 491.95 509.047 491.97C504.617 492.18 500.197 492.32 495.767 492.44C473.767 492.98 451.347 492.91 429.367 492.57C420.517 492.45 411.657 492.27 402.807 491.97C402.457 491.96 402.177 491.66 402.187 491.31C402.197 490.97 402.467 490.7 402.807 490.69H402.817Z" fill="#CAD3E8"/>
<path d="M424.587 502.27C446.027 501.3 467.517 500.88 488.947 502.27C489.697 502.32 489.737 503.5 488.947 503.55C478.227 504.34 467.507 504.45 456.767 504.39C446.037 504.34 435.307 504.13 424.587 503.55C423.817 503.51 423.777 502.31 424.587 502.27Z" fill="#CAD3E8"/>
<path d="M627.087 490.69C662.417 489.73 697.987 489.31 733.317 490.69C733.667 490.71 733.947 491.01 733.927 491.36C733.907 491.69 733.647 491.95 733.317 491.97C728.887 492.18 724.467 492.32 720.037 492.44C698.037 492.98 675.617 492.91 653.637 492.57C644.787 492.45 635.927 492.27 627.077 491.97C626.727 491.96 626.447 491.66 626.457 491.31C626.467 490.97 626.737 490.7 627.077 490.69H627.087Z" fill="#CAD3E8"/>
<path d="M648.867 502.27C670.307 501.3 691.797 500.88 713.227 502.27C713.977 502.32 714.017 503.5 713.227 503.55C702.507 504.34 691.787 504.45 681.047 504.39C670.317 504.34 659.587 504.13 648.867 503.55C648.097 503.51 648.057 502.31 648.867 502.27Z" fill="#CAD3E8"/>
<path d="M289.927 299.65L300.507 446.5C300.547 447.01 300.217 447.43 299.787 447.43H157.217C156.777 447.43 156.397 447.01 156.357 446.5L145.777 299.65C145.737 299.14 146.067 298.73 146.497 298.73H289.067C289.507 298.73 289.887 299.15 289.927 299.65Z" fill="#D7F2E3"/>
<path d="M289.927 299.65L300.507 446.5C300.547 447.01 300.217 447.43 299.787 447.43H157.217C156.777 447.43 156.397 447.01 156.357 446.5L145.777 299.65C145.737 299.14 146.067 298.73 146.497 298.73H289.067C289.507 298.73 289.887 299.15 289.927 299.65Z" fill="#9FD4B7"/>
<path d="M295.577 378.16L300.497 446.5C300.537 447.01 300.207 447.43 299.777 447.43H263.867L211.827 403.18L258.067 349.22C258.767 348.64 259.727 348.63 260.527 349.17L295.587 378.15L295.577 378.16Z" fill="#61BB8A"/>
<path d="M295.577 378.16L300.497 446.5C300.537 447.01 300.207 447.43 299.777 447.43H263.867L211.827 403.18L258.207 349.1C258.817 348.6 259.657 348.58 260.357 349.06L295.577 378.16Z" fill="#589473"/>
<path d="M263.867 447.43H157.207C156.767 447.43 156.387 447.01 156.347 446.5L152.017 386.42L176.197 364.08C176.947 363.39 178.027 363.38 178.887 364.05L263.867 447.44V447.43Z" fill="#61BB8A"/>
<path d="M223.119 352.968C226.374 349.594 226.075 344.023 222.45 340.526C218.825 337.029 213.247 336.93 209.992 340.305C206.736 343.679 207.036 349.25 210.661 352.747C214.286 356.244 219.864 356.343 223.119 352.968Z" fill="white"/>
<path d="M738.007 480.17C699.877 480.2 658.817 480.63 620.597 480.9C618.237 480.88 616.367 478.7 616.447 476.38L616.367 475.32C616.237 473.21 615.867 468.96 615.727 466.85C615.407 464.64 617.327 462.39 619.587 462.49C630.917 462.45 642.247 462.39 653.577 462.48C676.147 462.5 707.377 463.03 730.057 463.17L734.307 463.19H736.427C737.257 463.16 738.167 463.32 738.847 463.82C739.937 464.53 740.477 465.84 740.457 467.11L740.527 468.17L740.817 472.41L741.107 476.65C741.377 478.39 739.847 480.27 738.007 480.17ZM738.007 478.89C739.117 478.89 739.987 477.92 739.797 476.75L739.477 472.51L739.157 468.27C739.157 467.9 739.037 467.05 739.037 466.68C739.007 466 738.627 465.38 738.067 465C737.617 464.66 736.987 464.62 736.447 464.64H734.327L730.077 464.66C707.357 464.81 676.207 465.32 653.597 465.35C642.267 465.44 630.937 465.37 619.607 465.34C619.277 465.34 618.997 465.47 618.817 465.68C618.677 465.85 618.587 466.06 618.577 466.29C618.577 466.38 618.577 466.42 618.577 466.63L618.867 470.87L619.157 475.11C619.157 475.47 619.257 476.35 619.267 476.7C619.267 477.45 619.947 478.11 620.687 478.14C658.917 478.43 699.897 478.84 738.027 478.88L738.007 478.89Z" fill="#CAD3E8"/>
<path d="M738.478 299.65L749.057 446.5C749.097 447.01 748.768 447.43 748.338 447.43H605.768C605.328 447.43 604.948 447.01 604.908 446.5L594.328 299.65C594.288 299.14 594.618 298.73 595.048 298.73H737.617C738.057 298.73 738.438 299.15 738.478 299.65Z" fill="#D7F2E3"/>
<path d="M738.478 299.65L749.057 446.5C749.097 447.01 748.768 447.43 748.338 447.43H605.768C605.328 447.43 604.948 447.01 604.908 446.5L594.328 299.65C594.288 299.14 594.618 298.73 595.048 298.73H737.617C738.057 298.73 738.438 299.15 738.478 299.65Z" fill="#9FD4B7"/>
<path d="M744.137 378.16L749.057 446.5C749.097 447.01 748.767 447.43 748.337 447.43H712.427L660.387 403.18L706.627 349.22C707.327 348.64 708.287 348.63 709.087 349.17L744.147 378.15L744.137 378.16Z" fill="#61BB8A"/>
<path d="M744.137 378.16L749.057 446.5C749.097 447.01 748.767 447.43 748.337 447.43H712.427L660.387 403.18L706.767 349.1C707.377 348.6 708.217 348.58 708.917 349.06L744.137 378.16Z" fill="#589473"/>
<path d="M712.427 447.43H605.767C605.327 447.43 604.947 447.01 604.907 446.5L600.577 386.42L624.757 364.08C625.507 363.39 626.587 363.38 627.447 364.05L712.427 447.44V447.43Z" fill="#61BB8A"/>
<path d="M671.679 352.986C674.935 349.611 674.635 344.04 671.01 340.543C667.385 337.046 661.807 336.947 658.552 340.322C655.296 343.696 655.596 349.267 659.221 352.764C662.846 356.261 668.424 356.36 671.679 352.986Z" fill="white"/>
<path d="M144.887 119.92C150.737 119.28 156.647 118.99 162.467 119.92C162.707 119.97 162.857 120.19 162.807 120.43C162.777 120.61 162.627 120.74 162.467 120.77C159.557 121.3 156.617 121.36 153.677 121.33C150.747 121.29 147.817 121.16 144.887 120.77C144.407 120.72 144.397 119.97 144.887 119.92Z" fill="#9FD4B7"/>
<path d="M555.257 119.92C556.537 119.55 558.467 119.66 559.797 119.59C564.207 119.47 569.037 119.39 573.427 119.37C577.967 119.34 582.517 119.29 587.057 119.44C587.917 119.57 592.137 119.24 591.877 120.5C591.827 120.63 591.727 120.73 591.607 120.77C590.097 121.31 588.577 121.16 587.067 121.25C585.557 121.31 584.037 121.32 582.527 121.34C575.017 121.35 567.337 121.3 559.817 121.09C558.487 121.03 556.567 121.13 555.277 120.76C554.857 120.66 554.857 120.01 555.277 119.91L555.257 119.92Z" fill="#9FD4B7"/>
<path d="M600.747 119.92C602.027 119.55 603.957 119.66 605.287 119.59C609.697 119.47 614.527 119.39 618.917 119.37C623.457 119.34 628.007 119.29 632.547 119.44C633.407 119.57 637.627 119.24 637.367 120.5C637.317 120.63 637.217 120.73 637.097 120.77C635.587 121.31 634.067 121.16 632.557 121.25C631.047 121.31 629.527 121.32 628.017 121.34C620.507 121.35 612.827 121.3 605.307 121.09C603.977 121.03 602.057 121.13 600.767 120.76C600.347 120.66 600.347 120.01 600.767 119.91L600.747 119.92Z" fill="#9FD4B7"/>
<path d="M646.237 119.92C647.517 119.55 649.447 119.66 650.777 119.59C655.187 119.47 660.017 119.39 664.407 119.37C668.947 119.34 673.497 119.29 678.037 119.44C678.897 119.57 683.117 119.24 682.857 120.5C682.807 120.63 682.707 120.73 682.587 120.77C681.077 121.31 679.557 121.16 678.047 121.25C676.537 121.31 675.017 121.32 673.507 121.34C665.987 121.35 658.317 121.3 650.797 121.09C649.467 121.03 647.547 121.13 646.257 120.76C645.837 120.66 645.837 120.01 646.257 119.91L646.237 119.92Z" fill="#9FD4B7"/>
<path d="M691.727 119.92C693.007 119.55 694.937 119.66 696.267 119.59C700.677 119.47 705.507 119.39 709.897 119.37C714.437 119.34 718.987 119.29 723.527 119.44C724.387 119.57 728.607 119.24 728.347 120.5C728.297 120.63 728.197 120.73 728.077 120.77C726.567 121.31 725.047 121.16 723.537 121.25C722.027 121.31 720.507 121.32 718.997 121.34C711.487 121.35 703.807 121.3 696.287 121.09C694.957 121.03 693.037 121.13 691.747 120.76C691.327 120.66 691.327 120.01 691.747 119.91L691.727 119.92Z" fill="#9FD4B7"/>
<path d="M129.504 123.854C131.306 121.985 131.139 118.901 129.132 116.965C127.125 115.028 124.037 114.973 122.235 116.841C120.432 118.709 120.599 121.794 122.606 123.73C124.613 125.666 127.701 125.722 129.504 123.854Z" fill="#589473"/>
<path d="M119.027 187.11C132.167 186.14 145.407 185.72 158.537 187.11C158.887 187.16 159.137 187.48 159.097 187.83C159.057 188.13 158.827 188.35 158.537 188.39C151.967 189.19 145.387 189.28 138.787 189.23C132.197 189.17 125.607 188.98 119.037 188.39C118.287 188.32 118.267 187.18 119.037 187.11H119.027Z" fill="#9FD4B7"/>
<path d="M731.157 195.92C680.177 195.96 620.787 196.24 569.867 196.52C568.507 196.63 567.067 196.03 566.317 194.86C565.577 193.96 565.677 192.54 565.537 191.45C565.327 188.59 564.807 182.83 564.617 179.97C564.567 179.49 564.497 178.29 564.447 177.82C564.207 175.82 565.957 173.85 567.997 173.92C597.727 173.8 630.317 173.9 660.157 174.17L706.237 174.55L729.277 174.64C729.687 174.62 730.437 174.64 730.977 174.92C732.097 175.38 732.887 176.63 732.897 177.79L732.997 179.23L733.397 184.98L733.797 190.73L733.897 192.17L733.947 192.89C734.127 194.47 732.757 196.01 731.157 195.94V195.92ZM731.157 194.64C732.057 194.65 732.767 193.85 732.647 192.96C732.627 192.58 732.507 191.23 732.487 190.81C732.217 187.26 731.777 181.43 731.517 177.89C731.457 176.67 730.527 175.95 729.297 176.07C703.577 176.13 662.857 176.54 637.137 176.73C614.807 176.83 590.217 176.89 568.017 176.79C567.647 176.79 567.387 177 567.307 177.32C567.307 178.94 567.737 183.82 567.817 185.52C567.897 186.8 568.197 191.78 568.277 192.97C568.417 193.79 569.107 194.13 569.887 194.05C620.787 194.33 680.217 194.61 731.177 194.65L731.157 194.64Z" fill="#9FD4B7"/>
<path d="M591.777 184.68C628.497 183.72 665.467 183.3 702.187 184.68C702.537 184.7 702.818 185 702.798 185.35C702.778 185.68 702.517 185.94 702.187 185.96C697.587 186.17 692.987 186.31 688.387 186.43C665.517 186.97 642.217 186.9 619.377 186.56C610.177 186.44 600.977 186.26 591.777 185.96C591.427 185.95 591.147 185.65 591.157 185.3C591.167 184.96 591.447 184.69 591.777 184.68Z" fill="#9FD4B7"/>
<path d="M573.407 182.86L578.407 189.04C578.687 189.39 579.067 189.4 579.307 189.07L583.777 182.87C583.937 182.64 583.807 182.18 583.577 182.18H573.517C573.297 182.18 573.227 182.63 573.407 182.86Z" fill="#9FD4B7"/>
<path d="M537.807 198.2H196.637C189.707 198.2 183.697 192.43 183.197 185.32C182.697 178.21 187.907 172.44 194.837 172.44H536.007C542.937 172.44 548.947 178.21 549.447 185.32C549.947 192.43 544.737 198.2 537.807 198.2Z" fill="#F55347"/>
<path d="M537.807 198.63H531.847C531.607 198.63 531.417 198.44 531.417 198.2C531.417 197.96 531.607 197.77 531.847 197.77H537.807C538.047 197.77 538.237 197.97 538.237 198.2C538.237 198.43 538.047 198.63 537.807 198.63Z" fill="#AB3A32"/>
<path d="M525.897 198.64H519.937C519.687 198.64 519.487 198.45 519.487 198.2C519.487 197.95 519.687 197.75 519.937 197.75H525.897C526.137 197.75 526.337 197.96 526.337 198.2C526.337 198.44 526.137 198.64 525.897 198.64Z" fill="#AB3A32"/>
<path d="M513.987 198.66H508.027C507.767 198.66 507.557 198.46 507.557 198.2C507.557 197.94 507.767 197.73 508.017 197.73H513.977C514.227 197.73 514.437 197.94 514.437 198.2C514.437 198.45 514.237 198.66 513.977 198.66H513.987Z" fill="#AB3A32"/>
<path d="M502.077 198.67H496.117C495.847 198.67 495.637 198.46 495.637 198.2C495.637 197.93 495.847 197.72 496.117 197.72H502.077C502.337 197.72 502.547 197.94 502.547 198.2C502.547 198.46 502.337 198.67 502.077 198.67Z" fill="#AB3A32"/>
<path d="M490.167 198.69H484.207C483.937 198.69 483.707 198.48 483.707 198.2C483.707 197.93 483.927 197.7 484.207 197.7H490.167C490.437 197.7 490.657 197.93 490.657 198.2C490.657 198.47 490.437 198.69 490.167 198.69Z" fill="#AB3A32"/>
<path d="M478.257 198.7H472.297C472.017 198.7 471.787 198.48 471.787 198.2C471.787 197.92 472.017 197.69 472.297 197.69H478.257C478.537 197.69 478.757 197.92 478.757 198.2C478.757 198.48 478.537 198.7 478.257 198.7Z" fill="#AB3A32"/>
<path d="M466.347 198.72H460.387C460.097 198.72 459.857 198.49 459.857 198.2C459.857 197.91 460.097 197.67 460.387 197.67H466.347C466.637 197.67 466.867 197.91 466.867 198.2C466.867 198.49 466.637 198.72 466.347 198.72Z" fill="#AB3A32"/>
<path d="M454.437 198.73H448.477C448.177 198.73 447.937 198.5 447.937 198.2C447.937 197.9 448.177 197.66 448.477 197.66H454.437C454.737 197.66 454.967 197.91 454.967 198.2C454.967 198.5 454.727 198.73 454.437 198.73Z" fill="#AB3A32"/>
<path d="M442.517 198.75H436.557C436.247 198.75 435.997 198.51 435.997 198.2C435.997 197.89 436.247 197.64 436.557 197.64H442.517C442.817 197.64 443.067 197.89 443.067 198.2C443.067 198.5 442.817 198.75 442.517 198.75Z" fill="#AB3A32"/>
<path d="M430.617 198.76H424.657C424.337 198.76 424.087 198.51 424.087 198.19C424.087 197.87 424.347 197.62 424.657 197.62H430.617C430.927 197.62 431.187 197.88 431.177 198.19C431.167 198.5 430.927 198.76 430.617 198.76Z" fill="#AB3A32"/>
<path d="M418.697 198.78H412.737C412.407 198.78 412.147 198.52 412.147 198.2C412.147 197.87 412.407 197.61 412.737 197.61H418.697C419.017 197.61 419.277 197.88 419.277 198.2C419.277 198.52 419.017 198.78 418.697 198.78Z" fill="#AB3A32"/>
<path d="M406.787 198.8H400.827C400.497 198.8 400.227 198.54 400.217 198.2C400.207 197.86 400.487 197.6 400.817 197.59H406.777C407.107 197.59 407.377 197.87 407.377 198.2C407.377 198.53 407.107 198.8 406.777 198.8H406.787Z" fill="#AB3A32"/>
<path d="M394.877 198.81H388.917C388.577 198.81 388.297 198.54 388.297 198.2C388.297 197.86 388.577 197.58 388.917 197.58H394.877C395.217 197.58 395.487 197.86 395.487 198.2C395.487 198.54 395.217 198.81 394.877 198.81Z" fill="#AB3A32"/>
<path d="M382.967 198.83H377.007C376.657 198.83 376.367 198.55 376.367 198.2C376.367 197.85 376.647 197.56 376.997 197.56H382.957C383.307 197.56 383.587 197.85 383.587 198.2C383.587 198.55 383.307 198.83 382.957 198.83H382.967Z" fill="#AB3A32"/>
<path d="M371.057 198.84H365.097C364.737 198.84 364.447 198.56 364.447 198.2C364.447 197.84 364.737 197.55 365.097 197.55H371.057C371.417 197.55 371.697 197.85 371.697 198.2C371.697 198.55 371.407 198.84 371.057 198.84Z" fill="#AB3A32"/>
<path d="M359.147 198.86H353.187C352.817 198.86 352.517 198.57 352.517 198.2C352.517 197.83 352.817 197.53 353.187 197.53H359.147C359.507 197.53 359.807 197.83 359.807 198.2C359.807 198.56 359.517 198.86 359.147 198.86Z" fill="#AB3A32"/>
<path d="M347.237 198.87H341.277C340.897 198.87 340.597 198.57 340.597 198.2C340.597 197.83 340.897 197.52 341.277 197.52H347.237C347.607 197.52 347.907 197.83 347.907 198.2C347.907 198.57 347.607 198.87 347.237 198.87Z" fill="#AB3A32"/>
<path d="M335.327 198.89H329.367C328.977 198.89 328.667 198.59 328.667 198.2C328.667 197.81 328.977 197.5 329.367 197.5H335.327C335.707 197.5 336.017 197.82 336.017 198.2C336.017 198.58 335.707 198.89 335.327 198.89Z" fill="#AB3A32"/>
<path d="M323.417 198.9H317.457C317.067 198.9 316.747 198.59 316.747 198.2C316.747 197.81 317.067 197.49 317.457 197.49H323.417C323.807 197.49 324.117 197.81 324.117 198.2C324.117 198.59 323.807 198.9 323.417 198.9Z" fill="#AB3A32"/>
<path d="M311.507 198.92H305.547C305.147 198.92 304.817 198.6 304.817 198.2C304.817 197.8 305.147 197.47 305.547 197.47H311.507C311.907 197.47 312.227 197.8 312.227 198.2C312.227 198.6 311.907 198.92 311.507 198.92Z" fill="#AB3A32"/>
<path d="M299.597 198.94H293.637C293.227 198.94 292.897 198.62 292.887 198.2C292.887 197.79 293.217 197.46 293.627 197.45H299.587C299.997 197.45 300.327 197.79 300.327 198.2C300.327 198.61 299.997 198.94 299.587 198.94H299.597Z" fill="#AB3A32"/>
<path d="M287.687 198.95H281.727C281.307 198.95 280.967 198.62 280.967 198.2C280.967 197.78 281.307 197.44 281.727 197.44H287.687C288.107 197.44 288.437 197.79 288.437 198.2C288.437 198.62 288.097 198.95 287.687 198.95Z" fill="#AB3A32"/>
<path d="M275.777 198.97H269.817C269.387 198.97 269.037 198.63 269.037 198.2C269.037 197.77 269.387 197.42 269.807 197.42H275.767C276.187 197.42 276.537 197.77 276.537 198.2C276.537 198.62 276.197 198.97 275.767 198.97H275.777Z" fill="#AB3A32"/>
<path d="M263.867 198.98H257.907C257.467 198.98 257.117 198.63 257.117 198.2C257.117 197.76 257.467 197.41 257.907 197.41H263.867C264.297 197.41 264.647 197.77 264.647 198.2C264.647 198.63 264.297 198.98 263.867 198.98Z" fill="#AB3A32"/>
<path d="M251.957 199H245.997C245.547 199 245.187 198.65 245.187 198.2C245.187 197.75 245.547 197.39 245.997 197.39H251.957C252.397 197.39 252.757 197.76 252.757 198.2C252.757 198.64 252.397 199 251.957 199Z" fill="#AB3A32"/>
<path d="M240.047 199.01H234.087C233.637 199.01 233.267 198.65 233.267 198.2C233.267 197.75 233.637 197.38 234.087 197.38H240.047C240.497 197.38 240.857 197.75 240.857 198.2C240.857 198.65 240.497 199.01 240.047 199.01Z" fill="#AB3A32"/>
<path d="M228.137 199.03H222.177C221.717 199.03 221.337 198.66 221.337 198.2C221.337 197.74 221.707 197.36 222.177 197.36H228.137C228.597 197.36 228.967 197.74 228.967 198.2C228.967 198.66 228.597 199.03 228.137 199.03Z" fill="#AB3A32"/>
<path d="M216.227 199.04H210.267C209.797 199.04 209.417 198.67 209.417 198.2C209.417 197.73 209.797 197.35 210.267 197.35H216.227C216.697 197.35 217.067 197.74 217.067 198.2C217.067 198.67 216.687 199.04 216.227 199.04Z" fill="#AB3A32"/>
<path d="M204.317 199.06H198.357C197.877 199.06 197.487 198.68 197.487 198.2C197.487 197.72 197.877 197.33 198.357 197.33H204.317C204.797 197.33 205.177 197.72 205.177 198.2C205.177 198.68 204.797 199.06 204.317 199.06Z" fill="#AB3A32"/>
<path d="M192.197 198.32C190.197 197.63 188.357 196.48 186.847 195.02C186.497 194.68 186.487 194.12 186.827 193.77C187.167 193.42 187.727 193.41 188.077 193.75C189.417 195.05 191.027 196.06 192.777 196.67C193.237 196.83 193.477 197.33 193.317 197.79C193.157 198.25 192.657 198.49 192.207 198.33L192.197 198.32Z" fill="#AB3A32"/>
<path d="M183.327 189.82C182.927 188.84 182.637 187.82 182.467 186.77C182.387 186.25 182.307 185.72 182.297 185.19V183.6C182.277 183.1 182.677 182.7 183.177 182.69C183.677 182.69 184.077 183.08 184.087 183.58V183.7V185.09C184.107 185.55 184.167 186.02 184.237 186.47C184.387 187.39 184.647 188.29 184.987 189.15C185.167 189.61 184.947 190.13 184.497 190.31C184.037 190.49 183.517 190.27 183.337 189.82H183.327Z" fill="#AB3A32"/>
<path d="M184.117 177.54C185.217 175.71 186.797 174.16 188.677 173.11C189.117 172.86 189.677 173.02 189.927 173.46C190.177 173.9 190.017 174.46 189.577 174.71C187.977 175.6 186.627 176.91 185.677 178.48C185.417 178.91 184.857 179.05 184.427 178.79C183.997 178.53 183.857 177.97 184.117 177.54Z" fill="#AB3A32"/>
<path d="M194.827 171.52H200.787C201.297 171.52 201.717 171.93 201.717 172.44C201.717 172.95 201.297 173.37 200.787 173.37H194.827C194.317 173.37 193.907 172.95 193.907 172.44C193.907 171.93 194.317 171.52 194.827 171.52Z" fill="#AB3A32"/>
<path d="M206.737 171.51H212.697C213.217 171.51 213.647 171.92 213.647 172.45C213.647 172.97 213.227 173.4 212.707 173.4H206.747C206.227 173.4 205.807 172.97 205.807 172.45C205.807 171.93 206.227 171.51 206.747 171.51H206.737Z" fill="#AB3A32"/>
<path d="M218.647 171.49H224.607C225.137 171.49 225.567 171.91 225.567 172.44C225.567 172.97 225.137 173.4 224.607 173.4H218.647C218.117 173.4 217.697 172.96 217.697 172.44C217.697 171.91 218.127 171.49 218.647 171.49Z" fill="#AB3A32"/>
<path d="M230.557 171.47H236.517C237.057 171.47 237.497 171.9 237.497 172.44C237.497 172.98 237.057 173.42 236.517 173.42H230.557C230.017 173.42 229.587 172.98 229.587 172.44C229.587 171.9 230.017 171.47 230.557 171.47Z" fill="#AB3A32"/>
<path d="M242.467 171.46H248.427C248.977 171.46 249.417 171.9 249.417 172.44C249.417 172.99 248.977 173.43 248.427 173.43H242.467C241.927 173.43 241.487 172.98 241.487 172.44C241.487 171.9 241.927 171.46 242.467 171.46Z" fill="#AB3A32"/>
<path d="M254.377 171.44H260.337C260.887 171.45 261.327 171.9 261.327 172.44C261.327 172.98 260.887 173.43 260.337 173.43H254.377C253.827 173.44 253.377 172.99 253.377 172.44C253.377 171.89 253.827 171.44 254.377 171.44Z" fill="#AB3A32"/>
<path d="M266.287 171.47H272.247C272.777 171.48 273.217 171.92 273.217 172.45C273.217 172.98 272.787 173.42 272.247 173.42H266.287C265.747 173.43 265.307 172.99 265.307 172.45C265.307 171.91 265.747 171.47 266.287 171.47Z" fill="#AB3A32"/>
<path d="M278.197 171.49H284.157C284.677 171.5 285.107 171.93 285.107 172.45C285.107 172.97 284.687 173.4 284.157 173.39H278.197C277.667 173.4 277.237 172.97 277.237 172.45C277.237 171.92 277.667 171.49 278.197 171.49Z" fill="#AB3A32"/>
<path d="M290.107 171.51H296.067C296.577 171.52 296.987 171.94 296.987 172.45C296.987 172.96 296.577 173.37 296.067 173.37H290.107C289.587 173.38 289.167 172.96 289.167 172.45C289.167 171.93 289.587 171.51 290.097 171.51H290.107Z" fill="#AB3A32"/>
<path d="M302.017 171.53H307.977C308.477 171.54 308.877 171.95 308.877 172.45C308.877 172.95 308.477 173.35 307.977 173.35H302.017C301.507 173.36 301.097 172.95 301.097 172.45C301.097 171.94 301.507 171.53 302.007 171.53H302.017Z" fill="#AB3A32"/>
<path d="M313.927 171.55H319.887C320.377 171.56 320.767 171.96 320.767 172.45C320.767 172.94 320.377 173.33 319.887 173.33H313.927C313.437 173.34 313.037 172.94 313.027 172.45C313.027 171.96 313.427 171.56 313.917 171.55H313.927Z" fill="#AB3A32"/>
<path d="M325.837 171.57H331.797C332.277 171.58 332.657 171.97 332.657 172.44C332.657 172.92 332.277 173.3 331.797 173.3H325.837C325.357 173.31 324.967 172.92 324.967 172.44C324.967 171.96 325.357 171.57 325.837 171.57Z" fill="#AB3A32"/>
<path d="M337.747 171.59H343.707C344.167 171.6 344.547 171.98 344.547 172.44C344.547 172.9 344.177 173.28 343.707 173.28H337.747C337.277 173.29 336.897 172.91 336.897 172.44C336.897 171.97 337.277 171.59 337.747 171.59Z" fill="#AB3A32"/>
<path d="M349.657 171.61H355.617C356.067 171.62 356.437 171.99 356.437 172.44C356.437 172.89 356.067 173.26 355.617 173.26H349.657C349.197 173.27 348.827 172.9 348.827 172.44C348.827 171.98 349.197 171.61 349.657 171.61Z" fill="#AB3A32"/>
<path d="M361.567 171.64H367.527C367.967 171.65 368.327 172.01 368.327 172.45C368.327 172.89 367.967 173.25 367.527 173.25H361.567C361.117 173.26 360.757 172.9 360.757 172.45C360.757 172 361.117 171.64 361.567 171.64Z" fill="#AB3A32"/>
<path d="M373.477 171.66H379.437C379.867 171.67 380.217 172.02 380.217 172.45C380.217 172.88 379.867 173.23 379.437 173.23H373.477C373.047 173.24 372.687 172.89 372.687 172.45C372.687 172.01 373.037 171.66 373.477 171.66Z" fill="#AB3A32"/>
<path d="M385.387 171.68H391.347C391.767 171.69 392.097 172.03 392.097 172.45C392.097 172.87 391.757 173.2 391.347 173.2H385.387C384.967 173.21 384.617 172.87 384.617 172.45C384.617 172.03 384.957 171.68 385.377 171.68H385.387Z" fill="#AB3A32"/>
<path d="M397.297 171.7H403.257C403.667 171.71 403.987 172.04 403.987 172.45C403.987 172.86 403.657 173.18 403.257 173.18H397.297C396.887 173.19 396.547 172.86 396.547 172.45C396.547 172.04 396.877 171.7 397.287 171.7H397.297Z" fill="#AB3A32"/>
<path d="M409.207 171.72H415.167C415.557 171.73 415.877 172.05 415.877 172.44C415.877 172.83 415.557 173.15 415.167 173.15H409.207C408.807 173.16 408.487 172.84 408.487 172.44C408.487 172.04 408.807 171.72 409.207 171.72Z" fill="#AB3A32"/>
<path d="M421.117 171.74H427.077C427.457 171.75 427.767 172.06 427.767 172.44C427.767 172.82 427.457 173.13 427.077 173.13H421.117C420.727 173.14 420.417 172.83 420.417 172.44C420.417 172.05 420.727 171.74 421.117 171.74Z" fill="#AB3A32"/>
<path d="M433.027 171.76H438.987C439.357 171.77 439.657 172.07 439.657 172.44C439.657 172.81 439.357 173.11 438.987 173.11H433.027C432.647 173.12 432.347 172.82 432.347 172.44C432.347 172.06 432.647 171.76 433.027 171.76Z" fill="#AB3A32"/>
<path d="M444.937 171.78H450.897C451.257 171.79 451.547 172.08 451.547 172.44C451.547 172.8 451.257 173.09 450.897 173.09H444.937C444.577 173.1 444.277 172.81 444.277 172.44C444.277 172.08 444.567 171.78 444.937 171.78Z" fill="#AB3A32"/>
<path d="M456.847 171.81H462.807C463.157 171.82 463.437 172.1 463.437 172.45C463.437 172.8 463.157 173.08 462.807 173.08H456.847C456.497 173.09 456.207 172.81 456.207 172.45C456.207 172.1 456.487 171.81 456.847 171.81Z" fill="#AB3A32"/>
<path d="M468.757 171.83H474.717C475.047 171.84 475.327 172.11 475.327 172.45C475.327 172.79 475.057 173.06 474.717 173.06H468.757C468.417 173.07 468.137 172.8 468.137 172.45C468.137 172.11 468.417 171.83 468.757 171.83Z" fill="#AB3A32"/>
<path d="M480.667 171.85H486.627C486.947 171.86 487.217 172.12 487.207 172.45C487.207 172.77 486.947 173.04 486.627 173.03H480.667C480.337 173.04 480.067 172.77 480.067 172.45C480.067 172.12 480.337 171.85 480.667 171.85Z" fill="#AB3A32"/>
<path d="M492.577 171.87H498.537C498.847 171.88 499.097 172.13 499.097 172.45C499.097 172.76 498.847 173.01 498.537 173.01H492.577C492.257 173.02 491.997 172.76 491.997 172.45C491.997 172.13 492.257 171.87 492.567 171.87H492.577Z" fill="#AB3A32"/>
<path d="M504.487 171.89H510.447C510.747 171.9 510.987 172.14 510.987 172.44C510.987 172.74 510.747 172.98 510.447 172.98H504.487C504.177 172.99 503.937 172.74 503.937 172.44C503.937 172.13 504.187 171.89 504.487 171.89Z" fill="#AB3A32"/>
<path d="M516.397 171.91H522.357C522.647 171.92 522.877 172.16 522.877 172.44C522.877 172.73 522.647 172.96 522.357 172.96H516.397C516.107 172.97 515.867 172.73 515.867 172.44C515.867 172.15 516.107 171.91 516.397 171.91Z" fill="#AB3A32"/>
<path d="M528.307 171.93H534.267C534.547 171.94 534.767 172.17 534.767 172.44C534.767 172.72 534.547 172.94 534.267 172.94H528.307C528.027 172.95 527.797 172.72 527.797 172.44C527.797 172.16 528.027 171.93 528.307 171.93Z" fill="#AB3A32"/>
<path d="M540.307 172.68C542.257 173.36 544.037 174.48 545.507 175.91C545.697 176.09 545.697 176.4 545.517 176.59C545.337 176.78 545.027 176.79 544.837 176.6C543.457 175.27 541.787 174.23 539.987 173.61C539.727 173.52 539.597 173.24 539.687 172.99C539.777 172.73 540.057 172.6 540.307 172.69V172.68Z" fill="#AB3A32"/>
<path d="M548.907 180.98C549.287 181.93 549.567 182.93 549.737 183.94C549.817 184.45 549.887 184.96 549.897 185.47V187.01C549.907 187.26 549.707 187.47 549.447 187.47C549.187 187.47 548.987 187.27 548.987 187.02V186.96L548.977 185.52C548.977 185.04 548.897 184.56 548.827 184.09C548.667 183.14 548.397 182.22 548.037 181.33C547.937 181.09 548.057 180.82 548.297 180.72C548.537 180.62 548.807 180.74 548.907 180.98Z" fill="#AB3A32"/>
<path d="M548.117 192.87C547.057 194.63 545.527 196.12 543.717 197.12C543.507 197.24 543.237 197.16 543.127 196.95C543.007 196.74 543.087 196.47 543.297 196.36C544.967 195.43 546.367 194.05 547.357 192.41C547.487 192.2 547.757 192.13 547.967 192.26C548.177 192.39 548.247 192.66 548.117 192.87Z" fill="#AB3A32"/>
<path d="M203.487 255.8C357.107 254.86 513.797 254.45 667.417 255.8C667.767 255.8 668.057 256.09 668.047 256.44C668.047 256.79 667.757 257.07 667.417 257.07C552.267 258.14 434.447 258.02 319.467 257.67C290.637 257.58 232.327 257.28 203.487 257.07C203.137 257.07 202.847 256.78 202.847 256.43C202.847 256.08 203.137 255.8 203.487 255.79V255.8Z" fill="#CAD3E8"/>
<path d="M293.437 271.89C388.607 270.97 484.677 270.51 579.777 271.89C580.127 271.89 580.407 272.19 580.407 272.54C580.407 272.89 580.117 273.16 579.777 273.17C496.497 274.44 412.577 274.07 329.237 273.53L293.447 273.17C293.097 273.17 292.807 272.88 292.817 272.52C292.817 272.17 293.107 271.89 293.447 271.89H293.437Z" fill="#CAD3E8"/>
<g style="mix-blend-mode:multiply" opacity="0.68">
<path d="M762.687 217.13C760.987 216.5 759.307 215.82 757.647 215.1H757.637C751.577 212.47 745.817 209.29 740.407 205.62C739.807 205.22 739.227 204.81 738.637 204.4C738.587 204.36 738.537 204.33 738.497 204.3C734.577 201.52 730.887 198.51 727.457 195.29C721.047 189.3 715.497 182.59 710.857 175.36C710.847 175.35 710.847 175.34 710.837 175.33C710.717 175.15 710.597 174.96 710.477 174.77C710.197 174.32 709.917 173.88 709.647 173.44C709.377 173 709.107 172.55 708.847 172.11C708.727 171.91 708.607 171.71 708.497 171.52C701.817 160.12 697.217 147.35 695.217 133.74C695.207 133.68 695.197 133.62 695.197 133.56C695.087 132.86 694.987 132.15 694.897 131.43C694.437 127.76 694.167 124.06 694.087 120.35C693.987 115.37 694.237 110.36 694.857 105.36C695.197 102.61 695.647 99.8599 696.207 97.1299C696.227 97.0099 696.257 96.8899 696.277 96.7699C696.417 96.1199 696.557 95.4699 696.707 94.8199C696.787 94.4499 696.877 94.0699 696.967 93.6899C697.067 93.3099 697.157 92.9199 697.257 92.5399C697.417 91.8999 697.577 91.2699 697.747 90.6299C697.787 90.5099 697.817 90.3799 697.857 90.2599C697.877 90.1999 697.887 90.1299 697.907 90.0699C698.367 88.4199 698.857 86.7899 699.397 85.1799H742.607C748.447 85.1799 753.527 89.9199 753.947 95.7499L754.637 105.36L762.687 217.13Z" fill="#E4EAF8"/>
</g>
<path d="M815.557 211C873.823 211 921.057 163.766 921.057 105.5C921.057 47.234 873.823 0 815.557 0C757.291 0 710.057 47.234 710.057 105.5C710.057 163.766 757.291 211 815.557 211Z" fill="#F7E4B7"/>
<path d="M815.557 211C873.823 211 921.057 163.766 921.057 105.5C921.057 47.234 873.823 0 815.557 0C757.291 0 710.057 47.234 710.057 105.5C710.057 163.766 757.291 211 815.557 211Z" fill="#FAD37D"/>
<g style="mix-blend-mode:multiply" opacity="0.68">
<path d="M690.677 278.63L393.977 249.09L314.997 241.23C310.717 240.8 306.667 242.16 303.567 244.68C300.477 247.21 298.357 250.91 297.927 255.19C297.077 263.76 303.337 271.4 311.907 272.25L687.587 309.65C691.877 310.08 695.917 308.72 699.007 306.19C702.107 303.66 704.217 299.96 704.647 295.68C705.497 287.11 699.247 279.48 690.677 278.62V278.63Z" fill="#E4EAF8"/>
</g>
<path d="M712.407 276.68C711.977 280.96 709.867 284.67 706.767 287.19C703.677 289.72 699.637 291.07 695.347 290.65L319.667 253.25C311.097 252.4 304.837 244.76 305.687 236.19C306.117 231.91 308.237 228.2 311.327 225.68C314.427 223.15 318.477 221.8 322.757 222.23L698.437 259.63C707.007 260.48 713.257 268.12 712.407 276.69V276.68Z" fill="white"/>
<path d="M713.037 276.74C712.077 286.64 702.707 292.96 693.117 291.11C645.447 286.45 555.967 277.7 507.397 272.95C458.557 268.13 369.727 259.52 321.687 254.79C319.457 254.61 316.937 254.34 314.807 253.41C299.307 246.91 301.397 224.44 318.017 221.03C320.297 220.53 322.827 220.76 325.057 221.01L351.587 223.6C398.867 228.31 463.467 234.81 510.717 239.72C559.517 244.81 648.327 253.89 696.347 258.72C706.077 258.81 714.067 266.79 713.047 276.73L713.037 276.74ZM711.767 276.61C712.647 267.4 705.297 260.1 696.207 260.07C648.547 255.34 559.047 246.74 510.477 242.1C451.717 236.53 380.187 229.39 321.557 223.57C305.887 223.44 301.277 244.58 315.827 250.91C317.817 251.75 319.767 251.92 321.957 252.12C369.617 256.95 459.057 266.01 507.607 270.93C556.427 275.84 645.237 284.9 693.257 289.74C702.087 291.51 710.867 285.81 711.767 276.61Z" fill="#61BB8A"/>
<path d="M401.737 230.09L398.647 261.12L319.667 253.26C311.097 252.41 304.837 244.77 305.687 236.2C306.117 231.92 308.237 228.21 311.327 225.69C314.427 223.16 318.477 221.81 322.757 222.24L401.737 230.1V230.09Z" fill="#61BB8A"/>
<path d="M401.897 229.95L398.987 261.15L398.957 261.49L398.617 261.46L346.937 256.4L321.097 253.86C316.677 253.68 312.247 251.86 309.287 248.5C302.957 241.73 304.077 230.24 311.627 224.83C313.427 223.51 315.497 222.55 317.667 222.06C319.817 221.54 322.127 221.62 324.277 221.9L350.207 224.55L401.897 229.95ZM401.567 230.22C384.407 228.6 340.727 224.47 324.167 222.84C319.977 222.19 315.607 223.03 312.207 225.62C305.147 230.66 304.037 241.5 309.977 247.85C312.807 251.06 316.927 252.74 321.177 252.93L347.007 255.54L398.677 260.77L398.307 261.08L401.567 230.22Z" fill="#61BB8A"/>
<path d="M344.197 245.24C347.859 245.24 350.827 242.272 350.827 238.61C350.827 234.948 347.859 231.98 344.197 231.98C340.536 231.98 337.567 234.948 337.567 238.61C337.567 242.272 340.536 245.24 344.197 245.24Z" fill="#61BB8A"/>
<path d="M351.427 239.33C350.887 245.83 342.387 248.6 338.087 243.61C335.127 240.49 335.597 234.94 339.057 232.34C344.387 228.09 352.187 232.76 351.427 239.33ZM350.157 239.2C350.607 231.84 340.107 231.12 339.057 238.1C338.377 245.55 349.187 246.63 350.157 239.2Z" fill="white"/>
<path d="M349.637 241.7C350.327 241.12 350.587 241.23 350.817 241.41L351.547 241.86C354.957 243.98 358.327 246.22 361.397 248.82C361.947 249.27 361.377 250.19 360.737 249.91C356.747 248.28 352.967 246.16 349.267 243.96C348.557 243.81 349.007 242.09 349.637 241.69V241.7Z" fill="white"/>
<path d="M759.017 156.46C755.307 156.46 751.857 154.47 750.007 151.26C748.157 148.05 748.157 144.06 750.007 140.85L806.557 42.91C808.407 39.7 811.857 37.71 815.567 37.71C819.277 37.71 822.727 39.7 824.577 42.91L881.127 140.85C882.977 144.06 882.977 148.04 881.127 151.25C879.277 154.46 875.817 156.45 872.117 156.45H759.017V156.46Z" fill="#EEB440"/>
<path d="M814.877 47.7099C805.047 65.0099 767.517 129.89 758.567 146.08C758.697 146.69 759.187 146.42 759.917 146.48C768.997 146.42 807.047 146.34 816.837 146.31C824.727 146.31 863.997 146.29 871.047 146.33H871.727H872.067C872.177 146.33 872.147 146.33 872.187 146.33C872.277 146.32 872.367 146.23 872.397 146.12C856.857 118.57 836.167 82.4299 820.387 54.9199L817.687 50.2199L816.337 47.8699C816.067 47.1799 815.197 47.1899 814.897 47.7199L814.877 47.7099ZM814.137 47.2799C814.587 46.4599 815.767 46.1999 816.527 46.7699C816.907 46.8899 818.167 49.4099 818.427 49.7699L821.147 54.4599C837.057 82.0499 858.197 117.75 874.127 145.34C874.667 146.9 873.357 148.41 871.717 148.21H871.037C864.237 148.23 824.547 148.24 816.827 148.23C806.867 148.2 769.237 148.12 759.907 148.06H759.227C759.067 148.06 758.617 148.06 758.277 147.92C757.197 147.52 756.687 146.16 757.237 145.16C757.407 144.82 758.077 143.73 758.277 143.37C766.527 129.29 805.177 62.6899 814.127 47.2999L814.137 47.2799Z" fill="#131D2E"/>
<path d="M811.297 130.02C810.167 128.93 809.597 127.58 809.597 125.96C809.597 124.34 810.167 122.99 811.297 121.9C812.427 120.81 813.877 120.27 815.637 120.27C817.397 120.27 818.757 120.81 819.877 121.9C820.987 122.99 821.547 124.34 821.547 125.96C821.547 127.58 820.997 128.93 819.877 130.02C818.767 131.11 817.357 131.65 815.637 131.65C813.917 131.65 812.427 131.11 811.297 130.02ZM820.597 82.9701L819.527 115.4H811.337L810.197 82.9701C810.177 82.3601 810.657 81.8601 811.267 81.8601H819.537C820.147 81.8601 820.627 82.3601 820.607 82.9701H820.597Z" fill="#131D2E"/>
<path d="M321.797 578.14L298.617 708.26L293.517 736.89V736.91H183.487V736.89L178.377 708.23L155.207 578.14H321.797Z" fill="#E4EAF8"/>
<path d="M322.797 596.8C322.867 595.94 326.367 578.98 324.357 578.16C314.497 574.15 277.487 580.4 238.497 580.4C199.507 580.4 160.947 573.91 152.637 578.16C151.317 578.83 154.147 596.11 154.207 596.8C154.627 601.83 192.367 605.87 238.497 605.87C284.627 605.87 322.367 601.83 322.787 596.8H322.797Z" fill="#A4ABBA"/>
<path d="M178.387 708.23C178.387 708.23 178.387 708.3 178.397 708.33L178.377 708.23H178.387Z" fill="#CAD3E8"/>
<path d="M298.527 708.78L293.517 736.89V736.91C293.517 742.48 268.887 746.98 238.507 746.98C208.127 746.98 183.487 742.48 183.487 736.91V736.89L178.477 708.76C180.117 714.08 206.367 718.3 238.507 718.3C270.647 718.3 296.817 714.09 298.527 708.79V708.78Z" fill="#CAD3E8"/>
<path d="M238.497 587.37C285.949 587.37 324.417 583.233 324.417 578.13C324.417 573.027 285.949 568.89 238.497 568.89C191.045 568.89 152.577 573.027 152.577 578.13C152.577 583.233 191.045 587.37 238.497 587.37Z" fill="#E4EAF8"/>
<path d="M312.637 578.78C306.527 579.91 297.417 581.01 285.717 581.85C281.467 582.16 276.867 582.43 271.947 582.65C266.917 582.89 261.557 583.07 255.877 583.19C251.567 583.28 247.077 583.35 242.417 583.37C241.127 583.38 239.827 583.38 238.507 583.38C203.167 583.38 177.167 581.15 164.367 578.78C163.657 578.65 163.657 577.62 164.367 577.49C177.167 575.12 203.167 572.89 238.507 572.89C241.657 572.89 244.727 572.91 247.717 572.94C252.307 572.99 256.717 573.08 260.947 573.21C266.437 573.37 271.607 573.58 276.427 573.85C281.067 574.09 285.377 574.39 289.357 574.7C299.317 575.5 307.177 576.48 312.637 577.49C313.347 577.62 313.347 578.65 312.637 578.78Z" fill="#CAD3E8"/>
<path d="M315.277 614.5C315.137 615.49 314.597 616.32 313.837 617.01C313.427 617.39 312.927 617.73 312.407 618.03C311.757 618.4 311.047 618.73 310.327 619.01C308.787 619.62 307.227 620.06 306.157 620.44C300.897 621.95 295.547 622.99 290.157 623.76C288.987 623.93 287.797 624.1 286.617 624.24C283.497 624.64 280.377 624.98 277.267 625.3C273.257 625.67 269.247 625.98 265.237 626.19C264.077 626.27 262.917 626.33 261.757 626.38C254.607 626.74 247.447 626.88 240.297 626.88C239.707 626.88 239.107 626.87 238.507 626.87C237.997 626.87 237.477 626.86 236.967 626.86C229.797 626.79 222.617 626.62 215.467 626.24C214.307 626.19 213.157 626.12 211.997 626.04C204.837 625.6 197.697 624.95 190.577 624.01C189.397 623.87 188.227 623.7 187.057 623.53C184.857 623.21 182.657 622.88 180.457 622.49C178.387 622.01 173.847 621.28 169.757 620.04C168.477 619.65 167.227 619.2 166.127 618.71C165.687 618.5 165.267 618.3 164.877 618.08C163.887 617.52 163.077 616.91 162.527 616.23C162.097 615.71 161.817 615.12 161.747 614.5C161.727 614.02 161.907 613.68 162.167 613.48C162.747 613.02 163.737 613.27 163.837 614.32C163.917 614.43 164.017 614.53 164.107 614.63C164.477 614.99 164.927 615.26 165.407 615.49C165.907 615.74 166.457 615.94 166.967 616.12C171.477 617.62 176.227 618.28 180.927 618.88C182.877 619.11 184.827 619.33 186.777 619.52C187.817 619.63 188.857 619.73 189.907 619.83C193.277 620.14 196.657 620.4 200.047 620.58C203.997 620.79 207.957 620.96 211.917 621.09C212.927 621.13 213.937 621.17 214.957 621.19C222.367 621.43 229.777 621.53 237.197 621.51H238.497C239.007 621.51 239.537 621.51 240.047 621.5C247.457 621.47 254.877 621.3 262.287 621.02C263.287 620.99 264.287 620.94 265.297 620.9C269.177 620.74 273.057 620.55 276.927 620.32C280.407 620.1 283.867 619.86 287.347 619.57C288.387 619.49 289.417 619.41 290.457 619.3C295.497 618.83 300.507 618.2 305.477 617.26C307.217 616.81 309.287 616.48 311.047 615.71C311.847 615.36 312.577 614.91 313.167 614.33C313.167 614.12 313.237 613.94 313.337 613.79C313.547 613.45 313.897 613.23 314.297 613.27C314.877 613.32 315.317 613.88 315.267 614.52L315.277 614.5Z" fill="#CAD3E8"/>
<path d="M166.597 640.82C166.867 639.78 168.237 639.89 168.447 641.02C169.107 641.86 170.227 642.36 171.347 642.79C175.237 644.28 179.837 644.96 184.437 645.57C190.697 646.4 197.087 646.92 202.337 647.24C214.367 647.97 226.437 648.24 238.507 648.19C250.577 648.14 262.637 647.78 274.667 646.99C283.507 646.41 292.377 645.76 301.057 643.97C301.257 643.93 301.447 643.89 301.647 643.85C303.387 643.43 305.357 643.01 307.007 642.15C307.397 641.95 307.707 641.71 308.027 641.46C308.217 641.31 308.607 640.98 308.797 640.79C308.897 640.23 309.467 639.94 309.957 640.1C310.447 640.26 310.727 640.81 310.637 641.39C310.617 641.51 310.597 641.62 310.567 641.73C309.667 645.01 304.787 646.21 302.197 647.09C293.397 650.1 284.167 651.06 275.027 652C262.887 653.25 250.677 653.6 238.517 653.56C222.027 653.51 205.517 652.64 189.167 650.04C185.127 649.38 179.417 648.51 174.117 646.79C172.047 646.11 170.047 645.32 168.487 644.2C167.657 643.6 166.967 642.85 166.647 642.02C166.477 641.57 166.507 641.15 166.597 640.81V640.82Z" fill="#CAD3E8"/>
<path d="M171.457 667.15C171.807 666.54 172.777 666.99 173.067 667.72C173.647 668.46 174.627 669 175.737 669.47C179.027 670.85 183.457 671.63 187.957 672.27C194.137 673.13 200.527 673.64 204.627 673.92C215.897 674.7 227.207 674.94 238.517 674.89C249.827 674.84 261.137 674.48 272.397 673.69C280.727 673.1 289.107 672.48 297.257 670.6C297.437 670.56 297.627 670.51 297.807 670.47C299.487 670.04 301.287 669.58 302.807 668.69C303.187 668.47 303.407 668.22 303.707 667.94C303.797 667.86 304.307 667.4 304.427 667.27C304.677 666.82 305.207 666.68 305.607 666.96C306.017 667.24 306.107 667.77 306.007 668.3C305.987 668.41 305.967 668.53 305.937 668.63C304.977 671.78 300.817 672.85 298.247 673.77C290.017 676.73 281.377 677.77 272.807 678.72C261.417 679.95 249.937 680.28 238.537 680.27C224.957 680.27 211.367 679.52 197.877 677.6C191.857 676.77 184.977 675.81 178.467 673.56C176.427 672.85 174.417 672.05 172.767 670.74C171.997 670.13 171.337 669.25 171.127 668.31C171.017 667.82 171.167 667.36 171.467 667.16L171.457 667.15Z" fill="#CAD3E8"/>
<path d="M301.277 695.49C300.907 696.27 300.417 696.91 299.847 697.44C298.837 698.39 297.577 699.02 296.307 699.57C295.617 699.86 294.917 700.14 294.277 700.42C289.747 701.89 285.157 703.04 280.527 703.91C279.597 704.08 278.667 704.25 277.737 704.4C271.967 705.37 266.147 705.96 260.307 706.32C259.377 706.39 258.437 706.44 257.517 706.47C251.717 706.78 245.937 706.88 240.167 706.95C239.627 706.95 239.067 706.96 238.527 706.96C238.067 706.96 237.597 706.96 237.137 706.95C231.347 706.91 225.567 706.71 219.787 706.32C218.847 706.28 217.907 706.21 216.977 706.12C213.497 705.87 210.037 705.54 206.567 705.14C204.227 704.85 201.887 704.54 199.547 704.18C198.607 704.05 197.667 703.9 196.737 703.73C192.037 702.93 187.367 701.88 182.807 700.3C181.907 699.96 181.007 699.61 180.117 699.2C179.027 698.7 177.987 698.09 177.037 697.25C176.867 697.11 176.697 696.93 176.547 696.75C176.037 696.16 175.637 695.39 175.587 694.57C175.547 694.25 175.657 693.95 175.857 693.74C175.987 693.6 176.147 693.51 176.327 693.48C176.877 693.33 177.347 694.08 177.687 694.42C178.117 694.99 178.837 695.5 179.737 695.97C183.267 697.77 189.927 698.86 195.957 699.56C197.117 699.69 198.247 699.81 199.327 699.93C202.507 700.24 205.247 700.44 206.907 700.61C210.057 700.83 213.207 701.01 216.357 701.15C217.507 701.2 218.657 701.25 219.807 701.29C225.477 701.51 231.147 701.61 236.827 701.61C237.387 701.61 237.957 701.6 238.507 701.6C239.157 701.6 239.797 701.59 240.457 701.59C246.147 701.54 251.817 701.38 257.487 701.12C258.647 701.08 259.797 701.01 260.947 700.95C264.007 700.8 267.067 700.61 270.117 700.39C272.727 700.18 275.337 699.97 277.957 699.7C279.097 699.59 280.227 699.47 281.367 699.33C285.427 698.85 289.477 698.21 293.447 697.24C294.547 696.93 295.657 696.63 296.707 696.2C297.377 695.94 298.007 695.62 298.607 695.23C298.977 694.98 299.167 694.78 299.377 694.42L300.047 693.74C300.257 693.53 300.517 693.46 300.777 693.51C300.957 693.54 301.127 693.64 301.247 693.79C301.647 694.27 301.417 694.95 301.297 695.49H301.277Z" fill="#CAD3E8"/>
<path d="M180.107 699.19C179.017 698.69 177.977 698.08 177.027 697.24C176.857 697.1 176.687 696.92 176.537 696.74C176.297 695.74 176.067 694.73 175.847 693.73C173.057 681.51 170.807 669.16 168.697 656.76C166.417 643.3 164.267 629.8 162.537 616.23C162.407 615.31 162.287 614.4 162.177 613.47C162.757 613.01 163.747 613.26 163.847 614.31C163.927 614.42 164.027 614.52 164.117 614.62C164.487 614.98 164.937 615.25 165.417 615.48C165.677 616.55 165.907 617.63 166.137 618.72C167.887 626.68 169.497 634.66 171.037 642.67C171.237 643.74 171.437 644.81 171.637 645.88C172.257 649.17 172.867 652.45 173.467 655.73C174.297 660.32 175.107 664.91 175.877 669.5C176.067 670.59 176.257 671.68 176.427 672.77C177.677 680.46 178.817 688.18 179.727 695.94C179.857 697.02 179.987 698.1 180.107 699.18V699.19Z" fill="#CAD3E8"/>
<path d="M199.537 704.17C198.597 704.04 197.657 703.89 196.727 703.72C196.457 702.33 196.207 700.93 195.967 699.54C194.657 692 193.567 684.42 192.597 676.83C192.427 675.48 192.257 674.14 192.097 672.79C191.567 668.41 191.057 664.03 190.577 659.64C190.217 656.47 189.877 653.3 189.547 650.12C189.397 648.8 189.257 647.47 189.137 646.15C188.367 638.63 187.667 631.09 187.097 623.55C186.987 622.21 186.897 620.87 186.807 619.53C187.847 619.64 188.887 619.74 189.937 619.84C190.167 621.23 190.387 622.63 190.607 624.04C191.777 631.55 192.827 639.08 193.817 646.62C194.007 648.03 194.187 649.43 194.357 650.84C194.707 653.55 195.037 656.27 195.377 658.98C195.957 663.76 196.537 668.54 197.047 673.33C197.217 674.74 197.367 676.15 197.497 677.56C198.277 685 198.917 692.46 199.347 699.93C199.427 701.35 199.497 702.76 199.557 704.19L199.537 704.17Z" fill="#CAD3E8"/>
<path d="M219.807 701.27C219.807 702.95 219.807 704.63 219.777 706.3C218.837 706.26 217.897 706.19 216.967 706.1C216.747 704.44 216.557 702.79 216.367 701.12C215.537 693.88 214.927 686.63 214.427 679.37C214.307 677.72 214.197 676.08 214.097 674.43C213.827 670.21 213.607 666.01 213.377 661.79C213.217 658.76 213.067 655.72 212.927 652.69C212.847 651.04 212.777 649.4 212.707 647.74C212.377 640.51 212.137 633.28 212.007 626.03C211.977 624.38 211.947 622.73 211.927 621.07C212.937 621.11 213.947 621.15 214.967 621.17C215.147 622.86 215.317 624.54 215.467 626.23C216.167 633.44 216.757 640.67 217.297 647.91C217.417 649.6 217.537 651.3 217.657 652.99C217.857 655.81 218.047 658.64 218.217 661.46C218.497 665.85 218.757 670.24 218.987 674.64C219.087 676.33 219.167 678.02 219.237 679.71C219.577 686.89 219.787 694.07 219.807 701.28V701.27Z" fill="#CAD3E8"/>
<path d="M241.087 674.87C241.087 676.67 241.067 678.46 241.047 680.25C240.977 687.36 240.797 694.46 240.457 701.57C240.367 703.36 240.267 705.16 240.157 706.94C239.617 706.94 239.057 706.95 238.517 706.95C238.057 706.95 237.587 706.95 237.127 706.94C237.017 705.15 236.917 703.38 236.827 701.59C236.467 694.48 236.307 687.37 236.227 680.25C236.227 678.46 236.197 676.69 236.197 674.9C236.177 671.26 236.197 667.62 236.197 663.97C236.217 660.49 236.247 657.03 236.297 653.55C236.317 651.77 236.337 649.99 236.377 648.2C236.497 641.08 236.677 633.98 236.967 626.86C237.037 625.07 237.117 623.29 237.207 621.5H238.507C239.017 621.5 239.547 621.5 240.057 621.49C240.147 623.29 240.227 625.09 240.297 626.88C240.587 633.97 240.767 641.08 240.887 648.17C240.917 649.97 240.947 651.77 240.967 653.55C241.017 657.03 241.047 660.49 241.067 663.96C241.087 667.59 241.087 671.22 241.067 674.86L241.087 674.87Z" fill="#CAD3E8"/>
<path d="M314.317 613.25C314.167 614.51 314.007 615.77 313.847 617.01C312.837 624.87 311.697 632.7 310.467 640.52C310.347 641.28 310.227 642.05 310.097 642.81C309.317 647.7 308.507 652.6 307.677 657.48C307.117 660.78 306.537 664.08 305.947 667.39C305.827 668.08 305.707 668.74 305.577 669.41C304.117 677.5 302.547 685.53 300.747 693.52C300.447 694.83 300.147 696.15 299.837 697.45C298.827 698.4 297.567 699.03 296.297 699.58C296.417 698.45 296.547 697.32 296.687 696.2C297.607 688.48 298.737 680.8 300.007 673.15C300.197 671.99 300.397 670.84 300.587 669.68C301.327 665.27 302.107 660.86 302.907 656.46C303.527 653.05 304.147 649.64 304.807 646.24C305.017 645.1 305.227 643.96 305.457 642.83C306.977 634.86 308.577 626.93 310.327 619.03C310.567 617.92 310.807 616.82 311.067 615.72C311.867 615.37 312.597 614.92 313.187 614.34C313.187 614.13 313.257 613.95 313.357 613.8C313.567 613.46 313.917 613.24 314.317 613.28V613.25Z" fill="#CAD3E8"/>
<path d="M290.477 619.29C290.387 620.78 290.267 622.28 290.157 623.77C289.587 631.17 288.917 638.55 288.167 645.93C288.017 647.44 287.857 648.97 287.707 650.49C287.387 653.54 287.057 656.59 286.717 659.64C286.237 663.96 285.737 668.27 285.217 672.59C285.027 674.12 284.837 675.64 284.647 677.17C283.707 684.58 282.647 691.97 281.357 699.33C281.087 700.86 280.817 702.39 280.517 703.92C279.587 704.09 278.657 704.26 277.727 704.41C277.787 702.84 277.867 701.27 277.957 699.7C278.367 692.41 279.007 685.15 279.757 677.89C279.927 676.29 280.097 674.7 280.267 673.09C280.787 668.37 281.347 663.67 281.917 658.97C282.237 656.37 282.557 653.76 282.897 651.16C283.097 649.56 283.287 647.97 283.497 646.36C284.467 638.98 285.477 631.6 286.627 624.26C286.877 622.7 287.117 621.13 287.377 619.57C288.417 619.49 289.447 619.41 290.487 619.3L290.477 619.29Z" fill="#CAD3E8"/>
<path d="M265.317 620.89C265.297 622.66 265.277 624.42 265.237 626.2C265.097 633.32 264.857 640.44 264.567 647.56C264.487 649.34 264.407 651.1 264.327 652.88C264.187 655.86 264.037 658.83 263.887 661.81C263.667 665.96 263.447 670.1 263.187 674.24C263.077 676.02 262.957 677.78 262.827 679.56C262.337 686.7 261.727 693.83 260.927 700.93C260.727 702.73 260.517 704.52 260.287 706.31C259.357 706.38 258.417 706.43 257.497 706.46C257.467 704.67 257.467 702.89 257.477 701.1C257.477 694.01 257.707 686.91 258.027 679.83C258.107 678.04 258.197 676.24 258.297 674.46C258.527 670.13 258.777 665.8 259.057 661.47C259.237 658.69 259.417 655.92 259.597 653.14C259.717 651.34 259.847 649.55 259.977 647.76C260.487 640.63 261.067 633.51 261.767 626.39C261.927 624.59 262.117 622.8 262.307 621.02C263.307 620.99 264.307 620.94 265.317 620.9V620.89Z" fill="#CAD3E8"/>
<path d="M241.087 674.87C241.087 676.67 241.067 678.46 241.047 680.25C240.977 687.36 240.797 694.46 240.457 701.57C240.367 703.36 240.267 705.16 240.157 706.94C239.617 706.94 239.057 706.95 238.517 706.95C238.057 706.95 237.587 706.95 237.127 706.94C237.017 705.15 236.917 703.38 236.827 701.59C236.467 694.48 236.307 687.37 236.227 680.25C236.227 678.46 236.197 676.69 236.197 674.9C236.177 671.26 236.197 667.62 236.197 663.97C236.217 660.49 236.247 657.03 236.297 653.55C236.317 651.77 236.337 649.99 236.377 648.2C236.497 641.08 236.677 633.98 236.967 626.86C237.037 625.07 237.117 623.29 237.207 621.5H238.507C239.017 621.5 239.547 621.5 240.057 621.49C240.147 623.29 240.227 625.09 240.297 626.88C240.587 633.97 240.767 641.08 240.887 648.17C240.917 649.97 240.947 651.77 240.967 653.55C241.017 657.03 241.047 660.49 241.067 663.96C241.087 667.59 241.087 671.22 241.067 674.86L241.087 674.87Z" fill="#CAD3E8"/>
<mask id="mask0_1360_1538" style="mask-type:luminance" maskUnits="userSpaceOnUse" x="136" y="468" width="178" height="116">
<path d="M312.637 578.78C306.527 579.91 297.417 581.01 285.717 581.85C277.117 582.47 267.117 582.95 255.877 583.19C250.377 583.31 244.577 583.38 238.507 583.38C203.167 583.38 177.167 581.15 164.367 578.78C163.657 578.65 163.657 577.62 164.367 577.49C177.167 575.12 111.677 487.22 147.017 487.22C154.987 487.22 281.497 468.09 288.477 468.3C299.237 468.61 307.177 576.48 312.637 577.49C313.347 577.62 313.347 578.65 312.637 578.78Z" fill="white"/>
</mask>
<g mask="url(#mask0_1360_1538)">
<path d="M167.499 531.203L262.813 502.753C263.245 502.624 263.705 502.873 263.834 503.304L305.404 642.572C305.533 643.003 305.284 643.464 304.853 643.592L209.539 672.043C209.107 672.172 208.647 671.923 208.518 671.492L166.948 532.224C166.819 531.793 167.068 531.332 167.499 531.203Z" fill="#6BABF8"/>
<path d="M167.499 531.203L262.813 502.753C263.245 502.624 263.705 502.873 263.834 503.304L305.404 642.572C305.533 643.003 305.284 643.463 304.853 643.592L209.539 672.043C209.107 672.172 208.647 671.923 208.518 671.492L166.948 532.223C166.819 531.792 167.068 531.332 167.499 531.203Z" fill="#4F8AD1"/>
<path d="M195.967 629.4L166.957 532.2C166.827 531.76 167.077 531.31 167.517 531.18L220.277 515.43L247.707 535.46C248.527 536.08 248.867 537.16 248.537 538.13L195.987 629.4H195.967Z" fill="#F2F5FA"/>
<path d="M260.621 581.954C264.764 580.718 267.126 576.373 265.896 572.25C264.665 568.128 260.308 565.788 256.165 567.025C252.021 568.262 249.659 572.607 250.89 576.729C252.12 580.852 256.477 583.191 260.621 581.954Z" fill="white"/>
</g>
<g style="mix-blend-mode:multiply" opacity="0.68">
<path d="M270.977 527.21L281.767 563.35L276.427 573.85L271.947 582.65C266.917 582.89 261.557 583.07 255.877 583.19C251.567 583.28 247.077 583.35 242.417 583.37L242.457 583.29L247.717 572.94L270.977 527.21Z" fill="#E4EAF8"/>
</g>
<g style="mix-blend-mode:multiply" opacity="0.68">
<path d="M342.697 443.36C342.537 443.77 342.357 444.18 342.157 444.58L305.367 516.93L302.877 521.83H273.717L276.207 516.93L288.997 491.78H288.987L318.987 432.79C319.697 431.39 320.637 430.19 321.727 429.18C323.117 427.88 324.767 426.9 326.547 426.32C329.707 425.29 333.267 425.47 336.467 427.09C338.537 428.14 340.197 429.68 341.397 431.49C343.667 434.92 344.257 439.34 342.697 443.36Z" fill="#E4EAF8"/>
</g>
<path d="M360.647 434.5L289.357 574.7L285.717 581.85C277.117 582.47 267.117 582.95 255.877 583.19L260.947 573.21L337.477 422.72C339.097 419.52 341.877 417.28 345.037 416.24C348.197 415.21 351.757 415.39 354.957 417.01C361.357 420.27 363.897 428.1 360.647 434.5Z" fill="white"/>
<path d="M307.477 481.7L330.647 493.48L360.637 434.5C363.887 428.1 361.347 420.27 354.947 417.01C351.747 415.38 348.187 415.21 345.027 416.24C341.857 417.28 339.087 419.51 337.467 422.71L307.477 481.69V481.7Z" fill="#F55347"/>
<path d="M307.677 481.63L330.797 493.17L330.337 493.32C336.847 480.46 353.377 447.79 359.667 435.37C365.877 425.08 355.967 412.74 344.627 416.9C341.297 418.12 338.767 420.79 337.337 424L327.507 443.17C322.607 452.76 312.637 472.05 307.677 481.61V481.63ZM307.267 481.76C312.087 472.08 321.807 452.66 326.687 443.01L336.487 423.59C337.967 420.19 340.747 417.28 344.277 415.98C351.427 413.07 360.197 417.54 362.047 425.03C363.087 428.64 362.367 432.59 360.497 435.79L350.647 455.07L330.947 493.63L330.787 493.94L330.487 493.78L307.267 481.76Z" fill="#F55347"/>
<path d="M341.447 453.85C344.502 453.85 346.977 451.374 346.977 448.32C346.977 445.266 344.502 442.79 341.447 442.79C338.393 442.79 335.917 445.266 335.917 448.32C335.917 451.374 338.393 453.85 341.447 453.85Z" fill="#F55347"/>
<path d="M336.577 448.78C337.337 454.78 346.037 453.93 345.487 447.93C344.647 442.39 336.237 442.87 336.577 448.78ZM335.307 448.9C334.657 443.31 341.357 439.27 345.907 442.92C348.887 445.17 349.257 449.98 346.687 452.65C342.977 456.85 335.727 454.44 335.307 448.9Z" fill="white"/>
<path d="M337.497 451.88C337.827 453.08 337.357 452.89 336.707 453.34L335.467 454.06C332.947 455.46 330.387 456.79 327.667 457.78C327.017 458.03 326.497 457.13 327.007 456.68C328.437 455.38 329.987 454.24 331.567 453.14C332.707 452.35 333.987 451.52 335.177 450.79L335.787 450.41C336.187 449.9 337.427 451.25 337.497 451.87V451.88Z" fill="white"/>
<path d="M255.307 582.9C279.667 533.96 309.227 475.21 333.917 426.56C334.757 424.97 335.797 422.72 336.737 421.1C339.037 417.24 343.217 414.62 347.687 414.21C357.077 413.12 365.237 422.09 363.287 431.34C362.937 433.44 361.867 435.44 360.907 437.31C346.227 466.12 323.507 510.49 308.597 539.33L286.297 582.15C286.137 582.46 285.747 582.58 285.437 582.42C285.127 582.26 285.007 581.88 285.157 581.57L306.627 538.33C321.457 508.63 343.977 464.09 358.927 434.61C361.477 430.32 361.037 424.53 357.587 420.85C351.367 414.14 341.017 416.79 337.847 425.17C320.417 459.39 296.327 506.32 278.657 540.61L256.457 583.48C256.297 583.79 255.907 583.92 255.597 583.75C255.287 583.59 255.167 583.21 255.317 582.9H255.307Z" fill="#F55347"/>
<mask id="mask1_1360_1538" style="mask-type:luminance" maskUnits="userSpaceOnUse" x="542" y="117" width="445" height="616">
<path d="M986.357 117.1H542.237V732.28H986.357V117.1Z" fill="white"/>
</mask>
<g mask="url(#mask1_1360_1538)">
<path d="M604.367 347.04C604.367 347.04 622.087 331.68 647.527 324.54C647.527 324.54 643.597 345.63 630.757 349.87C617.907 354.11 604.377 347.05 604.377 347.05L604.367 347.04Z" fill="#243757"/>
<path d="M905.367 375.57C903.277 386.25 872.347 426.25 875.137 449.01C914.867 509.68 976.037 531.92 983.007 465.62C984.057 455.64 983.557 445.55 981.877 435.66C981.817 435.29 981.747 434.92 981.687 434.55C978.907 414.33 970.697 363.18 958.867 358.75C958.867 358.75 938.557 344.89 938.497 344.87C929.837 351.47 908.717 358.88 905.367 375.58V375.57Z" fill="#131D2E"/>
<path d="M893.598 299.71C883.648 310.16 882.568 367.28 886.798 389.77C888.348 399.93 895.878 397.25 896.228 398.17C917.368 410.89 938.178 413.29 954.278 411.08C967.038 409.33 978.858 457.24 983.558 452.54C983.128 450.89 976.927 405.18 973.467 389.92C966.057 357.24 956.758 338.26 946.048 323.11C928.058 297.64 890.598 282.94 872.308 280.55C827.338 297.29 893.598 299.7 893.598 299.7V299.71Z" fill="#131D2E"/>
<path d="M917.318 527.69C922.188 520.09 932.368 517.67 940.848 518.57C941.338 518.61 941.348 519.38 940.848 519.42C934.558 520.28 928.288 521.05 922.808 524.29C921.038 525.34 919.408 526.63 917.998 528.19C917.678 528.58 917.028 528.11 917.308 527.68L917.318 527.69Z" fill="#4D281C"/>
<path d="M949.918 774.56H846.248C846.548 768.82 846.887 760.97 846.717 750.56C846.687 748.68 846.638 746.73 846.568 744.68C846.148 731.94 846.418 717 848.918 704.49C849.308 702.58 847.408 698.83 844.118 693.97C831.818 675.7 800.048 641.95 797.398 633.98C797.058 632.94 796.828 632.21 796.748 631.8C796.368 630.01 796.048 628.2 795.768 626.39C793.008 608.43 794.688 589.89 797.008 576.03C799.228 562.68 802.048 553.67 802.048 553.67L802.668 553.33C802.668 553.33 802.958 547.01 803.848 539.8C803.958 538.96 804.078 538.15 804.228 537.35C805.108 532.65 806.818 528.93 810.078 529.19C821.948 530.17 885.488 521.65 885.488 521.65C888.788 527.78 913.188 513.64 915.378 517.64C953.798 587.76 947.588 554.98 954.558 626.13C954.708 627.65 954.848 630.14 954.858 633.39C954.848 654.75 949.378 719.56 949.918 774.56Z" fill="#E4EAF8"/>
<path d="M846.247 774.56H864.967C864.967 774.56 865.027 773.54 866.317 758.92C867.607 744.3 876.937 664.61 876.937 664.61L844.117 693.97C847.407 698.82 849.307 702.57 848.917 704.48C846.417 717 846.147 731.93 846.567 744.67C847.407 770.23 846.247 774.55 846.247 774.55V774.56Z" fill="#ABB0BA"/>
<path d="M882.167 644.1C881.727 663.85 859.807 714.33 849.697 742.56C848.727 745.27 847.727 747.94 846.717 750.56C843.257 759.5 839.667 767.81 836.587 774.56H729.837C731.457 748.96 739.967 693.44 749.787 633.71C750.337 630.37 750.917 626.48 751.547 622.24C755.777 593.55 763.287 545.69 768.847 538.37C778.557 525.58 780.737 538.69 796.927 538.1C799.387 538.01 801.817 537.74 804.227 537.35C818.057 535.12 831.077 528.77 845.037 527.11C856.017 525.79 851.167 536.73 849.677 542.81C846.907 554.1 849.517 557.95 851.857 569.41C854.927 584.51 859.177 600.53 862.527 616.64C865.737 632.12 882.487 629.28 882.167 644.1Z" fill="#E4EAF8"/>
<path d="M877.977 661.85C870.427 701.39 853.827 738.42 836.977 774.73C836.877 774.94 836.627 775.03 836.407 774.93C836.197 774.83 836.107 774.59 836.197 774.38C847.487 746.56 860.067 719.22 869.187 690.59C872.217 681.06 874.857 671.41 877.137 661.67C877.187 661.44 877.417 661.3 877.647 661.35C877.867 661.4 878.007 661.62 877.967 661.85H877.977Z" fill="#6C7687"/>
<path d="M753.607 607.98C832.357 636.15 915.237 650.89 953.067 614.29C953.067 611.04 950.987 569.1 939.877 535.78C938.437 531.45 888.797 527.78 885.497 521.65C885.497 521.65 821.957 530.17 810.087 529.2C806.827 528.93 805.117 532.65 804.237 537.36C801.827 537.75 799.397 538.02 796.937 538.11C780.737 538.7 778.567 525.58 768.857 538.38C763.297 545.71 757.847 579.3 753.617 607.99L753.607 607.98Z" fill="#ABB0BA"/>
<path d="M669.267 461.15C664.897 457.69 661.047 453.91 657.917 449.8C633.867 418.23 604.837 333.83 604.837 333.83C606.257 325.5 611.437 330.29 611.437 330.29L618.617 327.87C633.997 321.27 637.637 313.75 637.637 313.75L704.497 410.55C704.497 410.55 721.627 438.34 717.297 445.96C698.227 479.5 669.267 461.15 669.267 461.15Z" fill="#703E2A"/>
<path d="M655.737 443.19C660.157 451.84 662.107 463.56 674.907 474.78C688.707 486.88 709.467 486.11 722.487 473.18C738.327 457.44 752.977 438.26 753.387 437.71C754.857 435.74 756.477 433.77 758.157 431.8C760.947 428.56 763.957 425.34 766.907 422.21C773.657 415.02 780.087 408.26 782.907 402.62C794.267 381.57 812.027 325.43 806.077 312.95C806.077 312.95 800.027 285.51 800.007 285.51C799.777 285.51 799.537 285.53 799.287 285.53C790.027 285.97 772.367 292.62 758.977 302.29C756.127 304.34 753.467 306.54 751.147 308.83C737.317 322.6 706.447 364.48 693.177 386.53C692.167 388.2 656.667 441.67 655.737 443.19Z" fill="#131D2E"/>
<path d="M869.527 298.58C869.527 298.58 865.247 299.58 844.507 300.85C823.747 302.11 801.117 294 801.147 294C802.687 288.7 803.157 282.01 803.257 275.46C803.427 262.43 802.267 249.95 802.267 249.95C805.347 248.89 808.437 247.83 811.527 246.77C826.967 237.86 842.738 228.95 858.828 220.07C859.598 246.16 863.167 272.48 869.527 298.58Z" fill="#703E2A"/>
<path d="M823.587 259.66C816.697 264.93 809.917 270.19 803.247 275.46C803.417 262.43 802.257 249.95 802.257 249.95C805.337 248.89 808.427 247.83 811.517 246.77C814.607 246.96 816.687 247.14 816.937 247.28C817.967 247.88 823.517 259.66 823.577 259.66H823.587Z" fill="#4D281C"/>
<path d="M815.577 151.78C807.107 151.21 797.867 153.1 791.047 164.95C783.647 176.95 779.397 197.88 779.397 197.88C772.277 223.82 769.087 253.48 780.397 259.75C791.707 266.02 815.337 264.79 826.707 258.91C838.067 253.04 856.017 229.64 857.897 219.74C859.627 210.59 860.927 154.82 815.577 151.78Z" fill="#703E2A"/>
<path d="M779.677 198.93C779.617 199.19 776.407 207.16 771.337 211.49C767.477 214.78 767.997 222.17 776.927 223.73C785.867 225.29 779.677 198.93 779.677 198.93Z" fill="#703E2A"/>
<path d="M773.087 222.77C773.647 221.86 774.397 222.09 775.227 222.03C775.997 222.03 776.747 222.11 777.487 222.4C777.727 222.49 777.837 222.76 777.747 223C777.697 223.12 777.607 223.21 777.497 223.25C776.487 223.72 775.417 223.93 774.327 224.07C773.807 224.23 772.627 223.51 773.087 222.77Z" fill="#4D281C"/>
<path d="M786.135 204.459C786.61 202.683 786.16 201.019 785.13 200.744C784.101 200.468 782.881 201.686 782.406 203.462C781.931 205.239 782.38 206.902 783.41 207.178C784.44 207.453 785.66 206.236 786.135 204.459Z" fill="#2B1A14"/>
<path d="M782.247 200.33C785.327 198.56 789.217 201.23 790.117 204.34C790.187 204.57 790.057 204.82 789.827 204.89C789.677 204.94 789.517 204.89 789.407 204.8C788.847 204.3 788.327 203.81 787.797 203.38C786.217 202.05 784.467 201.47 782.427 201.16C782.017 201.12 781.897 200.52 782.257 200.33H782.247Z" fill="#2B1A14"/>
<path d="M783.558 190.84C785.818 189.38 789.158 190.43 791.108 191.95C793.158 193.56 794.528 195.68 795.288 197.93C795.468 198.47 795.178 199.05 794.638 199.23C794.278 199.35 793.888 199.26 793.628 199.02C791.478 196.9 789.288 194.95 786.548 193.77C785.648 193.3 784.828 193.36 783.868 192.82C783.078 192.49 782.868 191.39 783.558 190.84Z" fill="#2B1A14"/>
<path d="M792.587 222.01C793.147 228 788.167 234.37 781.787 233.24C780.967 233.12 780.187 232.84 779.427 232.59C779.037 232.46 778.827 232.03 778.957 231.64C779.067 231.29 779.397 231.13 779.727 231.12C781.747 231.01 783.737 230.84 785.487 229.85C788.357 228.12 789.797 224.9 791.087 221.86C791.327 221.07 792.527 221.2 792.577 222.02L792.587 222.01Z" fill="#4D281C"/>
<path d="M760.427 357.97C759.147 366.76 758.287 375.97 757.907 385.31C757.587 392.81 757.597 400.41 757.937 407.94C758.137 412.29 758.287 416.72 758.407 421.23C759.127 452.94 758.057 487.78 755.387 516.36C753.977 531.09 752.947 559.91 751.557 570.24C751.477 570.24 867.457 632.37 951.007 576.87C951.037 576.87 950.947 539.98 950.437 496.36C950.037 468.15 949.307 436.84 946.197 410.11C945.137 401.04 943.787 392.47 942.007 384.75C928.217 323.61 917.297 291.75 872.207 280.54C868.917 279.71 865.447 279.01 861.777 278.41C861.777 278.41 821.187 278.36 797.827 285.32C792.597 286.87 788.207 288.78 785.377 291.13C775.017 299.65 764.997 326.12 760.427 357.97Z" fill="#131D2E"/>
<path d="M950.007 516.89C950.857 481.58 948.738 446.22 945.018 411.12C942.878 394.68 940.728 377.43 939.448 360.91L939.028 355.93C938.958 355.56 939.217 355.18 939.597 355.16C939.917 355.13 940.198 355.34 940.268 355.64C940.698 357.38 940.957 358.99 941.257 360.67C947.307 398.93 950.608 437.74 951.648 476.46C951.938 489.95 951.928 503.45 951.278 516.93C951.258 517.28 950.957 517.55 950.607 517.54C950.257 517.52 949.987 517.23 949.997 516.88L950.007 516.89Z" fill="#243757"/>
<path d="M757.667 431.38C770.567 414 782.997 396.22 793.097 377.04C793.437 376.36 794.547 376.79 794.277 377.54C788.717 393.04 779.247 406.78 769.247 419.72C765.867 424.01 762.367 428.19 758.637 432.2C758.107 432.77 757.157 432.02 757.667 431.37V431.38Z" fill="#243757"/>
<path d="M872.297 280.56L869.667 263.49L793.797 273.43L795.607 293.4C795.607 293.4 850.977 308.59 858.447 299.23C865.917 289.87 872.297 280.57 872.297 280.57V280.56Z" fill="#131D2E"/>
<path d="M643.437 330.93C643.437 330.93 637.887 316.21 637.647 313.76C637.397 311.31 640.947 305.42 639.737 291.72C638.527 278.02 636.037 263.74 633.827 261.77C631.617 259.8 627.327 262.51 626.357 271.21C625.377 280 625.947 285.53 625.947 285.53C624.067 284.95 622.917 287.21 616.317 271.16C609.717 255.11 604.957 247.22 601.787 246.31C598.627 245.4 596.867 249.76 597.477 253.08C598.087 256.4 604.407 272.63 604.407 272.63C604.407 272.63 598.177 258.35 587.967 246.01C585.827 243.42 580.607 246.32 582.497 253.85C582.627 254.35 582.777 254.76 582.917 255.09C583.347 256.1 596.697 279.71 596.697 279.71C596.697 279.71 592.837 274.84 588.767 269.32C585.727 265.2 582.817 260.63 579.957 257.98C577.727 255.91 575.697 255.59 574.147 256.87C569.997 260.29 577.567 272.01 581.097 278.34C585.957 287.06 590.847 293.69 590.847 293.69C590.847 293.69 590.717 290.94 585.747 284.56C580.777 278.17 576.647 272.99 574.467 274.69C572.287 276.39 570.777 280.34 581.277 299.47C591.777 318.6 604.077 333.59 604.077 333.59L616.827 367.76L643.417 330.94L643.437 330.93Z" fill="#703E2A"/>
<path d="M584.157 256.23C586.847 260.28 589.317 264.45 591.707 268.66C594.097 272.88 596.387 277.14 598.277 281.64C598.367 281.86 598.267 282.11 598.047 282.2C597.857 282.28 597.647 282.21 597.527 282.05C594.707 278.07 592.297 273.87 589.977 269.62C587.657 265.37 585.417 261.07 583.407 256.64C583.187 256.18 583.877 255.79 584.157 256.23Z" fill="#4D281C"/>
<path d="M577.057 271.61C579.877 275.08 582.477 278.7 585.007 282.37C587.527 286.04 589.967 289.76 592.027 293.75C592.137 293.96 592.057 294.22 591.837 294.33C591.657 294.42 591.447 294.38 591.317 294.23C588.387 290.84 585.837 287.18 583.367 283.47C580.907 279.76 578.517 276 576.347 272.09C576.087 271.65 576.747 271.21 577.057 271.61Z" fill="#4D281C"/>
<path d="M881.237 196.32C881.077 192.88 880.397 189.46 879.247 186.22C879.157 184.28 878.877 182.44 878.357 180.69C878.337 180.66 878.307 180.64 878.287 180.61C878.167 180.01 877.987 179.43 877.717 178.87C877.697 178.83 877.677 178.78 877.657 178.74C878.147 178.58 878.597 178.23 878.827 177.78C879.257 176.92 879.217 174.89 878.947 173.96C878.277 171.53 876.947 169.3 875.157 167.54C875.447 165.32 874.667 162.97 873.087 161.37C871.507 159.78 869.147 158.97 866.917 159.26C867.097 157.7 865.367 156.68 863.877 156.12C860.107 154.73 859.347 154.75 855.427 153.82C851.367 150.66 847.537 147.24 842.407 147.7C839.847 144.9 835.817 143.53 832.077 144.17C830.047 142.05 826.587 141.47 823.987 142.8C821.287 140.4 816.407 141 814.317 143.93C813.837 143.6 812.077 142.62 809.947 142.9C809.357 143.42 809.367 143.88 809.457 144.2C808.267 142.68 805.977 142.16 804.247 143C802.717 143.75 800.147 147.67 800.287 149.37C800.127 149.08 799.807 148.84 799.477 148.79C798.927 148.69 798.357 148.92 797.857 149.17C794.397 150.93 791.867 155.5 791.517 159.41L790.977 158.94C790.977 158.94 790.887 159.02 790.837 159.06C790.297 158.81 789.587 158.85 789.067 159.18C788.267 159.66 787.847 160.58 787.547 161.46C787.477 161.67 787.417 161.89 787.357 162.1L786.007 163.28C785.347 163.86 784.637 164.5 784.477 165.37C784.317 166.23 785.037 167.29 785.887 167.08C784.387 167.35 783.317 168.94 783.437 170.47C783.517 171.5 784.087 172.44 784.887 173.1C784.587 173.49 784.287 173.89 784.007 174.28C783.497 174.98 783.007 175.89 783.397 176.67C783.827 177.53 785.027 177.61 785.967 177.4C787.557 177.06 788.977 176.29 790.327 175.36C789.577 176.18 788.867 177.04 788.217 177.95C787.707 178.65 787.217 179.56 787.607 180.34C788.037 181.2 789.237 181.28 790.177 181.07C792.917 180.48 795.197 178.62 797.377 176.86C797.927 176.41 798.487 175.96 799.067 175.54C798.817 177.26 799.727 179.13 801.207 180.12C802.977 181.31 805.307 181.41 807.377 180.87C808.837 180.49 810.197 179.82 811.527 179.07C812.377 179.46 812.867 179.7 812.867 179.7L808.957 187.51C808.957 187.51 810.647 193.61 812.957 201.55C815.247 209.5 814.117 225.74 809.807 230.29C806.057 234.26 796.607 237.94 796.607 237.94C796.607 237.94 793.677 243.32 792.027 246.57C790.377 249.81 785.657 252.34 783.307 251.01C781.477 249.97 775.847 243.04 774.707 242.58C774.467 242.49 774.217 242.6 774.117 242.83C773.797 243.62 773.167 245.37 773.197 247.31C773.287 253.01 775.137 262.19 779.937 263.95C786.947 266.51 810.177 267.53 815.347 262.12C822.607 254.52 820.387 232.46 822.527 223.37C825.417 211.11 835.347 217.13 835.347 217.13C835.347 217.13 831.887 233.01 843.747 246.8C845.397 248.72 860.717 249.57 860.717 249.57C860.717 249.57 871.597 216.77 872.517 214.24C872.867 213.29 873.187 212.39 873.497 211.51C873.737 210.89 873.957 210.28 874.177 209.68C875.807 210.12 877.777 208.89 877.477 206.8C877.477 206.77 877.477 206.74 877.467 206.71C877.237 205.14 877.007 203.58 876.777 202.01C877.077 201.02 877.347 200.05 877.597 199.1C878.637 199.8 880.067 199.86 880.867 198.38C881.197 197.77 881.307 197.05 881.277 196.36L881.237 196.32Z" fill="#2B1A14"/>
<path d="M838.251 223.636C840.799 216.553 838.745 209.329 833.663 207.5C828.581 205.671 822.394 209.931 819.846 217.014C817.297 224.097 819.351 231.321 824.433 233.15C829.516 234.979 835.702 230.719 838.251 223.636Z" fill="#703E2A"/>
<path d="M833.907 217.09C833.097 219.81 831.187 222.17 828.857 223.75C828.367 224.1 825.187 225.87 825.837 224.19C826.457 223.49 827.107 222.91 827.737 222.3C828.857 221.26 830.417 219.81 831.417 218.67C832.007 218.03 832.567 217.36 833.167 216.68C833.457 216.33 834.047 216.66 833.917 217.09H833.907Z" fill="#4D281C"/>
<path d="M828.567 215.92C828.597 217.79 829.037 219.49 829.847 221.14C829.867 221.27 830.127 221.26 829.497 221.73C829.267 221.91 829.007 222.04 828.737 222.12C827.997 222.35 828.137 222.12 828.037 222C827.617 221.09 827.307 220.11 827.207 219.11C827.087 218.39 827.227 215.18 828.307 215.52C828.467 215.6 828.557 215.75 828.557 215.92H828.567Z" fill="#4D281C"/>
<path d="M604.367 347.04C604.367 347.04 647.407 477.57 692.257 482.94L699.837 392.31L647.527 324.54C647.527 324.54 626.357 345.07 604.367 347.04Z" fill="#131D2E"/>
<path d="M706.687 423.41C703.177 410.8 699.437 398.21 692.687 386.93C692.277 386.31 693.147 385.59 693.677 386.12C700.817 393.43 704.077 403.56 706.377 413.28C707.087 416.55 707.677 419.84 707.947 423.19C708.007 423.95 706.867 424.16 706.687 423.4V423.41Z" fill="#243757"/>
</g>
</svg>
