<svg width="935" height="699" viewBox="0 0 935 699" fill="none" xmlns="http://www.w3.org/2000/svg">
<path d="M594.68 103.788C463.14 1.07841 150.7 -87.8716 60.9998 158.998C-29.8602 409.048 96.6599 551.078 361.59 595.798C421.65 608.858 532.2 630.808 649.76 610.578C732.98 596.258 839.3 491.398 831.38 398.108C799.16 294.958 680.01 170.118 594.68 103.778V103.788Z" fill="#F2F5FA"/>
<path d="M200.41 532.298L189.97 546.678C189.97 546.678 156.22 509.788 96.6198 440.648C37.0298 371.488 81.5198 275.088 81.5198 275.088C204.84 354.428 200.49 529.538 200.41 532.258C200.41 532.268 200.41 532.278 200.41 532.298Z" fill="#61BB8A"/>
<path d="M200.41 532.298L189.97 546.678C189.97 546.678 156.22 509.788 96.6198 440.648C37.0298 371.488 81.5198 275.088 81.5198 275.088C81.5198 275.088 193.8 429.958 200.41 532.258C200.41 532.268 200.41 532.278 200.41 532.298Z" fill="#558F6F"/>
<path d="M188.5 525.098L186.83 539.578C186.83 539.578 147.87 526.828 77.45 501.438C7.04001 476.048 0 389.268 0 389.268C120.03 396.278 187.44 523.088 188.48 525.068C188.48 525.068 188.49 525.088 188.5 525.088V525.098Z" fill="#61BB8A"/>
<path d="M188.5 525.098L186.83 539.578C186.83 539.578 147.87 526.828 77.45 501.438C7.04001 476.048 0 389.268 0 389.268C0 389.268 142.56 454.658 188.48 525.068C188.48 525.068 188.49 525.088 188.5 525.088V525.098Z" fill="#558F6F"/>
<path d="M357.27 552.728L350.56 552.578C349.57 547.978 348.03 543.608 346.01 539.528L350.85 534.078C352.75 531.948 352.75 528.308 350.85 525.928L352.41 514.608C350.42 512.128 339.8 510.738 335.76 515.368L330.64 520.798C327.01 518.058 323.01 515.818 318.7 514.198V505.698C318.7 502.328 316.24 499.298 313.16 498.938L309.83 497.018L300.28 497.448C297.04 497.078 294.37 499.628 294.37 503.148V512.018C289.61 512.898 285.05 514.528 280.79 516.828L274.58 509.848C273.95 509.148 281.33 507.748 280.55 507.358C278.2 506.168 267.35 507.248 265.44 509.028L254.79 518.918C252.13 521.398 252.13 525.718 254.79 528.538L261.41 535.548C258.7 540.068 256.58 545.048 255.21 550.388L245.63 550.168C241.75 550.078 238.56 553.128 238.56 556.988V572.718C238.56 576.568 241.75 579.628 245.63 579.538L255.21 579.318C256.59 584.658 258.7 589.638 261.41 594.158L254.79 601.168C252.13 603.988 252.13 608.318 254.79 610.788L265.44 620.678C269.84 625.818 278.13 623.508 280.4 622.458C281.27 622.058 273.89 620.628 274.58 619.858L280.79 612.878C285.05 615.168 289.6 616.808 294.37 617.688V626.558C294.37 630.078 297.03 632.628 300.28 632.258L310.39 632.658C313.47 632.298 318.7 627.388 318.7 624.018V615.518C323.01 613.898 327.01 611.658 330.64 608.918L335.76 614.348C336.74 615.388 338.6 616.058 339.85 616.298C342.04 616.728 348.64 616.728 351.75 615.518L350.84 603.798C352.74 601.418 352.74 597.778 350.84 595.648L346 590.198C348.01 586.118 349.55 581.748 350.55 577.148L357.26 576.998C359.87 576.938 361.98 574.358 361.98 571.238V558.518C361.98 555.388 359.88 552.818 357.26 552.758L357.27 552.728ZM306.81 598.908C289.06 599.958 273.84 584.728 273.84 564.838C273.84 544.948 289.06 529.718 306.81 530.768C323.53 531.758 336.4 546.988 336.4 564.838C336.4 582.688 323.53 597.918 306.81 598.908Z" fill="white"/>
<path d="M368.07 552.659L361.28 552.509C360.27 547.879 358.71 543.479 356.68 539.379L361.58 533.899C363.5 531.749 363.5 528.099 361.58 525.699L353.59 515.739C351.6 513.249 348.34 512.949 346.31 515.089L341.12 520.549C337.45 517.799 333.4 515.549 329.04 513.919V505.359C329.04 501.969 326.55 498.919 323.44 498.569L310.41 497.079C307.13 496.699 304.43 499.268 304.43 502.808V511.729C299.61 512.619 295 514.259 290.69 516.569L284.41 509.549C281.88 506.719 277.74 506.329 275.16 508.719L264.39 518.669C261.69 521.159 261.69 525.509 264.39 528.349L271.08 535.399C268.33 539.939 266.2 544.949 264.81 550.319L255.12 550.099C251.19 550.009 247.97 553.069 247.97 556.959V572.779C247.97 576.649 251.2 579.729 255.12 579.639L264.81 579.419C266.2 584.789 268.34 589.799 271.08 594.339L264.39 601.389C261.69 604.229 261.69 608.579 264.39 611.069L275.16 621.019C277.74 623.409 281.88 623.019 284.41 620.189L290.69 613.169C295 615.479 299.61 617.119 304.43 618.009V626.928C304.43 630.468 307.12 633.039 310.41 632.659L323.44 631.169C326.56 630.809 329.04 627.769 329.04 624.379V615.819C333.4 614.189 337.45 611.939 341.12 609.189L346.31 614.649C348.34 616.789 351.6 616.479 353.59 613.999L361.58 604.039C363.5 601.639 363.5 597.989 361.58 595.839L356.68 590.359C358.72 586.259 360.28 581.859 361.28 577.229L368.07 577.079C370.72 577.019 372.85 574.419 372.85 571.289V558.489C372.85 555.349 370.72 552.759 368.07 552.699V552.659ZM317 599.118C299.04 600.168 283.64 584.849 283.64 564.849C283.64 544.849 299.04 529.529 317 530.579C333.92 531.569 346.95 546.899 346.95 564.849C346.95 582.799 333.93 598.128 317 599.118Z" fill="#E4EAF8"/>
<path d="M659.9 128.788L653.19 128.638C652.2 124.038 650.66 119.668 648.64 115.588L653.48 110.138C655.38 108.008 655.38 104.368 653.48 101.988L655.04 90.6684C653.05 88.1884 642.43 86.7984 638.39 91.4284L633.27 96.8584C629.64 94.1184 625.64 91.8784 621.33 90.2584V81.7584C621.33 78.3884 618.87 75.3584 615.79 74.9984L612.46 73.0784L602.91 73.5084C599.67 73.1384 597 75.6884 597 79.2084V88.0784C592.24 88.9584 587.68 90.5884 583.42 92.8884L577.21 85.9084C576.58 85.2084 583.96 83.8084 583.18 83.4184C580.83 82.2284 569.98 83.3084 568.07 85.0884L557.42 94.9784C554.76 97.4584 554.76 101.778 557.42 104.598L564.04 111.608C561.33 116.128 559.21 121.108 557.84 126.448L548.26 126.228C544.38 126.138 541.19 129.188 541.19 133.048V148.778C541.19 152.628 544.38 155.688 548.26 155.598L557.84 155.378C559.22 160.718 561.33 165.698 564.04 170.218L557.42 177.228C554.76 180.048 554.76 184.378 557.42 186.848L568.07 196.738C572.47 201.878 580.76 199.568 583.03 198.518C583.9 198.118 576.52 196.688 577.21 195.918L583.42 188.938C587.68 191.228 592.23 192.868 597 193.748V202.618C597 206.138 599.66 208.688 602.91 208.318L613.02 208.718C616.1 208.358 621.33 203.448 621.33 200.078V191.578C625.64 189.958 629.64 187.718 633.27 184.978L638.39 190.408C639.37 191.448 641.23 192.118 642.48 192.358C644.67 192.788 651.27 192.788 654.38 191.578L653.47 179.858C655.37 177.478 655.37 173.838 653.47 171.708L648.63 166.258C650.64 162.178 652.18 157.808 653.18 153.208L659.89 153.058C662.5 152.998 664.61 150.418 664.61 147.298V134.578C664.61 131.448 662.51 128.878 659.89 128.818L659.9 128.788ZM609.44 174.968C591.69 176.018 576.47 160.788 576.47 140.898C576.47 121.008 591.69 105.778 609.44 106.828C626.16 107.818 639.03 123.048 639.03 140.898C639.03 158.748 626.16 173.978 609.44 174.968Z" fill="white"/>
<path d="M670.7 128.718L663.91 128.568C662.9 123.938 661.34 119.538 659.31 115.438L664.21 109.958C666.13 107.808 666.13 104.158 664.21 101.758L656.22 91.7983C654.23 89.3083 650.97 89.0083 648.94 91.1483L643.75 96.6083C640.08 93.8583 636.03 91.6083 631.67 89.9783V81.4183C631.67 78.0283 629.18 74.9783 626.07 74.6283L613.04 73.1383C609.76 72.7583 607.06 75.3283 607.06 78.8683V87.7883C602.24 88.6783 597.63 90.3183 593.32 92.6283L587.04 85.6083C584.51 82.7783 580.37 82.3883 577.79 84.7783L567.02 94.7283C564.32 97.2183 564.32 101.568 567.02 104.408L573.71 111.458C570.96 115.998 568.83 121.008 567.44 126.378L557.75 126.158C553.82 126.068 550.6 129.128 550.6 133.018V148.838C550.6 152.708 553.83 155.788 557.75 155.698L567.44 155.478C568.83 160.848 570.97 165.858 573.71 170.398L567.02 177.448C564.32 180.288 564.32 184.638 567.02 187.128L577.79 197.078C580.37 199.468 584.51 199.078 587.04 196.248L593.32 189.228C597.63 191.538 602.24 193.178 607.06 194.068V202.988C607.06 206.528 609.75 209.098 613.04 208.718L626.07 207.228C629.19 206.868 631.67 203.828 631.67 200.438V191.878C636.03 190.248 640.08 187.998 643.75 185.248L648.94 190.708C650.97 192.848 654.23 192.538 656.22 190.058L664.21 180.098C666.13 177.698 666.13 174.048 664.21 171.898L659.31 166.418C661.35 162.318 662.91 157.918 663.91 153.288L670.7 153.138C673.35 153.078 675.48 150.478 675.48 147.348V134.548C675.48 131.408 673.35 128.818 670.7 128.758V128.718ZM619.63 175.178C601.67 176.228 586.27 160.908 586.27 140.908C586.27 120.908 601.67 105.588 619.63 106.638C636.55 107.628 649.58 122.958 649.58 140.908C649.58 158.858 636.56 174.188 619.63 175.178Z" fill="#E4EAF8"/>
<path d="M776.24 524.738C776.27 524.988 776.14 525.198 775.94 525.218C697.45 534.048 619 542.878 540.6 551.698C427.51 564.418 314.49 577.138 201.55 589.858C201.2 589.898 200.88 589.658 200.83 589.328C195.48 553.008 190.74 516.658 186.59 480.288C181.4 434.668 177.15 389.028 173.85 343.368C173.26 335.308 172.71 327.268 172.19 319.208C172.17 318.878 172.14 318.528 172.12 318.198C168.45 261.568 166.26 204.948 165.52 148.388C165.52 147.758 165.5 147.128 165.49 146.488C165.26 128.848 165.17 111.228 165.24 93.6084C165.24 93.2684 165.54 93.0184 165.89 93.0584C362.39 113.408 559.08 133.768 755.96 154.138C756.16 154.158 756.32 154.378 756.32 154.638C756.16 221.178 758.03 287.798 761.9 354.408C765.21 411.218 769.98 467.998 776.22 524.738H776.24Z" fill="white"/>
<path d="M756.41 139.188C756.34 148.638 756.32 158.098 756.33 167.548C559.14 148.678 362.11 129.808 165.24 110.948C165.22 98.2384 165.27 85.5384 165.39 72.8384C165.39 72.4984 165.69 72.2484 166.04 72.2884C362.48 94.4084 559.15 116.538 756.04 138.678C756.24 138.698 756.4 138.928 756.4 139.178L756.41 139.188Z" fill="#6BABF8"/>
<path d="M756.41 139.188C756.34 148.638 756.32 158.098 756.33 167.548C559.14 148.678 362.11 129.808 165.24 110.948C165.22 98.2384 165.27 85.5384 165.39 72.8384C165.39 72.4984 165.69 72.2484 166.04 72.2884C362.48 94.4084 559.15 116.538 756.04 138.678C756.24 138.698 756.4 138.928 756.4 139.178L756.41 139.188Z" fill="#4F8AD1"/>
<path d="M200.57 96.6083C200.56 99.9883 197.72 102.448 194.21 102.098C190.69 101.738 187.83 98.6983 187.84 95.2883C187.85 91.8883 190.73 89.4283 194.25 89.7983C197.76 90.1683 200.58 93.2183 200.57 96.5983V96.6083Z" fill="white"/>
<path d="M223.41 98.9685C223.4 102.318 220.61 104.758 217.17 104.408C213.72 104.058 210.92 101.048 210.93 97.6785C210.94 94.3085 213.76 91.8785 217.21 92.2385C220.65 92.6085 223.42 95.6185 223.4 98.9685H223.41Z" fill="white"/>
<path d="M245.79 101.288C245.78 104.608 243.05 107.018 239.67 106.678C236.29 106.338 233.54 103.358 233.55 100.018C233.56 96.6784 236.33 94.2684 239.71 94.6284C243.08 94.9884 245.79 97.9684 245.78 101.288H245.79Z" fill="white"/>
<path d="M208.59 136.779C208.64 142.259 204.1 146.329 198.41 145.859C192.69 145.389 187.98 140.529 187.93 134.989C187.88 129.459 192.52 125.389 198.24 125.909C203.93 126.429 208.55 131.289 208.59 136.769V136.779Z" stroke="#F3D9C6" stroke-width="3" stroke-miterlimit="10" stroke-linecap="round"/>
<path d="M217.77 136.968C219.08 136.578 220.31 136.748 221.56 136.778C222.8 136.838 224.05 136.888 225.29 136.948C231.46 137.278 237.75 137.778 243.83 138.738C244.67 138.968 248.3 138.998 247.76 140.338C247.67 140.528 247.49 140.658 247.3 140.708C245.1 141.128 242 140.728 239.77 140.748C234.79 140.508 229.85 140.028 224.92 139.438L221.23 138.968C220.38 138.778 216.73 138.708 217.36 137.278C217.45 137.118 217.6 137.008 217.76 136.958L217.77 136.968Z" fill="#E4EAF8"/>
<path d="M631.28 172.618C632.36 172.208 633.36 172.358 634.38 172.368C635.4 172.408 636.41 172.438 637.43 172.478C642.46 172.708 647.59 173.108 652.54 173.978C653.33 174.198 656.31 174.228 655.75 175.568C655.66 175.728 655.51 175.848 655.35 175.898C653.64 176.348 650.97 175.998 649.2 176.058C645.14 175.898 641.11 175.498 637.09 174.988L634.08 174.578C633.28 174.408 630.27 174.308 630.94 172.898C631.02 172.768 631.15 172.678 631.28 172.628V172.618Z" fill="#E4EAF8"/>
<path d="M661.86 175.248C662.9 174.828 663.87 174.978 664.86 174.988C665.84 175.018 666.83 175.058 667.81 175.088C672.68 175.308 677.65 175.688 682.43 176.538C683.22 176.758 686.09 176.778 685.53 178.118C685.44 178.278 685.3 178.388 685.14 178.438C683.52 178.888 680.88 178.558 679.19 178.618C675.26 178.468 671.36 178.078 667.48 177.588L664.57 177.188C663.76 177.018 660.87 176.928 661.54 175.508C661.62 175.388 661.74 175.298 661.87 175.238L661.86 175.248Z" fill="#E4EAF8"/>
<path d="M691.44 177.798C693.39 177.178 695.25 177.678 697.2 177.628C701.92 177.828 706.72 178.208 711.35 179.038C712.12 179.258 714.92 179.298 714.35 180.628C714.26 180.778 714.12 180.888 713.97 180.938C712.31 181.398 709.9 181.068 708.21 181.128C703.45 180.948 698.74 180.418 694.05 179.728C693.25 179.568 690.44 179.448 691.12 178.048C691.2 177.928 691.31 177.838 691.44 177.788V177.798Z" fill="#E4EAF8"/>
<path d="M720.08 180.268C721.97 179.638 723.77 180.138 725.66 180.088C730.23 180.278 734.88 180.648 739.37 181.458C740.14 181.678 742.84 181.708 742.27 183.048C742.18 183.198 742.05 183.298 741.9 183.348C740.31 183.808 737.95 183.488 736.32 183.558C731.71 183.388 727.15 182.878 722.61 182.198C721.81 182.038 719.09 181.928 719.78 180.518C719.86 180.408 719.97 180.318 720.08 180.268Z" fill="#E4EAF8"/>
<path d="M472.51 342.388C468.82 342.408 465.12 342.428 461.43 342.448C461.21 342.448 461.02 342.268 461.02 342.038C461.02 341.808 461.2 341.628 461.42 341.628C465.11 341.618 468.81 341.598 472.5 341.588C472.72 341.588 472.9 341.768 472.9 341.978C472.9 342.198 472.73 342.378 472.51 342.378V342.388Z" fill="#363F4A"/>
<path d="M450.35 342.508C446.66 342.528 442.96 342.548 439.27 342.568C439.03 342.568 438.84 342.378 438.84 342.138C438.84 341.898 439.03 341.708 439.27 341.708C442.96 341.698 446.66 341.678 450.35 341.668C450.58 341.668 450.77 341.858 450.77 342.088C450.77 342.318 450.59 342.508 450.35 342.508Z" fill="#363F4A"/>
<path d="M428.19 342.628C424.5 342.648 420.8 342.668 417.11 342.688C416.86 342.688 416.65 342.488 416.65 342.238C416.65 341.988 416.85 341.778 417.1 341.778C420.79 341.768 424.49 341.748 428.18 341.738C428.42 341.738 428.62 341.938 428.63 342.178C428.63 342.418 428.44 342.618 428.19 342.618V342.628Z" fill="#363F4A"/>
<path d="M406.02 342.748C402.33 342.768 398.63 342.788 394.94 342.808C394.68 342.808 394.46 342.598 394.46 342.338C394.46 342.078 394.67 341.858 394.93 341.858C398.62 341.848 402.32 341.828 406.01 341.818C406.27 341.818 406.48 342.028 406.48 342.278C406.48 342.538 406.28 342.748 406.02 342.748Z" fill="#363F4A"/>
<path d="M383.86 342.868C380.17 342.888 376.47 342.908 372.78 342.928C372.5 342.928 372.28 342.708 372.28 342.428C372.28 342.148 372.5 341.928 372.78 341.928C376.47 341.918 380.17 341.898 383.86 341.888C384.13 341.888 384.35 342.108 384.35 342.378C384.35 342.648 384.13 342.868 383.87 342.868H383.86Z" fill="#363F4A"/>
<path d="M361.7 342.988C358.01 343.008 354.31 343.028 350.62 343.048C350.33 343.048 350.1 342.819 350.09 342.529C350.09 342.239 350.32 342.009 350.61 341.999C354.3 341.989 358 341.968 361.69 341.958C361.97 341.958 362.2 342.189 362.21 342.469C362.21 342.749 361.99 342.978 361.7 342.978V342.988Z" fill="#363F4A"/>
<path d="M339.53 343.108C335.84 343.128 332.14 343.148 328.45 343.168C328.15 343.168 327.9 342.928 327.9 342.628C327.9 342.328 328.14 342.078 328.44 342.078C332.13 342.068 335.83 342.048 339.52 342.038C339.81 342.038 340.06 342.278 340.06 342.568C340.06 342.868 339.82 343.108 339.53 343.108Z" fill="#363F4A"/>
<path d="M317.37 343.228C313.68 343.248 309.98 343.268 306.29 343.288C305.98 343.288 305.72 343.038 305.72 342.718C305.72 342.408 305.97 342.148 306.28 342.148C309.97 342.138 313.67 342.118 317.36 342.108C317.67 342.108 317.92 342.358 317.92 342.668C317.92 342.978 317.67 343.228 317.37 343.228Z" fill="#363F4A"/>
<path d="M295.21 343.358C291.52 343.378 287.82 343.398 284.13 343.418C283.8 343.418 283.54 343.158 283.53 342.828C283.53 342.498 283.79 342.238 284.12 342.228C287.81 342.218 291.51 342.198 295.2 342.188C295.52 342.188 295.78 342.448 295.78 342.768C295.78 343.088 295.52 343.348 295.2 343.348L295.21 343.358Z" fill="#363F4A"/>
<path d="M273.04 343.478C269.35 343.498 265.65 343.518 261.96 343.538C261.62 343.538 261.34 343.268 261.34 342.928C261.34 342.588 261.61 342.308 261.95 342.308C265.64 342.298 269.34 342.278 273.03 342.268C273.36 342.268 273.64 342.538 273.64 342.868C273.64 343.198 273.37 343.468 273.04 343.478Z" fill="#363F4A"/>
<path d="M250.88 343.598C247.19 343.618 243.49 343.638 239.8 343.658C239.45 343.658 239.16 343.378 239.16 343.018C239.16 342.668 239.44 342.378 239.79 342.378C243.48 342.368 247.18 342.348 250.87 342.338C251.22 342.338 251.5 342.618 251.5 342.968C251.5 343.318 251.23 343.598 250.88 343.598Z" fill="#363F4A"/>
<path d="M228.72 343.718C225.03 343.738 221.33 343.758 217.64 343.778C217.28 343.778 216.98 343.488 216.97 343.118C216.97 342.748 217.26 342.458 217.63 342.448C221.32 342.438 225.02 342.418 228.71 342.408C229.07 342.408 229.36 342.698 229.36 343.058C229.36 343.418 229.08 343.708 228.72 343.708V343.718Z" fill="#363F4A"/>
<path d="M206.56 343.838C204.71 343.848 202.86 343.858 201.02 343.868C200.56 343.868 200.1 343.868 199.63 343.868C199.4 343.868 199.17 343.868 198.94 343.868C198.82 343.868 198.7 343.868 198.59 343.868C198.44 343.868 198.3 343.858 198.15 343.838C196.98 343.668 195.94 342.838 195.56 341.688C195.44 341.328 195.64 340.938 195.99 340.828C196.35 340.708 196.74 340.908 196.85 341.268C196.85 341.268 196.85 341.268 196.85 341.278C197.04 341.898 197.66 342.408 198.33 342.498C198.41 342.508 198.5 342.518 198.58 342.518C198.69 342.518 198.81 342.518 198.92 342.518C199.15 342.518 199.38 342.518 199.61 342.518C200.07 342.518 200.53 342.518 201 342.518C202.85 342.518 204.7 342.508 206.54 342.498C206.91 342.498 207.22 342.798 207.22 343.168C207.22 343.538 206.92 343.838 206.55 343.848L206.56 343.838Z" fill="#363F4A"/>
<path d="M194.68 330.478C194.43 326.788 194.18 323.098 193.94 319.418C193.91 319.028 194.21 318.688 194.6 318.658C194.99 318.628 195.33 318.928 195.35 319.318C195.58 323.008 195.82 326.698 196.07 330.388C196.1 330.768 195.81 331.108 195.42 331.128C195.04 331.158 194.7 330.868 194.68 330.478Z" fill="#363F4A"/>
<path d="M193.23 308.348C193 304.658 192.78 300.968 192.56 297.288C192.54 296.888 192.84 296.538 193.25 296.508C193.65 296.478 194 296.788 194.02 297.188C194.23 300.878 194.44 304.568 194.66 308.258C194.69 308.658 194.38 308.998 193.99 309.028C193.59 309.058 193.25 308.758 193.23 308.358V308.348Z" fill="#363F4A"/>
<path d="M191.93 286.228C191.73 282.538 191.53 278.848 191.34 275.168C191.32 274.748 191.64 274.388 192.05 274.368C192.47 274.338 192.82 274.648 192.84 275.068C193.02 278.758 193.21 282.448 193.41 286.138C193.43 286.548 193.12 286.898 192.71 286.928C192.3 286.958 191.95 286.648 191.93 286.238V286.228Z" fill="#363F4A"/>
<path d="M190.78 264.099C190.6 260.409 190.43 256.728 190.26 253.038C190.24 252.608 190.57 252.238 191 252.208C191.43 252.178 191.79 252.498 191.81 252.928C191.97 256.618 192.13 260.308 192.31 263.998C192.33 264.418 192 264.788 191.58 264.808C191.16 264.838 190.8 264.519 190.78 264.099Z" fill="#363F4A"/>
<path d="M189.78 241.978C189.63 238.288 189.48 234.608 189.33 230.918C189.31 230.478 189.66 230.098 190.1 230.068C190.54 230.038 190.91 230.368 190.93 230.808C191.06 234.498 191.21 238.178 191.35 241.868C191.37 242.298 191.03 242.678 190.59 242.708C190.15 242.738 189.79 242.408 189.77 241.978H189.78Z" fill="#363F4A"/>
<path d="M188.93 219.858C188.8 216.168 188.68 212.488 188.56 208.798C188.55 208.348 188.9 207.948 189.36 207.918C189.81 207.888 190.19 208.228 190.21 208.678C190.32 212.368 190.44 216.048 190.56 219.738C190.57 220.188 190.22 220.568 189.78 220.598C189.33 220.628 188.96 220.288 188.94 219.848L188.93 219.858Z" fill="#363F4A"/>
<path d="M188.22 197.738C188.12 194.048 188.02 190.368 187.92 186.678C187.91 186.208 188.28 185.808 188.75 185.778C189.22 185.748 189.61 186.098 189.62 186.568C189.7 190.258 189.8 193.938 189.89 197.628C189.9 198.088 189.54 198.488 189.08 198.518C188.62 198.548 188.23 198.198 188.22 197.738Z" fill="#363F4A"/>
<path d="M187.67 175.628C187.63 173.788 187.59 171.938 187.55 170.098C187.55 169.978 187.55 169.858 187.55 169.738C187.55 169.578 187.55 169.418 187.59 169.248C187.64 168.918 187.75 168.598 187.91 168.288C188.24 167.688 188.8 167.198 189.43 166.958C189.74 166.838 190.06 166.758 190.38 166.748C190.54 166.728 190.7 166.748 190.85 166.748C190.97 166.748 191.08 166.768 191.19 166.768C191.65 166.798 192.11 166.838 192.57 166.868C193.05 166.898 193.39 167.318 193.33 167.798C193.27 168.278 192.84 168.638 192.36 168.608C191.9 168.578 191.44 168.538 190.98 168.508C190.87 168.508 190.75 168.488 190.64 168.478C190.56 168.478 190.49 168.478 190.41 168.478C190.26 168.478 190.12 168.518 190 168.568C189.74 168.668 189.55 168.848 189.42 169.068C189.36 169.178 189.32 169.308 189.3 169.438C189.29 169.508 189.29 169.578 189.28 169.648C189.28 169.758 189.28 169.868 189.28 169.978C189.31 171.818 189.35 173.668 189.38 175.508C189.39 175.978 189.01 176.388 188.54 176.418C188.07 176.448 187.67 176.098 187.66 175.618L187.67 175.628Z" fill="#363F4A"/>
<path d="M203.58 167.658C207.25 167.918 210.92 168.178 214.6 168.438C215.09 168.468 215.44 168.898 215.38 169.388C215.32 169.878 214.88 170.248 214.39 170.218C210.72 169.948 207.05 169.678 203.38 169.408C202.9 169.368 202.55 168.948 202.61 168.468C202.67 167.988 203.11 167.618 203.59 167.658H203.58Z" fill="#363F4A"/>
<path d="M225.61 169.228C229.28 169.488 232.95 169.748 236.63 170.008C237.13 170.048 237.49 170.478 237.43 170.988C237.37 171.488 236.91 171.868 236.41 171.838C232.74 171.568 229.07 171.298 225.4 171.028C224.9 170.988 224.55 170.558 224.61 170.058C224.67 169.558 225.12 169.188 225.62 169.218L225.61 169.228Z" fill="#363F4A"/>
<path d="M247.64 170.788C251.31 171.058 254.98 171.328 258.65 171.588C259.15 171.628 259.51 172.068 259.45 172.568C259.39 173.078 258.93 173.448 258.43 173.418C254.76 173.158 251.09 172.898 247.41 172.638C246.9 172.598 246.54 172.158 246.6 171.648C246.66 171.138 247.12 170.758 247.63 170.788H247.64Z" fill="#363F4A"/>
<path d="M269.67 172.408C273.34 172.678 277.01 172.948 280.68 173.218C281.17 173.258 281.51 173.678 281.45 174.168C281.39 174.658 280.95 175.018 280.47 174.988C276.8 174.728 273.12 174.468 269.45 174.208C268.95 174.178 268.6 173.738 268.66 173.248C268.72 172.748 269.17 172.378 269.66 172.408H269.67Z" fill="#363F4A"/>
<path d="M291.69 174.018C295.36 174.288 299.03 174.558 302.7 174.828C303.17 174.858 303.5 175.268 303.45 175.738C303.39 176.208 302.97 176.558 302.5 176.528C298.83 176.268 295.15 176.008 291.48 175.748C291 175.718 290.66 175.298 290.72 174.818C290.78 174.338 291.21 173.978 291.69 174.008V174.018Z" fill="#363F4A"/>
<path d="M313.72 175.639C317.39 175.909 321.06 176.179 324.73 176.449C325.18 176.479 325.5 176.879 325.45 177.329C325.4 177.779 324.99 178.119 324.54 178.089C320.87 177.829 317.19 177.569 313.52 177.309C313.06 177.279 312.73 176.879 312.78 176.419C312.83 175.959 313.25 175.609 313.71 175.639H313.72Z" fill="#363F4A"/>
<path d="M335.75 177.258C339.42 177.528 343.09 177.798 346.76 178.068C347.19 178.098 347.5 178.478 347.45 178.918C347.4 179.358 347.01 179.678 346.57 179.648C342.9 179.388 339.22 179.128 335.55 178.868C335.11 178.838 334.79 178.448 334.84 178.008C334.89 177.568 335.29 177.228 335.74 177.258H335.75Z" fill="#363F4A"/>
<path d="M357.78 178.878C361.45 179.148 365.12 179.418 368.79 179.688C369.21 179.718 369.5 180.078 369.45 180.498C369.4 180.918 369.02 181.228 368.61 181.198C364.94 180.938 361.26 180.678 357.59 180.418C357.17 180.388 356.86 180.018 356.91 179.588C356.96 179.158 357.35 178.838 357.77 178.868L357.78 178.878Z" fill="#363F4A"/>
<path d="M379.81 180.498C383.48 180.768 387.15 181.038 390.83 181.308C391.23 181.338 391.51 181.688 391.47 182.088C391.42 182.488 391.06 182.788 390.66 182.758C386.99 182.498 383.31 182.238 379.64 181.978C379.23 181.948 378.94 181.598 378.99 181.188C379.04 180.778 379.41 180.468 379.82 180.498H379.81Z" fill="#363F4A"/>
<path d="M401.84 182.118C405.51 182.388 409.18 182.658 412.86 182.928C413.24 182.958 413.52 183.288 413.47 183.678C413.43 184.058 413.08 184.348 412.7 184.318C409.03 184.058 405.35 183.798 401.68 183.538C401.29 183.508 401.01 183.168 401.05 182.778C401.09 182.388 401.45 182.088 401.84 182.118Z" fill="#363F4A"/>
<path d="M423.87 183.738C427.54 184.008 431.21 184.278 434.89 184.548C435.25 184.578 435.51 184.898 435.47 185.258C435.43 185.628 435.1 185.898 434.73 185.868C431.06 185.608 427.38 185.348 423.71 185.088C423.34 185.058 423.07 184.738 423.11 184.358C423.15 183.988 423.49 183.698 423.86 183.728L423.87 183.738Z" fill="#363F4A"/>
<path d="M445.9 185.358C449.57 185.628 453.24 185.898 456.92 186.168C457.27 186.198 457.52 186.498 457.48 186.848C457.44 187.198 457.13 187.458 456.78 187.438C453.11 187.178 449.43 186.918 445.76 186.658C445.4 186.628 445.15 186.318 445.19 185.968C445.23 185.608 445.55 185.338 445.91 185.368L445.9 185.358Z" fill="#363F4A"/>
<path d="M468.13 187.708C468.51 188.128 468.76 188.668 468.84 189.248C468.88 189.568 468.86 189.778 468.87 190.008C468.87 190.238 468.87 190.468 468.88 190.698C468.89 191.618 468.91 192.538 468.92 193.468C468.95 195.308 468.98 197.158 469.02 198.998C469.02 199.328 468.76 199.618 468.43 199.638C468.1 199.658 467.82 199.408 467.82 199.078C467.78 197.238 467.74 195.388 467.71 193.548C467.69 192.628 467.68 191.708 467.66 190.778C467.66 190.548 467.66 190.318 467.65 190.088C467.65 189.858 467.65 189.608 467.63 189.468C467.59 189.138 467.43 188.818 467.21 188.568C466.98 188.318 467.01 187.928 467.27 187.698C467.53 187.458 467.92 187.468 468.14 187.718L468.13 187.708Z" fill="#363F4A"/>
<path d="M469.24 210.058C469.32 213.748 469.41 217.438 469.5 221.128C469.5 221.438 469.26 221.708 468.94 221.728C468.63 221.748 468.36 221.508 468.36 221.198C468.26 217.508 468.16 213.818 468.07 210.138C468.07 209.818 468.32 209.538 468.64 209.518C468.96 209.498 469.23 209.748 469.24 210.068V210.058Z" fill="#363F4A"/>
<path d="M469.79 232.198C469.89 235.888 470 239.578 470.12 243.268C470.12 243.568 469.9 243.818 469.6 243.838C469.31 243.858 469.05 243.628 469.05 243.338C468.92 239.648 468.8 235.958 468.69 232.268C468.69 231.958 468.92 231.698 469.23 231.678C469.54 231.658 469.79 231.888 469.8 232.198H469.79Z" fill="#363F4A"/>
<path d="M470.49 254.338C470.62 258.028 470.75 261.718 470.9 265.408C470.91 265.688 470.69 265.928 470.41 265.948C470.13 265.968 469.9 265.748 469.88 265.468C469.73 261.778 469.58 258.088 469.44 254.398C469.43 254.108 469.65 253.858 469.94 253.848C470.23 253.828 470.47 254.048 470.48 254.338H470.49Z" fill="#363F4A"/>
<path d="M471.34 276.478C471.49 280.168 471.65 283.858 471.82 287.548C471.83 287.808 471.63 288.038 471.37 288.048C471.11 288.068 470.89 287.868 470.87 287.598C470.69 283.908 470.52 280.218 470.36 276.528C470.35 276.258 470.56 276.028 470.83 276.008C471.1 275.988 471.33 276.198 471.34 276.468V276.478Z" fill="#363F4A"/>
<path d="M472.34 298.618C472.52 302.308 472.7 305.998 472.89 309.688C472.9 309.928 472.71 310.138 472.47 310.158C472.23 310.168 472.02 309.988 472 309.738C471.8 306.048 471.6 302.358 471.41 298.668C471.4 298.418 471.59 298.198 471.84 298.178C472.09 298.158 472.31 298.358 472.32 298.608L472.34 298.618Z" fill="#363F4A"/>
<path d="M473.48 320.758C473.68 324.448 473.89 328.138 474.11 331.828C474.12 332.058 473.95 332.248 473.72 332.268C473.49 332.278 473.3 332.108 473.28 331.878C473.05 328.188 472.83 324.498 472.62 320.808C472.61 320.568 472.79 320.368 473.02 320.358C473.26 320.348 473.46 320.528 473.47 320.758H473.48Z" fill="#363F4A"/>
<path d="M405.61 521.878C343.01 527.558 280.42 533.248 217.84 538.928C216.89 539.018 216.02 538.338 215.9 537.428C209.74 490.258 204.59 443.048 200.45 395.808C200.37 394.878 201.09 394.109 202.05 394.089C265.47 392.399 328.9 390.698 392.32 389.008C393.13 388.988 393.84 389.658 393.91 390.508C397.38 433.768 401.7 477.019 406.87 520.229C406.97 521.069 406.4 521.808 405.6 521.878H405.61Z" fill="#F2F5FA"/>
<path d="M598.64 504.348C547.53 508.988 496.43 513.628 445.34 518.268C444.57 518.338 443.86 517.728 443.77 516.898C438.78 474.448 434.61 431.968 431.27 389.478C431.21 388.648 431.78 387.948 432.57 387.928C484.29 386.548 536 385.168 587.72 383.788C588.39 383.768 588.97 384.378 589.03 385.148C591.89 424.398 595.44 463.638 599.7 502.858C599.78 503.618 599.32 504.288 598.66 504.348H598.64Z" fill="#F2F5FA"/>
<path d="M573.36 490.328C540.87 493.068 508.39 495.808 475.91 498.548C474.69 498.628 471.83 498.908 470.58 498.998C469.82 499.148 468.91 498.788 468.61 498.028C468.49 497.728 468.43 497.378 468.41 497.068C467.23 486.808 465.03 466.208 464 455.718C463.89 455.718 459.33 406.698 459.44 406.688C459.42 406.428 459.4 406.178 459.37 405.918C459.26 404.998 459.96 403.978 460.97 403.918L461.78 403.888C462.8 403.848 463.82 403.808 464.84 403.768C489.85 402.768 531.39 401.468 556.78 400.648L562.91 400.458C563.42 400.438 563.93 400.428 564.44 400.408C564.57 400.408 564.7 400.408 564.82 400.398C564.88 400.398 564.95 400.398 565.01 400.398C565.04 400.398 565.08 400.398 565.11 400.398C566.09 400.398 566.78 401.278 566.77 402.188C567.42 411.278 569.07 431.958 569.89 441.278C570.99 454.008 572.97 474.698 574.27 487.248C574.32 487.758 574.37 488.268 574.43 488.778C574.55 489.398 574.16 490.248 573.34 490.318L573.36 490.328ZM573.26 489.538C573.51 489.518 573.73 489.218 573.66 488.828C573.61 488.318 573.55 487.808 573.5 487.298C573.39 486.278 573.28 485.258 573.18 484.238C571.07 464.148 568.43 437.028 566.68 416.828C566.54 415.328 565.53 403.538 565.43 402.268C565.43 402.118 565.38 401.818 565.21 401.798C564.99 401.798 564.76 401.818 564.54 401.828C564.03 401.848 563.52 401.868 563.01 401.888C560.97 401.968 558.92 402.048 556.88 402.138C531.34 403.218 490.13 404.688 464.95 405.528C464.95 405.528 461.88 405.628 461.89 405.628C461.65 405.628 461.41 405.648 461.17 405.658C461.17 405.658 461.16 405.658 461.14 405.678C461.12 405.708 461.1 405.738 461.11 405.828C461.13 406.088 461.15 406.338 461.17 406.598C462.49 422.948 463.93 439.298 465.5 455.638C466.5 466.188 468.57 486.638 469.72 496.998C469.73 497.128 469.75 497.258 469.76 497.378C469.76 497.588 469.91 497.748 470.09 497.758C470.21 497.758 471.03 497.678 471.2 497.668C472.09 497.578 474.83 497.398 475.77 497.308L573.28 489.548L573.26 489.538Z" fill="#363F4A"/>
<path d="M754.39 423.409C754.44 424.079 754.49 424.758 754.55 425.428C754.58 425.768 754.6 426.098 754.63 426.438C754.64 426.608 754.66 426.778 754.67 426.938C754.67 427.098 754.71 427.268 754.68 427.528C754.65 427.758 754.56 427.988 754.4 428.188C754.25 428.388 753.94 428.538 753.69 428.528C753.35 428.548 753.02 428.568 752.68 428.588C752.01 428.628 751.34 428.668 750.67 428.708C747.98 428.858 745.3 429.019 742.61 429.169C742.38 429.179 742.17 428.998 742.15 428.768C742.13 428.538 742.3 428.338 742.54 428.318C745.23 428.178 747.92 428.038 750.6 427.898C751.27 427.858 751.94 427.829 752.62 427.789C752.96 427.769 753.29 427.749 753.63 427.739C753.75 427.749 753.86 427.619 753.9 427.409C753.92 427.329 753.9 427.159 753.88 426.989C753.87 426.819 753.85 426.649 753.84 426.489C753.81 426.149 753.78 425.819 753.76 425.479C753.7 424.809 753.65 424.128 753.59 423.458C753.57 423.238 753.74 423.038 753.96 423.028C754.18 423.018 754.38 423.189 754.4 423.409H754.39Z" fill="#363F4A"/>
<path d="M731.5 429.808C727.8 430.018 724.09 430.238 720.39 430.448C720.13 430.468 719.89 430.258 719.87 429.998C719.85 429.728 720.04 429.508 720.31 429.488C724.02 429.298 727.72 429.098 731.43 428.908C731.68 428.898 731.9 429.088 731.92 429.338C731.94 429.588 731.76 429.798 731.51 429.818L731.5 429.808Z" fill="#363F4A"/>
<path d="M709.27 431.078C705.57 431.288 701.86 431.508 698.16 431.718C697.86 431.738 697.6 431.508 697.58 431.208C697.56 430.908 697.77 430.658 698.07 430.638C701.78 430.448 705.48 430.248 709.19 430.058C709.47 430.048 709.72 430.258 709.74 430.538C709.76 430.818 709.56 431.058 709.28 431.078H709.27Z" fill="#363F4A"/>
<path d="M687.05 432.358C683.35 432.568 679.64 432.788 675.94 432.998C675.61 433.018 675.32 432.768 675.29 432.438C675.26 432.108 675.5 431.828 675.83 431.808C679.54 431.618 683.24 431.418 686.95 431.228C687.26 431.208 687.54 431.448 687.56 431.768C687.59 432.078 687.36 432.348 687.04 432.368L687.05 432.358Z" fill="#363F4A"/>
<path d="M664.82 433.638C661.12 433.848 657.41 434.069 653.71 434.279C653.35 434.299 653.04 434.029 653 433.669C652.97 433.309 653.23 432.999 653.59 432.979C657.3 432.789 661 432.589 664.71 432.399C665.05 432.379 665.35 432.649 665.38 432.989C665.41 433.329 665.15 433.629 664.81 433.649L664.82 433.638Z" fill="#363F4A"/>
<path d="M642.59 434.908C638.89 435.118 635.18 435.338 631.48 435.548C631.09 435.568 630.75 435.268 630.71 434.878C630.68 434.488 630.96 434.148 631.35 434.128C635.06 433.938 638.76 433.738 642.47 433.548C642.84 433.528 643.17 433.818 643.21 434.188C643.24 434.558 642.96 434.878 642.59 434.898V434.908Z" fill="#363F4A"/>
<path d="M622.74 431.418C622.41 427.708 622.09 423.998 621.77 420.278C621.73 419.858 622.05 419.498 622.47 419.468C622.89 419.448 623.26 419.768 623.3 420.188C623.6 423.898 623.9 427.618 624.21 431.328C624.24 431.738 623.94 432.078 623.54 432.108C623.14 432.128 622.78 431.818 622.74 431.418Z" fill="#363F4A"/>
<path d="M620.85 409.139C620.55 405.429 620.25 401.708 619.96 397.998C619.93 397.548 620.26 397.159 620.72 397.129C621.18 397.099 621.57 397.449 621.6 397.899C621.87 401.609 622.15 405.329 622.43 409.039C622.46 409.479 622.14 409.849 621.7 409.879C621.26 409.899 620.88 409.569 620.85 409.129V409.139Z" fill="#363F4A"/>
<path d="M619.1 386.858C619.03 385.928 618.96 384.998 618.89 384.068C618.89 384.008 618.89 383.948 618.88 383.898C618.88 383.808 618.88 383.688 618.88 383.588C618.9 383.378 618.95 383.158 619.05 382.958C619.23 382.558 619.64 382.168 620.18 382.078C620.24 382.068 620.31 382.058 620.38 382.058C620.41 382.058 620.45 382.058 620.48 382.058C620.54 382.058 620.6 382.058 620.65 382.058C620.77 382.058 620.88 382.058 621 382.048C621.23 382.048 621.46 382.038 621.7 382.028C623.56 381.978 625.42 381.918 627.27 381.868C627.76 381.858 628.17 382.238 628.19 382.718C628.21 383.208 627.84 383.608 627.35 383.628C625.49 383.668 623.63 383.718 621.78 383.758C621.36 383.758 620.94 383.778 620.52 383.788C620.6 383.778 620.62 383.728 620.61 383.738C620.61 383.738 620.61 383.758 620.61 383.778C620.61 383.788 620.61 383.808 620.61 383.818C620.61 383.878 620.61 383.938 620.62 383.988C620.68 384.918 620.75 385.848 620.81 386.778C620.84 387.248 620.49 387.648 620.02 387.678C619.55 387.698 619.15 387.348 619.11 386.878L619.1 386.858Z" fill="#363F4A"/>
<path d="M638.42 381.528C642.13 381.428 645.85 381.318 649.56 381.218C650.07 381.208 650.5 381.608 650.52 382.118C650.54 382.628 650.15 383.058 649.64 383.068C645.93 383.158 642.21 383.258 638.5 383.348C638 383.358 637.58 382.968 637.56 382.458C637.54 381.958 637.93 381.538 638.43 381.528H638.42Z" fill="#363F4A"/>
<path d="M660.71 380.938C664.42 380.848 668.14 380.758 671.85 380.668C672.33 380.658 672.74 381.038 672.76 381.528C672.78 382.018 672.41 382.418 671.92 382.428C668.21 382.538 664.49 382.638 660.78 382.748C660.28 382.758 659.86 382.368 659.84 381.868C659.82 381.368 660.2 380.958 660.7 380.938H660.71Z" fill="#363F4A"/>
<path d="M683 380.388C686.71 380.308 690.43 380.218 694.14 380.138C694.59 380.128 694.97 380.488 694.98 380.938C695 381.388 694.65 381.758 694.2 381.768C690.49 381.878 686.77 381.998 683.06 382.108C682.59 382.118 682.19 381.748 682.17 381.278C682.15 380.808 682.51 380.408 682.99 380.398L683 380.388Z" fill="#363F4A"/>
<path d="M705.29 379.898C709.01 379.818 712.72 379.738 716.44 379.658C716.83 379.658 717.15 379.958 717.16 380.338C717.17 380.718 716.88 381.038 716.5 381.048C712.79 381.168 709.07 381.288 705.36 381.408C704.94 381.418 704.59 381.098 704.57 380.678C704.55 380.258 704.87 379.908 705.29 379.898Z" fill="#363F4A"/>
<path d="M727.58 379.419C731.3 379.339 735.01 379.258 738.73 379.178C739.05 379.178 739.32 379.428 739.33 379.748C739.34 380.068 739.09 380.329 738.78 380.339C735.07 380.459 731.35 380.578 727.64 380.698C727.29 380.708 726.99 380.428 726.97 380.078C726.95 379.728 727.23 379.429 727.58 379.419Z" fill="#363F4A"/>
<path d="M749.87 378.938C749.99 378.938 750.06 378.918 750.34 378.958C750.56 379.008 750.75 379.118 750.9 379.248C751.19 379.518 751.32 379.868 751.36 380.208C751.39 380.678 751.42 381.148 751.45 381.618C751.51 382.548 751.57 383.478 751.62 384.408C751.74 386.268 751.86 388.128 751.98 389.988C752 390.248 751.8 390.468 751.54 390.488C751.28 390.498 751.05 390.298 751.04 390.038C750.9 388.178 750.77 386.318 750.64 384.468C750.57 383.538 750.5 382.608 750.44 381.678C750.41 381.218 750.37 380.758 750.34 380.298C750.33 380.178 750.27 380.068 750.21 380.018C750.11 379.968 750.26 379.988 749.93 379.998C749.92 379.998 749.9 379.998 749.89 379.998C749.6 379.998 749.36 379.768 749.35 379.478C749.35 379.188 749.57 378.948 749.86 378.948C749.86 378.948 749.88 378.948 749.89 378.948L749.87 378.938Z" fill="#363F4A"/>
<path d="M752.74 401.128C753 404.838 753.27 408.558 753.55 412.268C753.57 412.508 753.39 412.708 753.15 412.718C752.91 412.728 752.71 412.548 752.69 412.308C752.4 408.598 752.12 404.878 751.84 401.168C751.82 400.918 752.01 400.708 752.26 400.688C752.51 400.678 752.72 400.868 752.74 401.118V401.128Z" fill="#363F4A"/>
<path d="M759.95 485.868C760.01 486.508 760.07 487.149 760.14 487.789C760.17 488.109 760.2 488.428 760.23 488.748C760.29 489.098 760.23 489.628 759.85 489.948C759.76 490.028 759.64 490.098 759.52 490.138C759.46 490.158 759.39 490.168 759.32 490.178C759.28 490.178 759.24 490.178 759.2 490.188C759.04 490.198 758.88 490.219 758.72 490.229C758.4 490.259 758.09 490.288 757.77 490.318C757.14 490.378 756.5 490.438 755.87 490.498C753.33 490.738 750.8 490.968 748.27 491.208C748.04 491.228 747.82 491.058 747.79 490.828C747.76 490.598 747.92 490.388 748.15 490.368C750.69 490.148 753.22 489.918 755.76 489.698C756.39 489.638 757.03 489.588 757.66 489.528C757.98 489.498 758.29 489.468 758.61 489.448C758.77 489.438 758.93 489.419 759.09 489.409C759.13 489.409 759.17 489.408 759.21 489.398C759.22 489.398 759.23 489.398 759.24 489.398C759.26 489.398 759.28 489.379 759.31 489.359C759.41 489.249 759.48 489.088 759.43 488.808C759.4 488.488 759.37 488.169 759.33 487.849C759.27 487.209 759.2 486.568 759.14 485.928C759.12 485.708 759.28 485.518 759.5 485.498C759.72 485.488 759.92 485.658 759.94 485.878L759.95 485.868Z" fill="#363F4A"/>
<path d="M737.22 492.228C733.54 492.568 729.85 492.918 726.17 493.258C725.91 493.278 725.66 493.088 725.62 492.828C725.58 492.568 725.77 492.328 726.03 492.308C729.72 491.978 733.4 491.658 737.09 491.328C737.34 491.308 737.57 491.488 737.6 491.738C737.63 491.988 737.46 492.208 737.21 492.228H737.22Z" fill="#363F4A"/>
<path d="M715.11 494.288C711.43 494.628 707.74 494.978 704.06 495.318C703.77 495.348 703.49 495.128 703.45 494.828C703.41 494.528 703.61 494.268 703.91 494.238C707.6 493.918 711.28 493.588 714.97 493.258C715.25 493.238 715.51 493.438 715.55 493.718C715.59 493.998 715.39 494.248 715.12 494.268L715.11 494.288Z" fill="#363F4A"/>
<path d="M693.01 496.358C689.33 496.698 685.64 497.048 681.96 497.388C681.63 497.418 681.33 497.178 681.28 496.848C681.23 496.518 681.46 496.228 681.79 496.198C685.48 495.868 689.16 495.548 692.85 495.218C693.16 495.188 693.45 495.418 693.49 495.738C693.53 496.048 693.32 496.328 693.01 496.348V496.358Z" fill="#363F4A"/>
<path d="M670.9 498.419C667.22 498.759 663.53 499.108 659.85 499.448C659.49 499.478 659.16 499.219 659.11 498.859C659.06 498.499 659.31 498.178 659.66 498.148C663.35 497.818 667.03 497.498 670.72 497.178C671.06 497.148 671.38 497.398 671.42 497.748C671.47 498.088 671.23 498.388 670.89 498.428L670.9 498.419Z" fill="#363F4A"/>
<path d="M648.8 500.489C645.12 500.829 641.43 501.179 637.75 501.519C637.36 501.559 637 501.268 636.94 500.878C636.89 500.488 637.15 500.139 637.54 500.109C641.23 499.779 644.91 499.459 648.6 499.139C648.97 499.109 649.32 499.378 649.37 499.758C649.42 500.128 649.16 500.458 648.79 500.498L648.8 500.489Z" fill="#363F4A"/>
<path d="M629.08 497.468C628.68 493.758 628.28 490.048 627.89 486.338C627.85 485.918 628.15 485.548 628.57 485.528C628.99 485.508 629.37 485.828 629.41 486.248C629.78 489.958 630.16 493.668 630.54 497.378C630.58 497.788 630.29 498.128 629.88 498.158C629.48 498.178 629.11 497.868 629.07 497.468H629.08Z" fill="#363F4A"/>
<path d="M626.74 475.208C626.36 471.498 625.99 467.788 625.63 464.078C625.59 463.628 625.92 463.238 626.37 463.208C626.82 463.178 627.23 463.528 627.27 463.978C627.62 467.688 627.97 471.398 628.33 475.118C628.37 475.558 628.05 475.928 627.61 475.958C627.17 475.978 626.79 475.648 626.74 475.208Z" fill="#363F4A"/>
<path d="M624.55 452.938C624.51 452.478 624.46 452.008 624.42 451.548C624.4 451.318 624.38 451.088 624.35 450.848C624.34 450.728 624.33 450.618 624.32 450.498C624.32 450.438 624.31 450.368 624.3 450.308C624.3 450.208 624.3 450.098 624.3 449.998C624.34 449.578 624.52 449.148 624.89 448.838C625.07 448.678 625.31 448.558 625.57 448.508C625.63 448.508 625.7 448.488 625.76 448.488C625.79 448.488 625.82 448.488 625.85 448.488C625.91 448.488 625.97 448.488 626.02 448.478C626.48 448.448 626.95 448.418 627.41 448.388C629.26 448.268 631.11 448.148 632.96 448.028C633.45 447.998 633.88 448.368 633.93 448.848C633.98 449.338 633.63 449.748 633.14 449.788C631.29 449.898 629.44 450.008 627.58 450.118C627.12 450.148 626.65 450.178 626.19 450.198C626.13 450.198 626.07 450.198 626.02 450.208C625.99 450.208 625.96 450.208 625.93 450.208C625.93 450.208 625.94 450.208 625.95 450.208C625.98 450.208 626.01 450.188 626.02 450.178C626.04 450.158 626.02 450.178 626.02 450.218C626.1 451.098 626.17 451.968 626.25 452.848C626.29 453.318 625.95 453.718 625.48 453.748C625.01 453.768 624.6 453.418 624.55 452.948V452.938Z" fill="#363F4A"/>
<path d="M644.07 447.288C647.77 447.048 651.47 446.818 655.17 446.578C655.68 446.548 656.13 446.928 656.18 447.438C656.23 447.948 655.86 448.388 655.35 448.418C651.65 448.648 647.95 448.868 644.24 449.098C643.74 449.128 643.29 448.748 643.25 448.248C643.2 447.748 643.57 447.318 644.07 447.288Z" fill="#363F4A"/>
<path d="M666.28 445.918C669.98 445.698 673.69 445.468 677.39 445.248C677.87 445.218 678.3 445.588 678.35 446.068C678.4 446.548 678.04 446.968 677.56 446.998C673.86 447.238 670.16 447.478 666.46 447.718C665.96 447.748 665.52 447.378 665.47 446.878C665.42 446.378 665.78 445.958 666.28 445.918Z" fill="#363F4A"/>
<path d="M688.5 444.569C692.2 444.349 695.91 444.139 699.61 443.919C700.05 443.889 700.45 444.238 700.49 444.678C700.53 445.118 700.21 445.509 699.76 445.539C696.06 445.789 692.36 446.029 688.66 446.279C688.19 446.309 687.77 445.949 687.72 445.479C687.67 445.009 688.01 444.599 688.48 444.569H688.5Z" fill="#363F4A"/>
<path d="M710.72 443.288C714.42 443.078 718.13 442.868 721.83 442.648C722.21 442.628 722.55 442.918 722.58 443.298C722.61 443.678 722.34 444.008 721.96 444.028C718.26 444.278 714.56 444.528 710.86 444.778C710.45 444.808 710.08 444.488 710.03 444.078C709.99 443.668 710.29 443.308 710.7 443.278L710.72 443.288Z" fill="#363F4A"/>
<path d="M732.94 442.018C736.64 441.808 740.35 441.598 744.05 441.378C744.37 441.358 744.65 441.608 744.68 441.918C744.71 442.238 744.48 442.508 744.16 442.528C740.46 442.778 736.76 443.028 733.06 443.278C732.71 443.298 732.4 443.038 732.36 442.688C732.32 442.338 732.58 442.038 732.93 442.008L732.94 442.018Z" fill="#363F4A"/>
<path d="M755.5 441.018C755.82 441.278 755.98 441.628 756.03 441.968C756.05 442.208 756.07 442.448 756.09 442.698C756.13 443.158 756.16 443.628 756.2 444.088C756.28 445.018 756.35 445.948 756.43 446.878C756.58 448.738 756.74 450.588 756.9 452.448C756.92 452.708 756.73 452.928 756.47 452.938C756.21 452.948 755.98 452.748 755.96 452.488C755.79 450.628 755.62 448.778 755.45 446.918C755.36 445.988 755.28 445.058 755.2 444.138C755.16 443.678 755.12 443.208 755.07 442.748C755.05 442.528 755.03 442.308 755.01 442.078C754.99 441.958 754.93 441.858 754.88 441.818C754.64 441.658 754.57 441.328 754.73 441.088C754.89 440.848 755.21 440.798 755.45 440.958C755.46 440.958 755.47 440.978 755.48 440.988C755.48 440.988 755.5 440.998 755.5 441.008V441.018Z" fill="#363F4A"/>
<path d="M757.88 463.588C758.21 467.298 758.55 471.018 758.9 474.728C758.92 474.968 758.75 475.168 758.51 475.178C758.27 475.188 758.07 475.008 758.04 474.778C757.68 471.068 757.32 467.358 756.98 463.638C756.96 463.388 757.14 463.178 757.39 463.168C757.64 463.158 757.86 463.348 757.88 463.598V463.588Z" fill="#363F4A"/>
<path d="M455.8 329.238C420.73 329.228 250.6 329.048 219.38 329.038H217.9C217.67 329.038 217.27 329.028 216.98 328.928C216.03 328.648 215.26 327.878 215.04 326.898C212.7 298.038 209.13 219.578 208.63 189.628L208.56 186.678C208.56 186.428 208.55 186.188 208.54 185.938C208.53 185.688 208.54 185.238 208.68 184.908C209.04 183.808 210.19 183.068 211.3 183.118L212.07 183.158C212.91 183.218 215.59 183.378 216.48 183.438C285.97 187.858 376.17 194.078 445.83 198.718L448.77 198.918C449.26 198.948 449.75 198.988 450.24 199.018C450.71 199.028 451.56 199.138 451.95 199.548C452.68 200.098 452.93 201.108 452.87 201.978L452.88 202.718C453.2 222.618 454.44 262.108 455.4 282.408C455.67 290.038 456.74 310.408 457.14 317.838L457.47 323.738C457.52 324.718 457.58 325.708 457.64 326.688C457.68 327.118 457.72 327.838 457.37 328.358C457.06 328.888 456.43 329.258 455.8 329.248V329.238ZM455.8 328.448C456.16 328.448 456.5 328.258 456.69 327.938C456.9 327.608 456.89 327.268 456.84 326.738C456.78 325.758 456.72 324.768 456.66 323.788C456 313.258 454.95 293.208 454.46 282.468C453.42 261.998 452.07 222.858 451.67 202.788C451.62 201.578 451.86 200.198 450.11 200.248C449.31 200.178 446.57 200.028 445.7 199.968C375.97 195.498 285.81 189.848 216.29 185.188L213.35 184.988C212.86 184.958 212.37 184.918 211.88 184.888C211.65 184.878 211.41 184.858 211.18 184.848C211.04 184.848 210.91 184.868 210.79 184.908C210.56 184.998 210.39 185.168 210.31 185.388C210.27 185.528 210.26 185.578 210.26 185.818C210.26 186.068 210.27 186.308 210.28 186.558C210.3 187.538 210.32 188.528 210.35 189.508C210.63 215.318 214.05 294.758 215.91 319.318L216.28 325.218C216.3 325.468 216.31 325.708 216.33 325.958C216.35 326.208 216.36 326.468 216.39 326.588C216.46 326.898 216.65 327.188 216.93 327.388C249.36 328.278 419.71 328.078 455.81 328.448H455.8Z" fill="#363F4A"/>
<path d="M212.35 272.458C235.64 259.208 259.4 245.648 282.99 232.618C283.64 232.418 284.35 232.618 284.81 233.058C284.86 233.108 284.92 233.158 284.97 233.208C285.18 233.398 285.4 233.598 285.61 233.788C312.53 258.278 341.88 284.808 369.15 309.578C369.13 309.578 389.8 328.418 389.82 328.418C389.98 328.568 389.99 328.818 389.85 328.978C389.71 329.138 389.46 329.148 389.3 329.008C382.26 322.868 375.24 316.738 368.24 310.598C340.21 286.028 310.66 258.888 283.43 234.278C278.08 237.248 267.74 242.928 262.3 245.928C245.78 255.058 229.24 264.108 212.75 273.158C212.56 273.268 212.32 273.198 212.21 273.008C212.11 272.818 212.18 272.578 212.37 272.468L212.35 272.458Z" fill="#363F4A"/>
<path d="M455.09 290.748C441.85 282.478 427.26 273.108 414.11 264.628C409.68 261.758 405.26 258.878 400.84 256.008C400.84 256.008 400.87 256.008 400.89 256.008C400.77 256.078 400.65 256.148 400.53 256.218C398.92 257.138 395.94 258.918 394.31 259.858C389.76 262.498 377.64 269.518 372.95 272.238C363.44 277.688 353.93 283.128 344.37 288.428C344.18 288.538 343.94 288.468 343.83 288.278C343.73 288.088 343.79 287.858 343.97 287.748C361.04 277.228 379.53 266.338 396.96 256.208C397.54 255.868 399.07 254.988 399.63 254.658C400.05 254.368 400.7 254.098 401.22 254.248C401.8 254.388 402 254.638 402.4 254.868C402.93 255.218 404.38 256.168 404.93 256.528C407.08 257.938 412.83 261.718 415.06 263.178C428.11 271.818 442.56 281.328 455.51 290.078C455.69 290.198 455.74 290.448 455.61 290.628C455.49 290.808 455.25 290.858 455.07 290.748H455.09Z" fill="#363F4A"/>
<path d="M360.29 242.178C360.79 249.448 354.46 255.828 347.13 255.068C333.51 254.038 328.15 233.868 342.44 228.608C351.22 225.818 360.11 233.448 360.29 242.178ZM359.5 242.228C359.32 235.788 353.93 230.018 347.53 229.598C336.31 229.018 332.32 242.018 339.19 249.528C346.3 257.728 359.71 253.908 359.5 242.228Z" fill="#363F4A"/>
<path d="M603.84 221.548C579.33 220.098 554.83 218.648 530.33 217.198C527.56 217.038 525.26 214.378 525.19 211.258C525.19 210.898 525.17 210.538 525.17 210.188C525.1 207.068 527.3 204.688 530.07 204.868C554.58 206.478 579.09 208.078 603.6 209.688C606.16 209.858 608.27 212.408 608.33 215.398C608.33 215.738 608.34 216.088 608.35 216.428C608.41 219.408 606.4 221.708 603.85 221.558L603.84 221.548Z" fill="#F2F5FA"/>
<path d="M739.02 259.478C669.93 256.568 600.84 253.668 531.75 250.758C528.73 250.628 526.17 247.768 526.07 244.358C525.96 240.948 528.34 238.308 531.37 238.448C600.48 241.788 669.59 245.128 738.71 248.478C741.12 248.598 743.14 251.148 743.22 254.178C743.31 257.208 741.43 259.578 739.02 259.478Z" fill="#F2F5FA"/>
<path d="M659.9 287.408C617.53 286.348 575.15 285.288 532.78 284.238C529.9 284.168 527.45 281.488 527.31 278.248C527.31 278.048 527.29 277.858 527.29 277.658C527.15 274.418 529.39 271.868 532.27 271.958C574.66 273.278 617.06 274.608 659.45 275.928C661.96 276.008 664.08 278.508 664.19 281.528C664.19 281.708 664.2 281.898 664.21 282.078C664.33 285.088 662.4 287.478 659.89 287.418L659.9 287.408Z" fill="#F2F5FA"/>
<path d="M641.39 329.228C607.93 329.158 574.47 329.088 541.01 329.018C534.86 329.008 529.51 323.358 529.14 316.388C528.77 309.428 533.52 303.848 539.68 303.938C573.18 304.438 606.69 304.938 640.19 305.438C645.7 305.518 650.39 310.888 650.72 317.418C651.05 323.948 646.9 329.228 641.39 329.218V329.228Z" fill="#EEB440"/>
<path d="M250.58 408.998C254.51 446.058 258.73 483.138 262.49 520.248C262.51 520.468 262.35 520.648 262.13 520.658C261.92 520.658 261.73 520.508 261.7 520.298C257.57 492.548 254.59 464.728 252.05 436.898C251.21 427.618 250.44 418.338 249.79 409.048C249.77 408.828 249.94 408.648 250.16 408.638C250.37 408.638 250.56 408.788 250.58 408.998Z" fill="#363F4A"/>
<path d="M372.63 412.958C337.93 414.858 303.2 416.408 268.42 416.878C268.2 416.878 268.02 416.708 268.01 416.488C268.01 416.278 268.16 416.108 268.37 416.088C294.37 414.418 320.44 413.558 346.51 412.778C355.2 412.528 363.89 412.308 372.59 412.168C372.81 412.168 372.99 412.338 373 412.558C373 412.768 372.85 412.948 372.64 412.958H372.63Z" fill="#363F4A"/>
<path d="M300.21 434.278C295.24 434.868 290.24 435.218 285.24 435.488C280.24 435.748 275.23 435.918 270.19 435.658C269.97 435.648 269.79 435.458 269.8 435.238C269.8 435.048 269.95 434.888 270.13 434.868C275.1 434.148 280.09 433.858 285.1 433.658C290.1 433.468 295.12 433.358 300.15 433.488C300.62 433.488 300.69 434.238 300.21 434.278Z" fill="#363F4A"/>
<path d="M339.97 432.448C335.68 433.008 331.37 433.328 327.05 433.568C322.73 433.798 318.41 433.938 314.05 433.648C313.83 433.638 313.66 433.449 313.67 433.229C313.67 433.039 313.82 432.889 313.99 432.859C318.27 432.169 322.58 431.909 326.91 431.739C331.23 431.579 335.56 431.498 339.91 431.658C340.38 431.658 340.44 432.398 339.97 432.448Z" fill="#363F4A"/>
<path d="M310.71 452.318C304.31 453.018 297.88 453.508 291.45 453.888C285.02 454.268 278.57 454.568 272.09 454.428C271.87 454.428 271.69 454.238 271.69 454.018C271.69 453.818 271.83 453.658 272.02 453.628C278.41 452.788 284.84 452.368 291.28 452.058C297.72 451.738 304.17 451.518 310.64 451.518C311.12 451.518 311.21 452.258 310.71 452.308V452.318Z" fill="#363F4A"/>
<path d="M308.9 470.969C297.36 472.289 285.77 473.299 274.08 473.169C273.61 473.169 273.52 472.438 274 472.378C279.75 471.518 285.55 471.098 291.35 470.758C297.16 470.428 302.98 470.188 308.81 470.178C309.29 470.178 309.38 470.919 308.89 470.969H308.9Z" fill="#363F4A"/>
<path d="M298.43 490.278C292.93 491.188 287.39 491.698 281.8 491.928C279.94 491.978 278.07 491.998 276.18 491.868C275.96 491.848 275.78 491.658 275.79 491.438C275.79 491.258 275.92 491.108 276.09 491.078C279.73 490.318 283.43 489.998 287.15 489.758C290.86 489.528 294.59 489.388 298.34 489.478C298.81 489.478 298.9 490.198 298.43 490.268V490.278Z" fill="#363F4A"/>
<path d="M308.18 508.178C303.26 508.938 298.31 509.458 293.35 509.888C288.39 510.318 283.42 510.658 278.38 510.568C278.16 510.568 277.97 510.378 277.97 510.158C277.97 509.968 278.1 509.808 278.28 509.778C283.18 508.888 288.14 508.428 293.11 508.068C298.08 507.708 303.06 507.428 308.08 507.388C308.55 507.378 308.66 508.118 308.19 508.178H308.18Z" fill="#363F4A"/>
<path d="M381.69 502.278C367.67 503.908 353.59 505.148 339.48 506.128C334.77 506.408 330.06 506.678 325.33 506.808C325.11 506.808 324.92 506.638 324.9 506.418C324.88 506.218 325.03 506.038 325.22 506.018C329.88 505.388 334.57 504.908 339.25 504.428C348.63 503.548 358.03 502.858 367.44 502.258C372.14 501.958 376.86 501.688 381.58 501.498C382.05 501.478 382.2 502.228 381.68 502.288L381.69 502.278Z" fill="#363F4A"/>
<path d="M235.67 418.108C227.94 418.998 220.18 419.558 212.36 418.988C212.14 418.968 211.97 418.778 211.99 418.558C212 418.368 212.14 418.228 212.31 418.198C216.16 417.558 220.04 417.358 223.93 417.238C227.82 417.128 231.71 417.108 235.62 417.318C236.09 417.328 236.14 418.058 235.67 418.108Z" fill="#363F4A"/>
<path d="M228.87 437.568C224.05 438.388 219.14 438.888 214.23 438.238C214.01 438.198 213.85 437.988 213.88 437.768C213.9 437.608 214.02 437.478 214.17 437.448C216.56 436.838 218.99 436.668 221.45 436.588C223.89 436.508 226.34 436.518 228.81 436.768C229.26 436.798 229.31 437.488 228.87 437.558V437.568Z" fill="#363F4A"/>
<path d="M239.45 456.209C231.76 457.229 224.03 457.919 216.22 457.479C216 457.459 215.83 457.269 215.83 457.049C215.83 456.859 215.97 456.719 216.14 456.689C219.97 455.989 223.83 455.719 227.71 455.539C231.59 455.369 235.47 455.279 239.37 455.419C239.84 455.419 239.91 456.149 239.44 456.209H239.45Z" fill="#363F4A"/>
<path d="M569.2 401.598C569.35 403.568 568.08 405.218 566.35 405.288C564.62 405.358 563.08 403.808 562.93 401.828C562.78 399.848 564.06 398.198 565.79 398.138C567.52 398.078 569.05 399.628 569.2 401.598Z" fill="#363F4A"/>
<path d="M463.69 405.368C463.86 407.448 462.45 409.188 460.52 409.268C458.59 409.338 456.88 407.708 456.71 405.618C456.54 403.528 457.97 401.788 459.9 401.718C461.83 401.648 463.52 403.288 463.7 405.368H463.69Z" fill="#363F4A"/>
<path d="M577.27 489.609C577.47 491.569 576.26 493.269 574.54 493.419C572.82 493.559 571.26 492.088 571.05 490.118C570.84 488.148 572.07 486.448 573.79 486.308C575.51 486.168 577.06 487.649 577.27 489.609Z" fill="#363F4A"/>
<path d="M472.67 498.178C472.9 500.248 471.54 502.049 469.63 502.209C467.72 502.369 465.98 500.818 465.75 498.748C465.52 496.678 466.89 494.869 468.8 494.719C470.71 494.569 472.44 496.118 472.67 498.188V498.178Z" fill="#363F4A"/>
<path d="M510.37 464.958C504.33 465.508 498.3 466.048 492.26 466.598C491.55 469.718 490.84 472.838 490.14 475.958C486.8 476.308 483.46 476.648 480.12 476.998C484.06 460.608 488.13 444.208 492.31 427.808C495.88 427.678 499.45 427.548 503.03 427.418C509.71 442.458 516.48 457.488 523.37 472.518C520.31 472.838 517.25 473.148 514.2 473.468C512.92 470.628 511.65 467.788 510.38 464.958H510.37ZM507.19 457.718C504.35 451.338 501.52 444.948 498.71 438.558C497.12 445.298 495.55 452.028 494 458.768C498.39 458.418 502.79 458.068 507.18 457.718H507.19Z" fill="#61BB8A"/>
<path d="M526.16 444.258C527.24 441.368 528.87 439.108 531.03 437.478C533.17 435.858 535.64 434.988 538.42 434.848C540.83 434.728 542.96 435.158 544.84 436.118C546.71 437.078 548.24 438.318 549.44 439.848C549.29 438.198 549.14 436.548 548.99 434.898C551.62 434.768 554.25 434.638 556.87 434.498C557.89 445.908 558.97 457.318 560.11 468.728C557.5 468.998 554.9 469.268 552.3 469.538C552.13 467.858 551.96 466.168 551.79 464.488C550.94 466.208 549.67 467.688 547.98 468.938C546.28 470.188 544.25 470.948 541.86 471.198C539.15 471.478 536.58 470.978 534.16 469.668C531.72 468.358 529.68 466.358 528.06 463.658C526.42 460.948 525.42 457.758 525.06 454.078C524.7 450.438 525.06 447.168 526.16 444.268V444.258ZM548.95 446.848C548.05 445.368 546.92 444.268 545.55 443.528C544.17 442.788 542.73 442.468 541.23 442.558C539.72 442.648 538.36 443.138 537.14 444.028C535.92 444.918 534.98 446.168 534.32 447.788C533.66 449.408 533.43 451.288 533.64 453.418C533.85 455.558 534.44 457.388 535.4 458.928C536.36 460.458 537.54 461.588 538.93 462.318C540.32 463.048 541.74 463.338 543.21 463.208C544.71 463.068 546.06 462.528 547.27 461.598C548.48 460.668 549.38 459.408 549.99 457.818C550.6 456.228 550.79 454.378 550.59 452.248C550.39 450.118 549.84 448.328 548.94 446.848H548.95Z" fill="#61BB8A"/>
<path d="M339.51 455.558C334.94 460.228 330.2 464.779 325.44 469.229C325.28 469.379 325.12 469.528 324.96 469.678C324.96 469.678 324.94 469.699 324.93 469.709C324.95 469.709 324.98 469.659 324.99 469.639C325.02 469.579 325.04 469.558 325.02 469.498C325.02 469.478 325 469.458 324.97 469.438C324.96 469.418 324.87 469.359 324.95 469.419C325.14 469.539 325.33 469.669 325.52 469.789C328.11 471.479 330.88 473.349 333.42 475.109C336.39 477.199 339.36 479.289 342.26 481.509C342.44 481.649 342.48 481.899 342.35 482.069C342.23 482.229 342.01 482.259 341.84 482.169C337.11 479.449 332.51 476.548 327.95 473.558C326.76 472.748 324.83 471.558 323.7 470.678C323.08 470.028 323.05 468.959 323.68 468.359C323.68 468.359 323.7 468.339 323.71 468.329C323.87 468.179 324.03 468.039 324.19 467.889C329.01 463.489 333.92 459.129 338.96 454.959C339.32 454.649 339.85 455.209 339.51 455.549V455.558Z" fill="#363F4A"/>
<path d="M362.94 480.088C367.3 475.478 371.85 470.978 376.43 466.568L376.89 466.128C376.89 466.128 376.91 466.108 376.92 466.098C376.92 466.098 376.91 466.108 376.9 466.118C376.82 466.218 376.79 466.288 376.89 466.398C374.5 464.818 371.3 462.568 368.74 460.748C365.86 458.688 363.03 456.578 360.25 454.388C360.08 454.248 360.04 453.998 360.17 453.828C360.29 453.668 360.51 453.638 360.68 453.738C363.73 455.538 366.71 457.418 369.67 459.358C371.8 460.748 374.15 462.348 376.27 463.788C376.63 464.038 377 464.288 377.36 464.538C377.69 464.788 378.23 465.058 378.43 465.478C378.76 466.098 378.73 466.848 378.28 467.368C378.22 467.428 377.79 467.848 377.71 467.908C373.05 472.238 368.32 476.548 363.49 480.668C363.14 480.978 362.59 480.428 362.93 480.078L362.94 480.088Z" fill="#363F4A"/>
<path d="M356.42 441.358C354.44 455.118 352.17 468.808 349.71 482.428C348.84 486.958 347.99 491.488 346.99 495.988C346.94 496.198 346.73 496.328 346.52 496.268C346.32 496.218 346.19 496.018 346.21 495.828C346.7 491.228 347.36 486.648 348.03 482.078C349.44 472.948 351.07 463.858 352.83 454.778C353.71 450.238 354.63 445.708 355.64 441.198C355.74 440.738 356.49 440.858 356.42 441.368V441.358Z" fill="#363F4A"/>
<g style="mix-blend-mode:multiply" opacity="0.68">
<path d="M236.63 318.938C236.63 319.048 236.58 319.138 236.5 319.138C215.07 319.158 193.63 319.178 172.2 319.198C172.15 318.868 172.1 318.518 172.06 318.188C163.99 261.638 161.83 204.848 165.54 148.368C187.91 150.328 210.28 152.288 232.66 154.238C232.75 154.238 232.81 154.338 232.8 154.458C229.93 209.208 231.21 264.188 236.63 318.918V318.938Z" fill="#E4EAF8"/>
</g>
<g style="mix-blend-mode:multiply" opacity="0.68">
<path d="M253.27 472.699C253.38 473.539 252.82 474.279 252.02 474.349C230.21 476.329 208.4 478.309 186.6 480.289C177.82 434.739 173.52 388.959 173.71 343.369C197.2 342.749 220.7 342.119 244.19 341.499C245.01 341.469 245.65 342.149 245.64 342.989C245 386.159 247.54 429.509 253.26 472.699H253.27Z" fill="#E4EAF8"/>
</g>
<path d="M237.89 124.838C235.93 172.118 237.29 219.558 241.97 266.798C241.97 266.898 241.93 266.978 241.85 266.978C178.77 267.048 115.69 267.108 52.61 267.178C52.57 267.218 47.95 227.458 47.01 187.708C45.48 147.948 47.62 108.198 47.61 108.228C47.61 108.118 47.7 108.028 47.8 108.038C111.07 113.568 174.39 119.108 237.75 124.648C237.82 124.648 237.88 124.738 237.88 124.838H237.89Z" fill="#D4EFFF"/>
<path d="M237.89 124.838C235.93 172.118 237.29 219.558 241.97 266.798C241.97 266.898 241.93 266.978 241.85 266.978C178.77 267.048 115.69 267.108 52.61 267.178C52.57 267.218 47.95 227.458 47.01 187.708C45.48 147.948 47.62 108.198 47.61 108.228C47.61 108.118 47.7 108.028 47.8 108.038C111.07 113.568 174.39 119.108 237.75 124.648C237.82 124.648 237.88 124.738 237.88 124.838H237.89Z" fill="#8CC1ED"/>
<path d="M107.75 201.508C103 197.518 98.2998 193.668 94.1098 190.338C105.44 181.558 114.6 174.178 122.9 167.128C123.74 166.428 123.86 165.228 123.18 164.338C122.49 163.428 121.29 163.228 120.4 163.848C111.13 170.168 101.4 177.218 89.7698 186.008L88.7698 186.758L88.6798 186.828C87.8098 187.508 87.2598 188.518 87.1298 189.678C86.9898 190.898 87.3398 192.148 88.1098 193.098L88.2398 193.238C89.5898 194.498 91.5998 196.098 93.3698 197.508C94.2998 198.248 95.1798 198.948 95.9298 199.568C105.39 207.118 113.37 213.158 121.05 218.578C121.41 218.828 121.83 218.958 122.24 218.958C122.8 218.958 123.34 218.728 123.74 218.298C124.48 217.478 124.41 216.178 123.59 215.408C118.44 210.638 113.05 206.038 107.77 201.528L107.75 201.508Z" fill="#6BABF8"/>
<path d="M200.95 193.568C200.59 192.588 199.78 191.928 199.13 191.398C198.98 191.278 198.84 191.168 198.69 191.028L196.73 189.388C193.03 186.328 188.72 182.778 184.86 179.708C179.03 175.058 173.71 171.008 168.61 167.318C167.78 166.708 166.62 166.818 165.92 167.558C165.15 168.368 165.2 169.668 166.02 170.458C170.64 174.858 175.6 179.358 181.19 184.198C184.92 187.408 190.03 191.768 194.28 195.238C183.25 204.058 174.45 211.378 166.63 218.248C165.81 218.958 165.71 220.158 166.4 221.038C166.83 221.578 167.43 221.858 168.04 221.858C168.44 221.858 168.84 221.738 169.18 221.488C177.85 215.388 186.96 208.618 198.69 199.578C198.87 199.448 199.8 198.708 200.01 198.528C201.33 197.268 201.69 195.298 200.95 193.568Z" fill="#6BABF8"/>
<path d="M156.76 139.808C155.68 139.508 154.61 140.068 154.28 141.108C151.78 148.838 149.23 157.188 146.47 166.648C140.94 185.548 136.34 202.378 132.39 218.108C130.16 227.308 128.17 235.628 126.44 244.178C126.25 245.168 126.82 246.178 127.77 246.528C128 246.618 128.24 246.658 128.49 246.658C128.8 246.658 129.1 246.588 129.38 246.458C129.87 246.218 130.24 245.798 130.41 245.268C133 237.218 135.39 228.968 137.7 220.988L138.06 219.748C145.84 191.748 152.44 166.408 158.24 142.268C158.5 141.168 157.87 140.108 156.78 139.808H156.76Z" fill="#6BABF8"/>
<path d="M261.29 455.778C202.93 461.078 144.62 466.378 86.3598 471.668C85.4698 471.748 84.6497 471.118 84.5297 470.268C78.1497 426.318 75.0397 382.188 75.1897 338.228C75.1897 337.368 75.9298 336.648 76.8298 336.628C136.11 335.048 195.39 333.478 254.68 331.908C255.44 331.888 256.04 332.508 256.03 333.298C255.43 373.548 257.58 413.958 262.46 454.248C262.56 455.028 262.03 455.718 261.28 455.788L261.29 455.778Z" fill="#D7F2E3"/>
<path d="M261.29 455.778C202.93 461.078 144.62 466.378 86.3598 471.668C85.4698 471.748 84.6497 471.118 84.5297 470.268C78.1497 426.318 75.0397 382.188 75.1897 338.228C75.1897 337.368 75.9298 336.648 76.8298 336.628C136.11 335.048 195.39 333.478 254.68 331.908C255.44 331.888 256.04 332.508 256.03 333.298C255.43 373.548 257.58 413.958 262.46 454.248C262.56 455.028 262.03 455.718 261.28 455.788L261.29 455.778Z" fill="#9FD4B7"/>
<path d="M134.46 380.388C134 394.018 134.5 407.708 135.95 421.338C133.26 421.518 130.56 421.708 127.86 421.888C127.23 416.038 126.77 410.188 126.48 404.328C120.55 404.628 114.63 404.938 108.7 405.238C109.01 411.188 109.49 417.148 110.16 423.088C107.33 423.278 104.5 423.478 101.67 423.668C100.06 409.598 99.4602 395.458 99.8902 381.378C102.74 381.298 105.6 381.218 108.45 381.128C108.27 386.878 108.26 392.628 108.42 398.378C114.35 398.108 120.29 397.848 126.22 397.578C126.08 391.918 126.1 386.258 126.28 380.608C129 380.528 131.71 380.448 134.43 380.368L134.46 380.388Z" fill="#61BB8A"/>
<path d="M168.73 379.398C168.65 381.538 168.6 383.668 168.56 385.808C165.17 385.928 161.79 386.048 158.4 386.168C158.25 397.348 158.73 408.548 159.86 419.708C157.29 419.888 154.71 420.058 152.14 420.238C150.98 408.988 150.48 397.698 150.62 386.438C147.11 386.558 143.61 386.688 140.1 386.808C140.13 384.608 140.18 382.418 140.25 380.218C149.74 379.948 159.23 379.668 168.72 379.398H168.73Z" fill="#61BB8A"/>
<path d="M213.37 378.108C212.85 390.718 213.14 403.378 214.26 415.998C211.95 416.158 209.64 416.308 207.34 416.468C206.6 408.198 206.2 399.918 206.16 391.638C203.05 400.128 200.31 408.628 197.93 417.108C196.13 417.228 194.32 417.358 192.52 417.478C188.48 409.228 184.79 400.958 181.45 392.688C181.52 401.168 181.96 409.668 182.77 418.138C180.31 418.308 177.85 418.478 175.39 418.638C174.11 405.508 173.72 392.348 174.21 379.228C177.02 379.148 179.84 379.068 182.65 378.988C186.13 388.438 190.08 397.918 194.48 407.378C197.67 397.688 201.34 387.998 205.49 378.328C208.12 378.248 210.74 378.178 213.37 378.098V378.108Z" fill="#61BB8A"/>
<path d="M227.28 409.138C230.91 408.918 234.53 408.689 238.16 408.469C238.28 410.429 238.42 412.389 238.59 414.339C232.72 414.739 226.86 415.139 220.99 415.539C219.9 402.999 219.62 390.429 220.15 377.909C222.41 377.839 224.67 377.778 226.93 377.708C226.48 388.168 226.6 398.648 227.28 409.128V409.138Z" fill="#61BB8A"/>
<path d="M283.8 616.709C237.65 622.569 191.65 628.409 145.8 634.229C145.1 634.319 144.42 633.839 144.28 633.159C136.87 598.259 132.03 563.088 129.79 527.928C129.75 527.238 130.29 526.639 131 526.599C177.92 523.589 224.94 520.578 272.08 517.558C272.68 517.518 273.2 517.998 273.23 518.638C274.86 550.968 278.68 583.308 284.67 615.448C284.79 616.068 284.4 616.639 283.81 616.719L283.8 616.709Z" fill="#F7E8C5"/>
<path d="M283.8 616.709C237.65 622.569 191.65 628.409 145.8 634.229C145.1 634.319 144.42 633.839 144.28 633.159C136.87 598.259 132.03 563.088 129.79 527.928C129.75 527.238 130.29 526.639 131 526.599C177.92 523.589 224.94 520.578 272.08 517.558C272.68 517.518 273.2 517.998 273.23 518.638C274.86 550.968 278.68 583.308 284.67 615.448C284.79 616.068 284.4 616.639 283.81 616.719L283.8 616.709Z" fill="#F0D18E"/>
<path d="M160.55 566.888C162.27 563.258 164.82 560.368 168.1 558.208C171.35 556.078 175.03 554.898 179.08 554.648C183.75 554.358 187.82 555.338 191.34 557.548C194.82 559.738 197.33 562.908 198.96 567.048C195.89 567.308 192.82 567.578 189.75 567.838C188.66 565.878 187.24 564.448 185.47 563.558C183.69 562.668 181.67 562.298 179.38 562.468C176.92 562.648 174.75 563.408 172.89 564.758C171.02 566.108 169.61 567.928 168.69 570.208C167.77 572.498 167.46 575.138 167.79 578.098C168.11 581.018 168.99 583.528 170.38 585.628C171.77 587.718 173.53 589.238 175.64 590.208C177.73 591.168 180 591.488 182.42 591.188C184.67 590.908 186.55 590.138 188.1 588.888C189.64 587.638 190.72 585.948 191.38 583.798C194.42 583.448 197.47 583.108 200.52 582.758C199.75 587.208 197.97 590.848 195.05 593.678C192.11 596.548 188.37 598.308 183.76 598.938C179.8 599.488 176 599.038 172.4 597.568C168.76 596.088 165.66 593.738 163.19 590.518C160.7 587.278 159.17 583.438 158.66 579.018C158.16 574.588 158.8 570.538 160.54 566.888H160.55Z" fill="#EEB440"/>
<path d="M214.73 593.208C212.5 592.508 210.62 591.308 209.12 589.608C207.62 587.898 206.67 585.778 206.31 583.238C209.01 582.928 211.71 582.618 214.41 582.298C214.72 583.968 215.44 585.238 216.54 586.088C217.64 586.948 219.03 587.268 220.69 587.058C222.38 586.848 223.64 586.228 224.48 585.198C225.31 584.178 225.64 582.938 225.46 581.478C225.32 580.288 224.88 579.348 224.14 578.648C223.4 577.948 222.52 577.438 221.49 577.098C220.45 576.758 219.03 576.408 217.23 576.048C214.75 575.518 212.7 574.948 211.11 574.338C209.5 573.728 208.07 572.688 206.82 571.228C205.57 569.768 204.83 567.728 204.65 565.108C204.48 562.648 204.93 560.458 205.99 558.558C207.04 556.658 208.57 555.168 210.57 554.078C212.56 552.988 214.83 552.378 217.38 552.218C221.16 551.988 224.22 552.798 226.6 554.658C228.96 556.498 230.33 559.178 230.78 562.718C228.16 562.938 225.54 563.148 222.92 563.368C222.76 561.988 222.17 560.888 221.14 560.058C220.1 559.228 218.76 558.868 217.11 558.988C215.66 559.098 214.52 559.588 213.69 560.478C212.86 561.368 212.49 562.598 212.59 564.158C212.66 565.258 213.06 566.138 213.77 566.798C214.48 567.458 215.34 567.978 216.35 568.338C217.35 568.698 218.76 569.088 220.55 569.508C222.97 570.058 224.94 570.648 226.47 571.268C228 571.888 229.35 572.908 230.54 574.318C231.73 575.728 232.44 577.658 232.73 580.118C232.98 582.238 232.75 584.268 232.03 586.208C231.31 588.158 230.11 589.798 228.39 591.138C226.66 592.488 224.49 593.348 221.85 593.708C219.32 594.058 216.94 593.888 214.73 593.188V593.208Z" fill="#EEB440"/>
<path d="M245.29 589.068C243.3 588.388 241.62 587.248 240.3 585.638C238.96 584.018 238.13 582.008 237.82 579.608C240.23 579.328 242.64 579.048 245.05 578.768C245.32 580.348 245.96 581.548 246.94 582.368C247.92 583.178 249.16 583.498 250.65 583.308C252.17 583.118 253.3 582.538 254.05 581.578C254.8 580.618 255.1 579.448 254.95 578.068C254.83 576.948 254.44 576.048 253.78 575.388C253.12 574.728 252.33 574.228 251.41 573.908C250.49 573.588 249.22 573.248 247.6 572.898C245.38 572.388 243.56 571.838 242.13 571.248C240.7 570.658 239.42 569.678 238.31 568.298C237.2 566.908 236.55 564.978 236.4 562.508C236.26 560.188 236.67 558.128 237.62 556.328C238.56 554.538 239.94 553.138 241.73 552.108C243.51 551.088 245.54 550.508 247.82 550.368C251.21 550.158 253.94 550.938 256.06 552.708C258.17 554.458 259.38 556.998 259.77 560.348C257.42 560.538 255.07 560.738 252.73 560.928C252.6 559.628 252.07 558.578 251.15 557.798C250.22 557.008 249.02 556.668 247.55 556.778C246.25 556.878 245.23 557.338 244.48 558.168C243.73 558.998 243.4 560.158 243.48 561.638C243.54 562.678 243.89 563.508 244.52 564.138C245.15 564.768 245.92 565.258 246.82 565.598C247.72 565.938 248.97 566.318 250.57 566.718C252.73 567.248 254.49 567.808 255.87 568.408C257.23 568.998 258.44 569.968 259.5 571.318C260.56 572.658 261.19 574.488 261.44 576.818C261.65 578.828 261.44 580.738 260.79 582.578C260.14 584.418 259.05 585.958 257.51 587.218C255.96 588.478 254.01 589.278 251.64 589.608C249.38 589.918 247.25 589.748 245.27 589.068H245.29Z" fill="#EEB440"/>
<g style="mix-blend-mode:multiply" opacity="0.68">
<path d="M563.45 322.528L558.1 233.618C558.04 232.678 557.29 231.868 556.42 231.808L316.44 216.128C315.35 216.058 314.52 216.858 314.59 217.908L320.45 304.898L320.41 304.918H320.45L324.06 358.528C324.13 359.578 325.06 360.418 326.15 360.428L497.94 360.788L564.2 360.928C565.07 360.928 565.72 360.178 565.66 359.238L563.45 322.528Z" fill="#E4EAF8"/>
</g>
<path d="M578.29 280.818L579.17 295.388L581.38 332.098C581.44 333.028 580.78 333.788 579.91 333.778L513.64 333.638L341.86 333.288C340.78 333.288 339.85 332.438 339.78 331.388L336.17 277.758L333.21 233.818" fill="white"/>
<path d="M333.2 233.818L330.3 190.768C330.23 189.718 331.05 188.918 332.15 188.998L572.12 204.678C572.99 204.738 573.75 205.538 573.8 206.478L578.28 280.818" fill="white"/>
<path d="M332.35 233.878C331.76 226.358 330.23 207.148 329.68 199.888L329.24 194.218L329.02 191.388C328.96 190.688 328.92 189.968 329.27 189.308C329.82 188.148 331.13 187.528 332.34 187.658C332.81 187.688 333.99 187.748 334.47 187.778C336.14 187.878 341.21 188.158 342.98 188.258C418.56 192.688 494.33 197.418 569.84 202.768L571.26 202.868L571.97 202.918H572.15L572.42 202.958C572.67 202.988 572.91 203.048 573.14 203.128C574.79 203.718 575.61 205.338 575.56 206.968L575.85 212.648L577.03 235.348C577.92 248.558 578.39 267.378 579.14 280.768C579.16 281.238 578.8 281.638 578.33 281.658C577.87 281.678 577.48 281.328 577.44 280.868C575.78 259.738 573.95 233.978 572.53 212.838L572.14 207.168L572.12 206.818C572.12 206.718 572.1 206.528 572.1 206.568C572.1 206.548 572.09 206.518 572.07 206.488C572 206.368 571.94 206.398 572.02 206.408C492.4 201.838 411.24 195.788 331.67 190.488C331.64 190.528 331.63 190.608 331.63 190.678V190.848L331.65 191.198L331.81 194.038C332.01 197.608 332.58 207.358 332.79 211.058L334.05 233.758C334.08 234.228 333.72 234.628 333.25 234.658C332.79 234.688 332.39 234.338 332.35 233.878Z" fill="#D2D4D9"/>
<path d="M513.64 333.638L341.86 333.288C340.78 333.288 339.85 332.438 339.78 331.388L336.17 277.758L405.71 238.508C406.06 238.308 406.54 238.379 406.88 238.679L513.65 333.638H513.64Z" fill="#61BB8A"/>
<path d="M581.38 332.098C581.44 333.028 580.78 333.788 579.91 333.778L513.64 333.638L468 293.058L523.69 260.208C523.96 260.048 524.3 260.068 524.59 260.258L579.16 295.398L581.37 332.108L581.38 332.098Z" fill="#61BB8A"/>
<path d="M581.38 332.098C581.44 333.028 580.78 333.788 579.91 333.778L513.64 333.638L468 293.058L523.69 260.208C523.96 260.048 524.3 260.068 524.59 260.258L579.16 295.398L581.37 332.108L581.38 332.098Z" fill="#589473"/>
<path d="M482.8 247.198C483.24 254.258 478.05 259.768 471.17 259.518C464.29 259.268 458.22 253.268 457.77 246.128C457.32 238.988 462.61 233.468 469.55 233.808C476.49 234.148 482.36 240.138 482.81 247.198H482.8Z" fill="#EEB440"/>
<path d="M415.64 245.908C448.82 274.568 481.77 303.508 513.92 333.318C514.09 333.478 514.1 333.748 513.94 333.918C513.78 334.088 513.53 334.098 513.35 333.948C488.29 312.658 463.8 290.698 439.37 268.688C431.23 261.348 423.12 253.968 415.06 246.538C414.89 246.378 414.88 246.108 415.04 245.938C415.2 245.768 415.46 245.758 415.63 245.908H415.64Z" fill="#394740"/>
<path d="M692.44 242.828C695.73 245.398 699.9 246.378 703.93 247.278C704.39 251.968 707.05 256.328 711.17 258.418C715.29 260.508 720.44 260.248 724.31 257.738C724.39 257.318 724.48 256.888 724.57 256.458C729.28 258.398 734.54 257.828 739.55 257.218C740.72 257.078 741.88 256.938 743.06 256.778C748.38 256.068 753.67 255.028 758.33 252.398C765.98 248.048 771.08 239.338 771.24 230.318L776.19 193.068L782.48 145.808L785.78 120.938C786.09 119.908 786.29 118.828 786.38 117.748C786.84 112.368 784.59 106.708 780.42 103.338C775.4 99.2884 767.96 98.8084 762.56 102.178C758.56 99.2384 752.75 99.4984 748.83 102.388C747.94 103.048 747.15 103.828 746.5 104.748C746.52 103.998 746.44 103.258 746.26 102.538C745.54 99.3984 743.16 96.6484 740.14 95.7184C736.41 94.5684 732.07 96.2884 730.08 99.6884C723.65 97.8984 716.29 101.058 713 106.978C712.97 107.028 712.95 107.078 712.92 107.118C708.38 107.408 704.35 111.338 703.82 115.968C702.22 114.788 699.93 114.678 698.26 115.728C696.58 116.768 695.61 118.898 695.92 120.898C693.16 121.148 690.6 122.938 689.36 125.458C688.1 127.988 688.19 131.178 689.58 133.648C686.37 133.518 683.25 135.858 682.39 139.028C681.53 142.198 683.01 145.898 685.81 147.538C683.2 148.928 681.35 151.688 680.99 154.698C680.65 157.698 681.82 160.868 684.02 162.878C682.36 163.658 681.21 165.468 681.18 167.358C681.15 169.248 682.24 171.118 683.88 171.988C683.12 173.148 682.59 174.428 682.26 175.778C681.7 178.138 681.79 180.668 682.62 182.958C683.91 186.548 686.94 189.448 690.53 190.508C689.83 197.058 691.39 204.138 694.66 209.848C691.82 211.818 690.13 215.428 690.41 218.948C690.68 222.478 692.89 225.798 696.01 227.338C692.97 226.888 689.77 228.768 688.59 231.668C687.02 235.558 689.15 240.228 692.44 242.808V242.828Z" fill="#140D09"/>
<path d="M934.4 698.989H841.41L824.09 648.448L819.11 698.989H725.41C712.86 607.239 715.87 514.429 725.17 486.299C725.17 486.299 795.85 459.888 844.4 461.078C861.63 461.498 876.59 457.388 885.46 467.178C925.2 510.998 918.8 571.119 920.46 591.419C921.59 605.259 934.4 698.989 934.4 698.989Z" fill="#E4EAF8"/>
<path d="M934.4 698.989H841.41L824.09 648.448L819.11 698.989H775.22C767.28 569.289 786.99 524.508 786.99 524.508C786.99 524.508 815.5 492.438 844.4 461.078C861.63 461.498 876.59 457.388 885.46 467.178C925.2 510.998 918.8 571.119 920.46 591.419C921.59 605.259 934.4 698.989 934.4 698.989Z" fill="#ABB0BA"/>
<path d="M797.74 242.158C797.74 242.158 791.44 244.618 775.08 252.898C758.71 261.168 739.83 260.558 739.83 260.558C740.43 254.678 739.9 247.828 738.94 241.298C737.04 228.318 733.42 216.658 733.42 216.658L740.1 210.468L778.85 174.538L797.75 242.168L797.74 242.158Z" fill="#402316"/>
<path d="M747.36 221.738L738.93 241.288C737.03 228.308 733.41 216.648 733.41 216.648L740.09 210.458C742.59 209.608 744.28 209.078 744.52 209.118C745.52 209.338 747.37 221.738 747.37 221.738H747.36Z" fill="#704131"/>
<path d="M736.13 264.279L729.41 239.738L777.7 228.958L775.42 258.298L736.13 264.279Z" fill="white"/>
<path d="M903.8 482.229C903.8 482.229 864.84 524.498 816.55 526.188C806.55 526.538 796.55 525.838 786.98 524.508C750.3 519.398 715.86 505.018 715.86 505.018C715.86 485.478 715.86 453.738 715.86 419.468C715.86 403.428 708.61 406.368 705.73 384.878C697.17 320.878 710.95 282.428 721.4 267.468C731.85 252.498 753.55 246.618 753.55 246.618C769.55 240.248 786.11 239.078 797.76 241.458C827.81 247.598 841.09 273.318 854.52 298.018C873.15 332.288 903.8 482.229 903.8 482.229Z" fill="#6BABF8"/>
<path d="M903.8 482.229C903.8 482.229 864.84 524.498 816.55 526.188C806.55 526.538 796.55 525.838 786.98 524.508C817.9 463.568 775.07 252.898 775.07 252.898C775.07 252.898 780.55 238.449 797.73 242.159C797.96 242.209 797.73 241.688 797.76 241.458C827.81 247.598 841.09 273.318 854.52 298.018C873.15 332.288 903.8 482.229 903.8 482.229Z" fill="#064286"/>
<path d="M715.36 126.018C707.35 128.158 701.12 134.148 699.23 141.628C697.79 147.298 696.36 155.718 697.01 166.598C698.61 193.639 705.39 228.188 717.83 230.588C730.29 232.988 747.13 225.468 755.79 216.248C764.44 207.038 772.46 179.108 771.06 169.058C769.77 159.768 758.24 114.548 715.36 126.018Z" fill="#402316"/>
<path d="M698.48 172.438C698.51 172.738 697.93 183.948 694.22 190.138C691.7 194.358 692.99 202.798 702.02 201.398C711.05 199.998 698.48 172.438 698.48 172.438Z" fill="#402316"/>
<path d="M700.59 201.158C700.7 200.748 700.88 200.628 701.07 200.568C701.69 200.398 702.27 200.328 702.96 200.468C704 200.998 701.9 201.898 701.44 202.018C701.07 202.198 700.38 201.658 700.59 201.158Z" fill="#2B180F"/>
<path d="M701.69 172.168C702.81 170.778 704.97 170.558 706.57 171.108C708.15 171.608 709.51 172.608 710.46 173.928C710.75 174.308 710.32 174.868 709.88 174.698C707.97 173.968 706.15 173.088 704.13 172.988C703.51 172.928 702.88 172.958 702.13 173.018C701.69 173.068 701.41 172.508 701.69 172.178V172.168Z" fill="#140D09"/>
<path d="M698.99 164.048C701.29 160.928 705.98 160.558 709.4 161.788C710.49 162.238 713.82 163.528 712.71 165.008C712.47 165.298 712.1 165.428 711.76 165.368C708.8 164.698 706 164.738 703.06 165.248C702.05 165.338 701.19 165.818 700.13 165.678L699.76 165.608C699.05 165.488 698.65 164.658 698.99 164.028V164.048Z" fill="#140D09"/>
<path d="M717.26 195.298C717.96 201.548 713.12 208.208 706.68 208.578C705.9 208.668 705.54 207.558 706.22 207.178C708.58 205.848 710.65 204.398 712.19 202.198C713.74 200.098 714.79 197.628 715.77 195.188C715.99 194.398 717.18 194.488 717.27 195.308L717.26 195.298Z" fill="#2B180F"/>
<path d="M706.081 178.221C707.304 177.969 707.998 176.322 707.631 174.543C707.265 172.763 705.977 171.524 704.755 171.776C703.532 172.027 702.838 173.674 703.204 175.454C703.571 177.234 704.858 178.472 706.081 178.221Z" fill="#140D09"/>
<path d="M541.71 361.338C541.71 361.338 547.54 342.568 575.97 322.988C575.97 322.988 576 343.008 569.18 351.658C562.36 360.308 541.72 361.338 541.72 361.338H541.71Z" fill="#064286"/>
<path d="M594.23 341.608L574.72 325.868C574.72 325.868 568.84 304.468 566.04 298.548C563.24 292.628 556.91 288.748 551.54 287.268L546.17 285.788C546.17 285.788 520.69 253.828 513.19 253.838C505.69 253.838 515.48 265.698 517.7 268.398C519.92 271.098 526.36 280.318 526.36 280.318C526.36 280.318 521.05 282.008 520.62 288.318C520.59 288.798 520.52 289.828 520.49 290.218C519.14 289.838 517.68 290.388 515.9 292.478C513.13 295.718 514.39 302.008 514.39 302.008C514.39 302.008 513.2 302.898 511.9 307.338C510.6 311.778 514.17 321.548 523.92 332.108C533.67 342.668 549.45 351.818 549.45 351.818L587.01 391.668C587.01 391.668 602.1 385.168 605.67 364.748C609.24 344.338 594.24 341.598 594.24 341.598L594.23 341.608Z" fill="#402316"/>
<path d="M733.14 256.238C733.14 256.238 708.8 265.758 694.98 298.708C681.16 331.658 663.41 361.158 657.1 366.238C657.1 366.238 639.42 353.778 619.14 344.178C598.86 334.568 575.95 322.988 575.95 322.988C575.95 322.988 566.33 348.888 541.69 361.338C541.69 361.338 622.83 435.008 659.83 444.388C696.83 453.768 724.21 410.578 738.51 391.668C752.82 372.768 733.13 256.238 733.13 256.238H733.14Z" fill="#6BABF8"/>
<path d="M657.34 365.418C668 372.078 675.59 384.798 676.04 397.398C676.04 398.128 674.97 398.298 674.77 397.578C672.29 388.768 668.53 380.328 662.84 373.128C660.96 370.738 658.88 368.508 656.59 366.458C656.02 365.968 656.69 365.028 657.34 365.428V365.418Z" fill="#064286"/>
<path d="M748.22 382.068C743.01 390.738 737.07 398.908 730.65 406.708C724.19 414.478 717.17 421.918 708.9 427.818C708.28 428.258 707.51 427.378 708.09 426.828C718.79 416.298 728.54 404.928 737.88 393.188C741 389.268 744.1 385.328 747.15 381.348C747.61 380.728 748.63 381.368 748.21 382.058L748.22 382.068Z" fill="#064286"/>
<path d="M823.66 648.398C824.64 637.058 825.95 625.218 827.28 613.928C832.07 603.598 837.23 592.838 842.52 582.768C842.75 582.328 843.5 582.618 843.29 583.128C839.11 593.098 833.48 605.668 829.19 614.308C828.17 622.558 826.96 631.688 825.78 639.968C825.36 642.818 824.96 645.658 824.5 648.498C824.42 648.998 823.61 648.948 823.65 648.398H823.66Z" fill="#131D2E"/>
<path d="M526.72 280.098C529.5 283.378 532.12 286.878 533.79 290.868C533.88 291.098 533.76 291.348 533.53 291.438C533.38 291.498 533.21 291.458 533.09 291.358C532.24 290.638 531.53 289.818 530.85 288.968C528.88 286.378 527.21 283.568 525.99 280.538C525.81 280.108 526.42 279.738 526.72 280.098Z" fill="#2B180F"/>
<path d="M520.85 289.998C523.69 293.078 526.29 296.458 527.81 300.388C527.98 300.798 527.44 301.178 527.11 300.878C524.75 298.738 523.11 296.008 521.53 293.278C521.02 292.358 520.54 291.428 520.13 290.448C520.04 290.228 520.14 289.978 520.36 289.888C520.54 289.818 520.73 289.868 520.85 289.998Z" fill="#2B180F"/>
<path d="M514.82 302.328C516.59 304.018 518.07 305.948 519.35 308.028C519.61 308.538 521.3 311.238 519.71 310.778C517.67 309.328 516.33 307.198 515.13 305.058C514.75 304.338 514.39 303.598 514.11 302.798C514.03 302.568 514.15 302.318 514.38 302.238C514.54 302.188 514.71 302.228 514.82 302.328Z" fill="#2B180F"/>
<path d="M546.32 285.539C549.69 288.209 552.88 291.229 555.08 294.949C555.19 295.159 555.11 295.429 554.9 295.549C554.76 295.629 554.59 295.619 554.46 295.529C551.74 293.729 549.64 291.249 547.59 288.749C546.93 287.899 546.28 287.039 545.7 286.119C545.44 285.729 545.96 285.249 546.32 285.539Z" fill="#2B180F"/>
<path d="M701.27 133.159C702.58 134.399 704.47 134.999 706.25 134.739C705.6 136.739 705.2 138.839 705.42 140.909C705.65 142.989 706.55 145.049 708.16 146.389C709.77 147.719 712.12 148.219 714.03 147.359C712.88 147.989 712.38 149.569 712.96 150.739C713.53 151.919 715.08 152.489 716.28 151.979C716.14 152.179 716.02 152.369 715.88 152.559C716.66 155.339 718.19 157.859 720.7 159.279C723.2 160.719 726.27 161.129 729.06 160.399C727.89 163.259 728.39 166.749 730.33 169.149C732.27 171.559 735.58 172.789 738.62 172.249C738.74 174.129 740.63 175.369 742.41 174.749C743.57 174.339 744.72 173.869 745.82 173.339C748.16 174.859 750.34 176.029 752.22 176.919C750.12 180.379 748.85 184.329 748.43 188.389C746.84 188.599 745.38 189.959 744.87 191.549C744.22 193.579 744.73 195.789 745.36 197.809C743.22 197.569 741.06 198.869 740.03 200.769C739.03 202.629 739.04 204.949 739.82 206.919C738.3 207.089 736.82 207.399 735.41 207.999C732.87 209.099 730.63 211.389 730.39 214.229C730.14 217.059 732.57 220.089 735.31 219.719C732.82 221.979 732 225.959 733.34 229.109C731.7 228.109 729.41 229.449 728.96 231.349C728.51 233.239 729.52 235.258 730.99 236.508C732.46 237.768 734.31 238.419 736.11 239.049C733.68 244.199 735.13 251.009 739.46 254.689C740.53 255.599 741.76 256.289 743.05 256.769C746.99 258.219 751.66 257.689 755 255.109C761.61 258.719 769.86 259.858 776.44 256.318C776.56 256.058 776.66 255.798 776.78 255.538C780.48 256.138 783.83 256.789 787.5 256.139C789.47 255.789 791.52 255.199 792.84 253.679C794.17 252.169 794.41 249.479 792.84 248.199C794.06 247.179 795.77 247.129 797.34 247.209C798.92 247.279 800.58 247.409 801.96 246.649C803.34 245.899 804.18 243.859 803.17 242.619C804.79 242.459 806.33 241.859 807.68 240.949C808.84 240.159 809.85 239.159 810.66 237.989L810.2 239.389C811.5 240.289 813.37 240.169 814.56 239.139C815.74 238.089 816.15 236.209 815.48 234.749C819.24 236.749 824.14 236.109 827.24 233.219C830.35 230.319 831.44 225.369 829.86 221.339C833.29 223.859 838.63 222.119 840.56 218.289C842.49 214.469 841.22 209.449 838.18 206.449C838.07 206.329 837.94 206.239 837.82 206.139C838.48 204.109 837.89 201.719 836.34 200.249C837.9 198.469 836.72 195.539 834.82 194.129C834.41 193.819 833.96 193.559 833.51 193.319C833.53 193.139 833.58 192.969 833.6 192.789C833.72 191.309 833.52 189.809 833.11 188.379C834.82 186.669 835.96 184.359 836.08 181.939C836.29 177.709 833.45 173.519 829.45 172.159C832.17 170.499 832.64 166.389 830.93 163.699C829.21 161.009 825.92 159.659 822.73 159.499C822.51 159.489 822.3 159.499 822.08 159.499C821.95 159.029 821.83 158.559 821.69 158.089C825.53 156.909 827.53 152.099 826.55 148.089C825.58 144.079 822.3 140.979 818.63 139.269C814.96 137.559 810.91 137.039 806.93 136.519C807.87 136.009 808.56 127.689 806.39 123.289C804.4 119.259 799.78 117.389 795.45 116.759C791.14 116.129 789.19 116.899 786.39 117.759C785.1 118.169 783.62 118.579 781.64 118.889C782.43 115.419 780.73 111.679 778.12 109.289C775.5 106.899 772.1 105.629 768.73 104.689C762.25 102.889 755.52 102.129 748.84 102.399C747.98 102.429 747.13 102.479 746.28 102.559C740.25 103.029 734.29 104.339 728.62 106.439C725.13 107.739 721.76 109.339 718.54 111.219C717.69 111.709 716.84 112.269 716.16 112.979C704.96 117.669 702.5 124.939 701.96 128.129C700.4 128.199 699.46 128.269 699.46 128.269C699.3 130.059 699.99 131.919 701.29 133.159H701.27Z" fill="#140D09"/>
<path d="M709.14 119.298C708.81 124.988 712.68 130.638 718.09 132.408C718.91 132.608 719.37 133.248 719.18 134.078C718.34 139.238 722.73 144.268 727.97 143.998C728.81 143.978 730.04 143.568 730.58 144.508C730.78 144.768 730.86 145.288 730.77 145.588C729.71 150.698 732.07 156.268 736.55 158.958C737.45 159.518 738.42 159.968 739.42 160.298C740.16 160.458 740.72 161.268 740.6 161.998C740.41 163.978 740.81 165.978 741.67 167.798C743.1 170.848 745.85 173.338 749.06 174.178C750.79 174.398 753.11 175.518 754.19 177.108C757.63 181.848 758.04 188.218 756.36 193.688C755.28 197.188 751.84 199.668 750.38 202.828C749.69 204.338 749.45 206.038 750.07 207.388C750.23 207.688 750.22 208.088 750.2 208.418C750.03 212.498 750.5 216.628 751.7 220.528C751.8 220.788 751.88 221.188 751.81 221.488L751.76 221.698L751.69 222.018C750.97 225.188 750.86 228.568 751.48 231.768C751.65 232.598 751.89 233.468 752.22 234.118C752.61 234.858 753.78 235.458 754.69 235.278C754.69 235.278 754.89 235.238 754.99 235.238C755.74 235.158 756.54 235.928 756.44 236.718L756.42 237.068C756.13 242.338 761.13 246.468 766.03 247.338C769.49 248.068 773.13 247.848 776.74 247.608C776.97 247.588 777.18 247.768 777.19 248.008C777.21 248.238 777.03 248.438 776.8 248.458C773.19 248.798 769.5 249.158 765.79 248.498C760.08 247.688 754.35 242.838 754.85 236.628C754.85 236.648 754.85 236.698 754.87 236.728C754.91 236.808 754.99 236.828 755.02 236.828C755.01 236.828 755.09 236.818 754.98 236.828C748.3 237.898 748.87 225.718 749.87 221.588L749.95 221.238C749.95 221.198 749.99 221.078 749.98 221.118C749.98 221.138 749.98 221.168 749.98 221.208C749.98 221.218 750.01 221.328 749.98 221.258L749.92 221.088C748.6 216.878 748.09 212.438 748.27 208.038C748.27 208.078 748.27 208.118 748.29 208.148C748.29 208.158 748.31 208.198 748.3 208.178C747.83 207.148 747.68 206.008 747.79 204.948C748.16 199.988 752.9 197.348 754.46 193.018C755.96 188.308 755.61 182.368 752.67 178.288C751.54 176.858 750.45 176.358 748.56 175.998C744.76 174.978 741.62 172.098 739.98 168.568C739 166.478 738.54 164.108 738.77 161.788C738.77 161.868 738.84 162.018 738.96 162.058C735.98 161.108 733.23 159.068 731.43 156.458C729.19 153.228 728.4 149.088 729.2 145.258C729.2 145.358 729.28 145.428 729.39 145.418C722.63 146.528 716.61 140.428 717.92 133.688C712.03 131.718 707.73 125.508 708.26 119.228C708.28 118.998 708.48 118.818 708.72 118.838C708.95 118.858 709.13 119.058 709.11 119.288L709.14 119.298Z" fill="#291B12"/>
<path d="M721.99 114.868C731.36 115.108 740.67 117.628 748.82 122.308C759.49 128.158 757.1 138.458 752.76 147.708L751.79 146.428C759.45 145.188 767.57 148.108 772.69 153.968C777.79 159.828 779.61 168.318 777.3 175.748L776.03 174.518C784.03 171.718 792.58 178.228 792 186.668L790.68 185.768C802.81 180.668 813.63 194.008 806.09 204.778L806.18 204.108L812.29 219.958C812.37 220.178 812.27 220.428 812.05 220.508C811.83 220.588 811.59 220.488 811.5 220.278L804.9 204.628L804.75 204.278L804.98 203.958C807.82 200.038 807.65 194.108 804.56 190.398C801.04 186.178 794.68 185.398 790.06 188.128C791.25 180.268 784.35 173.908 776.68 176.398L774.82 177.048L775.41 175.158C779.95 160.398 767.36 145.838 752.09 148.228L750.41 148.498L751.12 146.958C753.75 141.148 756.91 133.828 753.02 127.928C746.93 120.298 731.53 116.128 721.97 115.728C721.73 115.718 721.55 115.518 721.56 115.288C721.57 115.058 721.77 114.878 722 114.878L721.99 114.868Z" fill="#291B12"/>
<path d="M820.47 205.318C828.97 197.688 825.59 184.538 814.52 181.908C814.59 181.978 814.98 182.118 815.17 182.028C815.37 181.988 815.58 181.798 815.66 181.638C815.8 181.298 815.74 181.248 815.74 181.158L814.19 181.378C814.08 180.718 814.88 180.208 815.43 180.628L814.58 180.578C815.79 179.958 815.85 178.318 815.36 176.828C813.71 172.178 809.45 168.488 804.7 167.258L803.86 167.038C804.29 165.058 804.62 162.968 804.39 161.008C803.85 154.718 797.39 153.298 792.07 153.648V152.638C791.86 147.188 789.9 137.918 784.91 134.988C783.14 134.018 780.87 133.838 779.3 134.898L778.31 135.568C773.67 123.368 761.32 105.878 747.26 104.888C747.02 104.878 746.84 104.678 746.85 104.448C746.86 104.218 747.05 104.038 747.27 104.038C761.67 104.338 774.63 121.488 779.64 133.768L778.22 133.328C780.5 131.788 783.5 132.038 785.82 133.278C791.71 136.608 793.77 146.418 793.99 152.708L793.01 151.708C802.64 151.348 808.12 156.898 805.84 166.568L805.17 165.488C808.75 166.438 811.97 168.588 814.26 171.488C816.4 174.208 819.24 179.478 815.35 181.958L814.5 181.908C814.57 181.978 814.96 182.118 815.15 182.028C815.35 181.988 815.56 181.798 815.64 181.638C815.78 181.298 815.72 181.248 815.72 181.158L814.17 181.378C814.1 181.118 814.34 180.578 814.75 180.508C814.95 180.428 815.33 180.548 815.41 180.638L815.13 180.508C817.8 181.158 820.24 182.558 822.19 184.458C828.36 190.158 827.5 200.958 820.98 205.978C820.53 206.298 820.03 205.688 820.44 205.318H820.47Z" fill="#291B12"/>
<g style="mix-blend-mode:overlay" opacity="0.39">
<path d="M713.01 106.998C717.97 105.148 723.53 104.978 728.6 106.438C729.97 106.828 731.3 107.348 732.57 107.978C738.66 110.978 743.4 116.618 745.32 123.128C750.7 120.868 759.09 123.428 761.48 128.758C762.88 131.898 762.88 135.678 765.05 138.338C769.02 143.148 777.4 141.198 782.03 145.388C782.17 145.518 782.32 145.668 782.46 145.798C784.56 147.998 785.39 151.138 786.86 153.818C789.08 157.868 792.79 160.848 795.63 164.478C802.07 172.688 803.74 183.548 805.19 193.888C805.49 196.038 805.8 198.248 805.32 200.358C804.84 202.468 803.41 204.508 801.31 205.088C804.12 206.858 805.93 210.108 805.98 213.428C806.02 216.748 804.29 220.048 801.53 221.898C806.02 223.168 809.57 227.258 810.19 231.878C810.62 235.078 809.64 238.398 807.66 240.948C808.82 240.158 809.83 239.158 810.64 237.988L810.18 239.388C811.48 240.288 813.35 240.168 814.54 239.138C815.72 238.088 816.13 236.208 815.46 234.748C819.22 236.748 824.12 236.108 827.22 233.218C830.33 230.318 831.42 225.368 829.84 221.338C833.27 223.858 838.61 222.118 840.54 218.288C842.47 214.468 841.2 209.448 838.16 206.448C838.05 206.328 837.92 206.238 837.8 206.138C838.46 204.108 837.87 201.718 836.32 200.248C837.88 198.468 836.7 195.538 834.8 194.128C834.39 193.818 833.94 193.558 833.49 193.318C833.51 193.138 833.56 192.968 833.58 192.788C833.7 191.308 833.5 189.808 833.09 188.378C834.8 186.668 835.94 184.358 836.06 181.938C836.27 177.708 833.43 173.518 829.43 172.158C832.15 170.498 832.62 166.388 830.91 163.698C829.19 161.008 825.9 159.658 822.71 159.498C822.49 159.488 822.28 159.498 822.06 159.498C821.93 159.028 821.81 158.558 821.67 158.088C825.51 156.908 827.51 152.098 826.53 148.088C825.56 144.078 822.28 140.978 818.61 139.268C814.94 137.558 810.89 137.038 806.91 136.518C807.85 136.008 808.54 127.688 806.37 123.288C804.38 119.258 799.76 117.388 795.43 116.758C791.12 116.128 789.17 116.898 786.37 117.758C786.83 112.378 784.58 106.718 780.41 103.348C775.39 99.2984 767.95 98.8184 762.55 102.188C758.55 99.2484 752.74 99.5084 748.82 102.398C747.96 102.428 747.11 102.478 746.26 102.558C745.54 99.4184 743.16 96.6684 740.14 95.7384C736.41 94.5884 732.07 96.3084 730.08 99.7084C723.65 97.9184 716.29 101.078 713 106.998H713.01Z" fill="#FFF4D1"/>
</g>
<path d="M756.01 173.758C755.56 176.808 753.85 179.628 751.59 181.698C751.15 182.118 748.06 184.558 748.48 182.728C749.05 181.898 749.67 181.168 750.27 180.418C752.13 178.238 753.76 175.968 755.2 173.478C755.42 173.068 756.08 173.298 756.01 173.758Z" fill="#2B180F"/>
<path d="M749.63 173.749C750.01 175.679 750.91 177.299 752.17 178.749C752.27 178.869 752.44 178.889 751.97 179.459C751.8 179.679 751.59 179.859 751.37 179.989C750.71 180.399 750.78 180.119 750.65 180.039C749.97 179.219 749.4 178.319 749.04 177.309C748.62 176.159 748.48 174.879 748.78 173.709C748.84 173.479 749.08 173.339 749.31 173.389C749.48 173.429 749.6 173.569 749.63 173.739V173.749Z" fill="#2B180F"/>
<path d="M757.237 178.969C758.317 171.391 754.317 164.553 748.303 163.696C742.288 162.839 736.537 168.287 735.457 175.866C734.377 183.444 738.378 190.282 744.392 191.139C750.406 191.996 756.157 186.547 757.237 178.969Z" fill="#402316"/>
<path d="M750.47 172.678C750.41 175.678 749.09 178.608 747.15 180.858C746.76 181.328 744.04 184.039 744.25 182.189C745.58 179.709 747.23 177.548 748.45 175.028C748.87 174.208 749.24 173.368 749.64 172.498C749.82 172.078 750.49 172.228 750.47 172.678Z" fill="#2B180F"/>
<path d="M744.32 173.408C744.92 175.218 745.98 176.668 747.36 177.908C747.43 178.018 747.67 177.918 747.26 178.588C747.11 178.838 746.92 179.058 746.7 179.238C746.09 179.728 746.13 179.448 746 179.378C745.25 178.668 744.59 177.858 744.12 176.928C743.73 176.308 742.78 173.098 743.94 173.098C744.11 173.118 744.25 173.248 744.3 173.408H744.32Z" fill="#2B180F"/>
</svg>
