<svg width="941" height="699" viewBox="0 0 941 699" fill="none" xmlns="http://www.w3.org/2000/svg">
<path d="M594.68 103.788C463.14 1.07841 150.7 -87.8716 61 158.998C-29.86 409.048 96.66 551.078 361.59 595.798C421.65 608.858 532.2 630.808 649.76 610.578C732.98 596.258 839.3 491.398 831.38 398.108C799.16 294.958 680.01 170.118 594.68 103.778V103.788Z" fill="#F2F5FA"/>
<path d="M200.42 532.298L189.98 546.678C189.98 546.678 156.23 509.788 96.63 440.648C37.04 371.488 81.53 275.088 81.53 275.088C204.85 354.428 200.5 529.538 200.42 532.258C200.42 532.268 200.42 532.278 200.42 532.298Z" fill="#61BB8A"/>
<path d="M200.42 532.298L189.98 546.678C189.98 546.678 156.23 509.788 96.63 440.648C37.04 371.488 81.53 275.088 81.53 275.088C81.53 275.088 193.81 429.958 200.42 532.258C200.42 532.268 200.42 532.278 200.42 532.298Z" fill="#558F6F"/>
<path d="M188.5 525.098L186.83 539.578C186.83 539.578 147.87 526.828 77.45 501.438C7.03999 476.048 0 389.268 0 389.268C120.03 396.278 187.44 523.088 188.48 525.068C188.48 525.068 188.49 525.088 188.5 525.088V525.098Z" fill="#61BB8A"/>
<path d="M188.5 525.098L186.83 539.578C186.83 539.578 147.87 526.828 77.45 501.438C7.03999 476.048 0 389.268 0 389.268C0 389.268 142.56 454.658 188.48 525.068C188.48 525.068 188.49 525.088 188.5 525.088V525.098Z" fill="#558F6F"/>
<path d="M357.28 552.728L350.57 552.578C349.58 547.978 348.04 543.608 346.02 539.528L350.86 534.078C352.76 531.948 352.76 528.308 350.86 525.928L352.42 514.608C350.43 512.128 339.81 510.738 335.77 515.368L330.65 520.798C327.02 518.058 323.02 515.818 318.71 514.198V505.698C318.71 502.328 316.25 499.298 313.17 498.938L309.84 497.018L300.29 497.448C297.05 497.078 294.38 499.628 294.38 503.148V512.018C289.62 512.898 285.06 514.528 280.8 516.828L274.59 509.848C273.96 509.148 281.34 507.748 280.56 507.358C278.21 506.168 267.36 507.248 265.45 509.028L254.8 518.918C252.14 521.398 252.14 525.718 254.8 528.538L261.42 535.548C258.71 540.068 256.59 545.048 255.22 550.388L245.64 550.168C241.76 550.078 238.57 553.128 238.57 556.988V572.718C238.57 576.568 241.76 579.628 245.64 579.538L255.22 579.318C256.6 584.658 258.71 589.638 261.42 594.158L254.8 601.168C252.14 603.988 252.14 608.318 254.8 610.788L265.45 620.678C269.85 625.818 278.14 623.508 280.41 622.458C281.28 622.058 273.9 620.628 274.59 619.858L280.8 612.878C285.06 615.168 289.61 616.808 294.38 617.688V626.558C294.38 630.078 297.04 632.628 300.29 632.258L310.4 632.658C313.48 632.298 318.71 627.388 318.71 624.018V615.518C323.02 613.898 327.02 611.658 330.65 608.918L335.77 614.348C336.75 615.388 338.61 616.058 339.86 616.298C342.05 616.728 348.65 616.728 351.76 615.518L350.85 603.798C352.75 601.418 352.75 597.778 350.85 595.648L346.01 590.198C348.02 586.118 349.56 581.748 350.56 577.148L357.27 576.998C359.88 576.938 361.99 574.358 361.99 571.238V558.518C361.99 555.388 359.89 552.818 357.27 552.758L357.28 552.728ZM306.82 598.908C289.07 599.958 273.85 584.728 273.85 564.838C273.85 544.948 289.07 529.718 306.82 530.768C323.54 531.758 336.41 546.988 336.41 564.838C336.41 582.688 323.54 597.918 306.82 598.908Z" fill="white"/>
<path d="M368.08 552.658L361.29 552.508C360.28 547.878 358.72 543.478 356.69 539.378L361.59 533.898C363.51 531.748 363.51 528.098 361.59 525.698L353.6 515.738C351.61 513.248 348.35 512.948 346.32 515.088L341.13 520.548C337.46 517.798 333.41 515.548 329.05 513.918V505.358C329.05 501.968 326.56 498.918 323.45 498.568L310.42 497.078C307.14 496.698 304.44 499.268 304.44 502.808V511.728C299.62 512.618 295.01 514.258 290.7 516.568L284.42 509.548C281.89 506.718 277.75 506.328 275.17 508.718L264.4 518.668C261.7 521.158 261.7 525.508 264.4 528.348L271.09 535.398C268.34 539.938 266.21 544.948 264.82 550.318L255.13 550.098C251.2 550.008 247.98 553.068 247.98 556.958V572.778C247.98 576.648 251.21 579.728 255.13 579.638L264.82 579.418C266.21 584.788 268.35 589.798 271.09 594.338L264.4 601.388C261.7 604.228 261.7 608.578 264.4 611.068L275.17 621.018C277.75 623.408 281.89 623.018 284.42 620.188L290.7 613.168C295.01 615.478 299.62 617.118 304.44 618.008V626.928C304.44 630.468 307.13 633.038 310.42 632.658L323.45 631.168C326.57 630.808 329.05 627.768 329.05 624.378V615.818C333.41 614.188 337.46 611.938 341.13 609.188L346.32 614.648C348.35 616.788 351.61 616.478 353.6 613.998L361.59 604.038C363.51 601.638 363.51 597.988 361.59 595.838L356.69 590.358C358.73 586.258 360.29 581.858 361.29 577.228L368.08 577.078C370.73 577.018 372.86 574.418 372.86 571.288V558.488C372.86 555.348 370.73 552.758 368.08 552.698V552.658ZM317.01 599.118C299.05 600.168 283.65 584.848 283.65 564.848C283.65 544.848 299.05 529.528 317.01 530.578C333.93 531.568 346.96 546.898 346.96 564.848C346.96 582.798 333.94 598.128 317.01 599.118Z" fill="#E4EAF8"/>
<path d="M659.91 128.788L653.2 128.638C652.21 124.038 650.67 119.668 648.65 115.588L653.49 110.138C655.39 108.008 655.39 104.368 653.49 101.988L655.05 90.6684C653.06 88.1884 642.44 86.7984 638.4 91.4284L633.28 96.8584C629.65 94.1184 625.65 91.8784 621.34 90.2584V81.7584C621.34 78.3884 618.88 75.3584 615.8 74.9984L612.47 73.0784L602.92 73.5084C599.68 73.1384 597.01 75.6884 597.01 79.2084V88.0784C592.25 88.9584 587.69 90.5884 583.43 92.8884L577.22 85.9084C576.59 85.2084 583.97 83.8084 583.19 83.4184C580.84 82.2284 569.99 83.3084 568.08 85.0884L557.43 94.9784C554.77 97.4584 554.77 101.778 557.43 104.598L564.05 111.608C561.34 116.128 559.22 121.108 557.85 126.448L548.27 126.228C544.39 126.138 541.2 129.188 541.2 133.048V148.778C541.2 152.628 544.39 155.688 548.27 155.598L557.85 155.378C559.23 160.718 561.34 165.698 564.05 170.218L557.43 177.228C554.77 180.048 554.77 184.378 557.43 186.848L568.08 196.738C572.48 201.878 580.77 199.568 583.04 198.518C583.91 198.118 576.53 196.688 577.22 195.918L583.43 188.938C587.69 191.228 592.24 192.868 597.01 193.748V202.618C597.01 206.138 599.67 208.688 602.92 208.318L613.03 208.718C616.11 208.358 621.34 203.448 621.34 200.078V191.578C625.65 189.958 629.65 187.718 633.28 184.978L638.4 190.408C639.38 191.448 641.24 192.118 642.49 192.358C644.68 192.788 651.28 192.788 654.39 191.578L653.48 179.858C655.38 177.478 655.38 173.838 653.48 171.708L648.64 166.258C650.65 162.178 652.19 157.808 653.19 153.208L659.9 153.058C662.51 152.998 664.62 150.418 664.62 147.298V134.578C664.62 131.448 662.52 128.878 659.9 128.818L659.91 128.788ZM609.45 174.968C591.7 176.018 576.48 160.788 576.48 140.898C576.48 121.008 591.7 105.778 609.45 106.828C626.17 107.818 639.04 123.048 639.04 140.898C639.04 158.748 626.17 173.978 609.45 174.968Z" fill="white"/>
<path d="M670.71 128.718L663.92 128.568C662.91 123.938 661.35 119.538 659.32 115.438L664.22 109.958C666.14 107.808 666.14 104.158 664.22 101.758L656.23 91.7983C654.24 89.3083 650.98 89.0083 648.95 91.1483L643.76 96.6083C640.09 93.8583 636.04 91.6083 631.68 89.9783V81.4183C631.68 78.0283 629.19 74.9783 626.08 74.6283L613.05 73.1383C609.77 72.7583 607.07 75.3283 607.07 78.8683V87.7883C602.25 88.6783 597.64 90.3183 593.33 92.6283L587.05 85.6083C584.52 82.7783 580.38 82.3883 577.8 84.7783L567.03 94.7283C564.33 97.2183 564.33 101.568 567.03 104.408L573.72 111.458C570.97 115.998 568.84 121.008 567.45 126.378L557.76 126.158C553.83 126.068 550.61 129.128 550.61 133.018V148.838C550.61 152.708 553.84 155.788 557.76 155.698L567.45 155.478C568.84 160.848 570.98 165.858 573.72 170.398L567.03 177.448C564.33 180.288 564.33 184.638 567.03 187.128L577.8 197.078C580.38 199.468 584.52 199.078 587.05 196.248L593.33 189.228C597.64 191.538 602.25 193.178 607.07 194.068V202.988C607.07 206.528 609.76 209.098 613.05 208.718L626.08 207.228C629.2 206.868 631.68 203.828 631.68 200.438V191.878C636.04 190.248 640.09 187.998 643.76 185.248L648.95 190.708C650.98 192.848 654.24 192.538 656.23 190.058L664.22 180.098C666.14 177.698 666.14 174.048 664.22 171.898L659.32 166.418C661.36 162.318 662.92 157.918 663.92 153.288L670.71 153.138C673.36 153.078 675.49 150.478 675.49 147.348V134.548C675.49 131.408 673.36 128.818 670.71 128.758V128.718ZM619.64 175.178C601.68 176.228 586.28 160.908 586.28 140.908C586.28 120.908 601.68 105.588 619.64 106.638C636.56 107.628 649.59 122.958 649.59 140.908C649.59 158.858 636.57 174.188 619.64 175.178Z" fill="#E4EAF8"/>
<path d="M776.25 524.738C776.28 524.988 776.15 525.198 775.95 525.218C697.46 534.048 619.01 542.878 540.61 551.698C427.52 564.418 314.5 577.138 201.56 589.858C201.21 589.898 200.89 589.658 200.84 589.328C195.49 553.008 190.75 516.658 186.6 480.288C181.41 434.668 177.16 389.028 173.86 343.368C173.27 335.308 172.72 327.268 172.2 319.208C172.18 318.878 172.15 318.528 172.13 318.198C168.46 261.568 166.27 204.948 165.53 148.388C165.53 147.758 165.51 147.128 165.5 146.488C165.27 128.848 165.18 111.228 165.25 93.6084C165.25 93.2684 165.55 93.0184 165.9 93.0584C362.4 113.408 559.09 133.768 755.97 154.138C756.17 154.158 756.33 154.378 756.33 154.638C756.17 221.178 758.04 287.798 761.91 354.408C765.22 411.218 769.99 467.998 776.23 524.738H776.25Z" fill="white"/>
<path d="M756.42 139.188C756.35 148.638 756.33 158.098 756.34 167.548C559.15 148.678 362.12 129.808 165.25 110.948C165.23 98.2384 165.28 85.5384 165.4 72.8384C165.4 72.4984 165.7 72.2484 166.05 72.2884C362.49 94.4084 559.16 116.538 756.05 138.678C756.25 138.698 756.41 138.928 756.41 139.178L756.42 139.188Z" fill="#6BABF8"/>
<path d="M756.42 139.188C756.35 148.638 756.33 158.098 756.34 167.548C559.15 148.678 362.12 129.808 165.25 110.948C165.23 98.2384 165.28 85.5384 165.4 72.8384C165.4 72.4984 165.7 72.2484 166.05 72.2884C362.49 94.4084 559.16 116.538 756.05 138.678C756.25 138.698 756.41 138.928 756.41 139.178L756.42 139.188Z" fill="#4F8AD1"/>
<path d="M200.58 96.6083C200.57 99.9883 197.73 102.448 194.22 102.098C190.7 101.738 187.84 98.6983 187.85 95.2883C187.86 91.8883 190.74 89.4283 194.26 89.7983C197.77 90.1683 200.59 93.2183 200.58 96.5983V96.6083Z" fill="white"/>
<path d="M223.42 98.9685C223.41 102.318 220.62 104.758 217.18 104.408C213.73 104.058 210.93 101.048 210.94 97.6785C210.95 94.3085 213.77 91.8785 217.22 92.2385C220.66 92.6085 223.43 95.6185 223.41 98.9685H223.42Z" fill="white"/>
<path d="M245.8 101.288C245.79 104.608 243.06 107.018 239.68 106.678C236.3 106.338 233.55 103.358 233.56 100.018C233.57 96.6784 236.34 94.2684 239.72 94.6284C243.09 94.9884 245.8 97.9684 245.79 101.288H245.8Z" fill="white"/>
<path d="M208.6 136.779C208.65 142.259 204.11 146.329 198.42 145.859C192.7 145.389 187.99 140.529 187.94 134.989C187.89 129.459 192.53 125.389 198.25 125.909C203.94 126.429 208.56 131.289 208.6 136.769V136.779Z" stroke="#F3D9C6" stroke-width="3" stroke-miterlimit="10" stroke-linecap="round"/>
<path d="M217.78 136.968C219.09 136.578 220.32 136.748 221.57 136.778C222.81 136.838 224.06 136.888 225.3 136.948C231.47 137.278 237.76 137.778 243.84 138.738C244.68 138.968 248.31 138.998 247.77 140.338C247.68 140.528 247.5 140.658 247.31 140.708C245.11 141.128 242.01 140.728 239.78 140.748C234.8 140.508 229.86 140.028 224.93 139.438L221.24 138.968C220.39 138.778 216.74 138.708 217.37 137.278C217.46 137.118 217.61 137.008 217.77 136.958L217.78 136.968Z" fill="#E4EAF8"/>
<path d="M631.29 172.618C632.37 172.208 633.37 172.358 634.39 172.368C635.41 172.408 636.42 172.438 637.44 172.478C642.47 172.708 647.6 173.108 652.55 173.978C653.34 174.198 656.32 174.228 655.76 175.568C655.67 175.728 655.52 175.848 655.36 175.898C653.65 176.348 650.98 175.998 649.21 176.058C645.15 175.898 641.12 175.498 637.1 174.988L634.09 174.578C633.29 174.408 630.28 174.308 630.95 172.898C631.03 172.768 631.16 172.678 631.29 172.628V172.618Z" fill="#E4EAF8"/>
<path d="M661.87 175.248C662.91 174.828 663.88 174.978 664.87 174.988C665.85 175.018 666.84 175.058 667.82 175.088C672.69 175.308 677.66 175.688 682.44 176.538C683.23 176.758 686.1 176.778 685.54 178.118C685.45 178.278 685.31 178.388 685.15 178.438C683.53 178.888 680.89 178.558 679.2 178.618C675.27 178.468 671.37 178.078 667.49 177.588L664.58 177.188C663.77 177.018 660.88 176.928 661.55 175.508C661.63 175.388 661.75 175.298 661.88 175.238L661.87 175.248Z" fill="#E4EAF8"/>
<path d="M691.45 177.798C693.4 177.178 695.26 177.678 697.21 177.628C701.93 177.828 706.73 178.208 711.36 179.038C712.13 179.258 714.93 179.298 714.36 180.628C714.27 180.778 714.13 180.888 713.98 180.938C712.32 181.398 709.91 181.068 708.22 181.128C703.46 180.948 698.75 180.418 694.06 179.728C693.26 179.568 690.45 179.448 691.13 178.048C691.21 177.928 691.32 177.838 691.45 177.788V177.798Z" fill="#E4EAF8"/>
<path d="M720.09 180.268C721.98 179.638 723.78 180.138 725.67 180.088C730.24 180.278 734.89 180.648 739.38 181.458C740.15 181.678 742.85 181.708 742.28 183.048C742.19 183.198 742.06 183.298 741.91 183.348C740.32 183.808 737.96 183.488 736.33 183.558C731.72 183.388 727.16 182.878 722.62 182.198C721.82 182.038 719.1 181.928 719.79 180.518C719.87 180.408 719.98 180.318 720.09 180.268Z" fill="#E4EAF8"/>
<path d="M472.52 342.388C468.83 342.408 465.13 342.428 461.44 342.448C461.22 342.448 461.03 342.268 461.03 342.038C461.03 341.808 461.21 341.628 461.43 341.628C465.12 341.618 468.82 341.598 472.51 341.588C472.73 341.588 472.91 341.768 472.91 341.978C472.91 342.198 472.74 342.378 472.52 342.378V342.388Z" fill="#363F4A"/>
<path d="M450.36 342.508C446.67 342.528 442.97 342.548 439.28 342.568C439.04 342.568 438.85 342.378 438.85 342.138C438.85 341.898 439.04 341.708 439.28 341.708C442.97 341.698 446.67 341.678 450.36 341.668C450.59 341.668 450.78 341.858 450.78 342.088C450.78 342.318 450.6 342.508 450.36 342.508Z" fill="#363F4A"/>
<path d="M428.19 342.628C424.5 342.648 420.8 342.668 417.11 342.688C416.86 342.688 416.65 342.488 416.65 342.238C416.65 341.988 416.85 341.778 417.1 341.778C420.79 341.768 424.49 341.748 428.18 341.738C428.42 341.738 428.62 341.938 428.63 342.178C428.63 342.418 428.44 342.618 428.19 342.618V342.628Z" fill="#363F4A"/>
<path d="M406.03 342.748C402.34 342.768 398.64 342.788 394.95 342.808C394.69 342.808 394.47 342.598 394.47 342.338C394.47 342.078 394.68 341.858 394.94 341.858C398.63 341.848 402.33 341.828 406.02 341.818C406.28 341.818 406.49 342.028 406.49 342.278C406.49 342.538 406.29 342.748 406.03 342.748Z" fill="#363F4A"/>
<path d="M383.87 342.868C380.18 342.888 376.48 342.908 372.79 342.928C372.51 342.928 372.29 342.708 372.29 342.428C372.29 342.148 372.51 341.928 372.79 341.928C376.48 341.918 380.18 341.898 383.87 341.888C384.14 341.888 384.36 342.108 384.36 342.378C384.36 342.648 384.14 342.868 383.88 342.868H383.87Z" fill="#363F4A"/>
<path d="M361.71 342.988C358.02 343.008 354.32 343.028 350.63 343.048C350.34 343.048 350.11 342.819 350.1 342.529C350.1 342.239 350.33 342.009 350.62 341.999C354.31 341.989 358.01 341.968 361.7 341.958C361.98 341.958 362.21 342.189 362.22 342.469C362.22 342.749 362 342.978 361.71 342.978V342.988Z" fill="#363F4A"/>
<path d="M339.54 343.108C335.85 343.128 332.15 343.148 328.46 343.168C328.16 343.168 327.91 342.928 327.91 342.628C327.91 342.328 328.15 342.078 328.45 342.078C332.14 342.068 335.84 342.048 339.53 342.038C339.82 342.038 340.07 342.278 340.07 342.568C340.07 342.868 339.83 343.108 339.54 343.108Z" fill="#363F4A"/>
<path d="M317.38 343.228C313.69 343.248 309.99 343.268 306.3 343.288C305.99 343.288 305.73 343.038 305.73 342.718C305.73 342.408 305.98 342.148 306.29 342.148C309.98 342.138 313.68 342.118 317.37 342.108C317.68 342.108 317.93 342.358 317.93 342.668C317.93 342.978 317.68 343.228 317.38 343.228Z" fill="#363F4A"/>
<path d="M295.22 343.358C291.53 343.378 287.83 343.398 284.14 343.418C283.81 343.418 283.55 343.158 283.54 342.828C283.54 342.498 283.8 342.238 284.13 342.228C287.82 342.218 291.52 342.198 295.21 342.188C295.53 342.188 295.79 342.448 295.79 342.768C295.79 343.088 295.53 343.348 295.21 343.348L295.22 343.358Z" fill="#363F4A"/>
<path d="M273.05 343.478C269.36 343.498 265.66 343.518 261.97 343.538C261.63 343.538 261.35 343.268 261.35 342.928C261.35 342.588 261.62 342.308 261.96 342.308C265.65 342.298 269.35 342.278 273.04 342.268C273.37 342.268 273.65 342.538 273.65 342.868C273.65 343.198 273.38 343.468 273.05 343.478Z" fill="#363F4A"/>
<path d="M250.89 343.598C247.2 343.618 243.5 343.638 239.81 343.658C239.46 343.658 239.17 343.378 239.17 343.018C239.17 342.668 239.45 342.378 239.8 342.378C243.49 342.368 247.19 342.348 250.88 342.338C251.23 342.338 251.51 342.618 251.51 342.968C251.51 343.318 251.24 343.598 250.89 343.598Z" fill="#363F4A"/>
<path d="M228.73 343.718C225.04 343.738 221.34 343.758 217.65 343.778C217.29 343.778 216.99 343.488 216.98 343.118C216.98 342.748 217.27 342.458 217.64 342.448C221.33 342.438 225.03 342.418 228.72 342.408C229.08 342.408 229.37 342.698 229.37 343.058C229.37 343.418 229.09 343.708 228.73 343.708V343.718Z" fill="#363F4A"/>
<path d="M206.57 343.838C204.72 343.848 202.87 343.858 201.03 343.868C200.57 343.868 200.11 343.868 199.64 343.868C199.41 343.868 199.18 343.868 198.95 343.868C198.83 343.868 198.71 343.868 198.6 343.868C198.45 343.868 198.31 343.858 198.16 343.838C196.99 343.668 195.95 342.838 195.57 341.688C195.45 341.328 195.65 340.938 196 340.828C196.36 340.708 196.75 340.908 196.86 341.268C196.86 341.268 196.86 341.268 196.86 341.278C197.05 341.898 197.67 342.408 198.34 342.498C198.42 342.508 198.51 342.518 198.59 342.518C198.7 342.518 198.82 342.518 198.93 342.518C199.16 342.518 199.39 342.518 199.62 342.518C200.08 342.518 200.54 342.518 201.01 342.518C202.86 342.518 204.71 342.508 206.55 342.498C206.92 342.498 207.23 342.798 207.23 343.168C207.23 343.538 206.93 343.838 206.56 343.848L206.57 343.838Z" fill="#363F4A"/>
<path d="M194.69 330.478C194.44 326.788 194.19 323.098 193.95 319.418C193.92 319.028 194.22 318.688 194.61 318.658C195 318.628 195.34 318.928 195.36 319.318C195.59 323.008 195.83 326.698 196.08 330.388C196.11 330.768 195.82 331.108 195.43 331.128C195.05 331.158 194.71 330.868 194.69 330.478Z" fill="#363F4A"/>
<path d="M193.24 308.348C193.01 304.658 192.79 300.968 192.57 297.288C192.55 296.888 192.85 296.538 193.26 296.508C193.66 296.478 194.01 296.788 194.03 297.188C194.24 300.878 194.45 304.568 194.67 308.258C194.7 308.658 194.39 308.998 194 309.028C193.6 309.058 193.26 308.758 193.24 308.358V308.348Z" fill="#363F4A"/>
<path d="M191.94 286.228C191.74 282.538 191.54 278.848 191.35 275.168C191.33 274.748 191.65 274.388 192.06 274.368C192.48 274.338 192.83 274.648 192.85 275.068C193.03 278.758 193.22 282.448 193.42 286.138C193.44 286.548 193.13 286.898 192.72 286.928C192.31 286.958 191.96 286.648 191.94 286.238V286.228Z" fill="#363F4A"/>
<path d="M190.79 264.099C190.61 260.409 190.44 256.728 190.27 253.038C190.25 252.608 190.58 252.238 191.01 252.208C191.44 252.178 191.8 252.498 191.82 252.928C191.98 256.618 192.14 260.308 192.32 263.998C192.34 264.418 192.01 264.788 191.59 264.808C191.17 264.838 190.81 264.519 190.79 264.099Z" fill="#363F4A"/>
<path d="M189.79 241.978C189.64 238.288 189.49 234.608 189.34 230.918C189.32 230.478 189.67 230.098 190.11 230.068C190.55 230.038 190.92 230.368 190.94 230.808C191.07 234.498 191.22 238.178 191.36 241.868C191.38 242.298 191.04 242.678 190.6 242.708C190.16 242.738 189.8 242.408 189.78 241.978H189.79Z" fill="#363F4A"/>
<path d="M188.94 219.858C188.81 216.168 188.69 212.488 188.57 208.798C188.56 208.348 188.91 207.948 189.37 207.918C189.82 207.888 190.2 208.228 190.22 208.678C190.33 212.368 190.45 216.048 190.57 219.738C190.58 220.188 190.23 220.568 189.79 220.598C189.34 220.628 188.97 220.288 188.95 219.848L188.94 219.858Z" fill="#363F4A"/>
<path d="M188.23 197.738C188.13 194.048 188.03 190.368 187.93 186.678C187.92 186.208 188.29 185.808 188.76 185.778C189.23 185.748 189.62 186.098 189.63 186.568C189.71 190.258 189.81 193.938 189.9 197.628C189.91 198.088 189.55 198.488 189.09 198.518C188.63 198.548 188.24 198.198 188.23 197.738Z" fill="#363F4A"/>
<path d="M187.68 175.628C187.64 173.788 187.6 171.938 187.56 170.098C187.56 169.978 187.56 169.858 187.56 169.738C187.56 169.578 187.56 169.418 187.6 169.248C187.65 168.918 187.76 168.598 187.92 168.288C188.25 167.688 188.81 167.198 189.44 166.958C189.75 166.838 190.07 166.758 190.39 166.748C190.55 166.728 190.71 166.748 190.86 166.748C190.98 166.748 191.09 166.768 191.2 166.768C191.66 166.798 192.12 166.838 192.58 166.868C193.06 166.898 193.4 167.318 193.34 167.798C193.28 168.278 192.85 168.638 192.37 168.608C191.91 168.578 191.45 168.538 190.99 168.508C190.88 168.508 190.76 168.488 190.65 168.478C190.57 168.478 190.5 168.478 190.42 168.478C190.27 168.478 190.13 168.518 190.01 168.568C189.75 168.668 189.56 168.848 189.43 169.068C189.37 169.178 189.33 169.308 189.31 169.438C189.3 169.508 189.3 169.578 189.29 169.648C189.29 169.758 189.29 169.868 189.29 169.978C189.32 171.818 189.36 173.668 189.39 175.508C189.4 175.978 189.02 176.388 188.55 176.418C188.08 176.448 187.68 176.098 187.67 175.618L187.68 175.628Z" fill="#363F4A"/>
<path d="M203.59 167.658C207.26 167.918 210.93 168.178 214.61 168.438C215.1 168.468 215.45 168.898 215.39 169.388C215.33 169.878 214.89 170.248 214.4 170.218C210.73 169.948 207.06 169.678 203.39 169.408C202.91 169.368 202.56 168.948 202.62 168.468C202.68 167.988 203.12 167.618 203.6 167.658H203.59Z" fill="#363F4A"/>
<path d="M225.62 169.228C229.29 169.488 232.96 169.748 236.64 170.008C237.14 170.048 237.5 170.478 237.44 170.988C237.38 171.488 236.92 171.868 236.42 171.838C232.75 171.568 229.08 171.298 225.41 171.028C224.91 170.988 224.56 170.558 224.62 170.058C224.68 169.558 225.13 169.188 225.63 169.218L225.62 169.228Z" fill="#363F4A"/>
<path d="M247.65 170.788C251.32 171.058 254.99 171.328 258.66 171.588C259.16 171.628 259.52 172.068 259.46 172.568C259.4 173.078 258.94 173.448 258.44 173.418C254.77 173.158 251.1 172.898 247.42 172.638C246.91 172.598 246.55 172.158 246.61 171.648C246.67 171.138 247.13 170.758 247.64 170.788H247.65Z" fill="#363F4A"/>
<path d="M269.68 172.408C273.35 172.678 277.02 172.948 280.69 173.218C281.18 173.258 281.52 173.678 281.46 174.168C281.4 174.658 280.96 175.018 280.48 174.988C276.81 174.728 273.13 174.468 269.46 174.208C268.96 174.178 268.61 173.738 268.67 173.248C268.73 172.748 269.18 172.378 269.67 172.408H269.68Z" fill="#363F4A"/>
<path d="M291.7 174.018C295.37 174.288 299.04 174.558 302.71 174.828C303.18 174.858 303.51 175.268 303.46 175.738C303.4 176.208 302.98 176.558 302.51 176.528C298.84 176.268 295.16 176.008 291.49 175.748C291.01 175.718 290.67 175.298 290.73 174.818C290.79 174.338 291.22 173.978 291.7 174.008V174.018Z" fill="#363F4A"/>
<path d="M313.73 175.639C317.4 175.909 321.07 176.179 324.74 176.449C325.19 176.479 325.51 176.879 325.46 177.329C325.41 177.779 325 178.119 324.55 178.089C320.88 177.829 317.2 177.569 313.53 177.309C313.07 177.279 312.74 176.879 312.79 176.419C312.84 175.959 313.26 175.609 313.72 175.639H313.73Z" fill="#363F4A"/>
<path d="M335.76 177.258C339.43 177.528 343.1 177.798 346.77 178.068C347.2 178.098 347.51 178.478 347.46 178.918C347.41 179.358 347.02 179.678 346.58 179.648C342.91 179.388 339.23 179.128 335.56 178.868C335.12 178.838 334.8 178.448 334.85 178.008C334.9 177.568 335.3 177.228 335.75 177.258H335.76Z" fill="#363F4A"/>
<path d="M357.79 178.878C361.46 179.148 365.13 179.418 368.8 179.688C369.22 179.718 369.51 180.078 369.46 180.498C369.41 180.918 369.03 181.228 368.62 181.198C364.95 180.938 361.27 180.678 357.6 180.418C357.18 180.388 356.87 180.018 356.92 179.588C356.97 179.158 357.36 178.838 357.78 178.868L357.79 178.878Z" fill="#363F4A"/>
<path d="M379.82 180.498C383.49 180.768 387.16 181.038 390.84 181.308C391.24 181.338 391.52 181.688 391.48 182.088C391.43 182.488 391.07 182.788 390.67 182.758C387 182.498 383.32 182.238 379.65 181.978C379.24 181.948 378.95 181.598 379 181.188C379.05 180.778 379.42 180.468 379.83 180.498H379.82Z" fill="#363F4A"/>
<path d="M401.85 182.118C405.52 182.388 409.19 182.658 412.87 182.928C413.25 182.958 413.53 183.288 413.48 183.678C413.44 184.058 413.09 184.348 412.71 184.318C409.04 184.058 405.36 183.798 401.69 183.538C401.3 183.508 401.02 183.168 401.06 182.778C401.1 182.388 401.46 182.088 401.85 182.118Z" fill="#363F4A"/>
<path d="M423.88 183.738C427.55 184.008 431.22 184.278 434.9 184.548C435.26 184.578 435.52 184.898 435.48 185.258C435.44 185.628 435.11 185.898 434.74 185.868C431.07 185.608 427.39 185.348 423.72 185.088C423.35 185.058 423.08 184.738 423.12 184.358C423.16 183.988 423.5 183.698 423.87 183.728L423.88 183.738Z" fill="#363F4A"/>
<path d="M445.91 185.358C449.58 185.628 453.25 185.898 456.93 186.168C457.28 186.198 457.53 186.498 457.49 186.848C457.45 187.198 457.14 187.458 456.79 187.438C453.12 187.178 449.44 186.918 445.77 186.658C445.41 186.628 445.16 186.318 445.2 185.968C445.24 185.608 445.56 185.338 445.92 185.368L445.91 185.358Z" fill="#363F4A"/>
<path d="M468.14 187.708C468.52 188.128 468.77 188.668 468.85 189.248C468.89 189.568 468.87 189.778 468.88 190.008C468.88 190.238 468.88 190.468 468.89 190.698C468.9 191.618 468.92 192.538 468.93 193.468C468.96 195.308 468.99 197.158 469.03 198.998C469.03 199.328 468.77 199.618 468.44 199.638C468.11 199.658 467.83 199.408 467.83 199.078C467.79 197.238 467.75 195.388 467.72 193.548C467.7 192.628 467.69 191.708 467.67 190.778C467.67 190.548 467.67 190.318 467.66 190.088C467.66 189.858 467.66 189.608 467.64 189.468C467.6 189.138 467.44 188.818 467.22 188.568C466.99 188.318 467.02 187.928 467.28 187.698C467.54 187.458 467.93 187.468 468.15 187.718L468.14 187.708Z" fill="#363F4A"/>
<path d="M469.25 210.058C469.33 213.748 469.42 217.438 469.51 221.128C469.51 221.438 469.27 221.708 468.95 221.728C468.64 221.748 468.37 221.508 468.37 221.198C468.27 217.508 468.17 213.818 468.08 210.138C468.08 209.818 468.33 209.538 468.65 209.518C468.97 209.498 469.24 209.748 469.25 210.068V210.058Z" fill="#363F4A"/>
<path d="M469.8 232.198C469.9 235.888 470.01 239.578 470.13 243.268C470.13 243.568 469.91 243.818 469.61 243.838C469.32 243.858 469.06 243.628 469.06 243.338C468.93 239.648 468.81 235.958 468.7 232.268C468.7 231.958 468.93 231.698 469.24 231.678C469.55 231.658 469.8 231.888 469.81 232.198H469.8Z" fill="#363F4A"/>
<path d="M470.5 254.338C470.63 258.028 470.76 261.718 470.91 265.408C470.92 265.688 470.7 265.928 470.42 265.948C470.14 265.968 469.91 265.748 469.89 265.468C469.74 261.778 469.59 258.088 469.45 254.398C469.44 254.108 469.66 253.858 469.95 253.848C470.24 253.828 470.48 254.048 470.49 254.338H470.5Z" fill="#363F4A"/>
<path d="M471.35 276.478C471.5 280.168 471.66 283.858 471.83 287.548C471.84 287.808 471.64 288.038 471.38 288.048C471.12 288.068 470.9 287.868 470.88 287.598C470.7 283.908 470.53 280.218 470.37 276.528C470.36 276.258 470.57 276.028 470.84 276.008C471.11 275.988 471.34 276.198 471.35 276.468V276.478Z" fill="#363F4A"/>
<path d="M472.35 298.618C472.53 302.308 472.71 305.998 472.9 309.688C472.91 309.928 472.72 310.138 472.48 310.158C472.24 310.168 472.03 309.988 472.01 309.738C471.81 306.048 471.61 302.358 471.42 298.668C471.41 298.418 471.6 298.198 471.85 298.178C472.1 298.158 472.32 298.358 472.33 298.608L472.35 298.618Z" fill="#363F4A"/>
<path d="M473.49 320.758C473.69 324.448 473.9 328.138 474.12 331.828C474.13 332.058 473.96 332.248 473.73 332.268C473.5 332.278 473.31 332.108 473.29 331.878C473.06 328.188 472.84 324.498 472.63 320.808C472.62 320.568 472.8 320.368 473.03 320.358C473.27 320.348 473.47 320.528 473.48 320.758H473.49Z" fill="#363F4A"/>
<path d="M405.62 521.878C343.02 527.558 280.43 533.248 217.85 538.928C216.9 539.018 216.03 538.338 215.91 537.428C209.75 490.258 204.6 443.048 200.46 395.808C200.38 394.878 201.1 394.109 202.06 394.089C265.48 392.399 328.91 390.698 392.33 389.008C393.14 388.988 393.85 389.658 393.92 390.508C397.39 433.768 401.71 477.019 406.88 520.229C406.98 521.069 406.41 521.808 405.61 521.878H405.62Z" fill="#F2F5FA"/>
<path d="M598.65 504.348C547.54 508.988 496.44 513.628 445.35 518.268C444.58 518.338 443.87 517.728 443.78 516.898C438.79 474.448 434.62 431.968 431.28 389.478C431.22 388.648 431.79 387.948 432.58 387.928C484.3 386.548 536.01 385.168 587.73 383.788C588.4 383.768 588.98 384.378 589.04 385.148C591.9 424.398 595.45 463.638 599.71 502.858C599.79 503.618 599.33 504.288 598.67 504.348H598.65Z" fill="#F2F5FA"/>
<path d="M573.37 490.328C540.88 493.068 508.4 495.808 475.92 498.548C474.7 498.628 471.84 498.908 470.59 498.998C469.83 499.148 468.92 498.788 468.62 498.028C468.5 497.728 468.44 497.378 468.42 497.068C467.24 486.808 465.04 466.208 464.01 455.718C463.9 455.718 459.34 406.698 459.45 406.688C459.43 406.428 459.41 406.178 459.38 405.918C459.27 404.998 459.97 403.978 460.98 403.918L461.79 403.888C462.81 403.848 463.83 403.808 464.85 403.768C489.86 402.768 531.4 401.468 556.79 400.648L562.92 400.458C563.43 400.438 563.94 400.428 564.45 400.408C564.58 400.408 564.71 400.408 564.83 400.398C564.89 400.398 564.96 400.398 565.02 400.398C565.05 400.398 565.09 400.398 565.12 400.398C566.1 400.398 566.79 401.278 566.78 402.188C567.43 411.278 569.08 431.958 569.9 441.278C571 454.008 572.98 474.698 574.28 487.248C574.33 487.758 574.38 488.268 574.44 488.778C574.56 489.398 574.17 490.248 573.35 490.318L573.37 490.328ZM573.27 489.538C573.52 489.518 573.74 489.218 573.67 488.828C573.62 488.318 573.56 487.808 573.51 487.298C573.4 486.278 573.29 485.258 573.19 484.238C571.08 464.148 568.44 437.028 566.69 416.828C566.55 415.328 565.54 403.538 565.44 402.268C565.44 402.118 565.39 401.818 565.22 401.798C565 401.798 564.77 401.818 564.55 401.828C564.04 401.848 563.53 401.868 563.02 401.888C560.98 401.968 558.93 402.048 556.89 402.138C531.35 403.218 490.14 404.688 464.96 405.528C464.96 405.528 461.89 405.628 461.9 405.628C461.66 405.628 461.42 405.648 461.18 405.658C461.18 405.658 461.17 405.658 461.15 405.678C461.13 405.708 461.11 405.738 461.12 405.828C461.14 406.088 461.16 406.338 461.18 406.598C462.5 422.948 463.94 439.298 465.51 455.638C466.51 466.188 468.58 486.638 469.73 496.998C469.74 497.128 469.76 497.258 469.77 497.378C469.77 497.588 469.92 497.748 470.1 497.758C470.22 497.758 471.04 497.678 471.21 497.668C472.1 497.578 474.84 497.398 475.78 497.308L573.29 489.548L573.27 489.538Z" fill="#363F4A"/>
<path d="M754.4 423.409C754.45 424.079 754.5 424.758 754.56 425.428C754.59 425.768 754.61 426.098 754.64 426.438C754.65 426.608 754.67 426.778 754.68 426.938C754.68 427.098 754.72 427.268 754.69 427.528C754.66 427.758 754.57 427.988 754.41 428.188C754.26 428.388 753.95 428.538 753.7 428.528C753.36 428.548 753.03 428.568 752.69 428.588C752.02 428.628 751.35 428.668 750.68 428.708C747.99 428.858 745.31 429.019 742.62 429.169C742.39 429.179 742.18 428.998 742.16 428.768C742.14 428.538 742.31 428.338 742.55 428.318C745.24 428.178 747.93 428.038 750.61 427.898C751.28 427.858 751.95 427.829 752.63 427.789C752.97 427.769 753.3 427.749 753.64 427.739C753.76 427.749 753.87 427.619 753.91 427.409C753.93 427.329 753.91 427.159 753.89 426.989C753.88 426.819 753.86 426.649 753.85 426.489C753.82 426.149 753.79 425.819 753.77 425.479C753.71 424.809 753.66 424.128 753.6 423.458C753.58 423.238 753.75 423.038 753.97 423.028C754.19 423.018 754.39 423.189 754.41 423.409H754.4Z" fill="#363F4A"/>
<path d="M731.51 429.808C727.81 430.018 724.1 430.238 720.4 430.448C720.14 430.468 719.9 430.258 719.88 429.998C719.86 429.728 720.05 429.508 720.32 429.488C724.03 429.298 727.73 429.098 731.44 428.908C731.69 428.898 731.91 429.088 731.93 429.338C731.95 429.588 731.77 429.798 731.52 429.818L731.51 429.808Z" fill="#363F4A"/>
<path d="M709.28 431.078C705.58 431.288 701.87 431.508 698.17 431.718C697.87 431.738 697.61 431.508 697.59 431.208C697.57 430.908 697.78 430.658 698.08 430.638C701.79 430.448 705.49 430.248 709.2 430.058C709.48 430.048 709.73 430.258 709.75 430.538C709.77 430.818 709.57 431.058 709.29 431.078H709.28Z" fill="#363F4A"/>
<path d="M687.06 432.358C683.36 432.568 679.65 432.788 675.95 432.998C675.62 433.018 675.33 432.768 675.3 432.438C675.27 432.108 675.51 431.828 675.84 431.808C679.55 431.618 683.25 431.418 686.96 431.228C687.27 431.208 687.55 431.448 687.57 431.768C687.6 432.078 687.37 432.348 687.05 432.368L687.06 432.358Z" fill="#363F4A"/>
<path d="M664.83 433.638C661.13 433.848 657.42 434.069 653.72 434.279C653.36 434.299 653.05 434.029 653.01 433.669C652.98 433.309 653.24 432.999 653.6 432.979C657.31 432.789 661.01 432.589 664.72 432.399C665.06 432.379 665.36 432.649 665.39 432.989C665.42 433.329 665.16 433.629 664.82 433.649L664.83 433.638Z" fill="#363F4A"/>
<path d="M642.6 434.908C638.9 435.118 635.19 435.338 631.49 435.548C631.1 435.568 630.76 435.268 630.72 434.878C630.69 434.488 630.97 434.148 631.36 434.128C635.07 433.938 638.77 433.738 642.48 433.548C642.85 433.528 643.18 433.818 643.22 434.188C643.25 434.558 642.97 434.878 642.6 434.898V434.908Z" fill="#363F4A"/>
<path d="M622.75 431.418C622.42 427.708 622.1 423.998 621.78 420.278C621.74 419.858 622.06 419.498 622.48 419.468C622.9 419.448 623.27 419.768 623.31 420.188C623.61 423.898 623.91 427.618 624.22 431.328C624.25 431.738 623.95 432.078 623.55 432.108C623.15 432.128 622.79 431.818 622.75 431.418Z" fill="#363F4A"/>
<path d="M620.86 409.139C620.56 405.429 620.26 401.708 619.97 397.998C619.94 397.548 620.27 397.159 620.73 397.129C621.19 397.099 621.58 397.449 621.61 397.899C621.88 401.609 622.16 405.329 622.44 409.039C622.47 409.479 622.15 409.849 621.71 409.879C621.27 409.899 620.89 409.569 620.86 409.129V409.139Z" fill="#363F4A"/>
<path d="M619.11 386.858C619.04 385.928 618.97 384.998 618.9 384.068C618.9 384.008 618.9 383.948 618.89 383.898C618.89 383.808 618.89 383.688 618.89 383.588C618.91 383.378 618.96 383.158 619.06 382.958C619.24 382.558 619.65 382.168 620.19 382.078C620.25 382.068 620.32 382.058 620.39 382.058C620.42 382.058 620.46 382.058 620.49 382.058C620.55 382.058 620.61 382.058 620.66 382.058C620.78 382.058 620.89 382.058 621.01 382.048C621.24 382.048 621.47 382.038 621.71 382.028C623.57 381.978 625.43 381.918 627.28 381.868C627.77 381.858 628.18 382.238 628.2 382.718C628.22 383.208 627.85 383.608 627.36 383.628C625.5 383.668 623.64 383.718 621.79 383.758C621.37 383.758 620.95 383.778 620.53 383.788C620.61 383.778 620.63 383.728 620.62 383.738C620.62 383.738 620.62 383.758 620.62 383.778C620.62 383.788 620.62 383.808 620.62 383.818C620.62 383.878 620.62 383.938 620.63 383.988C620.69 384.918 620.76 385.848 620.82 386.778C620.85 387.248 620.5 387.648 620.03 387.678C619.56 387.698 619.16 387.348 619.12 386.878L619.11 386.858Z" fill="#363F4A"/>
<path d="M638.43 381.528C642.14 381.428 645.86 381.318 649.57 381.218C650.08 381.208 650.51 381.608 650.53 382.118C650.55 382.628 650.16 383.058 649.65 383.068C645.94 383.158 642.22 383.258 638.51 383.348C638.01 383.358 637.59 382.968 637.57 382.458C637.55 381.958 637.94 381.538 638.44 381.528H638.43Z" fill="#363F4A"/>
<path d="M660.72 380.938C664.43 380.848 668.15 380.758 671.86 380.668C672.34 380.658 672.75 381.038 672.77 381.528C672.79 382.018 672.42 382.418 671.93 382.428C668.22 382.538 664.5 382.638 660.79 382.748C660.29 382.758 659.87 382.368 659.85 381.868C659.83 381.368 660.21 380.958 660.71 380.938H660.72Z" fill="#363F4A"/>
<path d="M683 380.388C686.71 380.308 690.43 380.218 694.14 380.138C694.59 380.128 694.97 380.488 694.98 380.938C695 381.388 694.65 381.758 694.2 381.768C690.49 381.878 686.77 381.998 683.06 382.108C682.59 382.118 682.19 381.748 682.17 381.278C682.15 380.808 682.51 380.408 682.99 380.398L683 380.388Z" fill="#363F4A"/>
<path d="M705.29 379.898C709.01 379.818 712.72 379.738 716.44 379.658C716.83 379.658 717.15 379.958 717.16 380.338C717.17 380.718 716.88 381.038 716.5 381.048C712.79 381.168 709.07 381.288 705.36 381.408C704.94 381.418 704.59 381.098 704.57 380.678C704.55 380.258 704.87 379.908 705.29 379.898Z" fill="#363F4A"/>
<path d="M727.58 379.419C731.3 379.339 735.01 379.258 738.73 379.178C739.05 379.178 739.32 379.428 739.33 379.748C739.34 380.068 739.09 380.329 738.78 380.339C735.07 380.459 731.35 380.578 727.64 380.698C727.29 380.708 726.99 380.428 726.97 380.078C726.95 379.728 727.23 379.429 727.58 379.419Z" fill="#363F4A"/>
<path d="M749.88 378.938C750 378.938 750.07 378.918 750.35 378.958C750.57 379.008 750.76 379.118 750.91 379.248C751.2 379.518 751.33 379.868 751.37 380.208C751.4 380.678 751.43 381.148 751.46 381.618C751.52 382.548 751.58 383.478 751.63 384.408C751.75 386.268 751.87 388.128 751.99 389.988C752.01 390.248 751.81 390.468 751.55 390.488C751.29 390.498 751.06 390.298 751.05 390.038C750.91 388.178 750.78 386.318 750.65 384.468C750.58 383.538 750.51 382.608 750.45 381.678C750.42 381.218 750.38 380.758 750.35 380.298C750.34 380.178 750.28 380.068 750.22 380.018C750.12 379.968 750.27 379.988 749.94 379.998C749.93 379.998 749.91 379.998 749.9 379.998C749.61 379.998 749.37 379.768 749.36 379.478C749.36 379.188 749.58 378.948 749.87 378.948C749.87 378.948 749.89 378.948 749.9 378.948L749.88 378.938Z" fill="#363F4A"/>
<path d="M752.75 401.128C753.01 404.838 753.28 408.558 753.56 412.268C753.58 412.508 753.4 412.708 753.16 412.718C752.92 412.728 752.72 412.548 752.7 412.308C752.41 408.598 752.13 404.878 751.85 401.168C751.83 400.918 752.02 400.708 752.27 400.688C752.52 400.678 752.73 400.868 752.75 401.118V401.128Z" fill="#363F4A"/>
<path d="M759.96 485.868C760.02 486.508 760.08 487.148 760.15 487.788C760.18 488.108 760.21 488.428 760.24 488.748C760.3 489.098 760.24 489.628 759.86 489.948C759.77 490.028 759.65 490.098 759.53 490.138C759.47 490.158 759.4 490.168 759.33 490.178C759.29 490.178 759.25 490.178 759.21 490.188C759.05 490.198 758.89 490.218 758.73 490.228C758.41 490.258 758.1 490.288 757.78 490.318C757.15 490.378 756.51 490.438 755.88 490.498C753.34 490.738 750.81 490.968 748.28 491.208C748.05 491.228 747.83 491.058 747.8 490.828C747.77 490.598 747.93 490.388 748.16 490.368C750.7 490.148 753.23 489.918 755.77 489.698C756.4 489.638 757.04 489.588 757.67 489.528C757.99 489.498 758.3 489.468 758.62 489.448C758.78 489.438 758.94 489.418 759.1 489.408C759.14 489.408 759.18 489.408 759.22 489.398C759.23 489.398 759.24 489.398 759.25 489.398C759.27 489.398 759.29 489.378 759.32 489.358C759.42 489.248 759.49 489.088 759.44 488.808C759.41 488.488 759.38 488.168 759.34 487.848C759.28 487.208 759.21 486.568 759.15 485.928C759.13 485.708 759.29 485.518 759.51 485.498C759.73 485.488 759.93 485.658 759.95 485.878L759.96 485.868Z" fill="#363F4A"/>
<path d="M737.22 492.228C733.54 492.568 729.85 492.918 726.17 493.258C725.91 493.278 725.66 493.088 725.62 492.828C725.58 492.568 725.77 492.328 726.03 492.308C729.72 491.978 733.4 491.658 737.09 491.328C737.34 491.308 737.57 491.488 737.6 491.738C737.63 491.988 737.46 492.208 737.21 492.228H737.22Z" fill="#363F4A"/>
<path d="M715.12 494.288C711.44 494.628 707.75 494.978 704.07 495.318C703.78 495.348 703.5 495.128 703.46 494.828C703.42 494.528 703.62 494.268 703.92 494.238C707.61 493.918 711.29 493.588 714.98 493.258C715.26 493.238 715.52 493.438 715.56 493.718C715.6 493.998 715.4 494.248 715.13 494.268L715.12 494.288Z" fill="#363F4A"/>
<path d="M693.01 496.358C689.33 496.698 685.64 497.048 681.96 497.388C681.63 497.418 681.33 497.178 681.28 496.848C681.23 496.518 681.46 496.228 681.79 496.198C685.48 495.868 689.16 495.548 692.85 495.218C693.16 495.188 693.45 495.418 693.49 495.738C693.53 496.048 693.32 496.328 693.01 496.348V496.358Z" fill="#363F4A"/>
<path d="M670.91 498.418C667.23 498.758 663.54 499.108 659.86 499.448C659.5 499.478 659.17 499.218 659.12 498.858C659.07 498.498 659.32 498.178 659.67 498.148C663.36 497.818 667.04 497.498 670.73 497.178C671.07 497.148 671.39 497.398 671.43 497.748C671.48 498.088 671.24 498.388 670.9 498.428L670.91 498.418Z" fill="#363F4A"/>
<path d="M648.81 500.488C645.13 500.828 641.44 501.178 637.76 501.518C637.37 501.558 637.01 501.268 636.95 500.878C636.9 500.488 637.16 500.138 637.55 500.108C641.24 499.778 644.92 499.458 648.61 499.138C648.98 499.108 649.33 499.378 649.38 499.758C649.43 500.128 649.17 500.458 648.8 500.498L648.81 500.488Z" fill="#363F4A"/>
<path d="M629.09 497.468C628.69 493.758 628.29 490.048 627.9 486.338C627.86 485.918 628.16 485.548 628.58 485.528C629 485.508 629.38 485.828 629.42 486.248C629.79 489.958 630.17 493.668 630.55 497.378C630.59 497.788 630.3 498.128 629.89 498.158C629.49 498.178 629.12 497.868 629.08 497.468H629.09Z" fill="#363F4A"/>
<path d="M626.75 475.208C626.37 471.498 626 467.788 625.64 464.078C625.6 463.628 625.93 463.238 626.38 463.208C626.83 463.178 627.24 463.528 627.28 463.978C627.63 467.688 627.98 471.398 628.34 475.118C628.38 475.558 628.06 475.928 627.62 475.958C627.18 475.978 626.8 475.648 626.75 475.208Z" fill="#363F4A"/>
<path d="M624.56 452.938C624.52 452.478 624.47 452.008 624.43 451.548C624.41 451.318 624.39 451.088 624.36 450.848C624.35 450.728 624.34 450.618 624.33 450.498C624.33 450.438 624.32 450.368 624.31 450.308C624.31 450.208 624.31 450.098 624.31 449.998C624.35 449.578 624.53 449.148 624.9 448.838C625.08 448.678 625.32 448.558 625.58 448.508C625.64 448.508 625.71 448.488 625.77 448.488C625.8 448.488 625.83 448.488 625.86 448.488C625.92 448.488 625.98 448.488 626.03 448.478C626.49 448.448 626.96 448.418 627.42 448.388C629.27 448.268 631.12 448.148 632.97 448.028C633.46 447.998 633.89 448.368 633.94 448.848C633.99 449.338 633.64 449.748 633.15 449.788C631.3 449.898 629.45 450.008 627.59 450.118C627.13 450.148 626.66 450.178 626.2 450.198C626.14 450.198 626.08 450.198 626.03 450.208C626 450.208 625.97 450.208 625.94 450.208C625.94 450.208 625.95 450.208 625.96 450.208C625.99 450.208 626.02 450.188 626.03 450.178C626.05 450.158 626.03 450.178 626.03 450.218C626.11 451.098 626.18 451.968 626.26 452.848C626.3 453.318 625.96 453.718 625.49 453.748C625.02 453.768 624.61 453.418 624.56 452.948V452.938Z" fill="#363F4A"/>
<path d="M644.08 447.288C647.78 447.048 651.48 446.818 655.18 446.578C655.69 446.548 656.14 446.928 656.19 447.438C656.24 447.948 655.87 448.388 655.36 448.418C651.66 448.648 647.96 448.868 644.25 449.098C643.75 449.128 643.3 448.748 643.26 448.248C643.21 447.748 643.58 447.318 644.08 447.288Z" fill="#363F4A"/>
<path d="M666.29 445.918C669.99 445.698 673.7 445.468 677.4 445.248C677.88 445.218 678.31 445.588 678.36 446.068C678.41 446.548 678.05 446.968 677.57 446.998C673.87 447.238 670.17 447.478 666.47 447.718C665.97 447.748 665.53 447.378 665.48 446.878C665.43 446.378 665.79 445.958 666.29 445.918Z" fill="#363F4A"/>
<path d="M688.51 444.569C692.21 444.349 695.92 444.139 699.62 443.919C700.06 443.889 700.46 444.238 700.5 444.678C700.54 445.118 700.22 445.509 699.77 445.539C696.07 445.789 692.37 446.029 688.67 446.279C688.2 446.309 687.78 445.949 687.73 445.479C687.68 445.009 688.02 444.599 688.49 444.569H688.51Z" fill="#363F4A"/>
<path d="M710.73 443.288C714.43 443.078 718.14 442.868 721.84 442.648C722.22 442.628 722.56 442.918 722.59 443.298C722.62 443.678 722.35 444.008 721.97 444.028C718.27 444.278 714.57 444.528 710.87 444.778C710.46 444.808 710.09 444.488 710.04 444.078C710 443.668 710.3 443.308 710.71 443.278L710.73 443.288Z" fill="#363F4A"/>
<path d="M732.95 442.018C736.65 441.808 740.36 441.598 744.06 441.378C744.38 441.358 744.66 441.608 744.69 441.918C744.72 442.238 744.49 442.508 744.17 442.528C740.47 442.778 736.77 443.028 733.07 443.278C732.72 443.298 732.41 443.038 732.37 442.688C732.33 442.338 732.59 442.038 732.94 442.008L732.95 442.018Z" fill="#363F4A"/>
<path d="M755.51 441.018C755.83 441.278 755.99 441.628 756.04 441.968C756.06 442.208 756.08 442.448 756.1 442.698C756.14 443.158 756.17 443.628 756.21 444.088C756.29 445.018 756.36 445.948 756.44 446.878C756.59 448.738 756.75 450.588 756.91 452.448C756.93 452.708 756.74 452.928 756.48 452.938C756.22 452.948 755.99 452.748 755.97 452.488C755.8 450.628 755.63 448.778 755.46 446.918C755.37 445.988 755.29 445.058 755.21 444.138C755.17 443.678 755.13 443.208 755.08 442.748C755.06 442.528 755.04 442.308 755.02 442.078C755 441.958 754.94 441.858 754.89 441.818C754.65 441.658 754.58 441.328 754.74 441.088C754.9 440.848 755.22 440.798 755.46 440.958C755.47 440.958 755.48 440.978 755.49 440.988C755.49 440.988 755.51 440.998 755.51 441.008V441.018Z" fill="#363F4A"/>
<path d="M757.89 463.588C758.22 467.298 758.56 471.018 758.91 474.728C758.93 474.968 758.76 475.168 758.52 475.178C758.28 475.188 758.08 475.008 758.05 474.778C757.69 471.068 757.33 467.358 756.99 463.638C756.97 463.388 757.15 463.178 757.4 463.168C757.65 463.158 757.87 463.348 757.89 463.598V463.588Z" fill="#363F4A"/>
<path d="M455.81 329.238C420.74 329.228 250.61 329.048 219.39 329.038H217.91C217.68 329.038 217.28 329.028 216.99 328.928C216.04 328.648 215.27 327.878 215.05 326.898C212.71 298.038 209.14 219.578 208.64 189.628L208.57 186.678C208.57 186.428 208.56 186.188 208.55 185.938C208.54 185.688 208.55 185.238 208.69 184.908C209.05 183.808 210.2 183.068 211.31 183.118L212.08 183.158C212.92 183.218 215.6 183.378 216.49 183.438C285.98 187.858 376.18 194.078 445.84 198.718L448.78 198.918C449.27 198.948 449.76 198.988 450.25 199.018C450.72 199.028 451.57 199.138 451.96 199.548C452.69 200.098 452.94 201.108 452.88 201.978L452.89 202.718C453.21 222.618 454.45 262.108 455.41 282.408C455.68 290.038 456.75 310.408 457.15 317.838L457.48 323.738C457.53 324.718 457.59 325.708 457.65 326.688C457.69 327.118 457.73 327.838 457.38 328.358C457.07 328.888 456.44 329.258 455.81 329.248V329.238ZM455.81 328.448C456.17 328.448 456.51 328.258 456.7 327.938C456.91 327.608 456.9 327.268 456.85 326.738C456.79 325.758 456.73 324.768 456.67 323.788C456.01 313.258 454.96 293.208 454.47 282.468C453.43 261.998 452.08 222.858 451.68 202.788C451.63 201.578 451.87 200.198 450.12 200.248C449.32 200.178 446.58 200.028 445.71 199.968C375.98 195.498 285.82 189.848 216.3 185.188L213.36 184.988C212.87 184.958 212.38 184.918 211.89 184.888C211.66 184.878 211.42 184.858 211.19 184.848C211.05 184.848 210.92 184.868 210.8 184.908C210.57 184.998 210.4 185.168 210.32 185.388C210.28 185.528 210.27 185.578 210.27 185.818C210.27 186.068 210.28 186.308 210.29 186.558C210.31 187.538 210.33 188.528 210.36 189.508C210.64 215.318 214.06 294.758 215.92 319.318L216.29 325.218C216.31 325.468 216.32 325.708 216.34 325.958C216.36 326.208 216.37 326.468 216.4 326.588C216.47 326.898 216.66 327.188 216.94 327.388C249.37 328.278 419.72 328.078 455.82 328.448H455.81Z" fill="#363F4A"/>
<path d="M212.36 272.458C235.65 259.208 259.41 245.648 283 232.618C283.65 232.418 284.36 232.618 284.82 233.058C284.87 233.108 284.93 233.158 284.98 233.208C285.19 233.398 285.41 233.598 285.62 233.788C312.54 258.278 341.89 284.808 369.16 309.578C369.14 309.578 389.81 328.418 389.83 328.418C389.99 328.568 390 328.818 389.86 328.978C389.72 329.138 389.47 329.148 389.31 329.008C382.27 322.868 375.25 316.738 368.25 310.598C340.22 286.028 310.67 258.888 283.44 234.278C278.09 237.248 267.75 242.928 262.31 245.928C245.79 255.058 229.25 264.108 212.76 273.158C212.57 273.268 212.33 273.198 212.22 273.008C212.12 272.818 212.19 272.578 212.38 272.468L212.36 272.458Z" fill="#363F4A"/>
<path d="M455.1 290.748C441.86 282.478 427.27 273.108 414.12 264.628C409.69 261.758 405.27 258.878 400.85 256.008C400.85 256.008 400.88 256.008 400.9 256.008C400.78 256.078 400.66 256.148 400.54 256.218C398.93 257.138 395.95 258.918 394.32 259.858C389.77 262.498 377.65 269.518 372.96 272.238C363.45 277.688 353.94 283.128 344.38 288.428C344.19 288.538 343.95 288.468 343.84 288.278C343.74 288.088 343.8 287.858 343.98 287.748C361.05 277.228 379.54 266.338 396.97 256.208C397.55 255.868 399.08 254.988 399.64 254.658C400.06 254.368 400.71 254.098 401.23 254.248C401.81 254.388 402.01 254.638 402.41 254.868C402.94 255.218 404.39 256.168 404.94 256.528C407.09 257.938 412.84 261.718 415.07 263.178C428.12 271.818 442.57 281.328 455.52 290.078C455.7 290.198 455.75 290.448 455.62 290.628C455.5 290.808 455.26 290.858 455.08 290.748H455.1Z" fill="#363F4A"/>
<path d="M360.3 242.178C360.8 249.448 354.47 255.828 347.14 255.068C333.52 254.038 328.16 233.868 342.45 228.608C351.23 225.818 360.12 233.448 360.3 242.178ZM359.51 242.228C359.33 235.788 353.94 230.018 347.54 229.598C336.32 229.018 332.33 242.018 339.2 249.528C346.31 257.728 359.72 253.908 359.51 242.228Z" fill="#363F4A"/>
<path d="M603.85 221.548C579.34 220.098 554.84 218.648 530.34 217.198C527.57 217.038 525.27 214.378 525.2 211.258C525.2 210.898 525.18 210.538 525.18 210.188C525.11 207.068 527.31 204.688 530.08 204.868C554.59 206.478 579.1 208.078 603.61 209.688C606.17 209.858 608.28 212.408 608.34 215.398C608.34 215.738 608.35 216.088 608.36 216.428C608.42 219.408 606.41 221.708 603.86 221.558L603.85 221.548Z" fill="#F2F5FA"/>
<path d="M739.03 259.478C669.94 256.568 600.85 253.668 531.76 250.758C528.74 250.628 526.18 247.768 526.08 244.358C525.97 240.948 528.35 238.308 531.38 238.448C600.49 241.788 669.6 245.128 738.72 248.478C741.13 248.598 743.15 251.148 743.23 254.178C743.32 257.208 741.44 259.578 739.03 259.478Z" fill="#F2F5FA"/>
<path d="M659.91 287.408C617.54 286.348 575.16 285.288 532.79 284.238C529.91 284.168 527.46 281.488 527.32 278.248C527.32 278.048 527.3 277.858 527.3 277.658C527.16 274.418 529.4 271.868 532.28 271.958C574.67 273.278 617.07 274.608 659.46 275.928C661.97 276.008 664.09 278.508 664.2 281.528C664.2 281.708 664.21 281.898 664.22 282.078C664.34 285.088 662.41 287.478 659.9 287.418L659.91 287.408Z" fill="#F2F5FA"/>
<path d="M641.4 329.228C607.94 329.158 574.48 329.088 541.02 329.018C534.87 329.008 529.52 323.358 529.15 316.388C528.78 309.428 533.53 303.848 539.69 303.938C573.19 304.438 606.7 304.938 640.2 305.438C645.71 305.518 650.4 310.888 650.73 317.418C651.06 323.948 646.91 329.228 641.4 329.218V329.228Z" fill="#EEB440"/>
<path d="M250.58 408.998C254.51 446.058 258.73 483.138 262.49 520.248C262.51 520.468 262.35 520.648 262.13 520.658C261.92 520.658 261.73 520.508 261.7 520.298C257.57 492.548 254.59 464.728 252.05 436.898C251.21 427.618 250.44 418.338 249.79 409.048C249.77 408.828 249.94 408.648 250.16 408.638C250.37 408.638 250.56 408.788 250.58 408.998Z" fill="#363F4A"/>
<path d="M372.63 412.958C337.93 414.858 303.2 416.408 268.42 416.878C268.2 416.878 268.02 416.708 268.01 416.488C268.01 416.278 268.16 416.108 268.37 416.088C294.37 414.418 320.44 413.558 346.51 412.778C355.2 412.528 363.89 412.308 372.59 412.168C372.81 412.168 372.99 412.338 373 412.558C373 412.768 372.85 412.948 372.64 412.958H372.63Z" fill="#363F4A"/>
<path d="M300.22 434.278C295.25 434.868 290.25 435.218 285.25 435.488C280.25 435.748 275.24 435.918 270.2 435.658C269.98 435.648 269.8 435.458 269.81 435.238C269.81 435.048 269.96 434.888 270.14 434.868C275.11 434.148 280.1 433.858 285.11 433.658C290.11 433.468 295.13 433.358 300.16 433.488C300.63 433.488 300.7 434.238 300.22 434.278Z" fill="#363F4A"/>
<path d="M339.98 432.448C335.69 433.008 331.38 433.328 327.06 433.568C322.74 433.798 318.42 433.938 314.06 433.648C313.84 433.638 313.67 433.449 313.68 433.229C313.68 433.039 313.83 432.889 314 432.859C318.28 432.169 322.59 431.909 326.92 431.739C331.24 431.579 335.57 431.498 339.92 431.658C340.39 431.658 340.45 432.398 339.98 432.448Z" fill="#363F4A"/>
<path d="M310.72 452.318C304.32 453.018 297.89 453.508 291.46 453.888C285.03 454.268 278.58 454.568 272.1 454.428C271.88 454.428 271.7 454.238 271.7 454.018C271.7 453.818 271.84 453.658 272.03 453.628C278.42 452.788 284.85 452.368 291.29 452.058C297.73 451.738 304.18 451.518 310.65 451.518C311.13 451.518 311.22 452.258 310.72 452.308V452.318Z" fill="#363F4A"/>
<path d="M308.91 470.968C297.37 472.288 285.78 473.298 274.09 473.168C273.62 473.168 273.53 472.438 274.01 472.378C279.76 471.518 285.56 471.098 291.36 470.758C297.17 470.428 302.99 470.188 308.82 470.178C309.3 470.178 309.39 470.918 308.9 470.968H308.91Z" fill="#363F4A"/>
<path d="M298.43 490.278C292.93 491.188 287.39 491.698 281.8 491.928C279.94 491.978 278.07 491.998 276.18 491.868C275.96 491.848 275.78 491.658 275.79 491.438C275.79 491.258 275.92 491.108 276.09 491.078C279.73 490.318 283.43 489.998 287.15 489.758C290.86 489.528 294.59 489.388 298.34 489.478C298.81 489.478 298.9 490.198 298.43 490.268V490.278Z" fill="#363F4A"/>
<path d="M308.18 508.178C303.26 508.938 298.31 509.458 293.35 509.888C288.39 510.318 283.42 510.658 278.38 510.568C278.16 510.568 277.97 510.378 277.97 510.158C277.97 509.968 278.1 509.808 278.28 509.778C283.18 508.888 288.14 508.428 293.11 508.068C298.08 507.708 303.06 507.428 308.08 507.388C308.55 507.378 308.66 508.118 308.19 508.178H308.18Z" fill="#363F4A"/>
<path d="M381.7 502.278C367.68 503.908 353.6 505.148 339.49 506.128C334.78 506.408 330.07 506.678 325.34 506.808C325.12 506.808 324.93 506.638 324.91 506.418C324.89 506.218 325.04 506.038 325.23 506.018C329.89 505.388 334.58 504.908 339.26 504.428C348.64 503.548 358.04 502.858 367.45 502.258C372.15 501.958 376.87 501.688 381.59 501.498C382.06 501.478 382.21 502.228 381.69 502.288L381.7 502.278Z" fill="#363F4A"/>
<path d="M235.68 418.108C227.95 418.998 220.19 419.558 212.37 418.988C212.15 418.968 211.98 418.778 212 418.558C212.01 418.368 212.15 418.228 212.32 418.198C216.17 417.558 220.05 417.358 223.94 417.238C227.83 417.128 231.72 417.108 235.63 417.318C236.1 417.328 236.15 418.058 235.68 418.108Z" fill="#363F4A"/>
<path d="M228.88 437.568C224.06 438.388 219.15 438.888 214.24 438.238C214.02 438.198 213.86 437.988 213.89 437.768C213.91 437.608 214.03 437.478 214.18 437.448C216.57 436.838 219 436.668 221.46 436.588C223.9 436.508 226.35 436.518 228.82 436.768C229.27 436.798 229.32 437.488 228.88 437.558V437.568Z" fill="#363F4A"/>
<path d="M239.46 456.208C231.77 457.228 224.04 457.918 216.23 457.478C216.01 457.458 215.84 457.268 215.84 457.048C215.84 456.858 215.98 456.718 216.15 456.688C219.98 455.988 223.84 455.718 227.72 455.538C231.6 455.368 235.48 455.278 239.38 455.418C239.85 455.418 239.92 456.148 239.45 456.208H239.46Z" fill="#363F4A"/>
<path d="M569.21 401.598C569.36 403.568 568.09 405.218 566.36 405.288C564.63 405.358 563.09 403.808 562.94 401.828C562.79 399.848 564.07 398.198 565.8 398.138C567.53 398.078 569.06 399.628 569.21 401.598Z" fill="#363F4A"/>
<path d="M463.7 405.368C463.87 407.448 462.46 409.188 460.53 409.268C458.6 409.338 456.89 407.708 456.72 405.618C456.55 403.528 457.98 401.788 459.91 401.718C461.84 401.648 463.53 403.288 463.71 405.368H463.7Z" fill="#363F4A"/>
<path d="M577.28 489.608C577.48 491.568 576.27 493.268 574.55 493.418C572.83 493.558 571.27 492.088 571.06 490.118C570.85 488.148 572.08 486.448 573.8 486.308C575.52 486.168 577.07 487.648 577.28 489.608Z" fill="#363F4A"/>
<path d="M472.68 498.178C472.91 500.248 471.55 502.048 469.64 502.208C467.73 502.368 465.99 500.818 465.76 498.748C465.53 496.678 466.9 494.868 468.81 494.718C470.72 494.568 472.45 496.118 472.68 498.188V498.178Z" fill="#363F4A"/>
<path d="M510.37 464.958C504.33 465.508 498.3 466.048 492.26 466.598C491.55 469.718 490.84 472.838 490.14 475.958C486.8 476.308 483.46 476.648 480.12 476.998C484.06 460.608 488.13 444.208 492.31 427.808C495.88 427.678 499.45 427.548 503.03 427.418C509.71 442.458 516.48 457.488 523.37 472.518C520.31 472.838 517.25 473.148 514.2 473.468C512.92 470.628 511.65 467.788 510.38 464.958H510.37ZM507.19 457.718C504.35 451.338 501.52 444.948 498.71 438.558C497.12 445.298 495.55 452.028 494 458.768C498.39 458.418 502.79 458.068 507.18 457.718H507.19Z" fill="#61BB8A"/>
<path d="M526.17 444.258C527.25 441.368 528.88 439.108 531.04 437.478C533.18 435.858 535.65 434.988 538.43 434.848C540.84 434.728 542.97 435.158 544.85 436.118C546.72 437.078 548.25 438.318 549.45 439.848C549.3 438.198 549.15 436.548 549 434.898C551.63 434.768 554.26 434.638 556.88 434.498C557.9 445.908 558.98 457.318 560.12 468.728C557.51 468.998 554.91 469.268 552.31 469.538C552.14 467.858 551.97 466.168 551.8 464.488C550.95 466.208 549.68 467.688 547.99 468.938C546.29 470.188 544.26 470.948 541.87 471.198C539.16 471.478 536.59 470.978 534.17 469.668C531.73 468.358 529.69 466.358 528.07 463.658C526.43 460.948 525.43 457.758 525.07 454.078C524.71 450.438 525.07 447.168 526.17 444.268V444.258ZM548.96 446.848C548.06 445.368 546.93 444.268 545.56 443.528C544.18 442.788 542.74 442.468 541.24 442.558C539.73 442.648 538.37 443.138 537.15 444.028C535.93 444.918 534.99 446.168 534.33 447.788C533.67 449.408 533.44 451.288 533.65 453.418C533.86 455.558 534.45 457.388 535.41 458.928C536.37 460.458 537.55 461.588 538.94 462.318C540.33 463.048 541.75 463.338 543.22 463.208C544.72 463.068 546.07 462.528 547.28 461.598C548.49 460.668 549.39 459.408 550 457.818C550.61 456.228 550.8 454.378 550.6 452.248C550.4 450.118 549.85 448.328 548.95 446.848H548.96Z" fill="#61BB8A"/>
<path d="M339.52 455.558C334.95 460.228 330.21 464.778 325.45 469.228C325.29 469.378 325.13 469.528 324.97 469.678C324.97 469.678 324.95 469.698 324.94 469.708C324.96 469.708 324.99 469.658 325 469.638C325.03 469.578 325.05 469.558 325.03 469.498C325.03 469.478 325.01 469.458 324.98 469.438C324.97 469.418 324.88 469.358 324.96 469.418C325.15 469.538 325.34 469.668 325.53 469.788C328.12 471.478 330.89 473.348 333.43 475.108C336.4 477.198 339.37 479.288 342.27 481.508C342.45 481.648 342.49 481.898 342.36 482.068C342.24 482.228 342.02 482.258 341.85 482.168C337.12 479.448 332.52 476.548 327.96 473.558C326.77 472.748 324.84 471.558 323.71 470.678C323.09 470.028 323.06 468.958 323.69 468.358C323.69 468.358 323.71 468.338 323.72 468.328C323.88 468.178 324.04 468.038 324.2 467.888C329.02 463.488 333.93 459.128 338.97 454.958C339.33 454.648 339.86 455.208 339.52 455.548V455.558Z" fill="#363F4A"/>
<path d="M362.95 480.088C367.31 475.478 371.86 470.978 376.44 466.568L376.9 466.128C376.9 466.128 376.92 466.108 376.93 466.098C376.93 466.098 376.92 466.108 376.91 466.118C376.83 466.218 376.8 466.288 376.9 466.398C374.51 464.818 371.31 462.568 368.75 460.748C365.87 458.688 363.04 456.578 360.26 454.388C360.09 454.248 360.05 453.998 360.18 453.828C360.3 453.668 360.52 453.638 360.69 453.738C363.74 455.538 366.72 457.418 369.68 459.358C371.81 460.748 374.16 462.348 376.28 463.788C376.64 464.038 377.01 464.288 377.37 464.538C377.7 464.788 378.24 465.058 378.44 465.478C378.77 466.098 378.74 466.848 378.29 467.368C378.23 467.428 377.8 467.848 377.72 467.908C373.06 472.238 368.33 476.548 363.5 480.668C363.15 480.978 362.6 480.428 362.94 480.078L362.95 480.088Z" fill="#363F4A"/>
<path d="M356.42 441.358C354.44 455.118 352.17 468.808 349.71 482.428C348.84 486.958 347.99 491.488 346.99 495.988C346.94 496.198 346.73 496.328 346.52 496.268C346.32 496.218 346.19 496.018 346.21 495.828C346.7 491.228 347.36 486.648 348.03 482.078C349.44 472.948 351.07 463.858 352.83 454.778C353.71 450.238 354.63 445.708 355.64 441.198C355.74 440.738 356.49 440.858 356.42 441.368V441.358Z" fill="#363F4A"/>
<g style="mix-blend-mode:multiply" opacity="0.68">
<path d="M236.64 318.938C236.64 319.048 236.59 319.138 236.51 319.138C215.08 319.158 193.64 319.178 172.21 319.198C172.17 318.868 172.11 318.518 172.07 318.188C164 261.638 161.84 204.848 165.55 148.368C187.92 150.328 210.29 152.288 232.67 154.238C232.75 154.238 232.82 154.338 232.81 154.458C229.94 209.208 231.22 264.188 236.64 318.918V318.938Z" fill="#E4EAF8"/>
</g>
<g style="mix-blend-mode:multiply" opacity="0.68">
<path d="M253.28 472.699C253.38 473.539 252.83 474.279 252.03 474.349C230.22 476.329 208.41 478.309 186.61 480.289C177.83 434.739 173.53 388.959 173.72 343.369C197.21 342.749 220.71 342.119 244.2 341.499C245.02 341.469 245.66 342.149 245.65 342.989C245.01 386.159 247.55 429.509 253.27 472.699H253.28Z" fill="#E4EAF8"/>
</g>
<path d="M237.9 124.838C235.94 172.118 237.3 219.558 241.98 266.798C241.98 266.898 241.94 266.978 241.86 266.978C178.78 267.048 115.7 267.108 52.62 267.178C52.58 267.218 47.96 227.458 47.02 187.708C45.49 147.948 47.63 108.198 47.62 108.228C47.62 108.118 47.71 108.028 47.81 108.038C111.08 113.568 174.4 119.108 237.76 124.648C237.83 124.648 237.89 124.738 237.89 124.838H237.9Z" fill="#D4EFFF"/>
<path d="M237.9 124.838C235.94 172.118 237.3 219.558 241.98 266.798C241.98 266.898 241.94 266.978 241.86 266.978C178.78 267.048 115.7 267.108 52.62 267.178C52.58 267.218 47.96 227.458 47.02 187.708C45.49 147.948 47.63 108.198 47.62 108.228C47.62 108.118 47.71 108.028 47.81 108.038C111.08 113.568 174.4 119.108 237.76 124.648C237.83 124.648 237.89 124.738 237.89 124.838H237.9Z" fill="#8CC1ED"/>
<path d="M107.76 201.508C103.01 197.518 98.31 193.668 94.12 190.338C105.45 181.558 114.61 174.178 122.91 167.128C123.75 166.428 123.87 165.228 123.19 164.338C122.5 163.428 121.3 163.228 120.41 163.848C111.14 170.168 101.41 177.218 89.78 186.008L88.78 186.758L88.69 186.828C87.82 187.508 87.2699 188.518 87.1399 189.678C86.9999 190.898 87.35 192.148 88.12 193.098L88.25 193.238C89.6 194.498 91.6099 196.098 93.3799 197.508C94.3099 198.248 95.19 198.948 95.94 199.568C105.4 207.118 113.38 213.158 121.06 218.578C121.42 218.828 121.84 218.958 122.25 218.958C122.81 218.958 123.35 218.728 123.75 218.298C124.49 217.478 124.42 216.178 123.6 215.408C118.45 210.638 113.06 206.038 107.78 201.528L107.76 201.508Z" fill="#6BABF8"/>
<path d="M200.96 193.568C200.6 192.588 199.79 191.928 199.14 191.398C198.99 191.278 198.85 191.168 198.7 191.028L196.74 189.388C193.04 186.328 188.73 182.778 184.87 179.708C179.04 175.058 173.72 171.008 168.62 167.318C167.79 166.708 166.63 166.818 165.93 167.558C165.16 168.368 165.21 169.668 166.03 170.458C170.65 174.858 175.61 179.358 181.2 184.198C184.93 187.408 190.04 191.768 194.29 195.238C183.26 204.058 174.46 211.378 166.64 218.248C165.82 218.958 165.72 220.158 166.41 221.038C166.84 221.578 167.44 221.858 168.05 221.858C168.45 221.858 168.85 221.738 169.19 221.488C177.86 215.388 186.97 208.618 198.7 199.578C198.88 199.448 199.81 198.708 200.02 198.528C201.34 197.268 201.7 195.298 200.96 193.568Z" fill="#6BABF8"/>
<path d="M156.77 139.808C155.69 139.508 154.62 140.068 154.29 141.108C151.79 148.838 149.24 157.188 146.48 166.648C140.95 185.548 136.35 202.378 132.4 218.108C130.17 227.308 128.18 235.628 126.45 244.178C126.26 245.168 126.83 246.178 127.78 246.528C128.01 246.618 128.25 246.658 128.5 246.658C128.81 246.658 129.11 246.588 129.39 246.458C129.88 246.218 130.25 245.798 130.42 245.268C133.01 237.218 135.4 228.968 137.71 220.988L138.07 219.748C145.85 191.748 152.45 166.408 158.25 142.268C158.51 141.168 157.88 140.108 156.79 139.808H156.77Z" fill="#6BABF8"/>
<path d="M261.3 455.778C202.94 461.078 144.63 466.378 86.37 471.668C85.48 471.748 84.66 471.118 84.54 470.268C78.16 426.318 75.05 382.188 75.2 338.228C75.2 337.368 75.94 336.648 76.84 336.628C136.12 335.048 195.4 333.478 254.69 331.908C255.45 331.888 256.05 332.508 256.04 333.298C255.44 373.548 257.59 413.958 262.47 454.248C262.57 455.028 262.04 455.718 261.29 455.788L261.3 455.778Z" fill="#D7F2E3"/>
<path d="M261.3 455.778C202.94 461.078 144.63 466.378 86.37 471.668C85.48 471.748 84.66 471.118 84.54 470.268C78.16 426.318 75.05 382.188 75.2 338.228C75.2 337.368 75.94 336.648 76.84 336.628C136.12 335.048 195.4 333.478 254.69 331.908C255.45 331.888 256.05 332.508 256.04 333.298C255.44 373.548 257.59 413.958 262.47 454.248C262.57 455.028 262.04 455.718 261.29 455.788L261.3 455.778Z" fill="#9FD4B7"/>
<path d="M134.47 380.388C134.01 394.018 134.51 407.708 135.96 421.338C133.27 421.518 130.57 421.708 127.88 421.888C127.25 416.038 126.79 410.188 126.5 404.328C120.57 404.628 114.65 404.938 108.72 405.238C109.03 411.188 109.51 417.148 110.18 423.088C107.35 423.278 104.52 423.478 101.69 423.668C100.08 409.598 99.48 395.458 99.91 381.378C102.76 381.298 105.62 381.218 108.47 381.128C108.29 386.878 108.28 392.628 108.45 398.378C114.38 398.108 120.32 397.848 126.25 397.578C126.11 391.918 126.13 386.258 126.31 380.608C129.03 380.528 131.74 380.448 134.46 380.368L134.47 380.388Z" fill="#61BB8A"/>
<path d="M168.74 379.398C168.66 381.538 168.61 383.668 168.57 385.808C165.18 385.928 161.8 386.048 158.41 386.168C158.26 397.348 158.74 408.548 159.87 419.708C157.3 419.888 154.72 420.058 152.15 420.238C150.99 408.988 150.49 397.698 150.63 386.438C147.12 386.558 143.62 386.688 140.11 386.808C140.14 384.608 140.19 382.418 140.26 380.218C149.75 379.948 159.24 379.668 168.73 379.398H168.74Z" fill="#61BB8A"/>
<path d="M213.38 378.108C212.86 390.718 213.15 403.378 214.27 415.998C211.96 416.158 209.65 416.308 207.35 416.468C206.61 408.198 206.21 399.918 206.17 391.638C203.06 400.128 200.32 408.628 197.94 417.108C196.14 417.228 194.33 417.358 192.53 417.478C188.49 409.228 184.8 400.958 181.46 392.688C181.53 401.168 181.97 409.668 182.78 418.138C180.32 418.308 177.86 418.478 175.4 418.638C174.12 405.508 173.73 392.348 174.22 379.228C177.03 379.148 179.85 379.068 182.66 378.988C186.14 388.438 190.09 397.918 194.49 407.378C197.68 397.688 201.35 387.998 205.5 378.328C208.13 378.248 210.75 378.178 213.38 378.098V378.108Z" fill="#61BB8A"/>
<path d="M227.29 409.138C230.92 408.918 234.54 408.689 238.17 408.469C238.29 410.429 238.43 412.389 238.6 414.339C232.73 414.739 226.87 415.139 221 415.539C219.91 402.999 219.63 390.429 220.16 377.909C222.42 377.839 224.68 377.778 226.94 377.708C226.49 388.168 226.61 398.648 227.29 409.128V409.138Z" fill="#61BB8A"/>
<path d="M283.8 616.708C237.65 622.568 191.65 628.408 145.8 634.228C145.1 634.318 144.42 633.838 144.28 633.158C136.87 598.258 132.03 563.088 129.79 527.928C129.75 527.238 130.29 526.638 131 526.598C177.92 523.588 224.94 520.578 272.08 517.558C272.68 517.518 273.2 517.998 273.23 518.638C274.86 550.968 278.68 583.308 284.67 615.448C284.79 616.068 284.4 616.638 283.81 616.718L283.8 616.708Z" fill="#F7E8C5"/>
<path d="M283.8 616.708C237.65 622.568 191.65 628.408 145.8 634.228C145.1 634.318 144.42 633.838 144.28 633.158C136.87 598.258 132.03 563.088 129.79 527.928C129.75 527.238 130.29 526.638 131 526.598C177.92 523.588 224.94 520.578 272.08 517.558C272.68 517.518 273.2 517.998 273.23 518.638C274.86 550.968 278.68 583.308 284.67 615.448C284.79 616.068 284.4 616.638 283.81 616.718L283.8 616.708Z" fill="#F0D18E"/>
<path d="M160.56 566.888C162.28 563.258 164.83 560.368 168.11 558.208C171.36 556.078 175.04 554.898 179.09 554.648C183.76 554.358 187.83 555.338 191.35 557.548C194.83 559.738 197.34 562.908 198.97 567.048C195.9 567.308 192.83 567.578 189.76 567.838C188.67 565.878 187.26 564.448 185.48 563.558C183.7 562.668 181.67 562.298 179.39 562.468C176.93 562.648 174.76 563.408 172.9 564.758C171.03 566.108 169.62 567.928 168.7 570.208C167.78 572.498 167.48 575.138 167.8 578.098C168.12 581.018 169 583.528 170.39 585.628C171.78 587.718 173.54 589.238 175.65 590.208C177.74 591.168 180.01 591.488 182.43 591.188C184.68 590.908 186.56 590.138 188.11 588.888C189.64 587.638 190.73 585.948 191.39 583.798C194.43 583.448 197.48 583.108 200.53 582.758C199.76 587.208 197.98 590.848 195.06 593.678C192.12 596.548 188.38 598.308 183.77 598.938C179.81 599.488 176.01 599.038 172.41 597.568C168.77 596.088 165.67 593.738 163.2 590.518C160.71 587.278 159.18 583.438 158.67 579.018C158.17 574.588 158.81 570.538 160.55 566.888H160.56Z" fill="#EEB440"/>
<path d="M214.74 593.208C212.51 592.508 210.63 591.308 209.13 589.608C207.62 587.898 206.68 585.778 206.32 583.238C209.02 582.928 211.72 582.618 214.42 582.298C214.73 583.968 215.45 585.238 216.55 586.088C217.65 586.948 219.04 587.268 220.7 587.058C222.39 586.848 223.65 586.228 224.49 585.198C225.32 584.178 225.65 582.938 225.47 581.478C225.33 580.288 224.89 579.348 224.15 578.648C223.41 577.948 222.53 577.438 221.5 577.098C220.47 576.758 219.05 576.408 217.24 576.048C214.76 575.518 212.71 574.948 211.12 574.338C209.51 573.728 208.08 572.688 206.83 571.228C205.58 569.768 204.84 567.728 204.66 565.108C204.49 562.648 204.94 560.458 206 558.558C207.05 556.658 208.58 555.168 210.58 554.078C212.57 552.988 214.84 552.378 217.39 552.218C221.17 551.988 224.23 552.798 226.61 554.658C228.97 556.498 230.34 559.178 230.79 562.718C228.17 562.938 225.55 563.148 222.93 563.368C222.77 561.988 222.18 560.888 221.15 560.058C220.11 559.228 218.77 558.868 217.12 558.988C215.67 559.098 214.53 559.588 213.7 560.478C212.87 561.368 212.5 562.598 212.6 564.158C212.67 565.258 213.07 566.138 213.78 566.798C214.49 567.458 215.36 567.978 216.36 568.338C217.37 568.698 218.76 569.088 220.56 569.508C222.98 570.058 224.95 570.648 226.48 571.268C228.01 571.888 229.36 572.908 230.55 574.318C231.73 575.728 232.45 577.658 232.74 580.118C232.99 582.238 232.76 584.268 232.04 586.208C231.32 588.158 230.12 589.798 228.4 591.138C226.67 592.488 224.5 593.348 221.86 593.708C219.33 594.058 216.96 593.888 214.74 593.188V593.208Z" fill="#EEB440"/>
<path d="M245.3 589.068C243.31 588.388 241.64 587.248 240.3 585.638C238.96 584.018 238.13 582.008 237.82 579.608C240.23 579.328 242.64 579.048 245.05 578.768C245.32 580.348 245.96 581.548 246.94 582.368C247.92 583.178 249.16 583.498 250.65 583.308C252.17 583.118 253.3 582.538 254.05 581.578C254.8 580.618 255.1 579.448 254.95 578.068C254.82 576.948 254.44 576.048 253.78 575.388C253.12 574.728 252.33 574.228 251.41 573.908C250.49 573.588 249.21 573.248 247.6 572.898C245.38 572.388 243.56 571.838 242.13 571.248C240.7 570.658 239.42 569.678 238.31 568.298C237.2 566.908 236.55 564.978 236.4 562.508C236.26 560.188 236.67 558.128 237.62 556.328C238.56 554.538 239.94 553.138 241.73 552.108C243.51 551.088 245.54 550.508 247.82 550.368C251.21 550.158 253.94 550.938 256.06 552.708C258.17 554.458 259.38 556.998 259.77 560.348C257.42 560.538 255.07 560.738 252.73 560.928C252.6 559.628 252.07 558.578 251.15 557.798C250.22 557.008 249.03 556.668 247.55 556.778C246.25 556.878 245.23 557.338 244.48 558.168C243.73 558.998 243.39 560.158 243.48 561.638C243.54 562.678 243.89 563.508 244.52 564.138C245.16 564.768 245.92 565.258 246.82 565.598C247.72 565.938 248.97 566.318 250.57 566.718C252.73 567.248 254.5 567.808 255.87 568.408C257.24 568.998 258.44 569.968 259.5 571.318C260.56 572.658 261.2 574.488 261.44 576.818C261.66 578.828 261.44 580.738 260.79 582.578C260.14 584.418 259.05 585.958 257.51 587.218C255.96 588.478 254.01 589.278 251.64 589.608C249.37 589.918 247.25 589.748 245.27 589.068H245.3Z" fill="#EEB440"/>
<g style="mix-blend-mode:multiply" opacity="0.68">
<path d="M563.46 322.528L558.11 233.618C558.05 232.678 557.3 231.868 556.43 231.808L316.45 216.128C315.36 216.058 314.53 216.858 314.6 217.908L320.46 304.898L320.42 304.918H320.46L324.07 358.528C324.14 359.578 325.07 360.418 326.16 360.428L497.95 360.788L564.21 360.928C565.08 360.928 565.73 360.178 565.67 359.238L563.46 322.528Z" fill="#E4EAF8"/>
</g>
<path d="M578.3 280.818L579.18 295.388L581.39 332.098C581.45 333.028 580.79 333.788 579.92 333.778L513.65 333.638L341.87 333.288C340.79 333.288 339.86 332.438 339.79 331.388L336.18 277.758L333.22 233.818" fill="white"/>
<path d="M333.21 233.818L330.31 190.768C330.24 189.718 331.06 188.918 332.16 188.998L572.13 204.678C573 204.738 573.76 205.538 573.81 206.478L578.29 280.818" fill="white"/>
<path d="M332.36 233.878C331.77 226.358 330.24 207.148 329.69 199.888L329.25 194.218L329.03 191.388C328.97 190.688 328.93 189.968 329.28 189.308C329.83 188.148 331.14 187.528 332.35 187.658C332.82 187.688 334 187.748 334.48 187.778C336.15 187.878 341.22 188.158 342.99 188.258C418.57 192.688 494.34 197.418 569.85 202.768L571.27 202.868L571.98 202.918H572.16L572.43 202.958C572.68 202.988 572.92 203.048 573.15 203.128C574.8 203.718 575.62 205.338 575.57 206.968L575.86 212.648L577.04 235.348C577.93 248.558 578.4 267.378 579.15 280.768C579.17 281.238 578.81 281.638 578.34 281.658C577.88 281.678 577.49 281.328 577.45 280.868C575.79 259.738 573.96 233.978 572.54 212.838L572.15 207.168L572.13 206.818C572.13 206.718 572.11 206.528 572.11 206.568C572.11 206.548 572.1 206.518 572.08 206.488C572.01 206.368 571.95 206.398 572.03 206.408C492.41 201.838 411.25 195.788 331.68 190.488C331.65 190.528 331.64 190.608 331.64 190.678V190.848L331.67 191.198L331.83 194.038C332.03 197.608 332.6 207.358 332.81 211.058L334.07 233.758C334.1 234.228 333.74 234.628 333.27 234.658C332.81 234.688 332.41 234.338 332.37 233.878H332.36Z" fill="#D2D4D9"/>
<path d="M513.65 333.638L341.87 333.288C340.79 333.288 339.86 332.438 339.79 331.388L336.18 277.758L405.72 238.508C406.07 238.308 406.55 238.379 406.89 238.679L513.66 333.638H513.65Z" fill="#61BB8A"/>
<path d="M581.38 332.098C581.44 333.028 580.78 333.788 579.91 333.778L513.64 333.638L468 293.058L523.69 260.208C523.96 260.048 524.3 260.068 524.59 260.258L579.16 295.398L581.37 332.108L581.38 332.098Z" fill="#61BB8A"/>
<path d="M581.38 332.098C581.44 333.028 580.78 333.788 579.91 333.778L513.64 333.638L468 293.058L523.69 260.208C523.96 260.048 524.3 260.068 524.59 260.258L579.16 295.398L581.37 332.108L581.38 332.098Z" fill="#589473"/>
<path d="M482.81 247.198C483.25 254.258 478.06 259.768 471.18 259.518C464.25 259.268 458.23 253.268 457.78 246.128C457.33 238.988 462.62 233.468 469.56 233.808C476.5 234.148 482.37 240.138 482.82 247.198H482.81Z" fill="#EEB440"/>
<path d="M415.65 245.908C448.83 274.568 481.78 303.508 513.93 333.318C514.1 333.478 514.11 333.748 513.95 333.918C513.79 334.088 513.54 334.098 513.36 333.948C488.3 312.658 463.81 290.698 439.38 268.688C431.24 261.348 423.13 253.968 415.07 246.538C414.9 246.378 414.89 246.108 415.05 245.938C415.21 245.768 415.47 245.758 415.64 245.908H415.65Z" fill="#394740"/>
<path d="M940.34 698.988H839.31L829.6 646.578L826.5 698.988H726.81C718.98 602.358 726.56 478.408 726.56 478.408C726.56 478.408 796.02 451.018 846.59 452.248C864.54 452.688 877.45 405.378 886.69 415.528C921.98 454.278 928.18 574.828 929.36 589.178C930.54 603.528 940.34 698.988 940.34 698.988Z" fill="#E4EAF8"/>
<path d="M940.34 698.988H839.31L829.6 646.578L826.5 698.988H774.53C766.26 564.478 786.79 518.038 786.79 518.038C786.79 518.038 816.49 484.778 846.59 452.258C864.54 452.698 877.45 405.388 886.69 415.538C921.98 454.288 928.18 574.838 929.36 589.188C930.54 603.538 940.34 698.998 940.34 698.998V698.988Z" fill="#ABB0BA"/>
<path d="M829.17 646.568C828.83 634.838 828.76 622.548 828.77 610.828C830.97 606.018 834.25 599.288 836.56 594.448C839.2 589.088 841.85 583.738 844.65 578.458C844.76 578.248 845.02 578.168 845.23 578.278C845.43 578.378 845.51 578.618 845.42 578.818C843.12 584.338 840.67 589.788 838.21 595.228C835.98 600.048 832.89 606.748 830.61 611.458L830.7 611.048C830.65 619.608 830.5 629.088 830.29 637.688C830.2 640.648 830.13 643.608 830.01 646.568C829.99 647.078 829.17 647.128 829.16 646.568H829.17Z" fill="#131D2E"/>
<path d="M828.94 228.738C828.94 228.738 822.39 230.728 802.16 234.498C781.94 238.258 759 232.348 759.01 232.348C759.99 226.588 759.81 219.518 759.28 212.648C758.2 198.988 755.87 186.168 755.87 186.168C758.84 184.708 761.81 183.248 764.79 181.778C779.35 170.708 794.37 159.658 809.85 148.638C813.51 175.248 819.87 202.088 828.93 228.728L828.94 228.738Z" fill="#A16147"/>
<path d="M777.94 193.768C771.57 200.068 765.35 206.358 759.27 212.648C758.19 198.988 755.86 186.168 755.86 186.168C758.83 184.708 761.8 183.248 764.78 181.778C767.87 181.618 769.96 181.558 770.23 181.668C771.31 182.168 777.89 193.768 777.94 193.768Z" fill="#703A29"/>
<path d="M800.65 143.028C801.59 149.248 798.56 162.108 794.02 173.608C790.89 181.528 787.04 188.778 783.27 192.768C780.62 195.568 776.87 198.328 772.53 200.788C761.66 206.968 747.16 211.318 737.54 209.678C732.76 208.858 728.78 204.458 725.54 197.838C719.7 185.888 716.31 166.738 715.06 148.558C715.06 148.558 713.58 137.728 713.77 126.248C713.83 122.258 714.09 118.178 714.7 114.458C714.7 114.458 714.7 114.458 714.7 114.428C714.84 113.528 715.01 112.648 715.2 111.798C717.87 97.6583 726.39 92.5683 735 90.1983C767.38 81.2583 785.93 106.148 794.61 125.118C798.29 133.158 800.21 140.138 800.63 143.028H800.65Z" fill="#A16147"/>
<path d="M715.71 149.499C715.74 149.779 715.32 158.809 711.78 164.869C709.09 169.479 712.17 176.639 721.59 175.089C731.01 173.539 715.71 149.499 715.71 149.499Z" fill="#A16147"/>
<path d="M717.46 175.489C717.72 174.429 718.54 174.378 719.34 174.038C720.1 173.778 720.87 173.589 721.7 173.599C721.95 173.599 722.15 173.818 722.15 174.068C722.15 174.198 722.09 174.319 722 174.399C721.15 175.199 720.15 175.778 719.12 176.288C718.68 176.618 717.26 176.389 717.47 175.499L717.46 175.489Z" fill="#703A29"/>
<path d="M736.52 167.959C739.08 173.699 736.39 181.679 729.71 182.799C728.86 182.979 727.99 182.969 727.16 182.989C726.75 182.989 726.41 182.669 726.4 182.259C726.39 181.889 726.64 181.629 726.96 181.499C728.95 180.709 730.88 179.859 732.29 178.249C734.56 175.519 734.88 171.789 735.06 168.299C735.02 167.469 736.2 167.199 736.52 167.959Z" fill="#703A29"/>
<path d="M756.67 229.388C756.67 229.388 753.28 216.008 754.41 213.718C755.54 211.428 824.46 190.968 827.85 192.728C831.24 194.488 839.15 230.568 839.15 230.568L756.67 229.388Z" fill="white"/>
<path d="M813.76 171.668C813.76 171.668 805.86 173.928 797.55 170.368C781.5 163.488 777.29 148.238 777.29 148.238C777.29 148.238 765.34 145.698 766.73 158.888C767.76 168.668 777.63 189.808 773.05 199.878C772.91 200.188 772.74 200.488 772.52 200.788C767.82 207.628 746.03 214.098 738.51 213.988C734.25 213.928 730.79 207.618 728.27 202.608C731.06 203.118 743.97 196.318 744.49 192.528C745.01 188.718 746.05 182.358 746.05 182.358C746.05 182.358 754.16 175.428 756.51 170.178C759.2 164.158 754.69 147.628 749.66 140.518C744.6 133.438 740.81 127.968 740.81 127.968L741.99 118.858C741.99 118.858 731.05 111.718 714.71 114.458V114.428C714.67 113.418 713.87 87.9685 748.58 80.7785C784 73.4385 800.69 90.9585 807.59 106.108C814.48 121.278 813.29 127.348 813.29 127.348C813.27 128.028 813.27 128.708 813.24 129.408C813.24 130.388 813.23 131.398 813.23 132.458C813.18 135.298 813.76 171.668 813.76 171.668Z" fill="#362119"/>
<path d="M782.491 153.704C782.564 145.785 778.017 139.322 772.334 139.269C766.651 139.217 761.985 145.594 761.912 153.514C761.839 161.433 766.386 167.896 772.069 167.948C777.752 168.001 782.418 161.623 782.491 153.704Z" fill="#A16147"/>
<path d="M775.87 148.718C775.98 151.698 774.9 154.688 773.15 157.068C772.8 157.568 770.28 160.448 770.36 158.588C771.51 156.038 772.97 153.768 774.01 151.178C774.37 150.338 774.69 149.478 775.04 148.588C775.19 148.158 775.87 148.268 775.88 148.718H775.87Z" fill="#703A29"/>
<path d="M770.17 149.408C770.82 151.278 771.86 152.828 773.24 154.188C773.31 154.308 773.55 154.218 773.12 154.868L773.09 154.908C772.94 155.138 772.74 155.338 772.53 155.488C771.9 155.948 771.95 155.668 771.82 155.588L771.51 155.258C770.1 153.718 769.11 151.598 769.32 149.488C769.35 149.028 770.04 148.958 770.17 149.398V149.408Z" fill="#703A29"/>
<path d="M922.58 498.618C888.13 527.098 844.45 533.209 806.8 531.299C760.73 528.969 723.69 514.629 723.69 514.599C723.88 504.399 721.6 476.259 721.31 461.789C720.68 433.699 717.78 384.319 717.05 353.279C716.94 348.869 716.79 344.529 716.58 340.269C716.25 332.899 716.23 325.459 716.56 318.119C716.93 308.979 717.8 299.969 719.08 291.349C723.64 260.189 716.04 255.368 733.15 240.228C757.29 218.888 771.04 216.579 797.18 214.369C810.8 213.219 820.43 213.489 820.42 213.489C824.09 214.079 827.52 214.968 830.85 215.568C897.4 227.668 909.13 393.009 912.76 420.389C918.26 462.589 922.58 498.349 922.58 498.599V498.618Z" fill="#6BABF8"/>
<path d="M922.58 498.618C888.13 527.098 835.58 537.769 782.62 528.979C850.08 333.929 800.36 223.599 796.69 214.429C810.5 212.879 820.43 213.508 820.42 213.508C824.09 214.098 827.52 214.989 830.85 215.589C897.4 227.689 909.13 393.029 912.76 420.409C918.26 462.609 922.58 498.368 922.58 498.618Z" fill="#064286"/>
<path d="M531.39 354.238C531.39 354.238 535.91 335.108 562.92 313.618C562.92 313.618 564.33 333.588 558.12 342.688C551.91 351.788 531.39 354.238 531.39 354.238Z" fill="#064286"/>
<path d="M579.88 330.369L556.06 312.448C556.06 312.448 544.5 292.719 541.3 287.269C538.1 281.819 533.16 278.809 527.7 278.159C522.24 277.499 520.59 278.799 520.59 278.799C520.59 278.799 492.97 250.949 485.48 252.089C478 253.229 488.59 263.509 490.99 265.849C493.39 268.189 500.45 276.358 500.45 276.358C500.45 276.358 495.27 278.829 495.27 285.159V287.059C493.89 286.889 492.48 287.649 490.85 289.989C488.31 293.619 490 299.668 490 299.668C490 299.668 488.87 300.739 487.88 305.339C486.89 309.939 492.49 321.959 502.94 330.959C513.39 339.959 531.18 348.749 531.18 348.749L576.12 381.118C576.12 381.118 590.72 372.389 592.88 351.599C595.04 330.809 579.89 330.369 579.89 330.369H579.88Z" fill="#A16147"/>
<path d="M500.78 276.098C503.77 278.958 506.61 282.038 508.57 285.708C508.72 288.678 501.94 280.068 501.68 279.318C501.11 278.448 500.56 277.558 500.1 276.598C499.89 276.188 500.45 275.768 500.78 276.088V276.098Z" fill="#693726"/>
<path d="M495.6 286.798C498.55 289.528 501.37 292.478 503.25 296.058C503.38 298.948 496.77 290.678 496.48 289.948C495.92 289.108 495.38 288.248 494.92 287.328C494.7 286.918 495.26 286.498 495.6 286.808V286.798Z" fill="#693726"/>
<path d="M490.43 299.939C492.86 301.899 495.15 304.129 496.53 306.969C496.6 309.569 491.21 303.289 490.95 302.549C490.52 301.889 490.1 301.219 489.77 300.479C489.67 300.259 489.77 299.999 489.99 299.899C490.14 299.829 490.31 299.859 490.43 299.949V299.939Z" fill="#693726"/>
<path d="M520.7 278.528C524.22 280.678 527.6 283.208 530.08 286.548C530.22 286.748 530.16 287.028 529.96 287.158C529.83 287.248 529.66 287.258 529.52 287.188C526.71 285.798 524.43 283.658 522.22 281.488C521.5 280.748 520.79 279.998 520.14 279.168C519.84 278.818 520.3 278.288 520.69 278.518L520.7 278.528Z" fill="#693726"/>
<path d="M733.15 240.238C733.15 240.238 714.32 254.458 700.5 287.408C686.68 320.358 665.42 349.158 659.11 354.238C659.11 354.238 635.86 344.078 614.96 335.888C594.07 327.698 562.92 313.618 562.92 313.618C562.92 313.618 555.11 340.118 531.39 354.238C531.39 354.238 622.85 423.008 659.85 432.388C696.85 441.768 721.7 401.638 736 382.738C750.31 363.838 733.15 240.238 733.15 240.238Z" fill="#6BABF8"/>
<path d="M659.35 353.418C670.01 360.078 677.6 372.798 678.05 385.398C678.05 386.128 676.98 386.298 676.78 385.578C674.3 376.768 670.54 368.328 664.85 361.128C662.97 358.738 660.89 356.508 658.6 354.458C658.03 353.968 658.7 353.028 659.35 353.428V353.418Z" fill="#064286"/>
<path d="M745.26 370.008C741.09 378.798 735.96 387.068 730.22 394.918C724.44 402.738 717.87 410.148 709.91 415.808C709.29 416.248 708.52 415.368 709.1 414.818C719.31 404.678 728.12 393.318 736.22 381.448C738.92 377.488 741.58 373.468 744.14 369.408C744.53 368.738 745.62 369.278 745.27 370.008H745.26Z" fill="#064286"/>
<path d="M719.88 151.058C721 149.668 723.16 149.448 724.76 149.998C726.34 150.498 727.7 151.498 728.65 152.818C728.94 153.198 728.51 153.758 728.07 153.588C726.16 152.858 724.34 151.978 722.32 151.878C721.7 151.818 721.07 151.848 720.32 151.908C719.88 151.958 719.6 151.398 719.88 151.068V151.058Z" fill="#362119"/>
<path d="M717.18 142.938C719.48 139.818 724.17 139.448 727.59 140.678C728.68 141.128 732.01 142.418 730.9 143.898C730.66 144.188 730.29 144.318 729.95 144.258C726.99 143.588 724.19 143.628 721.25 144.138C720.24 144.228 719.38 144.708 718.32 144.568L717.95 144.498C717.24 144.378 716.84 143.548 717.18 142.918V142.938Z" fill="#362119"/>
<path d="M724.268 157.104C725.491 156.853 726.185 155.206 725.818 153.426C725.452 151.647 724.164 150.408 722.942 150.659C721.719 150.911 721.025 152.558 721.391 154.337C721.758 156.117 723.046 157.356 724.268 157.104Z" fill="#362119"/>
</svg>
