<?xml version="1.0" encoding="utf-8" ?>
<svg xmlns="http://www.w3.org/2000/svg" xmlns:xlink="http://www.w3.org/1999/xlink" width="453" height="175">
	<path d="M360.773 175C361.349 174.606 361.835 174.616 362.517 174.618C362.624 174.768 362.694 174.811 362.702 175L360.773 175Z"/>
	<path fill="#1BE1E0" d="M65.2434 56.1268C65.6813 57.0942 65.873 57.5257 66.9213 57.9337C68.4601 58.5325 71.5777 58.9149 73.0886 58.2418C73.6022 58.0129 74.1121 57.7432 74.6122 57.4852C71.9517 61.1599 69.4704 63.484 65.5809 65.8701C65.1931 62.7301 65.3199 59.299 65.2434 56.1268Z"/>
	<path fill="#06B0B0" d="M401.834 154.535L406.296 154.459C406.637 154.934 406.835 155.379 406.907 155.963C407.28 158.975 406.924 162.206 406.919 165.24C406.914 167.998 407.27 171.15 406.878 173.86C406.808 174.343 406.551 174.682 406.195 175L402.396 175C402.191 170.474 402.147 166.002 402.148 161.46C402.148 159.616 402.314 157.72 402.224 155.887C402.201 155.418 402.088 154.932 401.834 154.535Z"/>
	<path fill="#06B0B0" d="M382.525 158.977C382.547 158.924 382.569 158.871 382.59 158.817C383.089 157.54 382.485 155.507 383.659 154.679C388.94 153.97 394.63 154.672 399.978 154.448C400.535 155.398 400.692 157.432 400.384 158.497C400.331 158.682 400.249 158.85 400.149 159.014C397.985 158.906 395.835 158.836 393.668 158.854C394.276 160.097 394.379 172.789 393.865 174.239C393.786 174.462 393.665 174.624 393.526 174.81C393.497 174.85 393.471 174.892 393.442 174.931C393.424 174.955 393.404 174.977 393.386 175L389.642 175C389.765 173.23 389.553 160.191 389.189 159.081C386.966 158.897 384.747 159.074 382.525 158.977Z"/>
	<path fill="#06B0B0" d="M268.593 154.227Q272.533 154.557 276.486 154.577C277.735 154.574 279.153 154.274 280.373 154.446C280.931 154.525 281.32 154.728 281.747 155.087C282.374 156.022 282.376 157.164 282.149 158.239C282.088 158.53 281.952 158.738 281.746 158.947C280.735 159.353 274.872 158.978 273.145 159.145C273.171 159.194 273.198 159.243 273.223 159.292C273.685 160.184 273.276 162.899 273.979 163.131C275.461 163.619 278.943 163.279 280.675 163.299C280.972 163.983 280.993 166.144 280.771 166.891C280.718 167.067 280.595 167.242 280.486 167.385C279.611 167.469 274.414 167.272 274.235 167.349C274.118 167.399 273.914 167.646 273.81 167.742C273.098 169.785 274.478 173.442 273.067 175L268.944 175C269.082 173.099 268.732 154.508 268.593 154.227Z"/>
	<path fill="#1F3499" d="M141.068 76.8116C141.129 76.7888 141.23 76.7465 141.301 76.7358C142.285 76.5868 144.493 77.2871 145.345 77.812C147.031 78.8503 148.221 80.7875 148.649 82.6973C149.067 84.5576 148.779 86.4965 147.748 88.1113C146.607 89.8962 144.865 90.821 142.852 91.2772Q142.38 91.3064 141.907 91.2912C139.684 91.2317 137.526 90.7142 135.965 89.0256C134.721 87.6788 134.167 85.8305 134.243 84.018C134.363 81.1495 135.854 79.2803 137.884 77.4253C138.947 77.2331 140.007 77.0169 141.068 76.8116Z"/>
	<path fill="#1F3499" d="M190.898 76.6226C191.019 76.5945 191.133 76.5718 191.255 76.5549C192.773 76.3456 194.945 77.3024 196.145 78.2324C197.773 79.4943 198.942 81.3643 199.199 83.4228Q199.239 83.7664 199.246 84.1122Q199.253 84.458 199.226 84.8029Q199.2 85.1478 199.14 85.4885Q199.08 85.8292 198.988 86.1625Q198.896 86.4959 198.772 86.8188Q198.648 87.1417 198.493 87.4512Q198.338 87.7606 198.155 88.0537Q197.971 88.3468 197.76 88.6208C197.734 88.6722 197.716 88.7282 197.683 88.775C196.496 90.4453 193.982 91.1663 192.062 91.3395C191.903 91.3688 191.744 91.3867 191.582 91.3756C189.554 91.2365 187.724 90.6565 186.368 89.0702C185.046 87.5239 184.511 85.4505 184.679 83.444C184.92 80.5714 186.108 78.7073 188.824 77.6261C189.482 77.3642 190.291 77.1643 190.827 76.6899C190.852 76.6683 190.874 76.6451 190.898 76.6226Z"/>
	<path fill="#1F3499" d="M170.1 76.784C170.906 76.4827 173.348 77.2173 174.27 77.3853C175.863 78.9257 177.252 80.4043 177.862 82.5964C178.341 84.3171 178.168 86.1306 177.277 87.6893C176.185 89.6005 174.157 90.7589 172.091 91.3087C170.256 91.3288 168.163 91.1377 166.554 90.1825C165.043 89.2856 164.078 87.8378 163.653 86.1474C163.176 84.2487 163.371 82.0806 164.388 80.3843C165.736 78.1347 167.667 77.4089 170.1 76.784Z"/>
	<path fill="#1462AB" d="M15.2921 32.1334C15.1131 34.2277 14.7027 44.2572 15.6972 45.7284C15.0738 47.1206 14.4934 49.0164 13.6299 50.2417L13.4103 50.1868C12.9112 50.4162 12.6148 51.797 12.3824 52.3675C10.8332 53.8979 5.89851 51.9912 3.96726 51.6592C3.05341 51.5021 2.05717 51.5777 1.13343 51.6279C1.61246 50.5032 2.29675 49.2267 1.86091 48.0371C2.17235 46.4835 3.22192 44.4935 3.97236 43.0902C6.05478 39.1962 11.0149 33.4378 15.2921 32.1334Z"/>
	<path fill="#06B0B0" d="M310.479 175C310.471 174.974 310.465 174.948 310.455 174.923C310.113 173.987 307.695 172.696 307.07 171.326C306.241 169.512 306.012 156.354 306.704 154.531C307.493 154.105 308.671 153.833 309.548 154.097C310.076 154.256 310.524 154.617 310.765 155.115C312.382 158.453 309.008 169.103 312.989 170.594C314.057 170.994 315.909 170.585 316.928 170.099C316.96 170.064 316.993 170.029 317.024 169.993C319.293 167.379 317.062 157.948 318.14 155.205C318.353 154.662 318.689 154.475 319.245 154.43C320.094 154.36 321.024 154.464 321.852 154.641C323.339 156.174 322.679 162.375 322.646 164.571C322.6 167.592 322.935 171.027 320.581 173.292C319.852 173.993 318.92 174.561 318.014 175L310.479 175Z"/>
	<path fill="#1F3499" d="M405.508 77.1249C407.872 76.8251 410.187 76.9416 412.15 78.437C413.887 79.7601 414.812 81.7635 415.083 83.8935C415.624 88.1389 414.14 92.8274 411.511 96.1642C410.406 97.5677 408.377 99.5805 406.536 99.8039L406.454 99.7293C405.159 98.5667 404.83 96.7551 403.586 95.61C404.646 94.8316 406.701 92.7963 406.898 91.5224C405.837 91.0488 404.686 90.7868 403.643 90.288C402.255 89.6243 401.174 88.1238 400.677 86.6924C400.024 84.8165 400.247 82.6903 401.118 80.922C402.088 78.9539 403.45 77.8143 405.508 77.1249Z"/>
	<path fill="#06B0B0" d="M364.908 175C364.896 174.254 364.89 173.492 365.107 172.772C366.214 169.097 368.253 165.725 369.378 162.031C369.993 160.012 370.356 157.047 371.839 155.471C372.543 154.723 373.429 154.407 374.444 154.395C375.643 154.38 376.786 154.713 377.653 155.572C378.224 156.138 378.628 156.868 378.934 157.605C379.867 159.854 380.278 162.324 381.157 164.611C381.965 166.715 384.666 171.871 384.553 173.916C384.532 174.3 384.269 174.684 384.067 175L379.908 175L368.668 175L364.908 175ZM370.184 170.94C370.232 171.085 370.267 171.185 370.265 171.34C370.251 172.637 369.613 174.131 368.668 175L379.908 175C379.977 174.114 378.916 171.556 378.342 170.858C375.828 170.446 372.748 170.842 370.184 170.94ZM374.302 160.124C373.692 162.196 373.196 164.91 371.922 166.673C372.775 166.662 373.591 166.627 374.437 166.499C375.128 166.511 376.344 166.734 376.867 166.31C376.527 164.315 375.674 162.327 374.996 160.422C374.753 160.255 374.597 160.161 374.302 160.124Z"/>
	<path fill="#06B0B0" d="M445.623 167.18C447.237 163.953 444.199 156.274 447.204 154.43C448.162 154.343 449.082 154.476 450.032 154.593C451.177 156.04 450.98 171.071 450.695 173.562C450.631 174.121 450.465 174.566 450.096 175L445.668 175L436.944 175L433.161 175C433.164 174.963 433.168 174.925 433.171 174.888C433.373 171.997 432.24 155.786 433.529 154.632C434.421 154.342 437.15 154.421 437.974 154.816C439.912 155.745 444.81 163.852 445.53 166.097C445.642 166.445 445.639 166.819 445.623 167.18ZM436.768 161.36C437.649 163 437.591 164.623 437.672 166.44C437.76 168.449 438.338 173.479 436.944 175L445.668 175L445.633 174.62C443.382 171.518 439.39 163.041 436.768 161.36Z"/>
	<path fill="#06B0B0" d="M338.771 154.416C340.043 154.437 342.774 154.17 343.662 155.071C344.18 157.985 344.322 171.457 343.773 174.249L343.198 175L338.673 175L330.044 175L326.167 175C326.35 173.103 325.988 154.913 325.695 154.428C327.529 154.48 330.724 154.145 332.048 155.523C333.925 157.476 337.889 165.645 339.156 166.393C339.226 166.285 339.378 166.109 339.413 165.993C339.442 165.898 339.215 155.772 339.108 155.282C339.04 154.975 338.918 154.692 338.771 154.416ZM329.991 161.305C330.307 161.916 330.583 162.532 330.651 163.223C330.874 165.494 331.417 173.313 330.044 175L338.673 175C338.679 174.907 338.683 174.797 338.664 174.706C338.569 174.257 331.857 163.19 331.174 162.277C330.866 161.864 330.435 161.556 329.991 161.305Z"/>
	<path fill="#06B0B0" d="M346.954 154.302C348.14 154.304 349.342 154.467 350.542 154.471C354.822 154.485 359.098 154.233 362.38 157.503C364.138 159.255 365.008 161.727 364.996 164.187C364.986 166.164 364.783 169.718 363.294 171.183C363.253 171.311 363.23 171.396 363.14 171.5C361.735 173.109 359.117 174.396 357 174.535L356.772 175L349.677 175L347.384 175C347.587 173.859 347.21 155.17 346.954 154.302ZM351.911 158.875C352.053 161.612 352.495 168.307 351.705 170.699C353.535 170.581 356.746 170.823 358.094 169.38C358.165 169.304 358.222 169.214 358.274 169.125C359.361 168.492 359.793 167.513 360.107 166.343C360.513 164.831 360.239 163.174 359.46 161.82Q359.308 161.555 359.129 161.306Q358.951 161.057 358.749 160.828Q358.546 160.598 358.322 160.39Q358.097 160.182 357.853 159.997Q357.609 159.813 357.348 159.654Q357.086 159.495 356.81 159.363Q356.534 159.231 356.246 159.128Q355.958 159.024 355.661 158.95C354.486 158.659 353.103 158.726 351.911 158.875ZM349.677 175L356.772 175L357 174.535C354.518 174.685 352.132 174.507 349.677 175Z"/>
	<path fill="#06B0B0" fill-opacity="0.47058824" d="M349.677 175C352.132 174.507 354.518 174.685 357 174.535L356.772 175L349.677 175Z"/>
	<path fill="#06B0B0" d="M415.992 175C415.589 174.304 414.59 174.108 413.922 173.609C409.849 170.564 408.443 166.071 409.744 161.12C410.356 158.788 411.898 156.937 413.973 155.741Q414.49 155.449 415.034 155.21Q415.578 154.97 416.142 154.785Q416.707 154.601 417.287 154.472Q417.867 154.344 418.457 154.274Q419.047 154.203 419.641 154.191Q420.235 154.179 420.827 154.226Q421.419 154.273 422.004 154.377Q422.588 154.482 423.16 154.644C425.73 155.346 427.944 156.909 429.256 159.254C430.66 161.765 430.989 165.126 430.189 167.883C429.429 170.501 427.294 172.896 424.927 174.206C424.392 174.502 423.707 174.66 423.218 175L415.992 175ZM417.454 158.875C415.663 160.08 414.739 161.244 414.309 163.382C413.956 165.136 414.258 167.165 415.275 168.659C415.976 169.689 417.019 170.351 418.244 170.559C419.274 170.734 420.717 170.759 421.7 170.375C422.935 170.158 424.225 169.17 424.942 168.155C425.841 166.884 426.105 165.276 425.814 163.762C425.495 162.103 424.592 160.55 423.169 159.606C421.369 158.413 419.491 158.54 417.454 158.875Z"/>
	<path fill="#06B0B0" d="M287.023 155.437C291.59 154.653 295.677 153.056 299.896 156.035C302.128 157.611 303.538 159.904 303.989 162.59C304.479 165.503 304.148 168.443 302.395 170.88C300.719 173.208 299.079 173.522 296.939 175L289.939 175C289.927 174.975 289.917 174.95 289.904 174.926C289.611 174.396 288.636 174.225 288.112 173.895C283.818 171.196 281.915 166.783 283.132 161.775C283.782 159.101 286.938 155.885 287.023 155.437ZM291.356 158.875C290.578 159.312 289.865 159.611 289.016 159.878C289.011 159.919 289.007 159.96 289.002 160.001C288.802 161.619 287.713 162.979 287.721 164.672C287.729 166.14 289.16 168.522 289.102 169.323C291.104 170.159 292.836 171.055 295.046 170.48C296.576 170.171 297.742 169.281 298.585 167.978C299.462 166.621 299.647 164.807 299.282 163.254C298.91 161.676 297.965 160.301 296.576 159.453C294.972 158.474 293.145 158.524 291.356 158.875Z"/>
	<path fill="#1F3499" d="M291.107 96.6248C293.593 96.4077 296.075 96.4346 298.565 96.5511C298.714 96.7639 298.829 96.99 298.914 97.2356C299.524 98.9986 299.581 109.318 298.836 110.888C296.606 110.412 293.356 110.537 291.174 111.116C283.097 113.257 283.573 121.673 283.673 128.393Q283.764 133.81 283.785 139.228C283.778 140.624 283.98 142.779 283.287 143.979C279.186 144.114 275.053 143.832 270.937 143.933C270.314 144.003 269.77 144.009 269.148 143.926C268.347 142.925 268.868 111.999 268.876 108.476C268.882 105.716 269.474 99.3576 268.427 96.9973L280.668 96.9499C280.873 97.1266 281.047 97.311 281.201 97.535C282.024 98.7314 282.803 101.746 282.499 103.156C284.009 102.187 284.598 100.303 285.988 99.2306C287.415 98.1299 289.952 97.8344 291.107 96.6248Z"/>
	<path fill="#1F3499" d="M134.993 96.7595C138.897 97.3554 145.544 97.2273 149.493 96.6892C149.987 106.606 149.691 116.606 149.693 126.538C149.694 133.661 150.146 141.102 149.431 148.187C149.172 150.762 148.702 153.361 147.517 155.684C145.669 159.303 142.794 161.299 139.014 162.517C134.842 163.787 129.879 163.199 125.652 162.445C125.293 158.361 125.875 154.146 125.244 150.107C127.513 150.352 130.499 151 132.604 149.835C133.375 149.409 133.951 148.811 134.211 147.958C135.398 144.069 134.761 134.867 134.756 130.402L134.738 106.347C134.736 103.484 134.245 99.4702 134.993 96.7595Z"/>
	<defs>
		<linearGradient id="gradient_0" gradientUnits="userSpaceOnUse" x1="32.431847" y1="51.354336" x2="32.631832" y2="91.761719">
			<stop offset="0" stop-color="#0F75B1"/>
			<stop offset="1" stop-color="#01D9E6"/>
		</linearGradient>
	</defs>
	<path fill="url(#gradient_0)" d="M1.86091 48.0371C2.29675 49.2267 1.61246 50.5032 1.13343 51.6279C2.05717 51.5777 3.05341 51.5021 3.96726 51.6592C5.89851 51.9912 10.8332 53.8979 12.3824 52.3675C12.6148 51.797 12.9112 50.4162 13.4103 50.1868L13.6299 50.2417C13.0905 52.1254 12.3704 54.1354 12.1634 56.0854C11.7159 60.3011 13.5549 66.2766 15.5919 69.9638C19.0949 76.3046 26.2333 82.3901 32.4392 85.9948C36.9206 83.8796 49.2829 72.1041 50.858 67.7936C51.5889 65.7936 51.6744 63.5787 52.4553 61.5874C53.6101 60.0719 53.5134 57.8185 53.6835 55.9798C56.3569 53.4367 60.6677 52.8921 63.9216 51.1543C63.7822 50.5977 63.7005 50.1671 63.8204 49.5978C63.8299 49.5526 63.8404 49.5075 63.8503 49.4624C64.2224 50.315 64.5 51.6495 65.099 52.3064C64.8714 53.5361 65.1154 54.8883 65.2434 56.1268C65.3199 59.299 65.1931 62.7301 65.5809 65.8701C64.8906 68.2867 64.3021 70.8392 63.2935 73.1399C60.703 79.0493 55.31 85.0104 49.6607 88.1419Q48.9141 88.5516 48.1486 88.9248Q47.3831 89.2979 46.6004 89.6335Q45.8177 89.9691 45.0197 90.2664Q44.2217 90.5638 43.4102 90.8221Q42.5987 91.0805 41.7757 91.2992Q40.9526 91.518 40.1199 91.6966Q39.2873 91.8752 38.4469 92.0134Q37.6066 92.1515 36.7606 92.2488Q35.9145 92.346 35.0648 92.4022Q34.215 92.4584 33.3635 92.4734Q32.512 92.4884 31.6608 92.4621Q30.8096 92.4359 29.9607 92.3684Q29.1117 92.301 28.2671 92.1925Q27.4224 92.084 26.584 91.9348Q25.7455 91.7855 24.9153 91.5959Q24.0851 91.4062 23.265 91.1766C15.1046 88.8151 8.03182 83.9581 3.90587 76.4208C2.53536 73.9171 0.858925 67.4741 0 66.1833L0 53.28C0.834146 51.9526 1.33583 49.5543 1.86091 48.0371Z"/>
	<path fill="#1F3499" d="M428.54 133.652C430.822 134.286 434.134 135.125 436.378 134.022C437.463 133.489 438.246 132.443 438.62 131.309C438.846 130.627 438.864 129.856 438.524 129.206C437.224 126.719 428.941 125.939 426.196 125.122C422.292 123.96 418.346 121.338 416.391 117.669C414.66 114.419 414.569 109.952 415.652 106.485C416.85 102.649 419.942 99.3795 423.476 97.5442C428.547 94.9102 434.954 94.663 440.356 96.3837C444.612 97.7394 448.483 100.348 450.556 104.4C451.218 105.694 452.394 108.034 451.916 109.497C449.233 110.164 443.318 111.648 440.744 111.442C439.599 111.351 438.89 108.768 438.141 107.909C437.09 106.703 435.402 106.273 433.862 106.166C432.425 106.067 430.553 106.289 429.456 107.303C428.819 107.892 428.591 108.818 428.573 109.659C428.539 111.234 429.468 112.273 430.834 112.92C432.176 113.555 433.86 113.693 435.31 113.957C440.161 114.842 445.257 116.093 448.759 119.811C450.546 121.708 452.741 124.727 452.664 127.477C453.122 128.626 453.216 130.421 452.758 131.585C452.725 131.671 452.709 131.699 452.672 131.774C452.758 132.168 452.65 132.563 452.552 132.947C451.453 137.279 449.033 140.679 445.214 142.956C439.783 146.194 432.822 146.249 426.827 144.72C422.653 143.656 418.307 141.089 416.08 137.3C415.26 135.906 413.519 132.538 413.935 130.911C415.967 129.569 422.771 128.788 425.384 128.442C426.21 129.005 428.205 132.671 428.54 133.652Z"/>
	<defs>
		<linearGradient id="gradient_1" gradientUnits="userSpaceOnUse" x1="47.833096" y1="6.485568" x2="48.098682" y2="58.621758">
			<stop offset="0" stop-color="#B0E4AF"/>
			<stop offset="1" stop-color="#22E2DD"/>
		</linearGradient>
	</defs>
	<path fill="url(#gradient_1)" d="M15.2921 32.1334C17.2666 24.7488 22.2709 15.3143 29.0332 11.3975C37.1386 6.70287 47.1657 4.58312 56.338 7.0622C65.1303 9.43856 72.4193 14.9792 76.9483 22.9004C80.9352 29.8736 82.2378 38.849 80.1114 46.6174Q79.717 48.1009 79.1704 49.5352Q78.6237 50.9695 77.9307 52.3391Q77.2376 53.7088 76.4057 54.9988Q75.5739 56.2888 74.6122 57.4852C74.1121 57.7432 73.6022 58.0129 73.0886 58.2418C71.5777 58.9149 68.4601 58.5325 66.9213 57.9337C65.873 57.5257 65.6813 57.0942 65.2434 56.1268C65.1154 54.8883 64.8714 53.5361 65.099 52.3064C68.2044 46.2319 69.5237 40.0563 67.3848 33.3904C64.17 23.3714 56.2416 17.3354 48.0314 11.475C38.7702 18.0672 29.7882 25.0418 27.7929 37.0317C26.7131 43.5199 28.4704 48.4667 32.1866 53.7257C31.7279 53.4872 31.3155 53.2543 30.9104 52.9311C29.2326 53.6964 24.7722 57.9646 23.1687 57.5706C22.6009 57.0701 21.97 56.3599 21.2011 56.2324C21.3894 57.1257 22.0123 57.7779 22.179 58.6731C18.5257 54.9885 17.6329 50.2831 15.6972 45.7284C14.7027 44.2572 15.1131 34.2277 15.2921 32.1334Z"/>
	<path fill="#1F3499" d="M382.355 95.375C385.909 95.0623 390.432 96.764 393.356 98.6746C397.218 101.197 398.999 104.707 399.906 109.134C400.277 110.945 400.566 112.81 400.689 114.655C400.956 118.651 401.654 141.723 400.159 143.979C398.725 144.201 396.963 143.981 395.488 143.968C392.159 143.939 388.866 143.905 385.54 144.112C386.076 143.232 386.103 116.737 385.399 114.057C384.985 112.482 384.034 110.938 382.623 110.09C381.607 109.352 379.466 108.916 378.219 108.905C375.348 108.88 373.328 110.187 371.361 112.125C371.298 113.565 370.458 115.143 370.36 116.704C369.975 122.788 370.301 129.118 370.348 135.224C370.364 137.191 370.836 142.542 370.102 143.93C365.135 143.995 360.185 143.887 355.217 144.069C355.325 143.895 355.406 143.713 355.451 143.513C356.008 141.06 355.604 132.283 355.609 129.288L355.612 109.405C355.607 105.775 355.751 102.072 355.52 98.4534C355.483 97.8735 355.364 97.4256 355.05 96.9271C358.271 97.033 364.774 96.3339 367.485 97.0745C367.926 97.1948 368.079 97.3707 368.291 97.7518C368.881 98.8074 368.98 101.074 369.866 101.78C370.744 101.245 371.257 100.029 371.992 99.2913C373.893 97.3824 378.448 95.476 381.139 95.4748C381.546 95.4747 381.951 95.419 382.355 95.375Z"/>
	<path fill="#1F3499" d="M320.252 95.6248C325.898 94.8837 332.519 95.2947 337.546 98.1006C342.821 101.045 346.136 105.35 347.761 111.195C348.497 113.842 349.683 121.772 348.353 124.137C345.266 124.394 341.942 124.093 338.826 124.081C330.844 124.05 322.818 123.895 314.842 124.187C316.309 125.468 316.684 128.097 317.909 129.698C319.433 131.691 322.238 132.562 324.627 132.868C327.274 133.206 331.36 132.92 333.178 130.715C334.093 129.606 334.84 128.279 335.989 127.397C337.854 126.834 341.668 128.539 343.556 129.123C344.834 129.209 346.223 129.768 347.4 130.257C347.666 130.665 347.759 130.79 347.691 131.278C347.23 134.608 343.729 138.815 341.152 140.803Q340.698 141.154 340.228 141.482Q339.758 141.81 339.271 142.114Q338.785 142.418 338.284 142.698Q337.784 142.977 337.27 143.232Q336.756 143.486 336.23 143.715Q335.704 143.943 335.167 144.146Q334.631 144.348 334.085 144.523Q333.539 144.699 332.985 144.847Q332.431 144.995 331.87 145.115Q331.309 145.235 330.743 145.327Q330.177 145.42 329.607 145.484Q329.038 145.548 328.465 145.584Q327.893 145.619 327.319 145.627Q326.746 145.634 326.173 145.613Q325.6 145.591 325.028 145.542Q324.457 145.492 323.889 145.414C316.727 144.48 310.442 141.642 305.968 135.773C301.745 130.234 300.629 123.039 301.569 116.256C302.624 108.642 306.926 101.484 314.069 98.2115C315.78 97.4277 318.779 96.8033 320.147 95.7118C320.182 95.6835 320.217 95.6538 320.252 95.6248ZM323.081 107.125C320.343 107.941 318.527 109.151 317.156 111.673C316.705 112.504 316.253 113.951 315.563 114.561C319.402 114.493 323.224 114.831 327.062 114.64C329.535 114.614 332.025 114.641 334.492 114.453C334.682 113.035 333.997 111.693 333.157 110.593C331.609 108.565 328.747 107.279 326.266 106.969C325.233 106.84 324.104 106.951 323.081 107.125Z"/>
	<path fill="#1F3499" d="M176.27 95.6134C183.511 94.9507 190.623 95.755 196.688 100.123C201.899 103.876 205.299 109.834 206.32 116.126C207.384 122.689 206.057 129.885 202.12 135.281C198.031 140.885 192.342 144.178 185.535 145.248C183.091 146.349 179.048 145.57 176.483 145.059C169.847 143.736 163.792 140.209 160.009 134.486C156.087 128.551 155.363 120.896 156.81 114.036C158.199 107.449 163.014 100.493 169.453 98.0411C171.44 97.2845 174.43 96.8742 176.144 95.7026C176.187 95.6735 176.228 95.6431 176.27 95.6134ZM179.913 108.87C176.67 109.817 173.977 110.841 172.246 113.984C170.549 117.065 170.425 121.39 171.424 124.711C172.212 127.326 173.84 129.598 176.277 130.896C178.06 131.847 180.519 132.358 182.523 131.996C185.362 131.591 187.734 130.538 189.485 128.182C191.484 125.49 192.274 121.782 191.782 118.491C191.359 115.661 190.096 112.702 187.736 110.964C185.653 109.429 182.461 108.668 179.913 108.87Z"/>
	<path fill="#1F3499" d="M96.905 75.5328C103.536 75.4433 111.623 75.2626 117.415 79.0878C122.446 82.4102 125.516 87.6411 126.708 93.4489C122.131 94.903 117.632 96.2236 112.916 97.1536C112.124 94.8132 111.318 92.8538 109.355 91.2477C106.992 89.3138 103.355 88.4597 100.352 88.7637C98.1254 88.9891 95.9475 89.9591 94.5172 91.721C92.8462 93.7794 92.7846 95.7139 93.0406 98.2583C96.4747 103.365 103.234 102.74 108.625 103.928C112.814 104.851 117.764 106.719 121.121 109.42C124.997 112.54 127.32 117.1 127.843 122.013C128.447 127.676 126.806 132.689 123.224 137.103C118.179 143.321 110.98 144.862 103.453 145.633C100.762 145.517 98.1482 145.242 95.5068 144.703C88.6138 143.295 82.5347 139.699 78.6234 133.741C77.2201 131.604 74.7851 126.533 75.3323 123.871C75.9189 123.28 87.4567 120.898 89.0892 120.514C89.5464 122.094 90.0874 123.592 90.8554 125.051C92.4365 128.055 94.7831 130.399 98.0713 131.417C101.376 132.44 105.886 132.533 109.006 130.861C110.467 130.077 111.616 128.814 112.09 127.206C112.543 125.673 112.601 123.619 111.804 122.199C109.296 117.728 97.4752 117.455 92.6996 116.055C88.4085 114.798 82.4408 111.263 80.2666 107.242C77.5443 102.208 77.1202 96.1301 78.7401 90.6893C80.3843 85.1666 84.8396 79.4674 90.4671 77.5126C92.5365 76.7937 94.8968 76.6402 96.8225 75.5792L96.905 75.5328Z"/>
	<path fill="#1BE1E0" d="M22.179 58.6731C22.0123 57.7779 21.3894 57.1257 21.2011 56.2324C21.97 56.3599 22.6009 57.0701 23.1687 57.5706C24.7722 57.9646 29.2326 53.6964 30.9104 52.9311C31.3155 53.2543 31.7279 53.4872 32.1866 53.7257C37.4891 58.9158 40.6652 60.6279 48.3129 60.6252C47.9881 63.1237 46.6031 68.3122 44.5067 69.9834C43.7592 70.5792 42.7229 70.5633 41.8206 70.4347C34.5864 69.4036 26.7284 64.5598 22.2908 58.8509C22.233 58.7766 22.2196 58.747 22.179 58.6731Z"/>
	<defs>
		<linearGradient id="gradient_2" gradientUnits="userSpaceOnUse" x1="41.066082" y1="26.219278" x2="53.93737" y2="55.609451">
			<stop offset="0" stop-color="#1E3593"/>
			<stop offset="1" stop-color="#1071B2"/>
		</linearGradient>
	</defs>
	<path fill="url(#gradient_2)" d="M36.79 27.4046C40.0968 28.0528 43.3799 28.7491 46.4778 30.1163C52.1557 32.6221 57.7653 37.4763 60.9213 42.8607C62.1487 44.9547 62.9821 47.2042 63.8503 49.4624C63.8404 49.5075 63.8299 49.5526 63.8204 49.5978C63.7005 50.1671 63.7822 50.5977 63.9216 51.1543C60.6677 52.8921 56.3569 53.4367 53.6835 55.9798C53.5134 57.8185 53.6101 60.0719 52.4553 61.5874Q52.5175 61.23 52.5745 60.8718C53.3702 55.8262 52.0482 49.6332 48.9868 45.4668C44.9928 40.0312 38.6353 37.8396 32.2475 36.8668C32.7766 33.8727 34.6305 29.5089 36.79 27.4046Z"/>
	<path fill="#1F3499" d="M230.238 96.1248C234.135 95.8332 238.569 96.5275 241.971 98.5207C243.128 99.1991 244.919 100.436 245.271 101.788C246.325 100.725 245.853 98.771 246.95 97.6278C248 96.5344 256.895 96.8776 258.849 96.8137C258.946 96.9933 259.028 97.1741 259.089 97.3693C259.59 98.9904 259.292 139.038 258.877 142.71C258.533 145.748 257.73 148.837 256.3 151.551C253.652 156.574 248.737 160.32 243.352 161.978C237.614 163.744 229.792 163.845 224.12 161.817C221.566 160.904 219.197 159.467 216.807 158.198Q216.96 158.1 217.109 157.996C217.749 157.543 218.197 157.074 218.331 156.285C219.524 155.46 224.141 149.105 224.6 147.755C225.707 148.031 226.95 149.001 227.983 149.529C231.036 151.088 234.58 151.166 237.819 150.091C240.236 149.289 242.406 147.606 243.547 145.299C244.552 143.268 245.146 138.959 244.42 136.83C244.297 137.141 244.143 137.429 243.924 137.684C241.658 140.318 237.995 141.58 234.612 141.819C228.254 142.267 221.845 140.623 216.97 136.366C212.651 132.597 210.575 126.398 210.219 120.828C209.801 114.28 211.564 107.696 215.986 102.705C219.437 98.8114 225.104 96.4214 230.238 96.1248ZM232.812 108.875C229.685 109.839 227.651 111.019 226.067 114.015C224.705 116.593 224.559 119.36 225.417 122.131C226.189 124.62 227.582 126.989 229.957 128.226C231.741 129.155 233.718 129.342 235.696 129.249C238.164 129.091 240.428 128.289 242.088 126.383C244.077 124.1 244.616 120.752 244.387 117.82C244.184 115.208 243.268 112.751 241.234 111.014C238.986 109.094 235.863 108.62 233.003 108.856Q232.907 108.864 232.812 108.875Z"/>
</svg>
