<svg id="Bottom_Left" data-name="Bottom Left" xmlns="http://www.w3.org/2000/svg" width="717" height="279" viewBox="0 0 717 279">
  <defs>
    <style>
      .cls-1, .cls-5 {
        fill: #ff7622;
      }

      .cls-1, .cls-4 {
        stroke: #ff7622;
      }

      .cls-1, .cls-2, .cls-4 {
        stroke-miterlimit: 10;
      }

      .cls-1, .cls-2 {
        stroke-width: 3px;
      }

      .cls-1, .cls-2, .cls-3, .cls-4, .cls-5, .cls-6 {
        fill-rule: evenodd;
      }

      .cls-2, .cls-3 {
        fill: #352677;
      }

      .cls-2 {
        stroke: #352677;
      }

      .cls-4 {
        fill: none;
        stroke-width: 7px;
      }

      .cls-6 {
        fill: #779a3a;
      }
    </style>
  </defs>
  <g id="Title">
    <g id="_Group_" data-name="&lt;Group&gt;">
      <path id="_Compound_Path_" data-name="&lt;Compound Path&gt;" class="cls-1" d="M335.149,146.865a14.538,14.538,0,0,1,3.645,9.917,14.9,14.9,0,0,1-4.831,11.485q-4.832,4.451-14.071,4.451H302.77V113.045h17.122q8.9,0,13.223,4.026a13.751,13.751,0,0,1,4.323,10.553q0,6.02-3.263,9.536a15.088,15.088,0,0,1-8.35,4.534A15.723,15.723,0,0,1,335.149,146.865Zm-30.683-6.018H320.4q7.46,0,11.4-3.518t3.941-9.705a11.973,11.973,0,0,0-3.9-9.408q-3.9-3.475-11.952-3.476H304.466v26.107Zm28.1,26.361a14.072,14.072,0,0,0-.127-20.809q-4.662-3.856-12.714-3.857H304.466v28.48h15.426Q328.03,171.022,332.564,167.208Z"/>
      <path id="_Compound_Path_2" data-name="&lt;Compound Path&gt;" class="cls-1" d="M369.986,125.929v1.865h-0.762a18.516,18.516,0,0,0-12.248,4.2q-5.044,4.2-5.043,13.52v27.209h-1.7V126.946h1.7v11.1Q354.644,125.93,369.986,125.929Z"/>
      <path id="_Compound_Path_3" data-name="&lt;Compound Path&gt;" class="cls-1" d="M378.166,111.308a2.251,2.251,0,0,1,3.136,0,2.468,2.468,0,0,1,0,3.3,2.251,2.251,0,0,1-3.136,0A2.465,2.465,0,0,1,378.166,111.308Zm2.416,15.638v45.772h-1.695V126.946h1.695Z"/>
      <path id="_Compound_Path_4" data-name="&lt;Compound Path&gt;" class="cls-1" d="M428.514,130.591a20.446,20.446,0,0,1,7.332,11.1V126.946h1.61v47.467a21.245,21.245,0,0,1-2.8,11.061,18.821,18.821,0,0,1-7.417,7.163A21.067,21.067,0,0,1,417.2,195.1q-8.307,0-13.773-4.026a20.259,20.259,0,0,1-7.5-10.892h1.695a18.682,18.682,0,0,0,6.908,9.79q4.959,3.6,12.672,3.6a19.108,19.108,0,0,0,9.494-2.373,17.349,17.349,0,0,0,6.7-6.7,20.077,20.077,0,0,0,2.458-10.087V157.969a20.445,20.445,0,0,1-7.332,11.1,21.132,21.132,0,0,1-13.351,4.238,23.408,23.408,0,0,1-11.612-2.839,19.551,19.551,0,0,1-7.883-8.138,29.341,29.341,0,0,1,0-25,19.566,19.566,0,0,1,7.883-8.137,23.419,23.419,0,0,1,11.612-2.84A21.132,21.132,0,0,1,428.514,130.591Zm-24.243-.085a17.877,17.877,0,0,0-7.162,7.587,28.366,28.366,0,0,0,0,23.478,17.877,17.877,0,0,0,7.162,7.587,21.655,21.655,0,0,0,10.892,2.627A20.654,20.654,0,0,0,425.8,169.03a19.392,19.392,0,0,0,7.375-7.713,26.039,26.039,0,0,0,0-22.971,19.411,19.411,0,0,0-7.375-7.713,20.673,20.673,0,0,0-10.638-2.755A21.666,21.666,0,0,0,404.271,130.506Z"/>
      <path id="_Compound_Path_5" data-name="&lt;Compound Path&gt;" class="cls-1" d="M484.753,130.93q5.169,5,5.17,15.087v26.7h-1.611v-26.87q0-8.983-4.492-13.689t-12.29-4.7q-8.137,0-13.053,5.3t-4.917,15.639v24.327h-1.695V109.993h1.695V139.83q1.609-6.95,6.569-10.426a19.375,19.375,0,0,1,11.4-3.475A18.241,18.241,0,0,1,484.753,130.93Z"/>
      <path id="_Compound_Path_6" data-name="&lt;Compound Path&gt;" class="cls-1" d="M507.554,128.641v32.041a16.917,16.917,0,0,0,.932,6.357,5.6,5.6,0,0,0,2.967,3.094,14.554,14.554,0,0,0,5.679.889h4.831v1.7h-5q-5.934,0-8.519-2.712t-2.585-9.324V128.641H498.4v-1.695h7.459v-11.7h1.7v11.7h14.409v1.695H507.554Z"/>
      <path id="_Compound_Path_7" data-name="&lt;Compound Path&gt;" class="cls-2" d="M534.254,145.848v26.87h-1.7V113.045h15.088q9.831,0,14.452,4.323t4.62,12.121q0,8.223-4.832,12.29t-14.24,4.069H534.254Zm26.657-5.594q4.11-3.814,4.111-10.765,0-7.289-4.068-11.019t-13.308-3.73H534.254v29.328h13.392Q556.8,144.068,560.911,140.254Z"/>
      <path id="_Compound_Path_8" data-name="&lt;Compound Path&gt;" class="cls-2" d="M579.009,109.993v62.725h-1.7V109.993h1.7Z"/>
      <path id="_Compound_Path_9" data-name="&lt;Compound Path&gt;" class="cls-2" d="M629.78,126.946v45.772h-1.695V159.834q-1.611,6.951-6.569,10.426a19.374,19.374,0,0,1-11.4,3.475,18.232,18.232,0,0,1-13.223-5q-5.172-5-5.17-15.088v-26.7h1.61v26.869q0,8.985,4.492,13.69t12.291,4.7q8.137,0,13.053-5.3t4.917-15.639V126.946h1.695Z"/>
      <path id="_Compound_Path_10" data-name="&lt;Compound Path&gt;" class="cls-2" d="M710.347,130.93q4.872,5,4.873,15.087v26.7h-1.611v-26.87q0-8.983-4.238-13.689t-11.527-4.7q-7.882,0-12.587,5.3t-4.7,15.639v24.327h-1.612v-26.87q0-8.983-4.237-13.689t-11.528-4.7q-7.883,0-12.587,5.3t-4.7,15.639v24.327h-1.7V126.946h1.7v12.8q1.608-6.865,6.356-10.341a18.031,18.031,0,0,1,10.935-3.475,17.194,17.194,0,0,1,11.146,3.729q4.618,3.731,5.807,11.189,1.353-7.376,6.272-11.146a18.27,18.27,0,0,1,11.443-3.772A16.7,16.7,0,0,1,710.347,130.93Z"/>
    </g>
  </g>
  <path id="_Path_" data-name="&lt;Path&gt;" class="cls-3" d="M157.588,106.292c-11.348-5.679-22.777-5.161-29.44-4.231a91.151,91.151,0,0,1,14.173,25.579,94.221,94.221,0,0,1,3.1,51.446,100.987,100.987,0,0,0-.753-29.928,103.469,103.469,0,0,0-5.933-20.521,106.922,106.922,0,0,0-14.978-25.889,55.405,55.405,0,0,0-27.723,4.365c-21.78,9.662-29,30.4-30.124,33.81-6.92,20.981.854,38.985,4.19,45.462,9.666,18.768,29.841,33.516,53.838,33.98a62.392,62.392,0,0,0,59.681-41.788C193.034,150.874,181.127,118.073,157.588,106.292Z"/>
  <g id="_Group_2" data-name="&lt;Group&gt;">
    <path id="_Path_2" data-name="&lt;Path&gt;" class="cls-4" d="M125.882,238.664A84.783,84.783,0,0,0,161.156,76.846L161.13,60.376a5.007,5.007,0,0,0-5.023-5l-61,.09A5.02,5.02,0,0,0,90.1,60.49l0.02,16.467A84.782,84.782,0,0,0,125.882,238.664Z"/>
  </g>
  <path id="_Path_3" data-name="&lt;Path&gt;" class="cls-3" d="M97.94,41.334h54.937a2.993,2.993,0,0,1,2.984,2.984v1.09a2.993,2.993,0,0,1-2.984,2.984H97.94a2.992,2.992,0,0,1-2.984-2.984v-1.09A2.992,2.992,0,0,1,97.94,41.334Z"/>
  <path id="_Path_4" data-name="&lt;Path&gt;" class="cls-3" d="M97.94,31.044h54.937a2.993,2.993,0,0,1,2.984,2.984v1.09a2.993,2.993,0,0,1-2.984,2.984H97.94a2.993,2.993,0,0,1-2.984-2.984v-1.09A2.993,2.993,0,0,1,97.94,31.044Z"/>
  <path id="_Path_5" data-name="&lt;Path&gt;" class="cls-3" d="M98.452,20.755h54.936a2.993,2.993,0,0,1,2.984,2.984v1.09a2.993,2.993,0,0,1-2.984,2.984H98.452a2.993,2.993,0,0,1-2.984-2.984v-1.09A2.993,2.993,0,0,1,98.452,20.755Z"/>
  <path id="_Path_6" data-name="&lt;Path&gt;" class="cls-3" d="M101.61,17.172c0-9.422,10.783-17.06,24.086-17.06s24.086,7.638,24.086,17.06H101.61Z"/>
  <path id="_Path_7" data-name="&lt;Path&gt;" class="cls-5" d="M17.391,99.362L28.708,105c2.2,1.1,5.263.666,6.465-1.744,0.009-.019.019-0.039,0.028-0.063,1.1-2.2.667-5.265-1.74-6.463q-5.666-2.82-11.319-5.638a4.7,4.7,0,0,0-7.056,4.454A4.288,4.288,0,0,0,17.391,99.362Z"/>
  <path id="_Path_8" data-name="&lt;Path&gt;" class="cls-5" d="M216.6,103.188c1.222,2.412,4.3,2.777,6.484,1.675q5.653-2.833,11.3-5.669a4.235,4.235,0,0,0,2.264-3.808,4.827,4.827,0,0,0-.618-2.739c-1.15-2.315-4.383-2.914-6.483-1.675q-5.654,2.837-11.3,5.666c-2.41,1.215-2.777,4.31-1.675,6.487A0.625,0.625,0,0,1,216.6,103.188Z"/>
  <path id="_Path_9" data-name="&lt;Path&gt;" class="cls-5" d="M33.1,249.327c0.032,0.028.068,0.054,0.1,0.082,1.841,1.479,4.974,2.119,6.7-.044q3.932-4.947,7.869-9.9c1.606-2.017,1.941-4.742-.047-6.7a3.6,3.6,0,0,0-.348-0.3c-1.774-1.413-4.834-1.551-6.368.335q-3.969,4.916-7.947,9.831C31.564,244.475,30.942,247.6,33.1,249.327Z"/>
  <path id="_Path_10" data-name="&lt;Path&gt;" class="cls-5" d="M212.506,229.733q3.934,4.949,7.874,9.889c1.732,2.185,4.886,1.414,6.7-.042,0.033-.026.061-0.053,0.1-0.078,2.165-1.739,1.426-4.888-.048-6.7q-3.982-4.905-7.972-9.815a4.029,4.029,0,0,0-3.634-1.333,5.042,5.042,0,0,0-3.061,1.383,4.4,4.4,0,0,0-1.293,2.634A5.541,5.541,0,0,0,212.506,229.733Z"/>
  <path id="_Path_11" data-name="&lt;Path&gt;" class="cls-5" d="M130.758,278.113c0.026,0,.05,0,0.071-0.006a4.786,4.786,0,0,0,4.765-4.7q-0.007-6.324-.019-12.647a4.787,4.787,0,0,0-4.712-4.763c-0.026,0-.047,0-0.068,0a4.458,4.458,0,0,0-3.153,1.178,4.3,4.3,0,0,0-1.606,3.527q0,6.325.02,12.641A4.783,4.783,0,0,0,130.758,278.113Z"/>
  <path id="_Path_12" data-name="&lt;Path&gt;" class="cls-5" d="M0.11,167.409a0.643,0.643,0,0,1,.006.071,4.787,4.787,0,0,0,4.7,4.765q6.322-.006,12.647-0.019a4.788,4.788,0,0,0,4.763-4.712,0.612,0.612,0,0,1,0-.068,4.458,4.458,0,0,0-1.178-3.153,4.3,4.3,0,0,0-3.527-1.606q-6.325,0-12.641.02A4.783,4.783,0,0,0,.11,167.409Z"/>
  <path id="_Path_13" data-name="&lt;Path&gt;" class="cls-5" d="M229.025,162.568a0.638,0.638,0,0,1,0,.071,4.787,4.787,0,0,0,4.7,4.765q6.323-.007,12.647-0.019a4.787,4.787,0,0,0,4.763-4.712,0.526,0.526,0,0,1,0-.068,4.458,4.458,0,0,0-1.178-3.153,4.3,4.3,0,0,0-3.527-1.606q-6.325,0-12.642.02A4.782,4.782,0,0,0,229.025,162.568Z"/>
  <path id="_Path_14" data-name="&lt;Path&gt;" class="cls-6" d="M126.244,77.464c1.714-2.1,4.136-3.457,6.407-4.93a17.679,17.679,0,0,0,4.55-3.9,8.507,8.507,0,0,0,1.068-1.792A19.307,19.307,0,0,1,140.941,79.9c-0.9,5.381-4.392,11.237-8.613,12.685-0.368.126-.983,0.3-2.163,0.666-1.348.416-2.019,0.629-2.438,0.771a22.317,22.317,0,0,0-5.124,2.3c-1.548.985-2.293,1.817-2.511,1.634-0.241-.2.594-1.261,1.261-3.1a19.509,19.509,0,0,0,.85-4.219c0.435-2.908.661-4.36,0.858-5.37A17.4,17.4,0,0,1,126.244,77.464Z"/>
</svg>
