<?xml version="1.0" encoding="utf-8" ?>
<svg xmlns="http://www.w3.org/2000/svg" xmlns:xlink="http://www.w3.org/1999/xlink" width="402" height="233">
	<path fill="#0074A1" d="M129.331 171.287C131.176 171.522 133.171 171.397 135.027 171.295C134.787 176.858 134.911 182.482 134.914 188.051Q134.887 199.344 134.974 210.637C133.357 211.052 130.937 210.759 129.229 210.789L129.2 184.566C129.191 180.31 128.726 175.483 129.331 171.287Z"/>
	<path fill="#0074A1" d="M219.559 171.362L224.407 171.353C224.538 175.104 224.763 209.264 224.277 210.503L223.76 210.712Q221.24 210.699 218.72 210.753C218.608 206.58 218.309 173.497 218.838 171.967C218.976 171.566 219.197 171.548 219.559 171.362Z"/>
	<path fill="#0074A1" d="M103.053 171.533C104.854 171.401 106.695 171.429 108.502 171.383C108.676 182.509 108.907 194.5 108.458 205.587C114.263 205.124 120.373 205.454 126.212 205.389C126.244 206.92 126.496 208.839 126.178 210.324C126.136 210.522 125.896 210.603 125.729 210.71Q114.246 210.453 102.762 210.604C102.628 208.213 102.795 205.771 102.805 203.374L102.843 188.457C102.851 184.52 102.344 174.862 103.053 171.533Z"/>
	<path fill="#0074A1" d="M192.601 171.369C194.391 171.493 196.253 171.38 198.046 171.305C197.784 182.727 198.279 194.176 197.935 205.593C203.846 205.186 209.973 205.462 215.909 205.404C215.82 207.207 215.77 209.014 215.704 210.818C207.974 210.265 200.021 210.46 192.276 210.725C192.128 202.659 192.26 194.571 192.239 186.502C192.226 181.864 191.865 176.909 192.253 172.308C192.284 171.945 192.4 171.672 192.601 171.369Z"/>
	<path fill="#0074A1" d="M374.84 188.496C377.216 186.767 382.243 175.412 385.448 172.422C387.043 170.935 390.192 171.461 392.191 171.532C392.197 171.691 392.196 171.848 392.176 172.006C392.015 173.232 383.673 185.612 382.382 186.624C382.473 188.878 378.262 192.046 377.942 195.092C377.626 198.1 378.691 208.913 377.546 210.779C375.676 210.669 373.768 210.764 371.893 210.786C372.747 209.445 372.178 206.156 372.192 204.52C372.217 201.577 372.765 197.73 372.107 194.9C370.928 189.826 358.454 175.177 358.052 171.911C358.534 171.585 359.192 171.661 359.77 171.625C361.175 171.553 362.55 171.585 363.955 171.652C364.254 171.767 364.518 171.934 364.759 172.146C366.209 173.42 374.757 187.057 374.84 188.496Z"/>
	<path fill="#0074A1" d="M121.713 110.582L141.279 110.61C145.487 110.61 149.769 110.707 153.964 110.373C153.9 112.279 153.796 114.149 154.051 116.046C149.575 115.828 145.029 115.989 140.542 115.955C140.88 118.667 140.712 121.566 140.713 124.301L140.706 138.812C140.708 143.178 140.641 147.557 140.795 151.92C138.738 151.75 136.72 151.813 134.661 151.89C134.496 144.296 134.72 136.646 134.718 129.045C134.717 124.801 134.247 120.119 134.786 115.932C130.384 116.085 125.965 115.782 121.567 116.1C121.458 114.408 121.17 112.194 121.713 110.582Z"/>
	<path fill="#0074A1" d="M158.092 170.845C162.951 170.508 169.019 171.591 172.821 174.888C173.462 175.444 173.724 175.905 173.775 176.757C172.987 178.204 171.029 179.418 169.723 180.385C167.516 178.313 165.225 176.524 162.172 175.95C158.827 175.321 155.261 176.245 152.473 178.146C148.973 180.534 147.011 184.346 146.267 188.451C145.517 192.591 146.276 197.165 148.708 200.647C150.851 203.714 154.09 205.614 157.753 206.254C161.362 206.885 164.206 206.123 167.202 204.037C168.377 203.057 169.392 202.053 170.386 200.889C171.712 202.087 173.523 202.882 174.602 204.324C174.648 204.887 174.641 205.075 174.298 205.544C171.925 208.788 166.705 210.827 162.879 211.35Q162.386 211.421 161.89 211.467Q161.395 211.513 160.897 211.535Q160.4 211.557 159.902 211.554Q159.404 211.551 158.907 211.524Q158.41 211.496 157.914 211.444Q157.419 211.392 156.927 211.316Q156.435 211.24 155.948 211.139Q155.46 211.039 154.978 210.914Q154.496 210.79 154.02 210.641Q153.545 210.493 153.078 210.322Q152.61 210.15 152.152 209.956Q151.693 209.761 151.245 209.545Q150.797 209.328 150.36 209.089Q149.923 208.851 149.498 208.591Q149.074 208.331 148.662 208.05Q148.251 207.77 147.854 207.469Q147.468 207.171 147.096 206.855Q146.725 206.539 146.37 206.204Q146.015 205.87 145.677 205.518Q145.339 205.166 145.019 204.798Q144.699 204.43 144.397 204.047Q144.096 203.663 143.814 203.265Q143.532 202.867 143.27 202.456Q143.008 202.044 142.767 201.62Q142.526 201.196 142.306 200.761Q142.086 200.326 141.888 199.88Q141.69 199.434 141.514 198.979Q141.339 198.524 141.186 198.061Q141.033 197.597 140.904 197.127Q140.774 196.657 140.668 196.181Q140.562 195.705 140.48 195.224Q140.397 194.743 140.339 194.259C139.607 188.414 140.864 182.375 144.555 177.698C147.963 173.379 152.771 171.472 158.092 170.845Z"/>
	<path fill="#0074A1" d="M33.2442 171.286C35.0217 171.495 36.9238 171.388 38.7177 171.409C38.5845 176.446 38.6467 181.505 38.6288 186.546C38.6154 190.328 38.2191 194.573 38.9686 198.268C39.3877 200.334 40.2636 202.297 41.7116 203.854C43.2885 205.549 45.2995 206.375 47.5959 206.468C50.0833 206.568 52.4355 205.858 54.2746 204.14C55.6958 202.812 56.659 201.063 57.1554 199.191C57.9857 196.061 57.7172 192.488 57.7103 189.273C57.6976 183.365 57.4433 177.414 57.5842 171.513C59.4858 171.294 61.4548 171.365 63.369 171.347L63.4465 175.437C63.3479 181.754 64.258 195.819 62.6687 201.177Q62.4657 201.856 62.1969 202.512Q61.9281 203.168 61.5961 203.795Q61.2642 204.421 60.8722 205.012Q60.4803 205.602 60.0322 206.152Q59.5842 206.701 59.0843 207.204Q58.5844 207.706 58.0375 208.157Q57.4906 208.608 56.902 209.003Q56.3135 209.399 55.6889 209.734C51.9008 211.757 47.323 212.019 43.2433 210.777Q42.5788 210.581 41.9371 210.32Q41.2953 210.059 40.6826 209.735Q40.0699 209.412 39.4923 209.029Q38.9147 208.647 38.3778 208.209Q37.841 207.771 37.3502 207.282Q36.8594 206.793 36.4195 206.257Q35.9796 205.722 35.595 205.146Q35.2103 204.57 34.8847 203.958C34.0038 202.286 33.5211 200.464 33.2911 198.594C32.9428 195.763 32.6716 173.145 33.2442 171.286Z"/>
	<path fill="#0074A1" d="M363.747 110.375C364.097 110.359 364.42 110.442 364.76 110.516C364.794 110.58 364.868 110.704 364.891 110.782C365.171 111.691 364.825 125.943 364.651 127.258C364.577 127.824 364.352 128.29 364.056 128.77C366.24 127.319 367.993 125.232 369.838 123.378Q374.065 119.117 378.337 114.901C379.791 113.485 381.828 112.094 383.085 110.59C385.544 110.459 388.197 110.406 390.643 110.709C390.617 110.868 390.58 111.021 390.522 111.172C390.196 112.018 374.348 127.047 372.578 128.527C372.044 128.973 371.452 129.29 370.815 129.562C372.31 130.414 386.06 144.496 386.588 145.806C386.628 145.828 386.669 145.849 386.708 145.872C388.01 146.643 391.954 150.53 392.318 151.857Q388.098 151.735 383.876 151.713C383.707 151.321 367.015 133.445 365.301 131.653C364.938 131.274 364.522 130.982 364.075 130.713C364.133 130.821 364.191 130.93 364.243 131.042C364.268 131.096 364.292 131.151 364.317 131.205C364.411 131.402 364.505 131.597 364.563 131.807C365.007 133.402 365.047 151.004 364.539 151.91C362.559 151.641 360.397 151.787 358.395 151.791C359.372 149.665 358.817 124.264 358.786 119.899C358.767 117.247 358.201 113.25 359.122 110.823C360.023 110.177 362.601 110.395 363.747 110.375Z"/>
	<path fill="#0074A1" d="M184.062 110.341C186.068 110.381 188.059 110.435 190.06 110.255C189.925 115.168 190.38 150.668 189.88 151.824L189.428 151.839C187.615 151.805 185.862 151.821 184.059 152.028C184.456 145.64 183.731 139.146 184.247 132.763C180.292 132.902 176.301 132.815 172.343 132.829C169.365 132.84 166.253 133.033 163.295 132.701C163.686 139.082 163.063 145.524 163.535 151.89C161.466 151.722 159.387 151.811 157.32 151.969L157.327 123.922C157.313 120.175 156.765 113.661 157.492 110.308C159.383 110.562 161.476 110.381 163.391 110.37C163.692 115.991 162.94 121.756 163.41 127.342C163.54 127.373 163.695 127.395 163.818 127.446L163.403 127.402L164.011 127.324L164.088 127.467C170.739 127.855 177.591 127.504 184.266 127.509C183.834 121.867 184.109 116.013 184.062 110.341Z"/>
	<path fill="#0074A1" d="M3.14311 171.366C10.1985 172.332 20.7585 169.38 26.3775 174.7C28.4826 176.694 29.4585 179.487 29.5181 182.341C29.5782 185.223 28.7534 188.138 26.6818 190.229C22.8417 194.104 16.6564 193.517 11.6875 193.487C10.6844 193.485 9.67266 193.418 8.66954 193.382C8.94496 199.18 8.67807 205.001 8.85281 210.805C6.96641 210.694 5.07151 210.769 3.18354 210.81C3.09408 202.581 3.17204 194.348 3.16325 186.119C3.15801 181.214 2.95694 176.265 3.14311 171.366ZM8.63663 176.244C8.88173 180.271 9.10084 184.791 8.61517 188.796C12.6717 188.776 18.5936 189.473 22.0015 186.957C23.2905 185.053 23.9412 183.368 23.4829 181.045C23.1984 179.603 22.421 178.414 21.1729 177.631C17.7364 175.473 12.5295 176.51 8.63663 176.244Z"/>
	<path fill="#0074A1" d="M332.422 171.625C335.867 171.223 345.744 171.348 349.237 171.852C350.776 172.073 352.285 172.448 353.666 173.183C355.97 174.408 357.68 176.247 358.445 178.769C359.274 181.498 359.066 184.734 357.704 187.25C355.834 190.702 352.787 192.167 349.183 193.207C349.381 193.329 349.567 193.459 349.741 193.613C350.959 194.694 360.432 209.882 360.482 210.95C357.994 210.574 354.622 211.425 352.678 209.627C352.675 209.552 352.678 209.476 352.668 209.402C352.57 208.613 344.005 194.028 343.251 193.417C341.386 193.48 339.533 193.45 337.667 193.399C337.805 193.625 337.915 193.831 337.976 194.091C338.403 195.931 338.44 209.681 337.838 210.721L331.928 210.714C331.948 210.68 331.969 210.647 331.988 210.613C332.018 210.556 332.045 210.497 332.075 210.44C333.157 208.416 332.324 177.26 332.422 171.625ZM337.967 176.374C338.23 178.414 338.663 187.285 337.828 188.774C340.642 188.769 348.969 189.439 350.945 187.064C350.994 187.005 351.034 186.938 351.078 186.875C352.033 186.34 352.44 185.631 352.745 184.591C353.207 183.017 353.044 180.981 352.266 179.524C352.14 179.29 351.969 179.085 351.784 178.896C351.371 177.995 350.359 177.435 349.465 177.098C346.34 175.923 341.294 176.124 337.967 176.374Z"/>
	<path fill="#0074A1" d="M33.3521 110.284C35.2346 110.553 37.3493 110.372 39.2595 110.373C39.4934 120.061 39.1584 129.833 39.1699 139.531C39.1746 143.518 38.7875 148.034 39.5204 151.926C36.9761 151.718 34.3498 151.811 31.7942 151.787C27.5282 146.025 23.6526 139.847 19.6397 133.898C16.0957 128.644 12.1044 123.38 9.18051 117.766C9.70877 129.052 9.21798 140.377 9.47143 151.669C8.25439 152.165 4.80356 151.872 3.28343 151.95C3.1062 138.119 3.26995 124.27 3.21362 110.435C5.21561 110.484 7.54333 110.211 9.49045 110.597C10.2728 110.752 10.8968 111.002 11.4601 111.583C14.1548 114.362 16.2763 118.345 18.4236 121.566C23.5198 129.21 28.5007 136.938 33.6528 144.543C32.6517 138.375 33.2273 129.624 33.2125 123.172C33.2031 119.055 32.7496 114.33 33.3521 110.284Z"/>
	<path fill="#0074A1" d="M233.043 110.41C239.074 110.922 245.51 109.859 251.435 110.959C254.458 111.52 257.371 112.926 259.138 115.538C260.798 117.992 261.289 121.499 260.672 124.381Q260.599 124.713 260.507 125.039Q260.415 125.366 260.303 125.687Q260.191 126.007 260.06 126.321Q259.929 126.634 259.779 126.939Q259.63 127.244 259.462 127.539Q259.294 127.834 259.109 128.119Q258.924 128.404 258.722 128.677Q258.52 128.95 258.302 129.21Q258.084 129.471 257.851 129.717Q257.618 129.964 257.37 130.196Q257.122 130.429 256.861 130.646Q256.6 130.863 256.326 131.064Q256.052 131.264 255.767 131.448Q255.482 131.632 255.186 131.799Q254.89 131.965 254.584 132.114Q254.279 132.262 253.965 132.392C253.077 132.762 252.082 132.796 251.273 133.329C251.429 135.3 262.348 149.417 262.489 151.968C260.35 151.739 257.412 152.262 255.425 151.613C255.154 151.525 254.683 151.064 254.433 150.879C254.432 150.844 254.433 150.808 254.431 150.773C254.387 150.021 245.505 134.501 244.465 133.586C242.577 133.828 240.702 133.655 238.806 133.618C239.147 135.491 239.361 150.931 238.748 151.921C236.85 151.692 234.895 151.837 233 152.006C233.479 147.576 233.108 142.771 233.112 138.293Q233.154 124.351 233.043 110.41ZM238.829 115.62C239.234 117.556 239.422 127.302 238.541 128.678C238.522 128.706 238.503 128.734 238.485 128.762C241.522 128.589 250.318 129.218 252.338 127.115C252.401 127.05 252.457 126.951 252.504 126.878C253.585 126.319 254.198 125.273 254.558 124.134C255.066 122.522 254.791 120.523 253.995 119.045C253.208 117.584 251.83 116.701 250.263 116.255C246.658 115.23 242.545 115.931 238.829 115.62Z"/>
	<path fill="#0074A1" d="M93.7097 110.536C100.157 110.58 112.182 109.486 117.321 113.03C119.485 114.522 120.832 116.684 121.309 119.257C121.898 122.435 121.475 125.686 119.612 128.391C117.862 130.931 115.302 132.522 112.276 133.066L112.061 133.104L111.903 133.536C115.793 139.482 119.875 145.573 123.228 151.836C121.25 151.84 118.99 152.08 117.056 151.731C115.921 151.526 115.532 151.059 114.895 150.136L105.435 133.561C103.497 133.825 101.483 133.733 99.5407 133.572C100.159 139.596 99.5865 145.86 99.7981 151.928C97.7362 151.757 95.7102 151.812 93.6465 151.88C93.236 142.981 93.6765 133.9 93.6615 124.983C93.6559 121.631 93.0676 113.393 93.7097 110.536ZM99.6247 115.573C99.6877 119.728 100.211 124.651 99.4931 128.718C103.722 128.588 109.778 129.402 113.355 126.949C114.661 125.612 115.467 124.089 115.435 122.177C115.407 120.512 114.831 118.823 113.594 117.674C110.195 114.517 103.791 116.267 99.6247 115.573Z"/>
	<path fill="#0074A1" d="M232.048 171.538C237.98 171.775 247.403 170.453 252.57 173.141C254.747 174.274 256.424 176.092 257.156 178.457C257.867 180.756 257.692 183.44 256.542 185.568C255.247 187.964 253.157 189.199 250.642 189.977C253.178 190.301 255.204 191.391 256.873 193.329C258.366 195.063 259.569 197.892 259.359 200.229C259.243 201.523 258.862 203.361 257.82 204.231C257.758 205.354 257.084 206.244 256.287 207.036C251.456 211.832 238.288 210.633 231.791 210.567C231.705 208.014 231.889 205.429 231.912 202.872L231.939 187.752C231.939 183.66 231.409 174.994 232.048 171.538ZM237.24 192.613C237.933 194.358 238.105 204.346 237.413 205.939C237.396 205.977 237.374 206.012 237.355 206.049C239.967 205.993 248.668 206.31 250.506 204.316C250.597 204.217 250.583 204.229 250.642 204.124C251.895 203.437 252.714 202.488 253.132 201.102C253.596 199.561 253.378 197.606 252.606 196.196C251.683 194.51 249.981 193.521 248.173 193.029C245.016 192.171 240.456 192.236 237.24 192.613ZM237.432 176.367C237.733 178.808 238.282 185.989 237.331 188.059C240.595 187.956 246.312 188.466 249.146 186.63L249.33 186.291C250.475 185.637 251.187 184.655 251.52 183.376C251.891 181.951 251.553 180.328 250.807 179.078C250.248 178.141 249.281 177.086 248.239 176.703C245.177 175.843 240.647 176.148 237.432 176.367Z"/>
	<path fill="#0074A1" d="M70.4112 171.477C76.0028 171.755 83.4059 170.775 88.6572 172.218C91.127 172.897 93.5125 174.274 94.7837 176.575C95.9689 178.721 96.3217 181.971 95.5913 184.323C94.7036 187.183 92.3712 188.643 89.8872 189.97Q90.2144 190.079 90.5397 190.193C93.2532 191.153 95.5199 192.747 96.7625 195.423C98.0446 198.184 97.8047 201.054 96.8122 203.835C96.3482 204.793 95.6767 205.844 94.9462 206.62C90.7269 211.099 84.1602 210.602 78.5456 210.585Q74.448 210.578 70.3517 210.685C70.23 202.259 70.3674 193.822 70.3511 185.394C70.3424 180.898 69.8921 175.925 70.4112 171.477ZM75.9325 192.447C76.0989 196.965 76.2883 201.727 76.0262 206.234C80.8258 205.508 85.2803 206.581 89.667 204.009C90.9244 202.539 91.9606 201.127 91.8145 199.086C91.6918 197.37 91.0192 195.628 89.6927 194.49C86.1477 191.449 80.1869 192.955 75.9325 192.447ZM75.9783 176.222C76.0004 180.213 76.1113 184.224 76.0371 188.213C80.0074 187.696 85.1212 188.637 88.4632 186.09C89.5285 184.665 90.2729 183.344 90.0253 181.498C89.8169 179.944 89.0873 178.36 87.7884 177.43C84.8377 175.317 79.48 176.637 75.9783 176.222Z"/>
	<path fill="#0074A1" d="M198.615 110.533C204.777 110.677 214.307 109.565 219.834 112.023C222.129 113.043 224.133 114.745 225.011 117.155C225.852 119.463 225.751 122.662 224.68 124.894C223.505 127.341 221.372 128.705 218.916 129.59C219.486 129.782 220.046 130.011 220.6 130.245C223.224 131.357 225.452 133.229 226.518 135.937C227.587 138.65 227.599 141.902 226.45 144.577C225.946 145.527 225.442 146.511 224.713 147.31C219.019 153.543 206.272 151.57 198.451 151.822C198.686 141.794 198.5 131.716 198.48 121.684C198.475 118.98 197.905 112.857 198.615 110.533ZM204.305 132.408C204.861 136.937 204.735 142.218 204.444 146.782C209.316 146.779 214.84 147.539 218.944 144.493C220.402 142.952 221.155 141.74 221.099 139.559C221.052 137.74 220.535 136.088 219.188 134.809C215.487 131.296 208.922 132.837 204.305 132.408ZM204.357 115.486C204.673 119.51 204.529 123.64 204.455 127.677C208.672 127.137 213.985 128.494 217.565 125.668C218.663 124.405 219.661 123.071 219.543 121.296C219.444 119.794 218.366 118.03 217.22 117.092C213.773 114.271 208.342 116.595 204.357 115.486Z"/>
	<path fill="#0074A1" d="M309.805 171.375C310.807 171.318 311.734 171.383 312.728 171.507C313.026 171.721 313.293 171.956 313.523 172.244C315.063 174.179 320.207 187.414 321.615 190.723C324.303 197.044 327.26 203.338 329.768 209.722C329.892 210.037 329.906 210.332 329.869 210.667C327.656 210.874 325.281 210.678 323.053 210.636C323.077 210.477 323.085 210.32 323.079 210.159C323.024 208.688 320.302 201.769 319.293 200.803C314.94 201.265 305.532 201.248 301.14 200.703C301.153 200.839 301.161 200.975 301.152 201.111C301.047 202.668 298.532 209.692 297.382 210.671C293.496 211.094 289.232 210.662 285.296 210.766C285.299 210.72 285.308 210.673 285.306 210.626C285.271 209.789 276.655 194.417 275.512 193.335C273.588 193.551 271.648 193.474 269.72 193.376C269.977 193.739 270.168 194.129 270.23 194.575C270.496 196.48 270.682 209.897 270.054 210.754L265.937 210.701C265.513 210.733 265.269 210.681 264.884 210.494C264.449 210.283 264.556 209.027 264.555 208.589L264.623 181.096C264.621 178.448 265.052 174.035 264.212 171.602C266.547 171.359 269.075 171.548 271.428 171.552C276.543 171.563 283.007 170.788 287.321 174.106C289.441 175.737 290.616 178.187 290.965 180.803Q291.041 181.344 291.063 181.89Q291.084 182.436 291.05 182.981Q291.016 183.527 290.927 184.066Q290.839 184.605 290.696 185.133Q290.554 185.66 290.359 186.171Q290.163 186.681 289.918 187.169Q289.672 187.657 289.379 188.118Q289.086 188.579 288.747 189.008C286.753 191.564 284.142 192.596 281.048 192.99C281.205 193.127 281.372 193.246 281.533 193.378C283.013 194.599 291.226 207.63 291.388 209.215C292.726 208.017 302.98 183.673 304.636 179.912C305.719 177.452 306.691 174.433 308.246 172.249C308.726 171.574 309.039 171.523 309.805 171.375ZM270.054 176.374C270.564 178.613 270.785 186.597 270.055 188.768C273.227 188.796 280.811 189.435 283.072 187.135C283.232 186.972 283.299 186.853 283.37 186.641C284.354 186 284.873 184.825 285.124 183.708C285.457 182.219 285.136 180.499 284.288 179.231C283.244 177.67 281.426 176.9 279.637 176.577C276.683 176.045 273.048 176.136 270.054 176.374ZM310.176 179.373C309.88 181.724 304.508 194.978 303.098 196.395C305.38 196.237 307.652 196.237 309.937 196.241C312.3 196.238 314.926 196.021 317.258 196.306C317.577 194.824 311.966 182.256 311.016 179.769C310.681 179.49 310.628 179.441 310.176 179.373Z"/>
	<path fill="#0074A1" d="M64.6554 109.846C70.0377 109.144 75.9436 111.03 80.2038 114.299C84.3716 117.497 86.989 122.812 87.6344 127.958C88.388 133.967 87.2395 139.918 83.4612 144.761C79.6144 149.691 74.6073 151.807 68.5397 152.564C62.7874 152.836 57.3766 151.758 52.7625 148.149C48.501 144.817 45.9179 139.681 45.2809 134.351C44.5439 128.186 45.8596 122.217 49.7557 117.306C53.5558 112.516 58.7451 110.51 64.6554 109.846ZM64.1908 115.314C59.8474 116.208 56.5159 117.954 54.0221 121.723C51.5072 125.524 50.6935 130.604 51.6266 135.04Q51.7795 135.801 52.008 136.544Q52.2365 137.286 52.5383 138.002Q52.8402 138.717 53.2123 139.399Q53.5844 140.081 54.0231 140.721Q54.4617 141.362 54.9625 141.956Q55.4632 142.55 56.021 143.09Q56.5788 143.63 57.188 144.112Q57.7972 144.594 58.4517 145.012C61.8172 147.182 65.0056 147.331 68.9038 147.1C73.1083 146.265 76.5235 144.176 78.9143 140.579C81.4645 136.742 82.1355 131.802 81.2095 127.33Q81.0541 126.578 80.8261 125.845Q80.5982 125.112 80.3 124.405Q80.0018 123.697 79.636 123.022Q79.2703 122.347 78.8406 121.711Q78.4109 121.075 77.9213 120.483Q77.4317 119.892 76.8868 119.351Q76.3419 118.81 75.7469 118.325Q75.152 117.84 74.5126 117.415C71.6697 115.566 67.5409 114.59 64.1908 115.314Z"/>
	<path fill="#0074A1" d="M329.096 109.875Q329.562 109.827 330.03 109.801C335.815 109.48 341.851 111.064 346.227 115.015C350.456 118.832 352.676 124.519 352.953 130.119C353.244 135.977 351.464 141.759 347.473 146.131C343.813 150.139 338.569 152.306 333.187 152.543C333.148 152.55 333.109 152.558 333.07 152.564C328.28 153.217 322.535 151.537 318.668 148.705C314.151 145.398 311.299 140.466 310.453 134.953C309.541 129.009 310.749 122.8 314.354 117.928C318.035 112.955 323.13 110.765 329.096 109.875ZM328.854 115.375C324.327 116.576 321.15 118.247 318.74 122.398C316.393 126.441 315.812 131.643 317.041 136.138Q317.24 136.871 317.509 137.581Q317.779 138.291 318.117 138.971Q318.456 139.651 318.86 140.295Q319.263 140.938 319.729 141.539Q320.194 142.139 320.716 142.691Q321.238 143.243 321.812 143.74Q322.386 144.238 323.006 144.677Q323.626 145.116 324.286 145.491C326.985 147.025 330.529 147.7 333.594 147.125Q334.314 147.033 335.021 146.872Q335.728 146.71 336.416 146.479Q337.104 146.249 337.766 145.952Q338.428 145.655 339.058 145.295Q339.688 144.934 340.279 144.514Q340.87 144.093 341.417 143.617Q341.964 143.14 342.462 142.612Q342.96 142.084 343.403 141.51C346.25 137.841 347.149 133.048 346.541 128.505C345.997 124.43 343.792 120.503 340.501 118.013C337.217 115.527 333.227 114.751 329.191 115.323Q329.022 115.347 328.854 115.375Z"/>
	<path fill="#0074A1" d="M282.827 109.874Q283.41 109.813 283.995 109.787C289.879 109.501 295.796 111.249 300.185 115.285C304.528 119.278 306.555 124.716 306.796 130.53C307.031 136.198 305.057 141.945 301.186 146.131Q300.843 146.497 300.483 146.845Q300.123 147.194 299.745 147.524Q299.368 147.854 298.975 148.166Q298.582 148.477 298.174 148.768Q297.766 149.06 297.345 149.331Q296.923 149.601 296.488 149.851Q296.054 150.101 295.607 150.329Q295.161 150.557 294.703 150.763Q294.246 150.968 293.779 151.151Q293.313 151.334 292.837 151.493Q292.362 151.653 291.88 151.789Q291.397 151.924 290.908 152.036Q290.42 152.148 289.926 152.236Q289.432 152.323 288.935 152.386Q288.438 152.449 287.938 152.488Q287.438 152.526 286.937 152.54C286.906 152.546 286.875 152.553 286.844 152.558C281.785 153.296 275.851 151.343 271.835 148.312C267.574 145.096 264.958 139.966 264.225 134.736C263.4 128.843 264.515 122.663 268.153 117.858C271.87 112.948 276.848 110.695 282.827 109.874ZM282.359 115.374C277.819 116.753 274.443 118.646 272.16 122.962Q271.754 123.731 271.426 124.535Q271.097 125.34 270.849 126.173Q270.601 127.006 270.436 127.86Q270.271 128.713 270.19 129.579Q270.11 130.444 270.115 131.313Q270.119 132.182 270.209 133.047Q270.299 133.912 270.474 134.763Q270.648 135.615 270.905 136.445C272.184 140.487 274.853 143.819 278.639 145.776C281.455 147.231 284.098 147.341 287.209 147.09C290.684 146.82 294.266 144.951 296.523 142.3C299.5 138.802 300.798 134.086 300.418 129.552C300.062 125.297 298.166 121.346 294.888 118.573C291.764 115.93 287.877 114.844 283.825 115.206Q283.09 115.273 282.359 115.374Z"/>
	<path fill="#0074A1" d="M348.45 0L369.17 0L369.173 0.234384C373.837 0.762053 378.548 0.667829 383.212 1.11692C383.162 1.24625 383.109 1.37323 383.045 1.49646C382.18 3.14508 350.21 27.9548 346.701 30.4559C345.887 31.0358 345.108 31.4763 344.143 31.7641C343.566 31.6245 342.943 31.5643 342.355 31.4792C334.242 30.3062 325.749 30.1416 317.561 30.3425C278.118 31.3102 240.212 45.0563 207.066 66.0014Q198.332 71.5585 190.057 77.7773C187.086 80.0382 184.268 82.4767 181.274 84.7153C178.243 84.775 171.389 84.5074 168.683 83.4802C167.185 82.9114 165.851 81.6887 164.447 80.893C161.541 79.2459 158.268 78.0017 155.059 77.102C144.178 74.0508 132.652 73.3435 121.399 73.1523C94.4235 72.6937 67.3736 75.3697 40.6406 78.7464Q29.8162 80.0958 19.0272 81.7038C15.0706 82.304 10.8921 83.3927 6.8934 83.4635L6.84619 83.3167C6.96674 83.1355 7.10176 82.9651 7.27638 82.8328C9.7527 80.9572 16.0928 78.5011 19.2297 77.0235C26.7994 73.4579 34.2809 69.6456 41.9478 66.298C48.4805 63.4456 54.8868 60.1418 61.3388 57.0936C64.84 55.4395 68.2753 53.7341 71.9599 52.5143C78.6504 50.2993 85.7312 48.8943 92.6796 47.7886C117.464 43.8448 138.634 45.2145 163.367 47.7867C173.617 48.8528 183.95 49.978 194.11 51.7084C201.021 44.7499 212.303 37.7655 220.862 32.924C253.885 14.2447 290.804 5.21694 328.32 1.4437C334.995 0.772306 341.76 0.79149 348.453 0.23433L348.45 0ZM348.45 0L348.453 0.23433C350.492 0.500326 367.429 0.585165 369.173 0.234384L369.17 0L348.45 0Z"/>
	<path fill="#0074A1" fill-opacity="0.90196079" d="M348.45 0L369.17 0L369.173 0.234384C367.429 0.585165 350.492 0.500326 348.453 0.23433L348.45 0Z"/>
</svg>
