<?xml version="1.0" encoding="utf-8" ?>
<svg xmlns="http://www.w3.org/2000/svg" xmlns:xlink="http://www.w3.org/1999/xlink" width="300" height="134">
	<path fill="#901615" d="M102.483 83.0177C103.113 82.9535 103.815 82.8501 104.445 82.9416C105.471 83.0909 106.604 83.7459 107.215 84.5917C107.684 85.2403 107.838 86.0556 107.708 86.838C107.484 88.1745 106.394 88.7706 105.372 89.4863C104.675 89.7166 103.833 89.8105 103.113 89.6589C102.151 89.4564 101.252 88.9425 100.714 88.1021Q100.54 87.8264 100.423 87.5222Q100.306 87.2181 100.25 86.897Q100.194 86.5759 100.202 86.25Q100.209 85.9242 100.28 85.606C100.572 84.2666 101.394 83.7171 102.483 83.0177Z"/>
	<path fill="#901615" d="M210.076 82.8745C211.217 82.7042 212.205 82.8555 213.21 83.4487C214 83.9148 214.566 84.6453 214.78 85.5427C214.964 86.3156 214.802 87.1268 214.38 87.7943C213.77 88.7576 212.643 89.3962 211.558 89.6475C210.951 89.8661 210.024 89.6831 209.43 89.4643C208.595 89.1564 207.964 88.6119 207.598 87.7925C207.217 86.9398 207.227 85.8423 207.567 84.9775C208.041 83.776 208.964 83.3522 210.076 82.8745Z"/>
	<path fill="#901615" d="M212.048 93.8746C212.598 93.7537 213.073 93.7049 213.635 93.7359C213.68 93.8022 213.682 93.8011 213.724 93.8823C213.964 94.35 213.86 115.096 213.613 115.94C214.624 116.522 217.522 118.486 217.829 119.561C213.85 120.088 209.45 119.765 205.437 119.744C204.958 119.735 204.431 119.785 204.033 119.476C204.102 118.494 206.42 117.842 207.094 117.044C207.106 117.03 207.117 117.016 207.129 117.002C207.228 116.877 207.305 116.753 207.371 116.608C208.277 114.608 208.535 100.416 207.741 98.6093C207.116 97.1863 204.99 96.8417 204.505 95.5605C205.633 94.0932 210.215 94.7513 211.995 93.901C212.013 93.8924 212.03 93.8834 212.048 93.8746Z"/>
	<path fill="#901615" d="M106.298 93.545L106.387 93.5474C106.598 93.7461 106.723 93.9922 106.763 94.2858C107.019 96.173 106.769 98.4732 106.759 100.399C106.729 105.875 106.515 111.478 106.905 116.939C107.941 117.346 109.45 117.888 110.188 118.734C110.334 118.902 110.27 119.059 110.256 119.273C108.844 120.291 100.402 119.747 98.1876 119.735C97.8281 119.762 97.3742 119.636 97.0161 119.574L96.9006 119.335C97.4572 118.342 99.1384 117.815 100.061 117.132C100.633 115.776 100.878 100.31 100.51 98.752C100.187 97.3842 98.47 96.611 97.3686 95.9491L97.369 95.5907C99.2912 94.0239 103.825 94.4918 106.298 93.545Z"/>
	<path fill="#901615" d="M175.303 93.874C176.71 93.6417 178.611 93.5374 179.91 94.2401C180.448 94.5308 180.902 94.9759 181.065 95.5784C181.312 96.4886 180.972 97.4944 180.528 98.289C180.106 99.0438 179.375 100.024 178.493 100.242C177.928 100.381 176.721 98.8933 176.169 98.5553C174.897 98.4829 173.288 98.2237 172.072 98.6503C170.269 99.2831 172.727 114.985 171.584 117.362C172.874 117.775 174.808 118.188 175.742 119.177L175.535 119.511C173.439 120.155 170.413 119.803 168.187 119.799C166.311 119.842 163.787 120.218 161.988 119.727C161.66 118.792 164.756 117.801 165.144 116.314C165.645 114.397 165.689 99.5066 164.85 98.042C164.29 97.6383 163.224 97.5808 162.558 97.2863C161.932 97.0099 161.79 96.8293 161.565 96.2166L161.758 95.9502C163.379 95.2706 169.258 93.6581 170.703 94.0709C170.851 94.5439 170.932 95.0103 171.006 95.5C171.865 95.477 174.418 94.297 175.303 93.874Z"/>
	<path fill="#901615" d="M227.407 88.6235C227.785 88.56 228.077 88.577 228.453 88.632C228.64 88.8985 228.745 89.1748 228.808 89.4933C229.064 90.7891 229.01 93.2109 228.264 94.3305C231.219 94.2507 234.377 94.0003 237.308 94.4097C237.424 94.5619 237.519 94.7213 237.59 94.899C237.975 95.8707 237.8 96.8055 237.397 97.7273C234.399 97.7289 231.399 97.7692 228.408 97.539C230.002 101.028 227.347 112.078 230.188 115.483C231.973 117.622 234.653 116.228 237 116.459L237.242 116.794L236.97 116.469L237.074 117.082C236.754 117.475 236.207 117.81 235.804 118.126C235.688 118.344 235.569 118.53 235.386 118.701C234.082 119.924 230.688 120.395 228.964 120.265C227.243 120.135 225.775 119.425 224.657 118.102C221.231 114.045 222.426 103.233 222.832 98.0976C221.868 97.4939 220.667 98.0633 219.677 97.4407C219.7 96.0508 223.034 94.472 224.075 93.5043C225.043 92.605 227.011 89.9771 227.375 88.7367C227.386 88.6991 227.396 88.6612 227.407 88.6235Z"/>
	<path fill="#901615" d="M189.851 93.6245C192.478 93.2859 196.939 93.0501 199.354 94.2883C200.022 95.1575 199.73 98.6819 199.64 99.9239C199.597 100.521 199.435 100.733 199.005 101.105C197.564 100.715 197.611 98.7726 196.552 97.8145C196.536 97.8002 196.52 97.7865 196.504 97.7725C196.478 97.7495 196.453 97.7261 196.427 97.7036C195.622 97.0122 193.808 96.5339 192.742 96.6406C191.643 96.7505 190.432 97.3867 189.735 98.2438C189.313 98.7636 189.041 99.3975 189.124 100.076C189.443 102.663 195.845 105.194 197.892 106.873C199.342 108.063 200.588 109.593 200.762 111.526C200.927 113.372 200.114 115.547 198.94 116.954C197.323 118.892 195.141 119.526 192.725 119.731C189.607 120.083 186.359 119.69 183.243 119.412C184.306 117.302 182.737 114.097 183.85 111.896C183.937 111.725 184.08 111.728 184.255 111.67C185.838 112.803 185.999 115.401 187.781 116.488C189.268 117.395 192.227 116.727 193.863 116.351C194.215 116.081 194.449 115.633 194.646 115.241C195.031 114.473 195.245 113.684 194.97 112.847C195.051 110.726 186.194 107.353 184.47 102.897C183.851 101.298 183.827 99.7359 184.526 98.1615C185.583 95.7799 187.528 94.5198 189.851 93.6245Z"/>
	<path fill="#901615" d="M113.407 94.3557C115.518 94.384 120.173 93.6875 121.914 94.3393C122.252 94.4659 122.245 94.563 122.385 94.8817C122.017 95.7241 120.957 96.2534 120.206 96.743C120.789 100.415 122.685 104.195 123.968 107.699C124.382 108.83 124.62 110.023 125.107 111.125L125.333 111.055C125.84 110.336 130.538 98.2926 130.525 97.5767C130.498 96.1688 128.803 96.1715 127.993 95.3722C127.797 95.1787 127.86 94.9589 127.861 94.6972C128.859 93.9136 136.153 94.4418 137.875 94.5891L138.009 94.9646C137.571 96.0469 136.201 97.0284 135.372 97.8387C135.378 97.879 135.386 97.919 135.39 97.9595C135.415 98.2023 127.341 116.133 126.658 117.513C126.24 118.358 125.78 119.217 125.138 119.915C124.739 120.347 124.128 120.775 123.518 120.776C123.101 120.776 122.865 120.721 122.578 120.415C121.069 118.803 115.762 103.575 114.428 100.161C113.986 99.0316 111.218 95.3482 111.228 94.8883C111.783 94.3235 112.664 94.3988 113.407 94.3557Z"/>
	<path fill="#901615" d="M147.493 93.624Q147.97 93.5845 148.447 93.5551C151.35 93.3792 154.029 93.8923 156.256 95.8822C158.358 97.7602 159.691 100.81 159.829 103.613C159.866 104.366 159.794 105.396 159.245 105.967C158.847 106.381 158.541 106.378 157.995 106.399C155.923 106.476 153.765 106.09 151.688 105.993C148.776 105.857 145.812 105.95 142.897 105.969C144.257 107.743 144.17 110.774 145.192 112.842C145.932 114.342 147.269 115.199 148.817 115.712C151.279 116.527 153.938 116.64 156.296 115.469C157.157 115.26 157.687 115.052 158.499 115.442L158.591 115.972C157.933 117.451 156.191 118.462 154.761 119.073C151.576 120.434 147.396 120.564 144.169 119.248C141.545 118.178 139.536 116.054 138.446 113.455C136.822 109.581 137.399 104.629 138.954 100.803C141.089 95.5479 142.886 95.5758 147.493 93.624ZM147.496 96.6226C143.993 98.2226 144.84 100.553 142.668 102.826L149.039 102.861C150.365 102.853 151.677 102.834 153 102.726C153.28 101.699 152.862 99.7888 152.344 98.8584C151.733 97.7603 150.699 97.0225 149.503 96.6939C148.814 96.5046 148.197 96.5326 147.496 96.6226Z"/>
	<path fill="#901615" d="M259.513 96.8445L259.419 96.7806C258.591 96.2318 257.817 96.2496 257.204 95.4208C257.213 95.1771 257.161 94.9257 257.352 94.7557C258.605 93.6407 264.83 94.3676 266.647 94.5494C266.776 94.5622 266.902 94.5937 267.026 94.629C266.766 96.066 264.045 98.8143 263.277 100.574C262.37 102.651 261.729 104.927 260.946 107.061L255.692 121.258C254.651 124.056 253.706 127.109 252.175 129.684C251.545 130.744 250.725 131.648 249.708 132.349C248.643 133.083 247.115 133.259 246.203 134L240.959 134C240.505 133.186 237.291 132.803 237.639 131.563C238.009 130.242 239.446 129.364 239.848 127.99L239.911 128.017C241.675 128.778 243.769 131.311 245.888 130.48C248.223 129.564 249.951 125.688 250.843 123.474C251.13 122.762 251.632 121.586 251.524 120.803C251.241 118.732 248.643 113.386 247.788 111.19C246.056 106.741 244.555 102.154 242.716 97.7552C242.566 97.3956 242.339 97.0519 242.11 96.7381C241.405 96.2737 240.386 95.955 240.037 95.1466L240.183 94.6084C242.162 94.3369 250.067 93.6564 251.513 94.7639C251.542 94.7862 251.57 94.8098 251.599 94.8328C251.552 95.3817 251.372 95.522 250.961 95.8623C250.424 96.3079 249.59 96.6438 248.936 96.8927C250.131 99.4458 253.787 109.334 254.208 111.798C254.291 112.287 254.224 112.728 254.091 113.2C255.247 112.133 259.579 99.3378 259.632 97.7425C259.64 97.5213 259.605 97.3176 259.565 97.102C259.559 97.0705 259.555 97.0387 259.549 97.007C259.54 96.9524 259.527 96.8983 259.513 96.8445Z"/>
	<path fill="#901615" d="M82.8543 93.8278C82.9326 93.8097 83.0098 93.7974 83.0899 93.7901C85.3512 93.582 87.7747 93.9312 89.5632 95.433C94.4216 99.5127 92.4108 111.427 92.9273 117.335C93.634 117.675 94.5595 118.026 95.1507 118.536C95.5222 118.857 95.5853 118.942 95.6207 119.422C95.5513 119.476 95.538 119.49 95.4709 119.533C94.9634 119.865 84.5466 120.022 83.778 119.833C83.2935 119.714 83.2704 119.663 83.0301 119.258C83.5929 118.066 85.4879 118.268 86.0071 116.763C86.9703 113.972 86.5954 104.337 86.0017 101.275C85.8316 100.397 85.4405 99.5637 85.0612 98.7599C81.9914 97.7769 79.859 97.9007 76.7304 98.5426C76.5224 100.713 76.7101 103.077 76.7156 105.264C76.7258 109.229 76.587 113.27 76.9004 117.22C78.3483 118.102 79.7447 118.989 81.0803 120.036C76.7647 119.663 72.4356 119.841 68.112 119.617L67.9685 119.884L67.8211 119.388L67.1267 119.494C67.0942 119.036 69.2582 117.818 69.7556 117.21C70.075 116.82 70.3045 116.344 70.3772 115.844C70.6487 113.974 70.4518 111.793 70.4496 109.897C70.4449 105.869 70.5858 101.739 70.1748 97.7296C69.1202 97.6198 67.9207 97.6219 67.1053 96.8704C67.0018 96.3108 67.1085 96.2189 67.3821 95.7187C68.9441 94.977 73.8218 94.0275 75.524 94.4961C76.0886 94.6516 76.1531 94.7791 76.4275 95.261C76.5199 95.3118 76.6876 95.4372 76.7834 95.4569C76.7985 95.46 81.6404 93.9965 82.8543 93.8278Z"/>
	<path fill="#901615" d="M31.9577 84.0752C33.9149 83.9351 35.9403 84.1462 37.9059 84.1625C40.0608 84.1803 42.2459 83.9685 44.3906 84.2033L44.6712 84.5617C44.3615 85.4576 42.5656 86.5153 41.8044 87.1102C41.4288 91.8287 41.6156 96.6962 41.6107 101.428C41.6074 104.605 41.2778 108.235 41.8413 111.364C42.1626 113.148 43.0639 114.76 44.576 115.796C47.5268 117.817 51.4242 116.941 54.6724 116.343C55.3153 115.777 55.9306 115.194 56.427 114.492C57.2849 113.278 57.6961 111.638 57.9194 110.186C58.5713 105.947 58.6426 91.2031 57.9094 87.0695C56.777 86.488 55.4242 85.9775 54.7114 84.8721L54.9118 84.4284C56.8559 83.7514 60.3577 84.246 62.4973 84.2673C63.6975 84.2441 65.0985 84.0772 66.2284 84.5307L66.3729 84.9164C65.8247 85.8379 64.6717 86.4222 63.7856 86.9938C63.0072 91.9597 63.4831 97.4524 63.3239 102.502C63.1841 106.937 63.427 113.595 59.9306 116.842C56.6333 119.905 51.7288 120.279 47.4523 120.113C36.2569 119.681 35.1984 113.125 35.2116 103.812L35.2713 92.9989C35.2884 91.4651 35.633 88.9241 35.0171 87.532C34.2865 85.8809 32.9312 85.972 31.8735 84.8297L31.9577 84.0752Z"/>
	<path fill="#901615" d="M238.58 25.7852C243.239 24.0367 243.277 21.9243 249.647 22.2137C251.376 22.2923 253.62 22.5052 254.838 23.9037C255.309 24.4443 255.527 25.1546 255.484 25.8661C255.345 28.1679 253.291 30.929 251.592 32.4141C250.27 32.2519 248.062 30.1255 246.726 29.4699C245.148 28.6958 243.121 28.2249 241.409 28.823C241.069 28.9417 240.314 29.3126 240.167 29.6341C239.35 31.4234 239.517 55.8122 240.354 57.9687C241.128 59.9646 243.372 59.4795 244.993 60.2077L245.05 60.2338C245.39 60.268 245.72 60.3204 246.055 60.3916C246.589 60.5053 246.632 60.5199 246.927 60.9746C246.919 61.5606 246.974 62.1283 246.574 62.6025L225.661 62.5775C225.129 62.271 225.059 62.247 224.843 61.6688C225.253 60.16 228.053 59.6791 229.169 58.699C230.26 57.7403 230.203 55.9718 230.281 54.6121C230.463 51.4672 230.772 29.2464 229.902 28.3191C229.079 27.4411 226.255 27.6005 225.09 27.5606C225.502 26.5973 225.004 25.3082 224.659 24.3924C228.883 23.8048 234.127 24.1477 238.087 22.3746L239 22.3847C239.247 22.5983 239.442 22.7048 239.519 23.0408C239.725 23.946 239.03 25.0438 238.58 25.7852Z"/>
	<path fill="#901615" d="M49.2105 13.5927C49.6666 13.6214 49.8785 13.7115 50.2349 13.9964C51.24 16.4055 50.8993 20.1348 50.5469 22.6851C54.7822 22.1321 59.4926 22.4955 63.7935 22.3977C63.858 24.4735 63.8585 26.4899 63.6721 28.5594Q57.181 28.2523 50.6828 28.2125C50.9667 34.0256 49.594 51.6704 51.9701 55.7198C54.7328 60.4282 59.8328 56.5855 63.4188 57.516C63.6389 57.711 63.876 57.8287 63.8979 58.1374C63.9521 58.9034 63.073 59.7124 62.5835 60.2294C59.618 62.4609 56.5294 63.6907 52.7747 63.6545C49.679 63.6247 46.5999 62.7803 44.3947 60.5037C43.0268 59.0915 42.1303 57.3417 41.6991 55.4283C40.8569 51.6911 41.2419 47.3279 41.2648 43.5069L41.3727 28.3982C39.9927 28.4512 37.4172 28.8334 36.2836 27.9483L36.2099 27.2934C37.0895 25.1563 40.9446 23.9345 42.673 22.27C45.3393 19.7022 46.8165 16.3476 49.2105 13.5927Z"/>
	<path fill="#901615" d="M173.997 0L180.202 0C182.441 1.53798 186.666 0.862787 188.37 3.5633C188.38 3.72617 188.362 3.88148 188.322 4.03928C187.874 5.81024 184.808 9.32157 183.283 10.2246C183.268 10.1247 183.249 10.0257 183.222 9.92824C182.788 8.37093 180.664 6.33445 179.292 5.59432C177.784 4.78044 175.962 4.43985 174.297 4.9446C167.559 6.98645 172.598 18.2546 170.25 22.6183L170.212 22.6858C172.115 22.475 174.171 22.4054 176.086 22.4346C177.248 22.4523 178.747 22.4512 179.608 23.3374C180.04 24.4943 180.12 26.0291 179.641 27.1871C178.19 30.6962 172.81 27.2053 170.76 28.0447C170.543 30.5261 170.726 33.1642 170.721 35.6609Q170.684 43.0944 170.735 50.5274C170.761 52.9878 171.153 56.073 170.675 58.4457C172.723 59.4429 175.415 59.7074 177.266 60.8459C177.594 61.3907 177.718 61.695 177.63 62.3315C177.242 62.6381 176.738 62.635 176.264 62.6737C174.001 62.8584 156.045 62.6752 155.396 62.1235C155.767 60.4585 159.263 60.0429 160.333 58.3816C161.487 56.5917 161.725 31.4551 161.043 28.4075L161.023 28.322C159.815 28.4298 157.689 28.6802 156.603 28.1764C156.193 27.5776 156.086 27.425 156.023 26.7109C156.768 24.6763 159.593 24.5963 160.85 23.0992C160.875 23.0702 160.898 23.0403 160.922 23.0109C162.042 21.2979 160.499 11.6512 164.346 5.8229C166.616 2.38406 169.906 1.19308 173.744 0.398001L173.997 0Z"/>
	<path fill="#901615" d="M0 49.2241C0.726423 49.2165 1.60989 49.0905 2.2147 49.553C4.32899 53.6133 3.19085 55.4827 8.75619 57.2175C12.0362 58.24 17.1978 58.3528 20.2972 56.6904C22.0285 55.7618 23.5074 53.9023 24.0709 52.0223C24.7609 49.7201 24.3194 46.906 23.1822 44.821C17.9576 35.2417 -3.14313 32.7806 1.66924 15.9657C2.79307 12.039 5.36008 9.22612 8.88382 7.2855C14.8019 4.02624 26.4671 5.02279 32.836 6.43016C32.7905 8.52769 32.9296 17.2851 31.6099 18.4697C31.4906 18.5768 31.363 18.5857 31.2117 18.6246C27.6623 16.7602 31.9274 10.7021 21.0285 10.2941C18.7486 10.2087 16.224 10.2479 14.0268 10.9223C12.3917 11.4242 11.2703 12.6812 10.5009 14.1689Q10.3337 14.4944 10.1997 14.8348Q10.0656 15.1753 9.96596 15.5273Q9.86632 15.8794 9.80208 16.2396Q9.73785 16.5998 9.70966 16.9646Q9.68147 17.3294 9.6896 17.6952Q9.69773 18.061 9.7421 18.4242Q9.78647 18.7874 9.86664 19.1444Q9.94682 19.5014 10.062 19.8487C13.1387 29.1106 34.6805 31.3134 33.2179 47.1992C33.0193 49.3566 32.7479 51.6535 31.7872 53.6217C29.9562 57.3731 26.3573 59.9205 22.4831 61.2242C18.5306 62.5543 5.37345 63.568 1.72518 61.7335C1.20147 61.4702 0.79937 61.0951 0.617588 60.5246C-0.135475 58.1608 1.10765 54.9239 0 52.6421L0 49.2241Z"/>
	<path fill="#901615" d="M131.822 22.1241C133.778 22.042 135.733 22.1035 137.633 22.6151C140.603 23.4143 143.072 25.2853 144.588 27.9704C145.411 29.4274 145.911 31.0686 146.151 32.7205C146.529 35.3286 147.114 58.0466 146.733 59.4084L146.861 59.448C148.159 59.8657 151.205 60.6711 151.841 61.963L151.634 62.3299C149.673 63.2498 138.118 62.8369 135.078 62.7982C133.94 62.7837 132.249 62.9136 131.426 62.0711C132.038 60.3528 134.951 60.543 136.034 59.0319C138 56.2905 137.529 39.2579 136.942 35.447C136.658 33.6018 136.062 30.9858 134.486 29.8271C133.858 29.1669 132.952 28.8563 132.077 28.6771C129.829 28.2171 124.332 27.9833 122.449 29.38C121.867 29.8116 121.881 30.2852 121.777 30.9377C121.843 35.2251 121.051 55.6622 122.312 58.1671C123.222 59.9738 125.992 60.4007 127.014 62.0487C127.161 62.2868 127.095 62.3589 127.034 62.6158C126.408 62.8667 125.813 62.8933 125.147 62.9131C122.702 62.9857 120.247 62.7302 117.8 62.7297C115.17 62.7292 109.977 63.4691 107.709 62.885C107.384 62.8014 107.305 62.5029 107.141 62.2247C107.524 60.175 111.109 60.3743 111.938 58.2456C111.954 58.2041 111.969 58.1622 111.985 58.1206C112.776 56.0583 112.526 33.6444 112.287 30.0324C112.047 26.4209 109.219 27.8536 107.354 26.126C106.972 25.7728 107.025 25.5101 106.994 25.0261C108.23 23.8635 112.08 24.3185 113.814 23.9519C115.603 23.5739 117.434 22.6431 119.248 22.5142C119.869 22.4702 120.267 22.5978 120.731 23.0037C121.184 23.7515 120.882 24.896 120.769 25.7307C124.445 23.4047 127.434 22.3563 131.822 22.1241Z"/>
	<path fill="#901615" d="M83.6721 21.8536C85.7172 21.4407 87.9333 21.8214 89.8814 22.4525C92.9088 23.4332 95.4691 25.2467 96.8034 28.2255C98.7058 32.4726 97.7114 45.2096 97.6571 50.4543C97.6396 52.147 97.3382 54.4872 98.1437 56.0122C99.4768 58.5362 100.874 56.2564 102.586 56.8086C102.868 57.3456 103.046 57.6171 102.929 58.2493C102.694 59.5279 101.387 60.8127 100.368 61.5198C98.5137 62.8065 95.9881 63.6722 93.7234 63.2331C91.4022 62.7831 89.8713 61.4344 88.5814 59.5282C87.3464 60.6214 85.8911 61.6182 84.3587 62.2285C80.3142 63.8391 75.9882 63.1504 72.1104 61.4848L72.0578 61.4508C69.8344 59.9871 68.1706 57.4334 67.636 54.8486C67.0222 51.8811 67.4745 48.619 69.1575 46.0689C72.3602 41.2162 82.9987 38.3848 88.5637 37.2653C88.5428 34.9891 88.3703 32.4813 87.2841 30.4401C86.5575 29.0746 85.4339 28.1408 83.9557 27.6885C81.8141 27.0332 77.5866 27.1498 75.8847 28.717C74.9496 29.5781 74.0922 30.9924 72.9558 31.5582C72.3971 31.8364 71.9081 31.9336 71.3217 31.7364C71.185 31.5079 71.0712 31.2674 71.0541 30.9971C70.9639 29.5691 71.9751 27.623 72.8739 26.5646C75.7076 23.228 79.5058 22.1995 83.6721 21.8536ZM87.9364 42.5494C84.2401 44.2267 78.934 44.5212 77.3202 48.8652C76.6812 50.5855 76.5444 52.1763 77.3321 53.8665C77.7894 54.8478 78.4309 55.6763 79.3141 56.3088C82.7219 57.817 85.1229 56.9533 88.4998 55.9767C88.4517 53.9898 88.7866 43.3495 88.2191 42.5591L87.9364 42.5494Z"/>
	<path fill="#901615" d="M201.092 21.8748Q201.405 21.8542 201.718 21.8393C206.829 21.5997 211.757 22.9013 215.597 26.4051C219.753 30.1976 221.399 35.1092 221.636 40.6195C221.887 46.4662 220.146 52.9192 216.132 57.2886C212.229 61.5367 207.377 63.3047 201.687 63.5454C196.923 63.6406 192.031 62.3861 188.33 59.2893C184.182 55.8178 182.354 50.912 181.903 45.6377C181.384 39.5803 182.956 32.8129 186.944 28.1048C190.833 23.5127 195.296 22.361 201.092 21.8748ZM199.339 26.8745C196.596 27.8617 194.656 30.0136 193.421 32.6184C191.003 37.7207 191.119 46.1348 193.016 51.3958C193.988 54.0899 195.777 56.6915 198.433 57.9342C200.005 58.6701 201.606 58.5748 203.304 58.4665C205.453 58.1865 207.14 56.9557 208.44 55.2517C211.934 50.6708 211.912 43.3167 211.156 37.8735C210.677 34.4327 209.356 30.4885 206.492 28.3254C204.287 26.6597 201.981 26.5078 199.339 26.8745Z"/>
	<path fill="#901615" d="M285.102 22.4843C285.664 20.8745 285.531 7.46632 284.938 5.91422C284.386 4.46753 281.909 4.72054 280.656 4.15875C280.259 3.60772 280.253 3.58525 280.3 2.90794C282.018 2.34106 293.336 0.281623 294.554 0.514381C294.605 0.569072 294.661 0.633528 294.693 0.70059C295.271 1.89304 294.753 12.2624 294.751 14.3282L294.737 45.9143C294.749 48.0556 295.286 56.161 294.845 57.6158C296.344 58.1413 297.968 58.9778 299.57 59.0155C299.865 59.7321 300.109 60.1214 299.792 60.9091C299.744 61.0266 299.688 61.1404 299.631 61.2532C299.597 61.2648 299.563 61.2787 299.529 61.2879C298.069 61.6779 286.718 63.0894 286.043 62.7568C285.703 61.9686 285.768 61.2288 285.804 60.3916L285.533 60.1168C283.819 60.337 282.047 61.7439 280.406 62.348C276.266 63.8718 270.747 63.3558 266.772 61.5141C262.802 59.6744 259.68 56.0738 258.206 51.9735C256.214 46.4321 256.678 38.0257 259.197 32.7056Q259.592 31.8669 260.067 31.0715Q260.543 30.276 261.095 29.5315Q261.648 28.7871 262.271 28.1009Q262.894 27.4148 263.582 26.7937Q264.27 26.1726 265.016 25.6227Q265.762 25.0727 266.559 24.5994Q267.356 24.126 268.196 23.7338Q269.035 23.3417 269.91 23.0346C273.925 21.6032 281.142 20.6063 285.102 22.4843ZM277.073 26.8749C273.811 27.4722 271.665 27.9576 269.673 30.8731C266.859 34.9912 266.2 41.8375 267.134 46.6475C267.82 50.1743 269.711 53.5602 272.728 55.5974C273.589 56.1789 274.569 56.566 275.559 56.8663C277.969 57.137 283.085 57.6801 285.162 56.2303C285.678 54.9921 285.528 29.9521 285.164 29.0637C285.133 28.9859 285.097 28.9113 285.059 28.8365C283.043 27.6622 279.408 26.5863 277.073 26.8749Z"/>
</svg>
