<svg width="173" height="40" viewBox="0 0 173 40" fill="none" xmlns="http://www.w3.org/2000/svg">
<path fill-rule="evenodd" clip-rule="evenodd" d="M25.6513 24.4839C25.6513 25.662 24.6979 26.6165 23.5176 26.6165H2.90199C1.7228 26.6165 0.768311 25.662 0.768311 24.4839V2.84527C0.768311 1.66607 1.7228 0.708374 2.90199 0.708374H23.5176C24.6979 0.708374 25.6513 1.66607 25.6513 2.84527V24.4839Z" fill="#253667"/>
<path fill-rule="evenodd" clip-rule="evenodd" d="M21.6579 4.45996V22.7236H16.9154V15.6816H9.46247V22.7236H4.72107V4.45996H9.46247V11.0675H16.9154V4.45996H21.6579Z" fill="#FFFFFE"/>
<path fill-rule="evenodd" clip-rule="evenodd" d="M8.59038 39.3041C8.59894 38.7712 8.96062 38.3121 8.96062 38.3121C9.27093 37.9922 9.50099 37.179 12.4276 36.6857C13.7234 36.4706 15.1883 36.477 16.7367 36.4877C19.1839 36.5016 21.7135 36.5166 24.2078 35.7001C24.2495 35.6873 24.3234 35.6552 24.3234 35.6552H24.3212C26.8594 34.8783 29.5709 33.0978 32.1925 31.3622C33.7601 30.3296 35.2379 29.3537 36.5776 28.6539C37.2228 28.336 37.837 28.0846 38.4512 27.8802C40.5956 27.174 42.9754 27.1922 45.275 27.2082C46.894 27.2178 48.4252 27.2285 49.8345 26.9899L49.9062 26.9792C51.4192 26.7256 54.5737 26.1949 54.9108 23.3325C54.9044 23.371 54.9204 23.3132 54.9204 23.3132L54.93 23.2768L54.9279 0.697674H52.8381C52.8231 1.14282 52.6284 1.50021 52.363 1.79769C51.9628 2.24818 51.6065 2.80782 48.9463 3.2872C47.6558 3.51726 46.1888 3.49265 44.6404 3.48409C42.1911 3.47232 39.6615 3.45413 37.165 4.27272C36.4321 4.51455 35.6948 4.82272 34.9169 5.20473C33.4231 5.97945 31.8886 6.99493 30.2664 8.06605C28.9652 8.92423 27.6352 9.79633 26.35 10.5315V3.14274C26.35 1.40926 24.8295 0 22.9612 0H3.38778C1.51626 0 0 1.40926 0 3.14274V24.2763C0 26.0119 1.51626 27.4222 3.38778 27.4222H6.67605V39.3041H8.59038ZM1.32579 24.2763V3.14274C1.32579 2.14224 2.25032 1.32686 3.38778 1.32686H22.9612C24.0997 1.32686 25.0221 2.14224 25.0221 3.14274V24.2763C25.0221 25.2778 24.0997 26.0932 22.9612 26.0932H3.38778C2.25032 26.0932 1.32579 25.2778 1.32579 24.2763Z" fill="#FFFFFE"/>
<path fill-rule="evenodd" clip-rule="evenodd" d="M49.1828 21.3754C45.7212 21.9532 41.4485 21.0522 37.6016 22.3106C36.89 22.5492 36.1999 22.8424 35.5311 23.1709C33.0453 24.4604 30.1594 26.639 27.3687 28.273C26.6892 28.6229 26.0344 28.9599 25.4276 29.2735C24.7824 29.5955 24.119 29.8738 23.4299 30.1038C23.4074 30.1113 23.3828 30.122 23.3582 30.1306V30.1338H23.3571C19.46 31.4136 15.0364 30.5233 11.7759 31.0701C10.5004 31.2852 8.02967 31.665 7.8071 33.5676V37.9901C8.08852 36.064 10.9488 35.4872 12.2221 35.2732C15.6848 34.6901 19.9554 35.5975 23.8033 34.3327C23.829 34.3262 23.8525 34.3123 23.8793 34.3059C27.6994 33.1706 32.2856 29.2895 35.9741 27.373C36.6471 27.0413 37.333 26.7481 38.0478 26.5159C41.9471 25.2319 46.3707 26.1254 49.6258 25.5754C50.9024 25.3613 53.3731 24.9804 53.5968 23.0811V18.6575C53.3153 20.5825 50.4562 21.1593 49.1828 21.3754Z" fill="#932235"/>
<path fill-rule="evenodd" clip-rule="evenodd" d="M49.1828 12.8984C45.7212 13.4806 41.4485 12.5764 37.6016 13.838C36.89 14.0723 36.1999 14.3633 35.5311 14.6951C32.7532 16.1375 29.4682 18.6896 26.3843 20.3492V24.944C29.5955 23.2961 33.0646 20.5675 35.9741 19.0566C36.6471 18.7249 37.333 18.4349 38.0478 18.1984C41.9471 16.9165 46.3707 17.8078 49.6258 17.2621C50.9024 17.0449 53.3731 16.6661 53.5968 14.7646V10.1794C53.3153 12.1087 50.4562 12.6866 49.1828 12.8984Z" fill="#932235"/>
<path fill-rule="evenodd" clip-rule="evenodd" d="M49.1828 4.5809C45.7212 5.16408 41.4485 4.25882 37.6016 5.52041C36.89 5.75368 36.1999 6.04795 35.5311 6.37966C32.7532 7.81995 29.4682 10.372 26.3843 12.0306V16.4681C29.5955 14.8234 33.0646 12.0905 35.9741 10.5807C36.6471 10.249 37.333 9.95685 38.0478 9.7225C41.9471 8.44058 46.3707 9.33193 49.6258 8.78407C50.9024 8.57113 53.3731 8.19126 53.5968 6.28871V1.86511C53.3153 3.79014 50.4562 4.36796 49.1828 4.5809Z" fill="#932235"/>
<path fill-rule="evenodd" clip-rule="evenodd" d="M61.8073 13.9557H64.2898L67.486 22.7558H65.4636L64.7178 20.5986H61.162L60.3809 22.7558H58.3553L61.8073 13.9557ZM64.3925 19.4772L62.9982 15.1392H62.9629L61.5184 19.4772H64.3925Z" fill="#253667"/>
<path fill-rule="evenodd" clip-rule="evenodd" d="M68.0307 16.1236H69.7653V16.9016H69.8188C70.2746 16.312 71.1424 15.9535 72.0081 15.9535C73.32 15.9535 73.8646 16.4093 74.1343 16.9636C74.665 16.3227 75.3434 15.9535 76.4499 15.9535C77.7393 15.9535 78.6745 16.4329 78.6745 17.7148V22.7558H76.8394V18.2081C76.8394 17.3435 76.482 17.0139 75.7329 17.0139C74.9871 17.0139 74.2723 17.443 74.2723 18.3065V22.7558H72.4361V18.2081C72.4361 17.3435 72.0755 17.0139 71.3136 17.0139C70.5817 17.0139 69.868 17.443 69.868 18.3065V22.7558H68.0307V16.1236Z" fill="#253667"/>
<path fill-rule="evenodd" clip-rule="evenodd" d="M81.4962 19.6108V19.9939C81.4962 20.8789 81.6492 22.0131 83.0285 22.0131C84.3383 22.0131 84.4913 20.9291 84.4913 20.5364H86.2248C86.2248 22.0024 84.9996 22.9259 83.0125 22.9259C81.5144 22.9259 79.66 22.6059 79.66 19.5381C79.66 17.7992 80.1736 15.9502 83.0446 15.9502C85.5956 15.9502 86.2761 17.063 86.2761 18.91V19.6108H81.4962ZM84.4421 18.7002V18.3428C84.4421 17.5039 84.0654 16.8651 83.0285 16.8651C81.8568 16.8651 81.4962 17.7019 81.4962 18.5643V18.7002H84.4421Z" fill="#253667"/>
<path fill-rule="evenodd" clip-rule="evenodd" d="M87.5163 16.1236H89.3536V17.1605H89.3868C89.7966 16.4222 90.475 15.9535 91.5141 15.9535C91.7152 15.9535 91.8372 15.9749 91.956 16.0006V17.3574C91.819 17.3328 91.4969 17.2836 91.1877 17.2836C90.3563 17.2836 89.3536 17.5532 89.3536 18.787V22.7558H87.5163V16.1236Z" fill="#253667"/>
<path fill-rule="evenodd" clip-rule="evenodd" d="M92.6868 15.1894H94.523V13.8583H92.6868V15.1894ZM92.6868 22.7547H94.523V16.1236H92.6868V22.7547Z" fill="#253667"/>
<path fill-rule="evenodd" clip-rule="evenodd" d="M102.278 20.3385C102.158 21.9297 101.411 22.9259 99.1489 22.9259C96.4962 22.9259 95.7461 21.4963 95.7461 19.4397C95.7461 17.383 96.4962 15.9534 99.1489 15.9534C101.887 15.9278 102.294 17.5039 102.294 18.3322H100.455C100.455 17.7147 100.218 16.9143 99.1489 16.939C97.8188 16.939 97.5834 17.9748 97.5834 19.4397C97.5834 20.9067 97.8188 21.9393 99.1489 21.9393C100.169 21.9532 100.542 21.3369 100.542 20.3385H102.278Z" fill="#253667"/>
<path fill-rule="evenodd" clip-rule="evenodd" d="M109.383 21.3743C109.383 21.6215 109.586 21.844 109.859 21.844C109.979 21.844 110.1 21.8301 110.167 21.8077V22.668C109.944 22.7429 109.621 22.8263 109.267 22.8263C108.449 22.8263 107.766 22.5952 107.718 21.9532H107.683C107.189 22.6059 106.476 22.9259 105.403 22.9259C103.945 22.9259 103.028 22.3363 103.028 21.064C103.028 19.5862 103.908 19.2802 105.149 18.9838L106.578 18.7002C107.241 18.5643 107.647 18.4284 107.647 17.8495C107.647 17.2471 107.36 16.8651 106.389 16.8651C105.166 16.8651 104.997 17.4932 104.997 18.1331H103.261C103.261 16.7281 104.061 15.9502 106.476 15.9502C108.091 15.9502 109.383 16.4071 109.383 17.5799V21.3743ZM107.647 19.2556C107.172 19.5263 106.155 19.6857 105.609 19.8698C105.082 20.0571 104.862 20.4508 104.862 20.9441C104.862 21.4963 105.234 21.9414 105.999 21.9414C107.104 21.9414 107.647 21.3368 107.647 20.3642V19.2556Z" fill="#253667"/>
<path fill-rule="evenodd" clip-rule="evenodd" d="M110.982 16.1236H112.716V16.9016H112.77C113.224 16.312 114.094 15.9535 115.114 15.9535C116.507 15.9535 117.394 16.4093 117.394 17.7522V22.7558H115.557V18.2081C115.557 17.3435 115.2 17.0139 114.282 17.0139C113.534 17.0139 112.819 17.443 112.819 18.3065V22.7558H110.982V16.1236Z" fill="#253667"/>
<path fill-rule="evenodd" clip-rule="evenodd" d="M123.837 13.9557H125.776V17.4815H129.347V13.9557H131.286V22.7558H129.347V18.6639H125.776V22.7558H123.837V13.9557Z" fill="#253667"/>
<path fill-rule="evenodd" clip-rule="evenodd" d="M135.602 15.9502C138.275 15.9502 139.022 17.383 139.022 19.4396C139.022 21.4963 138.153 22.9259 135.602 22.9259C133.068 22.9259 132.203 21.4963 132.203 19.4396C132.203 17.383 132.952 15.9502 135.602 15.9502ZM135.602 21.9414C136.945 21.9414 137.184 21.1271 137.184 19.4396C137.184 17.9747 136.945 16.9389 135.602 16.9389C134.279 16.9389 134.04 17.9747 134.04 19.4396C134.04 21.1271 134.279 21.9414 135.602 21.9414Z" fill="#253667"/>
<path fill-rule="evenodd" clip-rule="evenodd" d="M144.105 18.0583V17.8892C144.105 17.3574 143.85 16.8652 142.897 16.8652C142.167 16.8652 141.589 17.1113 141.589 17.7266C141.589 18.2434 141.915 18.4553 142.882 18.7003L144.055 18.9978C145.416 19.3295 146.044 19.8581 146.044 20.9068C146.044 22.3224 144.614 22.9259 142.763 22.9259C140.45 22.9259 139.752 22.1502 139.752 20.8693V20.6211H141.386V20.8329C141.386 21.5959 141.757 22.0164 142.811 22.0164C143.818 22.0164 144.306 21.6451 144.306 21.0427C144.306 20.5504 143.951 20.2283 143.307 20.0678L141.806 19.6858C140.434 19.3402 139.855 18.8362 139.855 17.7758C139.855 16.5324 141.095 15.9535 142.986 15.9535C145.313 15.9535 145.838 16.939 145.838 17.764V18.0583H144.105Z" fill="#253667"/>
<path fill-rule="evenodd" clip-rule="evenodd" d="M147.131 16.1236H148.869V16.939H148.901C149.274 16.3462 149.953 15.9535 150.959 15.9535C153.051 15.9535 153.9 17.2472 153.9 19.5264C153.9 22.3107 152.334 22.9259 151.075 22.9259C150.089 22.9259 149.342 22.5707 149.003 21.979H148.97V24.9248H147.131V16.1236ZM150.432 21.8698C151.486 21.8698 151.961 21.3005 151.961 19.4633C151.961 17.9598 151.687 17.0139 150.414 17.0139C149.155 17.0139 148.869 17.9481 148.869 19.3648C148.869 20.9538 149.137 21.8698 150.432 21.8698Z" fill="#253667"/>
<path fill-rule="evenodd" clip-rule="evenodd" d="M154.782 15.1894H156.618V13.8583H154.782V15.1894ZM154.782 22.7547H156.618V16.1236H154.782V22.7547Z" fill="#253667"/>
<path fill-rule="evenodd" clip-rule="evenodd" d="M157.383 16.1236H158.643V14.2393H160.482V16.1236H161.975V17.1113H160.482V21.0651C160.482 21.582 160.685 21.7703 161.314 21.7703C161.583 21.7703 161.807 21.7542 161.975 21.7307V22.7151C161.583 22.7911 161.074 22.8264 160.496 22.8264C159.256 22.8264 158.643 22.5814 158.643 21.2256V17.1113H157.383V16.1236Z" fill="#253667"/>
<path fill-rule="evenodd" clip-rule="evenodd" d="M168.998 21.3743C168.998 21.6215 169.203 21.844 169.472 21.844C169.594 21.844 169.71 21.8301 169.781 21.8077V22.668C169.56 22.7429 169.235 22.8263 168.882 22.8263C168.065 22.8263 167.382 22.5952 167.333 21.9532H167.297C166.804 22.6059 166.091 22.9259 165.02 22.9259C163.557 22.9259 162.636 22.3363 162.636 21.064C162.636 19.5862 163.521 19.2802 164.761 18.9838L166.191 18.7002C166.853 18.5643 167.264 18.4284 167.264 17.8495C167.264 17.2471 166.973 16.8651 166.008 16.8651C164.782 16.8651 164.614 17.4932 164.614 18.1331H162.878C162.878 16.7281 163.674 15.9502 166.091 15.9502C167.705 15.9502 168.998 16.4071 168.998 17.5799V21.3743ZM167.264 19.2556C166.787 19.5263 165.768 19.6857 165.224 19.8698C164.696 20.0571 164.477 20.4508 164.477 20.9441C164.477 21.4963 164.847 21.9414 165.613 21.9414C166.721 21.9414 167.264 21.3368 167.264 20.3642V19.2556Z" fill="#253667"/>
<path fill-rule="evenodd" clip-rule="evenodd" d="M170.682 22.7547H172.518V13.9557H170.682V22.7547Z" fill="#253667"/>
<path fill-rule="evenodd" clip-rule="evenodd" d="M61.8073 28.2644H64.2898L67.485 37.0624H65.4636L64.7135 34.9062H61.1588L60.3777 37.0624H58.3553L61.8073 28.2644ZM64.3925 33.7869L62.9982 29.4479H62.9629L61.5184 33.7869H64.3925Z" fill="#253667"/>
<path fill-rule="evenodd" clip-rule="evenodd" d="M72.2285 32.3702V32.199C72.2285 31.6683 71.9728 31.175 71.0215 31.175C70.2896 31.175 69.7118 31.42 69.7118 32.0374C69.7118 32.5543 70.0381 32.7618 71.0054 33.0101L72.1793 33.3065C73.5393 33.6372 74.1685 34.1679 74.1685 35.2144C74.1685 36.6333 72.7411 37.2357 70.8888 37.2357C68.5754 37.2357 67.8777 36.4599 67.8777 35.1791V34.9308H69.5106V35.1427C69.5106 35.9067 69.884 36.3241 70.938 36.3241C71.9407 36.3241 72.434 35.956 72.434 35.3503C72.434 34.857 72.0755 34.5371 71.4292 34.3787L69.9354 33.9967C68.555 33.6511 67.9793 33.1471 67.9793 32.0866C67.9793 30.8411 69.2185 30.2622 71.1071 30.2622C73.4366 30.2622 73.9641 31.2488 73.9641 32.0738V32.3702H72.2285Z" fill="#253667"/>
<path fill-rule="evenodd" clip-rule="evenodd" d="M79.2042 32.3702V32.199C79.2042 31.6683 78.9474 31.175 77.9939 31.175C77.2642 31.175 76.6831 31.42 76.6831 32.0374C76.6831 32.5543 77.0095 32.7618 77.9779 33.0101L79.1496 33.3065C80.5128 33.6372 81.142 34.1679 81.142 35.2144C81.142 36.6333 79.7146 37.2357 77.8559 37.2357C75.5478 37.2357 74.8491 36.4599 74.8491 35.1791V34.9308H76.483V35.1427C76.483 35.9067 76.8543 36.3241 77.9105 36.3241C78.9131 36.3241 79.4053 35.956 79.4053 35.3503C79.4053 34.857 79.0479 34.5371 78.4027 34.3787L76.9068 33.9967C75.5285 33.6511 74.9496 33.1471 74.9496 32.0866C74.9496 30.8411 76.193 30.2622 78.0795 30.2622C80.4101 30.2622 80.9366 31.2488 80.9366 32.0738V32.3702H79.2042Z" fill="#253667"/>
<path fill-rule="evenodd" clip-rule="evenodd" d="M85.2703 30.2622C87.9401 30.2622 88.6902 31.6918 88.6902 33.7495C88.6902 35.8083 87.8213 37.2357 85.2703 37.2357C82.7407 37.2357 81.8718 35.8083 81.8718 33.7495C81.8718 31.6918 82.6198 30.2622 85.2703 30.2622ZM85.2703 36.2513C86.6132 36.2513 86.855 35.438 86.855 33.7495C86.855 32.2803 86.6132 31.2488 85.2703 31.2488C83.9445 31.2488 83.7059 32.2803 83.7059 33.7495C83.7059 35.438 83.9445 36.2513 85.2703 36.2513Z" fill="#253667"/>
<path fill-rule="evenodd" clip-rule="evenodd" d="M96.0008 34.6483C95.882 36.2373 95.133 37.2357 92.8741 37.2357C90.2204 37.2357 89.4735 35.8083 89.4735 33.7495C89.4735 31.6918 90.2204 30.2622 92.8741 30.2622C95.6124 30.2354 96.02 31.8127 96.02 32.6409H94.1838C94.1838 32.0224 93.9441 31.2252 92.8741 31.2488C91.5451 31.2488 91.3054 32.2803 91.3054 33.7495C91.3054 35.2144 91.5451 36.2513 92.8741 36.2513C93.8949 36.262 94.2684 35.6445 94.2684 34.6483H96.0008Z" fill="#253667"/>
<path fill-rule="evenodd" clip-rule="evenodd" d="M96.8493 29.4981H98.6888V28.1659H96.8493V29.4981ZM96.8493 37.0623H98.6888V30.4344H96.8493V37.0623Z" fill="#253667"/>
<path fill-rule="evenodd" clip-rule="evenodd" d="M106.273 35.683C106.273 35.9291 106.473 36.1528 106.746 36.1528C106.866 36.1528 106.985 36.1378 107.052 36.1153V36.9767C106.832 37.0506 106.512 37.1372 106.151 37.1372C105.337 37.1372 104.655 36.9029 104.607 36.263H104.57C104.076 36.9168 103.362 37.2357 102.294 37.2357C100.833 37.2357 99.9118 36.6461 99.9118 35.3759C99.9118 33.8982 100.798 33.5889 102.037 33.2936L103.467 33.01C104.129 32.872 104.537 32.7382 104.537 32.1615C104.537 31.5548 104.249 31.1749 103.277 31.1749C102.055 31.1749 101.885 31.803 101.885 32.444H100.147C100.147 31.0369 100.949 30.2643 103.362 30.2643C104.981 30.2643 106.273 30.7169 106.273 31.8886V35.683ZM104.537 33.5633C104.061 33.8329 103.04 33.9966 102.498 34.1796C101.97 34.3658 101.75 34.7585 101.75 35.2518C101.75 35.8082 102.124 36.2512 102.888 36.2512C103.993 36.2512 104.537 35.6445 104.537 34.6729V33.5633Z" fill="#253667"/>
<path fill-rule="evenodd" clip-rule="evenodd" d="M107.052 30.4345H108.313V28.5491H110.149V30.4345H111.646V31.4222H110.149V35.376C110.149 35.8918 110.352 36.0769 110.982 36.0769C111.257 36.0769 111.475 36.0651 111.646 36.0405V37.026C111.257 37.0999 110.745 37.1362 110.167 37.1362C108.923 37.1362 108.313 36.8912 108.313 35.5344V31.4222H107.052V30.4345Z" fill="#253667"/>
<path fill-rule="evenodd" clip-rule="evenodd" d="M112.75 29.4981H114.585V28.1659H112.75V29.4981ZM112.75 37.0623H114.585V30.4344H112.75V37.0623Z" fill="#253667"/>
<path fill-rule="evenodd" clip-rule="evenodd" d="M119.212 30.2622C121.881 30.2622 122.627 31.6918 122.627 33.7495C122.627 35.8083 121.763 37.2357 119.212 37.2357C116.675 37.2357 115.81 35.8083 115.81 33.7495C115.81 31.6918 116.555 30.2622 119.212 30.2622ZM119.212 36.2513C120.554 36.2513 120.792 35.438 120.792 33.7495C120.792 32.2803 120.554 31.2488 119.212 31.2488C117.884 31.2488 117.647 32.2803 117.647 33.7495C117.647 35.438 117.884 36.2513 119.212 36.2513Z" fill="#253667"/>
<path fill-rule="evenodd" clip-rule="evenodd" d="M123.77 30.4345H125.503V31.2113H125.553C126.013 30.6175 126.88 30.2622 127.899 30.2622C129.294 30.2622 130.176 30.717 130.176 32.061V37.0624H128.341V32.5168C128.341 31.6543 127.986 31.3226 127.065 31.3226C126.318 31.3226 125.605 31.7539 125.605 32.612V37.0624H123.77V30.4345Z" fill="#253667"/>
<path fill-rule="evenodd" clip-rule="evenodd" d="M133.708 31.6736V29.1782H134.497L134.952 30.8957L135.408 29.1782H136.197V31.6736H135.716V29.6844L135.176 31.6736H134.72L134.183 29.6844V31.6736H133.708ZM132.151 31.6736V29.6105H131.381V29.1782H133.407V29.6105H132.656V31.6736H132.151Z" fill="#253667"/>
</svg>
