<svg width="83" height="83" viewBox="0 0 83 83" fill="none" xmlns="http://www.w3.org/2000/svg">
<path d="M7.38203 39.494H11.7734C12.1156 39.494 12.4362 39.6597 12.638 39.9371C12.8361 40.2145 12.8901 40.5711 12.7821 40.8954C11.6041 44.4006 9.59754 47.6321 6.97852 50.2294C6.85604 50.3519 6.82722 50.5032 6.89926 50.6581C6.97491 50.8166 7.11181 50.8958 7.28833 50.8778C14.2266 50.1681 20.4189 46.1117 23.8487 40.0341C24.0396 39.6991 24.3927 39.4938 24.7745 39.4938H44.6272C48.698 39.4938 52.0086 36.1831 52.0086 32.1122V7.38512C52.0086 3.31426 48.698 0.0036025 44.6272 0.0036025L7.38138 0C3.3106 0 0 3.31066 0 7.38152V32.1086C0 36.1795 3.3106 39.4902 7.38138 39.4902L7.38203 39.494ZM41.6841 15.3571C44.105 15.3571 46.0755 17.3277 46.0755 19.7485C46.0755 22.1658 44.1086 24.1328 41.6841 24.1328C39.2669 24.1328 37.3 22.1658 37.3 19.7485C37.3 17.3277 39.2669 15.3571 41.6841 15.3571ZM26.0026 15.3571C28.4235 15.3571 30.394 17.3277 30.394 19.7485C30.394 22.1658 28.4235 24.1328 26.0026 24.1328C23.5854 24.1328 21.6185 22.1658 21.6185 19.7485C21.6185 17.3277 23.5854 15.3571 26.0026 15.3571ZM10.3248 15.3571C12.7421 15.3571 14.709 17.3277 14.709 19.7485C14.709 22.1658 12.7421 24.1328 10.3248 24.1328C7.90401 24.1328 5.9335 22.1658 5.9335 19.7485C5.9335 17.3277 7.90401 15.3571 10.3248 15.3571ZM8.05895 19.7485C8.05895 18.4984 9.07487 17.4826 10.3248 17.4826C11.5713 17.4826 12.5836 18.4985 12.5836 19.7485C12.5836 20.995 11.5712 22.0073 10.3248 22.0073C9.07478 22.0073 8.05895 20.9914 8.05895 19.7485ZM23.7441 19.7485C23.7441 18.4984 24.76 17.4826 26.0028 17.4826C27.2529 17.4826 28.2687 18.4985 28.2687 19.7485C28.2687 20.995 27.2528 22.0073 26.0028 22.0073C24.7564 22.0073 23.7441 20.9914 23.7441 19.7485ZM39.4256 19.7485C39.4256 18.4984 40.4415 17.4826 41.6843 17.4826C42.9344 17.4826 43.9502 18.4985 43.9502 19.7485C43.9502 20.995 42.9343 22.0073 41.6843 22.0073C40.4378 22.0073 39.4256 20.9914 39.4256 19.7485ZM75.6192 32.1232H54.1378C54.1306 37.3612 49.869 41.6195 44.6306 41.6195H30.9956V64.2356C30.9956 68.3064 34.3062 71.6171 38.3769 71.6171H58.2296C58.6115 71.6171 58.9681 71.826 59.1555 72.1575C62.5922 78.2385 68.7844 82.291 75.7195 82.9975C75.8924 83.0155 76.0293 82.9362 76.105 82.7813C76.177 82.6264 76.1482 82.4751 76.0257 82.3526C73.3995 79.7516 71.393 76.5238 70.2186 73.0149C70.1105 72.6907 70.1645 72.3341 70.3627 72.0566C70.5644 71.7793 70.885 71.6135 71.2273 71.6135H75.6186C79.6894 71.6135 83 68.3029 83 64.232V39.5049C83 35.4341 79.6863 32.1232 75.6192 32.1232ZM41.3171 56.2564C38.8962 56.2564 36.9257 54.2894 36.9257 51.8721C36.9257 49.4512 38.8962 47.4807 41.3171 47.4807C43.7343 47.4807 45.7012 49.4512 45.7012 51.8721C45.7012 54.2894 43.7343 56.2564 41.3171 56.2564ZM56.9949 56.2564C54.5776 56.2564 52.6107 54.2894 52.6107 51.8721C52.6107 49.4512 54.5776 47.4807 56.9949 47.4807C59.4157 47.4807 61.3862 49.4512 61.3862 51.8721C61.3862 54.2894 59.4157 56.2564 56.9949 56.2564ZM72.6764 56.2564C70.2591 56.2564 68.2922 54.2894 68.2922 51.8721C68.2922 49.4512 70.2591 47.4807 72.6764 47.4807C75.0972 47.4807 77.0677 49.4512 77.0677 51.8721C77.0677 54.2894 75.0972 56.2564 72.6764 56.2564ZM74.9423 51.8721C74.9423 53.1186 73.9264 54.1309 72.6764 54.1309C71.4299 54.1309 70.4177 53.1185 70.4177 51.8721C70.4177 50.622 71.43 49.6062 72.6764 49.6062C73.9264 49.6062 74.9423 50.6221 74.9423 51.8721ZM59.2571 51.8721C59.2571 53.1186 58.2412 54.1309 56.9912 54.1309C55.7447 54.1309 54.7325 53.1185 54.7325 51.8721C54.7325 50.622 55.7448 49.6062 56.9912 49.6062C58.2413 49.6062 59.2571 50.6221 59.2571 51.8721ZM43.5756 51.8721C43.5756 53.1186 42.5597 54.1309 41.3169 54.1309C40.0668 54.1309 39.051 53.1185 39.051 51.8721C39.051 50.622 40.0669 49.6062 41.3169 49.6062C42.5634 49.6062 43.5756 50.6221 43.5756 51.8721Z" fill="white"/>
</svg>
