<svg width="1672" height="198" viewBox="0 0 1672 198" fill="none" xmlns="http://www.w3.org/2000/svg">
<path d="M1647.4 72H1575.6V55.4H1639.8C1643.4 55.4 1647.3 54.4 1647.3 50.1C1647.3 45.7 1643.5 44.8 1639.8 44.8H1596.5C1584.1 44.8 1574.3 34.9 1574.3 22.4C1574.3 9.9 1584 0.1 1596.5 0.1H1668.9V16.7H1604.2C1600.9 16.7 1598.1 18 1598.1 21.6C1598.1 25.2 1601.2 26.5 1604.2 26.5H1647.4C1660.6 26.5 1671.4 35.7 1671.4 49.3C1671.4 62.9 1660.7 72 1647.4 72ZM1501.3 72C1480.4 72 1462.7 57.8 1462.7 36C1462.7 14.1 1480.3 0 1501.3 0H1560.4V17.3H1508.2C1496.8 17.3 1487 23.8 1487 36.1C1487 48.3 1496.9 54.8 1508.2 54.8H1560.4V72H1501.3ZM1426.2 72H1450V0H1426.2V72ZM1387.8 72V17.4H1387.2L1356.4 72H1333.4L1303.3 17.4H1302.7V72H1280V0H1317.8L1345.2 50.6H1345.7L1372.9 0H1410.4V72H1387.8ZM1207.7 13H1206.9L1189.3 41.2H1225.5L1207.7 13ZM1243.9 72L1235 58.3H1179L1170.7 72H1143.5L1190.7 0H1225.7L1272.7 72H1243.9ZM1109.1 72L1062.2 21.7H1061.9V72H1039.2L1039.1 0H1072.2L1115.6 46.8H1115.9V0H1137.7V72H1109.1ZM985 46.9V72H961.3V47.1L914.7 0H945.4L974.5 28.6L1003.5 0H1032L985 46.9ZM873.4 17.3H835.6V54.7H873.4C884.8 54.7 894.6 48.3 894.6 36C894.6 23.8 884.8 17.3 873.4 17.3ZM880.2 72H811.9V0H880.2C901.3 0 918.8 14.1 918.8 36C918.8 57.8 901.2 72 880.2 72ZM668.7 72V0H692.5V54.7H751.1V72H668.7ZM596.4 13H595.6L578 41.2H614.2L596.4 13ZM632.6 72L623.7 58.3H567.7L559.4 72H532.2L579.4 0H614.4L661.4 72H632.6ZM493 16.2H453.9V33.3H493C498.4 33.3 503.7 30.8 503.7 24.8C503.6 18.6 498.5 16.2 493 16.2ZM508.5 47.3C514.7 55.6 521 63.8 527.1 72H499.9L483.6 49.5H453.9V72H430V0H497.8C513.7 0 528.4 7.3 528.4 25C528.3 37.8 520.1 44.6 508.5 47.3ZM332.6 72V0H415.5V17.3H356.4V27.4H415.5V43.2H356.4V54.8H415.5V72H332.6ZM288.7 72L240.2 15.7H240V72H217.2V0H254.4L294.6 46.8H294.9V0H316.7V72H288.7ZM119.7 72V0H202.7V17.3H143.5V27.4H202.7V43.2H143.5V54.8H202.7V72H119.7ZM38.6 72C17.6 72 0 57.8 0 36C0 14.1 17.5 0 38.6 0H103.8V17.3H45.4C34 17.3 24.2 23.8 24.2 36.1C24.2 48.3 34.1 54.8 45.4 54.8H80V43.1H54.3V27.3H103.8V72H38.6ZM1062.2 124.2L1080 168.4L1097.7 124.2H1104.5L1075.3 197.2H1068.3L1076.3 177L1054.4 124.2H1062.2ZM1023 128.4C1011.5 128.4 1006.7 140 1006.7 149.7C1006.7 159.4 1011.6 171.1 1023.2 171.1C1035.3 171.1 1039.9 159.8 1039.9 149.5C1039.9 139.3 1034.3 128.4 1023 128.4ZM1040.2 124.2H1046.7C1046.5 127.8 1046.2 132 1046.2 136.1V167.8C1046.2 178.3 1046.7 189.4 1035 194.9C1030.8 196.9 1028 197.3 1023 197.3C1013.4 197.3 1002.1 194 1002.1 183.1H1008.9C1009.6 189.4 1017.1 191.5 1023.8 191.5C1032 191.5 1039.6 185.7 1039.8 176.9V167H1039.6C1036.5 173.2 1029.3 176.9 1022.4 176.9C1006.5 176.9 999.7 164.8 999.7 150.3C999.7 136 1006.1 122.7 1022.2 122.7C1029.9 122.7 1035.4 126.4 1039.6 132.5L1039.8 132.1L1040.2 124.2ZM965.8 128.4C953.1 128.4 948 140.8 948 150.6C948 160.4 953.1 172.8 965.8 172.8C978.6 172.8 983.6 160.4 983.6 150.6C983.6 140.8 978.6 128.4 965.8 128.4ZM990.5 150.6C990.5 164.5 982.7 178.6 965.9 178.6C949.1 178.6 941.3 164.5 941.3 150.6C941.3 136.7 949.1 122.6 965.9 122.6C982.7 122.6 990.5 136.7 990.5 150.6ZM921.7 177H928V101H921.7V177ZM883.9 128.4C871.2 128.4 866.1 140.8 866.1 150.6C866.1 160.4 871.2 172.8 883.9 172.8C896.6 172.8 901.7 160.4 901.7 150.6C901.7 140.8 896.7 128.4 883.9 128.4ZM908.6 150.6C908.6 164.5 900.8 178.6 884 178.6C867.2 178.6 859.4 164.5 859.4 150.6C859.4 136.7 867.2 122.6 884 122.6C900.8 122.6 908.6 136.7 908.6 150.6ZM810.9 177H804.6V136.1C804.6 132 804.3 127.8 804.1 124.2H810.6L810.9 132L811.1 132.2C814.8 125.7 820.8 122.6 827.6 122.6C844.9 122.6 846.2 137.9 846.2 144V177H839.9V142.9C839.9 133.7 834.6 128.4 826 128.4C815.6 128.4 810.8 137.1 810.8 146.6V177H810.9ZM752.4 132.2H752.6C756.3 125.7 762.3 122.6 769.1 122.6C786.4 122.6 787.7 137.9 787.7 144V177H781.4V142.9C781.4 133.7 776.1 128.4 767.5 128.4C757.1 128.4 752.3 137.1 752.3 146.6V177H746V101H752.3V132.2H752.4ZM726.8 140.4C726.3 132.3 721.1 128.4 712.4 128.4C702.7 128.4 696.7 138.5 696.7 150.5C696.7 162.6 702.7 172.8 712.4 172.8C720.6 172.8 726.3 167.7 726.8 160.5H733.6C731.9 172.6 725 178.6 713 178.6C697.2 178.6 689.8 165 689.8 150.6C689.8 136.3 697.7 122.6 713.4 122.6C724.2 122.6 733.1 129.1 733.6 140.4H726.8ZM672.6 146.3C671.9 136.1 666.4 128.4 655.4 128.4C645.1 128.4 639.6 137 638.8 146.3H672.6ZM638.6 152.1C638.8 163.4 644 172.8 656.9 172.8C664.4 172.8 670.6 167.4 672.2 160.2H678.8C675.5 172.8 667.6 178.6 654.9 178.6C639.1 178.6 631.7 165 631.7 150.6C631.7 136.3 639.6 122.6 655.3 122.6C673 122.6 679.4 135.5 679.4 152.1H638.6ZM594 107.3H569.5V101H625V107.3H600.9L600.8 177H594.1L594 107.3ZM494.9 177H488.6V136.1C488.6 132 488.3 127.8 488.1 124.2H494.6L494.9 132L495.1 132.2C498.8 125.7 504.8 122.6 511.6 122.6C528.9 122.6 530.2 137.9 530.2 144V177H524V142.9C524 133.7 518.7 128.4 510.1 128.4C499.7 128.4 494.9 137.1 494.9 146.6V177ZM450.9 128.4C438.2 128.4 433.1 140.8 433.1 150.6C433.1 160.4 438.2 172.8 450.9 172.8C463.6 172.8 468.7 160.4 468.7 150.6C468.7 140.8 463.6 128.4 450.9 128.4ZM475.5 150.6C475.5 164.5 467.7 178.6 450.9 178.6C434.1 178.6 426.3 164.5 426.3 150.6C426.3 136.7 434.1 122.6 450.9 122.6C467.8 122.6 475.5 136.7 475.5 150.6ZM406.8 177H413.1V124.2H406.8V177ZM406.3 108.9H413.7V101H406.3V108.9ZM376.2 129.9H365.7V124.1H376.2V112.8L382.5 110.1V124.1H394.5V129.9H382.5V165.3C382.4 170.1 384.9 172.8 389.8 172.8C391.7 172.8 393.6 172.7 395.3 172.2V177.7C393.3 178.2 391 178.6 388.9 178.6C375.5 178.6 376.3 170.1 376.3 162.9V129.9H376.2ZM333.1 172.8C346.9 172.8 349.5 161.4 348.9 150.4C340 150.7 321.2 149 321.2 162.3C321.2 169.4 326.7 172.8 333.1 172.8ZM348.9 139.7C348.3 131.1 343.8 128.3 336.4 128.3C329.8 128.3 324.3 130.3 323.5 137.5H316.8C318.4 126.7 326.5 122.5 336.6 122.5C348.3 122.5 355.5 127.9 355.3 140V165C355.2 169.1 355.6 173.3 355.8 176.9H349.3L349.1 169.1H348.9L348.6 169.8C346.3 174.2 339.2 178.4 332.1 178.4C322.3 178.4 314.5 172.4 314.5 162.1C314.5 154.9 318.8 149.5 325.1 146.8C332.1 143.7 341.3 144.8 349 144.4V139.7H348.9ZM231.7 132L231.9 132.2C235.6 125.7 241.6 122.6 248.4 122.6C256.7 122.6 263.2 127.2 265.6 134.2C269.5 128 275.6 122.6 283.8 122.6C301.1 122.6 302.4 137.9 302.4 144V177H296.1V142.9C296.1 133.7 290.8 128.4 282.2 128.4C271.8 128.4 267 137.1 267 146.6V177H260.7V142.9C260.7 133.7 255.4 128.4 246.8 128.4C236.4 128.4 231.6 137.1 231.6 146.6V177H225.3V136.1C225.3 132 225 127.8 224.8 124.2H231.3L231.7 132ZM196.7 177H190.4V136.1C190.5 132 190.1 127.8 189.9 124.2H196.4L196.7 132H196.9C198.8 126.6 203.5 122.8 208.8 122.6C210.9 122.5 213 122.6 215.1 122.7V128.8C213.8 128.7 212.5 128.4 211.2 128.4C201.8 128.4 196.9 135.1 196.7 145.2V177ZM152.7 128.4C140 128.4 134.9 140.8 134.9 150.6C134.9 160.4 140 172.8 152.7 172.8C165.4 172.8 170.5 160.4 170.5 150.6C170.5 140.8 165.5 128.4 152.7 128.4ZM177.3 150.6C177.3 164.5 169.5 178.6 152.7 178.6C135.9 178.6 128.1 164.5 128.1 150.6C128.1 136.7 135.9 122.6 152.7 122.6C169.5 122.6 177.3 136.7 177.3 150.6ZM101.4 177V129.9H90.7V124.1H101.3V112.8C101.3 103.7 105 99.6 114 99.6C116 99.6 118.1 100.3 120 100.8V105.9C118.7 105.7 117.4 105.5 116.1 105.5C107.5 105.5 107.3 109.8 107.6 117.4V124.1H119.6V129.9H107.6V177H101.4ZM44.6 177H38.3V136.1C38.3 132 38 127.8 37.8 124.2H44.3L44.6 132L44.8 132.2C48.5 125.7 54.5 122.6 61.3 122.6C78.6 122.6 79.9 137.9 79.9 144V177H73.6V142.9C73.6 133.7 68.3 128.4 59.7 128.4C49.3 128.4 44.5 137.1 44.5 146.6V177H44.6ZM11.9 177H18.7V100.7H11.9V177Z" fill="#727678"/>
</svg>
