<svg width="84" height="94" viewBox="0 0 84 94" fill="none" xmlns="http://www.w3.org/2000/svg">
<path fill-rule="evenodd" clip-rule="evenodd" d="M42.832 17.0661C48.9336 17.3083 54.719 19.8395 59.035 24.1599C63.3514 28.4763 65.8827 34.2649 66.1209 40.3669H57.742C57.7928 40.1247 57.824 39.8825 57.8319 39.6364C57.8319 37.0778 55.7577 35.0075 53.203 35.0075C50.6444 35.0075 48.5702 37.0778 48.5702 39.6364C48.5702 39.8942 48.5936 40.1521 48.6327 40.406H42.8319V33.2068C42.8201 32.8318 42.6014 32.4958 42.2615 32.3357C41.9881 32.2068 41.6756 32.2068 41.4022 32.3357C41.0154 32.5505 40.574 32.6638 40.1327 32.656C39.3905 32.7029 38.66 32.4372 38.1171 31.9294C37.5741 31.4177 37.2694 30.7067 37.2694 29.9606C37.2694 29.2184 37.5741 28.5036 38.1171 27.9958C38.66 27.4841 39.3905 27.2224 40.1327 27.2654C40.5584 27.2615 40.9803 27.363 41.3632 27.5583C41.66 27.7185 42.0194 27.7146 42.3163 27.5505C42.6132 27.3865 42.8085 27.0857 42.8319 26.7458L42.832 17.0661ZM30.883 71.2461H52.832C55.7539 71.2461 58.1211 73.6133 58.1211 76.5352C58.1211 79.4571 55.7539 81.8282 52.832 81.8282H30.883C27.9611 81.8282 25.5939 79.4571 25.5939 76.5352C25.5939 73.6133 27.9611 71.2461 30.883 71.2461ZM65.324 19.2461L71.2029 13.3672C71.5623 12.9805 71.5623 12.3828 71.2029 11.9961C70.8162 11.6367 70.2185 11.6367 69.8318 11.9961L63.9529 17.8359C63.5896 18.2226 63.5896 18.8203 63.9529 19.207C64.3357 19.5703 64.9373 19.5703 65.3201 19.207L65.324 19.2461ZM42.832 9.07811C42.7187 9.52342 42.3203 9.83202 41.8633 9.83202C41.4023 9.83202 41.0039 9.52343 40.8906 9.07811V0.75781C41.0039 0.3125 41.4023 0 41.8633 0C42.3203 0 42.7187 0.3125 42.832 0.75781V9.07811ZM19.711 17.8359C20.0743 18.2226 20.0743 18.8203 19.711 19.207C19.3282 19.5703 18.7266 19.5703 18.3438 19.207L12.4649 13.3281H12.461C12.1016 12.9414 12.1016 12.3398 12.461 11.957C12.8477 11.5937 13.4454 11.5937 13.8321 11.957L19.711 17.8359ZM9.58201 40.3669C10.0156 40.4841 10.3203 40.8786 10.3203 41.3317C10.3203 41.781 10.0156 42.1794 9.58201 42.2966H1.26171C0.96093 42.3786 0.64062 42.3161 0.39062 42.1247C0.14453 41.9372 0 41.6442 0 41.3317C0 41.0192 0.14453 40.7263 0.39062 40.5388C0.64062 40.3474 0.96093 40.2849 1.26171 40.3669L9.58201 40.3669ZM18.3437 63.4569C18.7343 63.2304 19.2265 63.2929 19.5468 63.6132C19.8671 63.9296 19.9335 64.4257 19.7109 64.8163L13.832 70.6952C13.4453 71.0584 12.8476 71.0584 12.4609 70.6952C12.1054 70.3123 12.1054 69.7186 12.4609 69.3358L18.3398 63.4569L18.3437 63.4569ZM63.9527 64.8163C63.73 64.4257 63.7965 63.9296 64.1168 63.6132C64.4371 63.2929 64.9293 63.2304 65.3199 63.457L71.1988 69.3359H71.2027C71.5581 69.7187 71.5581 70.3124 71.2027 70.6953C70.816 71.0585 70.2183 71.0585 69.8316 70.6953L63.9527 64.8163ZM74.0817 42.2963C73.6481 42.1791 73.3434 41.7807 73.3434 41.3315C73.3434 40.8783 73.6481 40.4838 74.0817 40.3666H82.402C82.7028 40.2846 83.0231 40.3471 83.2731 40.5385C83.5192 40.726 83.6637 41.019 83.6637 41.3315C83.6637 41.644 83.5192 41.9369 83.2731 42.1244C83.0231 42.3159 82.7028 42.3784 82.402 42.2963L74.0817 42.2963ZM66.0817 42.2963H56.4098C56.0348 42.2885 55.695 42.0736 55.5309 41.7377C55.402 41.4643 55.402 41.1479 55.5309 40.8744C55.7457 40.4955 55.8668 40.0697 55.8825 39.6361C55.8825 38.9213 55.5973 38.2338 55.0934 37.7259C54.5856 37.2181 53.8981 36.933 53.1832 36.933C52.4644 36.933 51.777 37.2181 51.273 37.7259C50.7652 38.2337 50.48 38.9212 50.48 39.6361C50.48 40.0619 50.5816 40.4838 50.773 40.8666C50.9722 41.2104 50.9488 41.644 50.7105 41.9643C50.5269 42.1948 50.2457 42.3315 49.9527 42.3354H42.8316V48.1557C43.0816 48.1089 43.3355 48.0854 43.5933 48.0854C46.148 48.0854 48.2222 50.1596 48.2222 52.7143C48.2222 55.2729 46.148 57.3471 43.5933 57.3471C43.3355 57.3471 43.0816 57.3276 42.8316 57.2846V69.3076H52.8316C53.4253 69.3076 54.0152 69.3818 54.5933 69.5264V68.6357C54.5386 64.8975 56.0581 61.3076 58.7808 58.7451C63.2691 54.4131 65.9058 48.5111 66.1402 42.2761L66.0817 42.2963ZM40.8317 69.3083V55.9063C40.8473 55.5743 41.0309 55.2696 41.32 55.0977C41.6052 54.9297 41.9606 54.9141 42.2614 55.0587C43.1012 55.5157 44.1208 55.5001 44.9411 55.0118C45.7653 54.5196 46.2653 53.6329 46.2614 52.6759C46.2614 51.961 45.9762 51.2736 45.4723 50.7657C44.9645 50.2618 44.277 49.9766 43.5621 49.9766C43.1325 49.9766 42.7106 50.0782 42.3316 50.2774C42.1832 50.3712 42.0074 50.418 41.8316 50.418C41.5543 50.4141 41.2887 50.293 41.1012 50.086C40.9488 49.9063 40.8629 49.6797 40.8629 49.4454V42.297H35.0504C35.0934 42.547 35.1129 42.8009 35.1129 43.0587C35.1129 44.2892 34.6246 45.4689 33.7535 46.336C31.941 48.1329 29.023 48.1329 27.2105 46.336C26.3316 45.4727 25.8355 44.2891 25.8316 43.0587C25.8316 42.8009 25.855 42.547 25.9019 42.297H17.5699C17.8082 48.5314 20.4449 54.434 24.9332 58.766C27.648 61.3246 29.1676 64.9066 29.1207 68.6371V69.5082C29.6988 69.3636 30.2887 69.2894 30.8824 69.2855L40.8317 69.3083ZM17.5697 40.3673H27.2533C27.5931 40.3829 27.9017 40.5743 28.0697 40.8751C28.2377 41.172 28.2416 41.5353 28.0814 41.8361C27.8822 42.215 27.7807 42.6329 27.7807 43.0588C27.765 43.8986 28.14 44.7033 28.7963 45.2268C29.4564 45.7502 30.3236 45.9377 31.1401 45.7346C31.9565 45.5275 32.6323 44.9533 32.9643 44.1799C33.2924 43.4064 33.2455 42.5197 32.8315 41.7854C32.6908 41.4846 32.7104 41.1369 32.8783 40.8518C33.0502 40.5666 33.351 40.3869 33.683 40.3674H40.8314V34.5471C40.5814 34.5862 40.3275 34.6057 40.0697 34.6057C37.515 34.6057 35.4408 32.5354 35.4408 29.9768C35.4408 27.4182 37.515 25.3479 40.0697 25.3479C40.3275 25.3518 40.5814 25.3752 40.8314 25.4182V17.0666C34.7298 17.3088 28.9444 19.84 24.6284 24.1604C20.312 28.4768 17.7807 34.2654 17.5425 40.3674L17.5697 40.3673ZM53.4917 83.7263C52.4683 89.363 47.562 93.4646 41.8317 93.4646C36.1014 93.4646 31.1947 89.363 30.1717 83.7263H30.8827H52.8316C53.0231 83.7654 53.2612 83.7458 53.4917 83.7263Z" fill="white"/>
</svg>
